<?xml version="1.0" standalone="no"?>
<!DOCTYPE svg PUBLIC "-//W3C//DTD SVG 1.1//EN" "http://www.w3.org/Graphics/SVG/1.1/DTD/svg11.dtd" >
<svg xmlns="http://www.w3.org/2000/svg" xmlns:xlink="http://www.w3.org/1999/xlink" version="1.1">
<metadata>
Created by FontForge 20170731 at Tue May 15 23:49:08 2018
 By Aleksey,,,
Copyright (c) 2018 by atipo. All rights reserved.
</metadata>
<defs>
<font id="BasierCircle-Bold" horiz-adv-x="574" >
  <font-face 
    font-family="Basier Circle"
    font-weight="700"
    font-stretch="normal"
    units-per-em="1000"
    panose-1="0 0 8 0 0 0 0 0 0 0"
    ascent="800"
    descent="-200"
    x-height="523"
    cap-height="700"
    bbox="-201 -245 1184 972"
    underline-thickness="50"
    underline-position="-350"
    unicode-range="U+0020-25FC"
  />
<missing-glyph horiz-adv-x="940" 
 />
    <glyph glyph-name=".notdef" horiz-adv-x="940" 
 />
    <glyph glyph-name=".null" horiz-adv-x="0" 
 />
    <glyph glyph-name="nonmarkingreturn" horiz-adv-x="333" 
 />
    <glyph glyph-name="space" unicode=" " horiz-adv-x="280" 
 />
    <glyph glyph-name="exclam" unicode="!" horiz-adv-x="250" 
d="M182 222h-117l-21 382v96h164v-96zM125 -9q-44 0 -67 23.5t-23 66.5q0 42 23 65.5t67 23.5q43 0 66.5 -24t23.5 -65q0 -42 -23.5 -66t-66.5 -24z" />
    <glyph glyph-name="quotedbl" unicode="&#x22;" horiz-adv-x="436" 
d="M170 420h-104l-26 157v123h156v-123zM370 420h-104l-26 157v123h156v-123z" />
    <glyph glyph-name="numbersign" unicode="#" horiz-adv-x="705" 
d="M655 533v-134h-111l-18 -103h79v-134h-101l-28 -162h-142l28 162h-88l-28 -162h-142l28 162h-82v134h104l18 103h-72v134h95l28 167h142l-28 -167h88l28 167h142l-28 -167h88zM296 296h88l18 103h-88z" />
    <glyph glyph-name="dollar" unicode="$" horiz-adv-x="632" 
d="M607 206q0 -93 -60.5 -148.5t-181.5 -64.5v-83h-98v83q-114 12 -177.5 76.5t-69.5 170.5h159q8 -84 88 -105v161l-8 2q-108 23 -162 72t-54 138q0 80 61 134q61 53 163 64v84h98v-84q102 -14 165 -75t65 -150h-159q-4 63 -71 81v-136l13 -3q115 -25 172 -75t57 -142z
M204 508q0 -44 63 -61v118q-63 -13 -63 -57zM365 275v-142q81 13 81 69q0 55 -81 73z" />
    <glyph glyph-name="percent" unicode="%" horiz-adv-x="844" 
d="M329 398q-45 -50 -122 -50t-122 50t-45 132t45 132t122 50t122 -50t45 -132t-45 -132zM246 0h-129v10l474 690h127v-10zM144 530q0 -84 63 -84t63 84t-63 84t-63 -84zM759 41q-45 -50 -122 -50t-122 50q-45 49 -45 132t45 132q45 50 122 50t122 -50q45 -49 45 -132
t-45 -132zM574 173q0 -84 63 -84t63 84t-63 84t-63 -84z" />
    <glyph glyph-name="ampersand" unicode="&#x26;" horiz-adv-x="731" 
d="M545 398h156v-10q-58 -145 -131 -241l124 -137v-10h-181l-43 48q-81 -57 -183 -57q-98 0 -171 53q-71 54 -71 152q0 58 31.5 102t96.5 84q-68 80 -68 146q0 74 56 127q55 54 145 54h2q96 0 151 -51q56 -51 56 -125q0 -50 -32 -91.5t-103 -86.5l94 -103q41 64 71 146z
M307 582h-2q-23 -1 -38 -16.5t-15 -37.5q0 -35 39 -74l4 -4q38 23 52.5 40t14.5 36q0 25 -14.5 40.5t-40.5 15.5zM287 129q48 0 90 24l-117 131q-33 -24 -45 -42.5t-12 -45.5t24 -47t60 -20z" />
    <glyph glyph-name="quotesingle" unicode="'" horiz-adv-x="236" 
d="M170 420h-104l-26 157v123h156v-123z" />
    <glyph glyph-name="parenleft" unicode="(" horiz-adv-x="365" 
d="M205 770h120v-10q-65 -87 -111 -206q-45 -122 -45 -258t45 -258q46 -119 111 -206v-10h-120q-76 82 -129 208q-51 124 -51 266q0 146 51 267t129 207z" />
    <glyph glyph-name="parenright" unicode=")" horiz-adv-x="365" 
d="M40 770h120q78 -86 129 -207t51 -267q0 -143 -52 -266q-51 -125 -128 -208h-120v10q66 88 110 206q46 120 46 258t-46 258q-44 118 -110 206v10z" />
    <glyph glyph-name="asterisk" unicode="*" horiz-adv-x="486" 
d="M306 342h-116l15 124l-4 2l-95 -74l-53 103l118 31v4l-118 33l53 103l95 -70l4 3l-15 119h116l-15 -119l4 -3l95 70l53 -103l-118 -33v-4l118 -31l-53 -103l-95 74l-4 -2z" />
    <glyph glyph-name="plus" unicode="+" horiz-adv-x="496" 
d="M320 60h-140v187h-175v132h175v187h140v-187h171v-132h-171v-187z" />
    <glyph glyph-name="comma" unicode="," horiz-adv-x="238" 
d="M130 -144h-118v10l31 247h169v-10z" />
    <glyph glyph-name="hyphen" unicode="-" horiz-adv-x="466" 
d="M386 224h-306v138h306v-138z" />
    <glyph glyph-name="period" unicode="." horiz-adv-x="250" 
d="M125 -9q-44 0 -67 23.5t-23 66.5q0 42 23 65.5t67 23.5q43 0 66.5 -24t23.5 -65q0 -42 -23.5 -66t-66.5 -24z" />
    <glyph glyph-name="slash" unicode="/" horiz-adv-x="458" 
d="M161 -133h-146v10l281 860h147v-10z" />
    <glyph glyph-name="zero" unicode="0" horiz-adv-x="628" 
d="M40 352q0 164 68 262t206 98t206 -98t68 -262q0 -165 -68 -263t-206 -98t-206 98t-68 263zM431 352q0 117 -27.5 170.5t-89.5 53.5t-89.5 -53.5t-27.5 -170.5q0 -119 27 -172t90 -53t90 53t27 172z" />
    <glyph glyph-name="one" unicode="1" horiz-adv-x="425" 
d="M365 0h-155v545h-4l-161 -120h-10v147l174 128h156v-700z" />
    <glyph glyph-name="two" unicode="2" horiz-adv-x="569" 
d="M534 0h-497v126l229 219q55 52 78 86q22 32 22 69q0 34 -23 55t-62 21q-44 0 -70 -26t-26 -76h-150q0 111 66.5 174.5t179.5 63.5q107 0 174 -58q68 -57 68 -149q0 -54 -28 -103.5t-91 -109.5l-161 -150v-4h291v-138z" />
    <glyph glyph-name="three" unicode="3" horiz-adv-x="603" 
d="M301 -9q-120 0 -196 58q-75 58 -75 170h154q0 -41 28 -67t88 -26q52 0 78.5 23t26.5 62q0 86 -115 86h-61v135h59q95 0 95 75q0 31 -24.5 50.5t-66.5 19.5q-47 0 -71.5 -24.5t-24.5 -68.5h-155q0 104 69 166q71 62 185 62q104 0 175 -53t71 -136q0 -110 -95 -148v-4
q50 -15 83.5 -59t33.5 -99q0 -95 -66 -159q-65 -63 -196 -63z" />
    <glyph glyph-name="four" unicode="4" horiz-adv-x="588" 
d="M485 0h-155v128h-309v148l275 424h189v-436h84v-136h-84v-128zM173 268v-4h157v245h-4z" />
    <glyph glyph-name="five" unicode="5" horiz-adv-x="594" 
d="M296 -9q-112 0 -186 63q-73 64 -73 154h155q6 -36 32 -58.5t72 -22.5q51 0 79 32t28 79q0 44 -28 74t-79 30q-63 0 -100 -49h-149l27 407h432v-137h-306l-11 -133h4q46 37 127 37q104 0 172 -65q67 -64 67 -164q0 -107 -71 -178q-70 -69 -192 -69z" />
    <glyph glyph-name="six" unicode="6" horiz-adv-x="612" 
d="M310 -9q-133 0 -201.5 91t-68.5 257q0 169 72 271t209 102q108 0 172 -58q65 -59 75 -143h-147q-19 64 -100 64q-65 0 -100.5 -45t-35.5 -134h4q57 61 148 61q107 0 171 -69q64 -67 64 -156q0 -103 -71 -172t-191 -69zM310 127q47 0 79 28.5t32 74.5t-30 74t-81 28
q-48 0 -79 -28.5t-31 -73.5q0 -47 30.5 -75t79.5 -28z" />
    <glyph glyph-name="seven" unicode="7" horiz-adv-x="541" 
d="M249 0h-166v10q78 271 285 547v4h-353v139h511v-144q-205 -281 -277 -556z" />
    <glyph glyph-name="eight" unicode="8" horiz-adv-x="602" 
d="M458 373v-4q109 -46 109 -165q0 -101 -73 -156q-74 -56 -193 -57q-119 1 -193 57q-73 55 -73 156q0 119 109 165v4q-42 22 -65 62.5t-23 91.5q0 84 68 134q69 51 177 51q109 0 176 -51q69 -49 69 -134q0 -51 -23 -91.5t-65 -62.5zM212 507q0 -35 24.5 -53.5t64.5 -18.5
q41 0 65 18t24 54q4 44 -42.5 62.5t-93 0t-42.5 -62.5zM301 125q51 1 80 24t29 65q0 40 -29.5 63t-79.5 24q-50 -1 -79.5 -24t-29.5 -63q0 -42 29 -65t80 -24z" />
    <glyph glyph-name="nine" unicode="9" horiz-adv-x="612" 
d="M291 -9q-108 0 -172 58q-65 59 -75 143h147q19 -64 100 -64q65 0 100.5 45t35.5 134h-4q-57 -61 -148 -61q-106 0 -171 68q-64 68 -64 157q0 103 71 172t191 69q133 0 201.5 -91t68.5 -257q0 -169 -72 -271t-209 -102zM302 371q48 0 79 28.5t31 73.5q0 47 -30.5 75
t-79.5 28q-47 0 -79 -28.5t-32 -74.5t30 -74t81 -28z" />
    <glyph glyph-name="colon" unicode=":" horiz-adv-x="238" 
d="M125 305q-44 0 -67 23.5t-23 66.5q0 42 23 65.5t67 23.5q43 0 66.5 -24t23.5 -65q0 -42 -23.5 -66t-66.5 -24zM125 -9q-44 0 -67 23.5t-23 66.5q0 42 23 65.5t67 23.5q43 0 66.5 -24t23.5 -65q0 -42 -23.5 -66t-66.5 -24z" />
    <glyph glyph-name="semicolon" unicode=";" horiz-adv-x="238" 
d="M125 305q-44 0 -67 23.5t-23 66.5q0 42 23 65.5t67 23.5q43 0 66.5 -24t23.5 -65q0 -42 -23.5 -66t-66.5 -24zM130 -144h-118v10l31 247h169v-10z" />
    <glyph glyph-name="less" unicode="&#x3c;" horiz-adv-x="520" 
d="M490 129v-141l-460 244v110l460 244v-141l-308 -156v-4z" />
    <glyph glyph-name="equal" unicode="=" horiz-adv-x="496" 
d="M491 347h-486v132h486v-132zM491 127h-486v132h486v-132z" />
    <glyph glyph-name="greater" unicode="&#x3e;" horiz-adv-x="520" 
d="M490 232l-460 -244v141l308 156v4l-308 156v141l460 -244v-110z" />
    <glyph glyph-name="question" unicode="?" horiz-adv-x="543" 
d="M331 221h-150v16q0 57 20 91.5t70 74.5l32 25q31 25 41.5 39.5t10.5 38.5q0 29 -20.5 48.5t-60.5 19.5q-88 0 -88 -87h-156q0 102 63.5 162t180.5 60q110 0 174 -55q65 -56 65 -139q0 -94 -76 -152l-42 -33q-38 -29 -51 -46t-13 -47v-16zM261 -9q-44 0 -67 23.5t-23 66.5
q0 42 23 65.5t67 23.5q43 0 66.5 -24t23.5 -65q0 -42 -23.5 -66t-66.5 -24z" />
    <glyph glyph-name="at" unicode="@" horiz-adv-x="885" 
d="M462 -100q-189 0 -308 103q-119 104 -119 301q0 177 127 291q128 114 309 114q165 0 272 -96t107 -255q0 -264 -195 -264q-42 0 -72 17.5t-38 44.5h-4q-47 -59 -129 -59q-75 0 -121 55q-45 55 -45 142q0 89 46 145q46 57 122 57q34 0 65.5 -16.5t45.5 -43.5h4l7 49h98
l-9 -242q-1 -54 47 -54q79 0 79 169q0 113 -76 183q-76 71 -207 71q-144 0 -236 -92q-91 -91 -91 -222q0 -145 87 -223q89 -77 235 -77q121 0 205 35v-96q-81 -37 -206 -37zM434 197q89 0 89 107q0 46 -23.5 70t-59.5 24q-39 0 -61.5 -27t-22.5 -78q0 -47 21 -71.5t57 -24.5
z" />
    <glyph glyph-name="A" unicode="A" horiz-adv-x="702" 
d="M250 700h201l241 -690v-10h-174l-41 133h-260l-41 -133h-166v10zM345 543l-85 -272h174l-85 272h-4z" />
    <glyph glyph-name="B" unicode="B" horiz-adv-x="666" 
d="M418 0h-348v700h335q96 0 153 -49t57 -133q0 -93 -68 -143v-4q94 -45 94 -169q0 -95 -59.5 -148.5t-163.5 -53.5zM226 562v-132h156q74 0 74 66t-74 66h-156zM226 294v-155h166q89 0 89 78q0 33 -22 55t-67 22h-166z" />
    <glyph glyph-name="C" unicode="C" horiz-adv-x="709" 
d="M369 -9q-162 0 -251 101q-88 100 -88 257q0 159 88 259q89 101 251 101q131 0 216 -79q87 -81 94 -194h-160q-6 58 -45 94.5t-105 36.5q-87 0 -133 -56t-46 -162t46 -161.5t133 -55.5q64 0 102.5 34t48.5 91h159q-11 -113 -96 -189q-86 -77 -214 -77z" />
    <glyph glyph-name="D" unicode="D" horiz-adv-x="704" 
d="M312 0h-242v700h242q159 0 260 -97q102 -97 102 -253q0 -149 -101 -250q-100 -100 -261 -100zM217 560v-421h86q211 0 211 211q0 105 -54 157.5t-157 52.5h-86z" />
    <glyph glyph-name="E" unicode="E" horiz-adv-x="610" 
d="M570 0h-500v700h500v-140h-343v-129h312v-140h-312v-152h343v-139z" />
    <glyph glyph-name="F" unicode="F" horiz-adv-x="610" 
d="M227 0h-157v700h500v-140h-343v-149h312v-140h-312v-271z" />
    <glyph glyph-name="G" unicode="G" horiz-adv-x="714" 
d="M369 -9q-162 0 -251 101q-88 100 -88 257q0 159 88 259q89 101 251 101q131 0 214 -73q84 -72 96 -180h-160q-10 51 -47.5 81t-102.5 30q-87 0 -133 -56t-46 -162t46 -161.5t133 -55.5q124 0 151 107h-131v139h295v-79q0 -139 -88 -224q-88 -84 -227 -84z" />
    <glyph glyph-name="H" unicode="H" horiz-adv-x="735" 
d="M508 432v268h157v-700h-157v291h-281v-291h-157v700h157v-268h281z" />
    <glyph glyph-name="I" unicode="I" horiz-adv-x="298" 
d="M228 0h-158v700h158v-700z" />
    <glyph glyph-name="J" unicode="J" horiz-adv-x="547" 
d="M245 -9q-112 0 -174 62q-61 62 -61 157h153q1 -76 84 -76q82 0 82 85v481h158v-481q0 -100 -64 -164q-63 -64 -178 -64z" />
    <glyph glyph-name="K" unicode="K" horiz-adv-x="676" 
d="M654 690l-301 -326l313 -354v-10h-186l-253 290v-290h-157v700h157v-265l243 265h184v-10z" />
    <glyph glyph-name="L" unicode="L" horiz-adv-x="555" 
d="M545 0h-475v700h157v-560h318v-140z" />
    <glyph glyph-name="M" unicode="M" horiz-adv-x="880" 
d="M222 0h-152v700h172l197 -321h4l197 321h170v-700h-152v452h-4l-209 -336h-10l-209 339h-4v-455z" />
    <glyph glyph-name="N" unicode="N" horiz-adv-x="743" 
d="M225 0h-155v700h185l258 -457h4v457h156v-700h-186l-258 454h-4v-454z" />
    <glyph glyph-name="O" unicode="O" horiz-adv-x="740" 
d="M30 350q0 158 88 258q89 101 252 101q162 0 251 -101t89 -258t-89 -258t-251 -101q-163 0 -252 101q-88 100 -88 258zM370 567q-88 0 -134 -55.5t-46 -161.5t46.5 -161.5t133.5 -55.5t133.5 55.5t46.5 161.5t-46.5 161.5t-133.5 55.5z" />
    <glyph glyph-name="P" unicode="P" horiz-adv-x="649" 
d="M227 0h-157v700h318q105 0 168 -66q63 -64 63 -165q0 -102 -64 -169q-63 -66 -167 -66h-161v-234zM227 561v-187h130q102 0 102 95q0 45 -27 68.5t-75 23.5h-130z" />
    <glyph glyph-name="Q" unicode="Q" horiz-adv-x="740" 
d="M710 350q0 -176 -105 -275l94 -138v-10h-156l-55 81q-56 -17 -118 -17q-163 0 -252 101q-88 100 -88 258t88 258q89 101 252 101q162 0 251 -101t89 -258zM370 133q6 0 32 2l-89 131v10h155l48 -70q34 53 34 144q0 106 -46.5 161.5t-133.5 55.5q-88 0 -134 -55.5
t-46 -161.5t46.5 -161.5t133.5 -55.5z" />
    <glyph glyph-name="R" unicode="R" horiz-adv-x="670" 
d="M491 266l169 -256v-10h-184l-151 247h-98v-247h-157v700h320q108 0 173 -65q66 -65 66 -158q0 -75 -36 -130t-102 -81zM382 560h-155v-173h155q42 0 64 25t22 64q0 37 -22.5 60.5t-63.5 23.5z" />
    <glyph glyph-name="S" unicode="S" horiz-adv-x="632" 
d="M315 -9q-136 0 -212 65.5t-83 183.5h159q11 -110 136 -110q131 0 131 72q0 29 -20 46.5t-65 27.5l-102 22q-108 23 -162 72t-54 138q0 90 75 145q76 56 198 56t199 -64q79 -64 80 -164h-159q-3 40 -34.5 64t-87.5 24q-54 0 -82 -17.5t-28 -43.5q0 -24 18 -40t61 -25
l95 -20q115 -25 172 -75t57 -142q0 -102 -73 -158.5t-219 -56.5z" />
    <glyph glyph-name="T" unicode="T" horiz-adv-x="592" 
d="M375 0h-158v559h-202v141h562v-141h-202v-559z" />
    <glyph glyph-name="U" unicode="U" horiz-adv-x="714" 
d="M356 -9q-128 0 -213 74q-83 74 -83 212v423h157v-421q0 -148 139 -148q140 0 140 148v421h158v-423q0 -139 -84 -212q-83 -74 -214 -74z" />
    <glyph glyph-name="V" unicode="V" horiz-adv-x="706" 
d="M449 0h-189l-250 690v10h179l162 -513h4l159 513h182v-10z" />
    <glyph glyph-name="W" unicode="W" horiz-adv-x="949" 
d="M373 0h-203l-160 690v10h169l93 -483h4l112 483h174l114 -483h4l92 483h167v-10l-160 -690h-203l-98 463h-4z" />
    <glyph glyph-name="X" unicode="X" horiz-adv-x="702" 
d="M209 0h-194v10l219 340v4l-210 336v10h190l142 -243h4l142 243h185v-10l-203 -337v-4l203 -339v-10h-193l-140 243h-4z" />
    <glyph glyph-name="Y" unicode="Y" horiz-adv-x="698" 
d="M429 0h-158v278l-261 412v10h183l156 -264h4l152 264h183v-10l-259 -410v-280z" />
    <glyph glyph-name="Z" unicode="Z" horiz-adv-x="597" 
d="M567 0h-537v137l334 418v4h-325v141h522v-139l-333 -417v-4h339v-140z" />
    <glyph glyph-name="bracketleft" unicode="[" horiz-adv-x="337" 
d="M282 -178h-252v948h252v-120h-123v-708h123v-120z" />
    <glyph glyph-name="backslash" unicode="\" horiz-adv-x="458" 
d="M443 -133h-146l-282 860v10h147l281 -860v-10z" />
    <glyph glyph-name="bracketright" unicode="]" horiz-adv-x="337" 
d="M307 -178h-252v120h123v708h-123v120h252v-948z" />
    <glyph glyph-name="asciicircum" unicode="^" horiz-adv-x="588" 
d="M176 310h-141v10l196 380h127l195 -380v-10h-141l-116 238h-4z" />
    <glyph glyph-name="underscore" unicode="_" horiz-adv-x="551" 
d="M521 -148h-491v121h491v-121z" />
    <glyph glyph-name="grave" unicode="`" horiz-adv-x="286" 
d="M256 583h-110l-116 146v10h160l66 -146v-10z" />
    <glyph glyph-name="a" unicode="a" horiz-adv-x="541" 
d="M208 -9q-85 0 -134 45.5t-49 118.5q0 76 53.5 118.5t156.5 42.5q67 0 112 -15v43q0 64 -80 64q-35 0 -55.5 -16.5t-20.5 -41.5h-144q0 81 59 131.5t166 50.5q105 0 167 -53t62 -135v-344h-138l-11 47h-4q-50 -56 -140 -56zM247 111q45 0 72.5 23t27.5 57v5q-43 17 -94 17
q-35 0 -55.5 -14t-20.5 -36q0 -24 18.5 -38t51.5 -14z" />
    <glyph glyph-name="b" unicode="b" horiz-adv-x="584" 
d="M347 -9q-89 0 -139 59h-4l-16 -50h-138v740h154v-267h4q50 59 139 59q97 0 154 -76q58 -74 58 -194t-58 -196q-57 -75 -154 -75zM403 262q0 135 -103 135t-103 -135q0 -63 26 -99.5t77 -36.5t77 36.5t26 99.5z" />
    <glyph glyph-name="c" unicode="c" horiz-adv-x="551" 
d="M288 -9q-122 0 -193 74q-70 74 -70 197q0 121 68 195q68 75 191 75q112 0 174 -60t68 -155h-155q-4 36 -27.5 58t-59.5 22q-102 0 -102 -135q0 -136 102 -136q36 0 59.5 22t27.5 58h155q-6 -96 -67 -155q-61 -60 -171 -60z" />
    <glyph glyph-name="d" unicode="d" 
d="M237 -9q-97 0 -155 75q-57 76 -57 196q0 119 57 194q58 76 155 76q89 0 139 -59h4v267h154v-740h-138l-16 50h-4q-50 -59 -139 -59zM387 262q0 135 -103 135t-103 -135q0 -63 26 -99.5t77 -36.5t77 36.5t26 99.5z" />
    <glyph glyph-name="e" unicode="e" horiz-adv-x="556" 
d="M284 -9q-120 0 -190 76q-69 77 -69 194q0 118 67 194q68 77 189 77q116 0 183 -73q67 -71 67 -182v-57h-349q1 -49 26.5 -76.5t75.5 -27.5q72 0 91 52h149q-10 -75 -75 -126q-63 -51 -165 -51zM183 317h191q-2 41 -26 65t-67 24q-46 0 -71 -24t-27 -65z" />
    <glyph glyph-name="f" unicode="f" horiz-adv-x="429" 
d="M265 0h-154v393h-91v130h91v27q0 93 62 146q61 54 157 54q35 0 64 -7v-130q-32 5 -50 5q-79 0 -79 -68v-27h124v-130h-124v-393z" />
    <glyph glyph-name="g" unicode="g" 
d="M278 -238q-106 0 -171 53q-66 53 -67 140h151q3 -27 27 -44t60 -17q48 0 75 23t27 60v73h-4q-50 -59 -139 -59q-97 0 -155 75q-57 76 -57 195q0 120 57 195q58 76 155 76q89 0 139 -59h4l16 50h138v-548q0 -97 -72 -155q-71 -58 -184 -58zM387 261q0 63 -26 99.5
t-77 36.5t-77 -36.5t-26 -99.5q0 -135 103 -135t103 135z" />
    <glyph glyph-name="h" unicode="h" horiz-adv-x="585" 
d="M204 0h-154v740h154v-267h4q50 59 143 59q88 0 141 -51t53 -137v-344h-154v296q0 96 -88 96q-43 0 -71 -28.5t-28 -73.5v-290z" />
    <glyph glyph-name="i" unicode="i" horiz-adv-x="244" 
d="M128 576q-45 0 -69 23.5t-24 66.5q0 42 24 65.5t69 23.5q44 0 68.5 -23.5t24.5 -65.5t-24.5 -66t-68.5 -24zM204 0h-154v523h154v-523z" />
    <glyph glyph-name="j" unicode="j" horiz-adv-x="248" 
d="M133 576q-45 0 -69 23.5t-24 66.5q0 42 24 65.5t69 23.5q44 0 68.5 -23.5t24.5 -65.5t-24.5 -66t-68.5 -24zM20 -238q-32 0 -70 8v139q19 -3 38 -3q66 0 66 73v544h154v-583q0 -83 -52.5 -130.5t-135.5 -47.5z" />
    <glyph glyph-name="k" unicode="k" horiz-adv-x="561" 
d="M540 513l-212 -237l223 -266v-10h-186l-171 214v-214h-144v740h144v-407l166 190h180v-10z" />
    <glyph glyph-name="l" unicode="l" horiz-adv-x="244" 
d="M204 0h-154v740h154v-740z" />
    <glyph glyph-name="m" unicode="m" horiz-adv-x="896" 
d="M662 532q88 0 141 -51t53 -137v-344h-154v296q0 96 -82 96q-41 0 -64 -27t-23 -75v-290h-152v296q0 96 -82 96q-42 0 -68.5 -27.5t-26.5 -74.5v-290h-154v523h138l12 -50h4q50 59 143 59q108 0 156 -71h3q56 71 156 71z" />
    <glyph glyph-name="n" unicode="n" horiz-adv-x="581" 
d="M204 0h-154v523h138l12 -50h4q50 59 143 59q88 0 141 -51t53 -137v-344h-154v296q0 96 -88 96q-42 0 -68.5 -27.5t-26.5 -74.5v-290z" />
    <glyph glyph-name="o" unicode="o" horiz-adv-x="572" 
d="M478 65q-68 -74 -192 -74t-193 74q-68 76 -68 196q0 121 69 196t192 75t192 -75t69 -196t-69 -196zM390 261q0 136 -104 136t-104 -136q0 -135 104 -135t104 135z" />
    <glyph glyph-name="p" unicode="p" horiz-adv-x="584" 
d="M204 -229h-154v752h138l16 -50h4q50 59 139 59q96 0 154 -76t58 -195t-58 -195q-57 -75 -154 -75q-89 0 -139 59h-4v-279zM403 261q0 63 -26 99.5t-77 36.5t-77 -36.5t-26 -99.5q0 -135 103 -135t103 135z" />
    <glyph glyph-name="q" unicode="q" 
d="M534 -229h-154v279h-4q-50 -59 -139 -59q-97 0 -155 75q-57 76 -57 195q0 120 57 195q58 76 155 76q89 0 139 -59h4l16 50h138v-752zM387 261q0 63 -26 99.5t-77 36.5t-77 -36.5t-26 -99.5q0 -135 103 -135t103 135z" />
    <glyph glyph-name="r" unicode="r" horiz-adv-x="389" 
d="M194 0h-144v523h128l12 -76h4q42 85 134 85h36v-141h-50q-55 0 -87.5 -35.5t-32.5 -97.5v-258z" />
    <glyph glyph-name="s" unicode="s" horiz-adv-x="511" 
d="M257 -9q-114 0 -172 49t-60 137h154q0 -25 20.5 -41.5t57.5 -16.5t55.5 10.5t18.5 27.5q0 30 -53 41l-77 15q-160 30 -160 164q0 68 58 111.5t157 43.5t158 -50q60 -50 60 -125h-152q1 23 -17 38.5t-52 15.5q-27 0 -44 -10.5t-17 -25.5q0 -29 39 -36l100 -19
q155 -28 155 -162q0 -78 -62.5 -122.5t-166.5 -44.5z" />
    <glyph glyph-name="t" unicode="t" horiz-adv-x="431" 
d="M280 -9q-85 0 -130 45t-45 122v234h-85v131h92v109l137 28h10v-137h125v-131h-125v-197q0 -37 16 -53.5t51 -16.5q26 0 50 9h10v-128q-40 -15 -106 -15z" />
    <glyph glyph-name="u" unicode="u" horiz-adv-x="579" 
d="M375 232v291h154v-314q0 -92 -60 -155q-59 -63 -179 -63h-1q-120 0 -180 63q-59 64 -59 155v314h154v-291q0 -96 86 -96q85 0 85 96z" />
    <glyph glyph-name="v" unicode="v" horiz-adv-x="547" 
d="M373 0h-197l-166 513v10h158l106 -378h4l103 378h156v-10z" />
    <glyph glyph-name="w" unicode="w" horiz-adv-x="833" 
d="M341 0h-203l-128 513v10h151l79 -358h4l70 358h206l70 -358h4l79 358h150v-10l-128 -513h-203l-72 358h-4z" />
    <glyph glyph-name="x" unicode="x" horiz-adv-x="564" 
d="M185 0h-170v10l160 253l-154 250v10h166l93 -165h4l93 165h166v-10l-154 -250l160 -253v-10h-170l-95 170h-4z" />
    <glyph glyph-name="y" unicode="y" horiz-adv-x="567" 
d="M294 -229h-167v10l75 219h-26l-166 513v10h158l106 -371h4l113 371h166v-10z" />
    <glyph glyph-name="z" unicode="z" horiz-adv-x="502" 
d="M467 0h-432v129l241 259v4h-240v131h429v-130l-240 -258v-4h242v-131z" />
    <glyph glyph-name="braceleft" unicode="{" horiz-adv-x="430" 
d="M172 298v-4q80 -12 80 -102v-175q0 -75 70 -75h53v-120h-92q-67 0 -114 44q-46 43 -46 113v167q0 46 -22 67t-71 23v120q49 2 71 23t22 67v167q0 70 46 113q47 44 114 44h92v-120h-53q-70 0 -70 -75v-175q0 -90 -80 -102z" />
    <glyph glyph-name="bar" unicode="|" horiz-adv-x="274" 
d="M204 -138h-134v898h134v-898z" />
    <glyph glyph-name="braceright" unicode="}" horiz-adv-x="430" 
d="M307 613v-167q0 -46 22 -67t71 -23v-120q-49 -2 -71 -23t-22 -67v-167q0 -70 -46 -113q-47 -44 -114 -44h-92v120h53q70 0 70 75v175q0 90 80 102v4q-80 12 -80 102v175q0 75 -70 75h-53v120h92q67 0 114 -44q46 -43 46 -113z" />
    <glyph glyph-name="asciitilde" unicode="~" horiz-adv-x="533" 
d="M365 197q-47 0 -97 27l-46 25q-28 15 -54 15q-56 0 -76 -57l-77 51q16 56 55 90.5t96 34.5q49 0 96 -26l46 -25q29 -16 57 -16q57 0 76 57l77 -51q-16 -56 -55.5 -90.5t-97.5 -34.5z" />
    <glyph glyph-name="uni00A0" unicode="&#xa0;" horiz-adv-x="280" 
 />
    <glyph glyph-name="exclamdown" unicode="&#xa1;" horiz-adv-x="250" 
d="M125 353q-44 0 -67 23.5t-23 65.5q0 43 23 66.5t67 23.5q43 0 66.5 -24t23.5 -66t-23.5 -65.5t-66.5 -23.5zM208 -189h-164v96l21 382h117l26 -382v-96z" />
    <glyph glyph-name="cent" unicode="&#xa2;" horiz-adv-x="551" 
d="M329 476v-249q37 23 42 69h155q-5 -88 -56.5 -144.5t-140.5 -68.5v-83h-98v86q-97 17 -151.5 88t-54.5 178q0 108 54.5 179t151.5 87v82h98v-81q89 -12 140.5 -69t56.5 -143h-155q-5 47 -42 69zM182 352q0 -95 49 -123v245q-49 -28 -49 -122z" />
    <glyph glyph-name="sterling" unicode="&#xa3;" horiz-adv-x="611" 
d="M591 0h-560v131q31 0 50 21t19 59v61h-70v133h70v88q0 95 63 156q64 63 173 63q111 0 172 -64q62 -65 62 -158h-145q0 42 -23 69.5t-68 27.5q-41 0 -65.5 -26t-24.5 -68v-88h169v-133h-169v-65q0 -57 -33 -75v-4h380v-128z" />
    <glyph glyph-name="currency" unicode="&#xa4;" horiz-adv-x="558" 
d="M169 55l-68 -70l-81 79l68 71q-31 53 -31 114t32 116l-69 72l81 79l70 -72q51 30 109.5 30t108.5 -28l68 70l81 -79l-67 -69q35 -56 35 -119q0 -65 -34 -117l66 -68l-81 -79l-66 68q-53 -29 -110 -29q-59 0 -112 31zM281 147q42 0 70 28.5t28 73.5q0 44 -28 72.5
t-70 28.5t-71 -28.5t-29 -72.5q0 -45 28.5 -73.5t71.5 -28.5z" />
    <glyph glyph-name="yen" unicode="&#xa5;" horiz-adv-x="698" 
d="M505 700h183v-10l-172 -277h81v-111h-149l-14 -22v-47h163v-111h-163v-122h-158v122h-175v111h175v45l-15 24h-160v111h88l-179 277v10h196l148 -264h4z" />
    <glyph glyph-name="brokenbar" unicode="&#xa6;" horiz-adv-x="274" 
d="M204 402h-134v358h134v-358zM204 -138h-134v358h134v-358z" />
    <glyph glyph-name="section" unicode="&#xa7;" horiz-adv-x="633" 
d="M308 -245q-96 0 -151 55q-55 54 -55 139h123q0 -34 22 -54t61 -20q35 0 56 17t21 43q0 40 -48 73l-161 111q-58 40 -82 77.5t-24 91.5q0 89 91 140q-41 47 -41 109q0 74 55 123t150 49q96 0 151 -55q55 -54 55 -139h-123q0 34 -22 54t-61 20q-35 0 -56 -17t-21 -43
q0 -40 48 -73l161 -111q58 -40 82 -78t24 -92q0 -88 -91 -139q41 -47 41 -109q0 -73 -56 -123q-55 -49 -149 -49zM241 215l144 -101q51 18 51 61q0 44 -44 74l-144 101q-51 -18 -51 -61q0 -44 44 -74z" />
    <glyph glyph-name="dieresis" unicode="&#xa8;" horiz-adv-x="450" 
d="M124 592q-35 0 -54.5 19.5t-19.5 54.5q0 34 19.5 53.5t54.5 19.5q34 0 53.5 -19.5t19.5 -53.5t-19.5 -54t-53.5 -20zM326 592q-35 0 -54 19.5t-19 54.5q0 34 19 53.5t54 19.5q34 0 54 -19.5t20 -53.5t-20 -54t-54 -20z" />
    <glyph glyph-name="copyright" unicode="&#xa9;" horiz-adv-x="820" 
d="M760 350q-2 -160 -98 -259q-96 -100 -252 -100t-253 100q-95 100 -97 259q2 158 97 258q98 101 253 101q156 0 252 -101q96 -99 98 -258zM663 350q-1 124 -67.5 194.5t-185.5 70.5t-185.5 -70.5t-67.5 -194.5q1 -124 67.5 -194.5t185.5 -70.5t185.5 70.5t67.5 194.5z
M412 233q70 0 78 66h93q-6 -67 -51 -109.5t-119 -42.5q-88 0 -136.5 53t-48.5 147q0 93 48.5 147t135.5 54q79 0 122 -46q44 -46 47 -108h-93q-4 67 -76 67q-90 0 -90 -114t90 -114z" />
    <glyph glyph-name="ordfeminine" unicode="&#xaa;" horiz-adv-x="360" 
d="M144 296q-55 0 -87 29.5t-32 77.5q0 50 34.5 77t102.5 27q44 0 72 -9v29q0 41 -52 41q-22 0 -35.5 -10.5t-13.5 -26.5h-94q0 53 38.5 85.5t108.5 32.5q68 0 108.5 -33.5t40.5 -88.5v-225h-90l-7 31h-3q-31 -37 -91 -37zM169 374q29 0 47 15t18 37v3q-25 11 -61 11
q-23 0 -36 -9t-13 -23q0 -34 45 -34z" />
    <glyph glyph-name="guillemotleft" unicode="&#xab;" horiz-adv-x="622" 
d="M332 66h-146l-166 212v10l166 212h146v-10l-140 -207l140 -207v-10zM592 66h-146l-166 212v10l166 212h146v-10l-140 -207l140 -207v-10z" />
    <glyph glyph-name="uni00AD" unicode="&#xad;" horiz-adv-x="466" 
d="M386 224h-306v138h306v-138z" />
    <glyph glyph-name="registered" unicode="&#xae;" horiz-adv-x="514" 
d="M428 336q-66 -68 -171 -68t-171 68t-66 168t66 168t171 68t171 -68t66 -168t-66 -168zM141 385q44 -42 116 -42q73 0 116 42q43 43 43 119t-43 118q-43 43 -116 43t-116 -43q-43 -42 -43 -118t43 -119zM231 397h-61v208h109q34 0 56 -21t22 -53q0 -47 -34 -66l41 -62v-6
h-66l-36 58h-31v-58zM231 551v-42h36q25 0 25 22q0 20 -25 20h-36z" />
    <glyph glyph-name="overscore" unicode="&#xaf;" horiz-adv-x="353" 
d="M323 607h-293v111h293v-111z" />
    <glyph glyph-name="degree" unicode="&#xb0;" horiz-adv-x="412" 
d="M333 415q-52 -50 -127 -50t-127 50q-51 49 -51 125t51 125q52 50 127 50t127 -50q51 -49 51 -125t-51 -125zM206 616q-33 0 -52.5 -21.5t-19.5 -54.5t19.5 -54.5t52.5 -21.5t52.5 21.5t19.5 54.5q0 34 -19.5 55t-52.5 21z" />
    <glyph glyph-name="plusminus" unicode="&#xb1;" horiz-adv-x="496" 
d="M320 190h-140v137h-175v132h175v137h140v-137h171v-132h-171v-137zM491 7h-486v132h486v-132z" />
    <glyph glyph-name="uni00B2" unicode="&#xb2;" horiz-adv-x="411" 
d="M376 248h-340v86l157 136q41 36 54.5 55t13.5 42t-15.5 37.5t-42.5 14.5q-28 0 -45 -16.5t-17 -46.5h-106q0 72 46 114t122 42q73 0 119 -40q46 -39 46 -101q0 -38 -18 -68.5t-63 -68.5l-105 -89v-3h194v-94z" />
    <glyph glyph-name="uni00B3" unicode="&#xb3;" horiz-adv-x="434" 
d="M220 236q-84 0 -134.5 40.5t-50.5 114.5h105q0 -27 19.5 -45t59.5 -18q36 0 54 14.5t18 38.5q0 25 -21 39.5t-59 14.5h-40v92h38q67 0 67 46q0 21 -16.5 34t-45.5 13q-66 0 -66 -64h-105q0 72 47.5 114t125.5 42q71 0 119 -36q49 -36 49 -93q0 -69 -60 -95v-3
q34 -12 54.5 -39.5t20.5 -65.5q0 -66 -46 -105t-133 -39z" />
    <glyph glyph-name="acute" unicode="&#xb4;" horiz-adv-x="286" 
d="M140 583h-110v10l66 146h160v-10z" />
    <glyph glyph-name="paragraph" unicode="&#xb6;" horiz-adv-x="600" 
d="M346 -104h-125v457q-78 0 -133 55t-55 134q0 78 55 133t133 55h369v-109h-59v-725h-125v725h-60v-725z" />
    <glyph glyph-name="middot" unicode="&#xb7;" horiz-adv-x="238" 
d="M125 209q-44 0 -67 23.5t-23 66.5q0 42 23 65.5t67 23.5q43 0 66.5 -24t23.5 -65q0 -42 -23.5 -66t-66.5 -24z" />
    <glyph glyph-name="cedilla" unicode="&#xb8;" horiz-adv-x="340" 
d="M163 -228q-58 0 -95.5 28.5t-37.5 73.5h90q0 -12 12 -21t30 -9q20 0 33.5 8t13.5 22q0 30 -44 30h-32l-25 31l40 79h101l-36 -50q44 -4 70.5 -29t26.5 -63q0 -45 -40 -72.5t-107 -27.5z" />
    <glyph glyph-name="uni00B9" unicode="&#xb9;" horiz-adv-x="295" 
d="M260 248h-105v343h-4l-109 -82h-7v104l118 87h107v-452z" />
    <glyph glyph-name="ordmasculine" unicode="&#xba;" horiz-adv-x="391" 
d="M25 473q0 79 45.5 127.5t124.5 48.5q81 0 126 -49q45 -48 45 -127t-45 -128t-126 -49q-80 0 -125 48.5t-45 128.5zM195 384q68 0 68 89q0 88 -68 88q-67 0 -67 -88q0 -89 67 -89z" />
    <glyph glyph-name="guillemotright" unicode="&#xbb;" horiz-adv-x="622" 
d="M342 278l-166 -212h-146v10l140 207l-140 207v10h146l166 -212v-10zM602 278l-166 -212h-146v10l140 207l-140 207v10h146l166 -212v-10z" />
    <glyph glyph-name="onequarter" unicode="&#xbc;" horiz-adv-x="914" 
d="M260 248h-105v343h-4l-109 -82h-7v104l118 87h107v-452zM286 0h-119v10l434 690h117v-10zM827 0h-105v80h-207v102l171 270h141v-278h52v-94h-52v-80zM619 178v-4h103v159h-4z" />
    <glyph glyph-name="onehalf" unicode="&#xbd;" horiz-adv-x="955" 
d="M260 248h-105v343h-4l-109 -82h-7v104l118 87h107v-452zM286 0h-119v10l434 690h117v-10zM920 0h-340v86l157 136q41 36 54.5 55t13.5 42t-15.5 37.5t-42.5 14.5q-28 0 -45 -16.5t-17 -46.5h-106q0 72 46 114t122 42q73 0 119 -40q46 -39 46 -101q0 -38 -18 -68.5
t-63 -68.5l-105 -89v-3h194v-94z" />
    <glyph glyph-name="threequarters" unicode="&#xbe;" horiz-adv-x="1004" 
d="M220 236q-84 0 -134.5 40.5t-50.5 114.5h105q0 -27 19.5 -45t59.5 -18q36 0 54 14.5t18 38.5q0 25 -21 39.5t-59 14.5h-40v92h38q67 0 67 46q0 21 -16.5 34t-45.5 13q-66 0 -66 -64h-105q0 72 47.5 114t125.5 42q71 0 119 -36q49 -36 49 -93q0 -69 -60 -95v-3
q34 -12 54.5 -39.5t20.5 -65.5q0 -66 -46 -105t-133 -39zM376 0h-119v10l434 690h117v-10zM917 0h-105v80h-207v102l171 270h141v-278h52v-94h-52v-80zM709 178v-4h103v159h-4z" />
    <glyph glyph-name="questiondown" unicode="&#xbf;" horiz-adv-x="543" 
d="M282 354q-42 0 -66 24t-24 65q0 42 23.5 66t66.5 24q44 0 67 -23.5t23 -66.5q0 -42 -23 -65.5t-67 -23.5zM269 -185q-110 0 -174 55q-65 56 -65 139q0 94 76 152l42 33q36 27 50 46t14 47v16h150v-16q0 -57 -20 -91.5t-70 -74.5l-32 -25q-31 -25 -41.5 -39.5t-10.5 -38.5
q0 -29 20.5 -48.5t60.5 -19.5q88 0 88 87h156q0 -102 -63.5 -162t-180.5 -60z" />
    <glyph glyph-name="Agrave" unicode="&#xc0;" horiz-adv-x="702" 
d="M432 770v-10h-110l-116 146v10h160zM250 700h201l241 -690v-10h-174l-41 133h-260l-41 -133h-166v10zM345 543l-85 -272h174l-85 272h-4z" />
    <glyph glyph-name="Aacute" unicode="&#xc1;" horiz-adv-x="702" 
d="M509 916v-10l-116 -146h-110v10l66 146h160zM250 700h201l241 -690v-10h-174l-41 133h-260l-41 -133h-166v10zM345 543l-85 -272h174l-85 272h-4z" />
    <glyph glyph-name="Acircumflex" unicode="&#xc2;" horiz-adv-x="702" 
d="M355 816h-4l-56 -54h-118v10l94 142h163l94 -142v-10h-118zM250 700h201l241 -690v-10h-174l-41 133h-260l-41 -133h-166v10zM345 543l-85 -272h174l-85 272h-4z" />
    <glyph glyph-name="Atilde" unicode="&#xc3;" horiz-adv-x="702" 
d="M285 799q-27 0 -27 -37h-92v15q0 62 28.5 95.5t79.5 33.5q33 0 70 -19l16 -8q25 -13 36 -13q14 0 19 8.5t5 29.5h91v-15q0 -129 -107 -129q-34 0 -68 18l-15 8q-23 13 -36 13zM250 700h201l241 -690v-10h-174l-41 133h-260l-41 -133h-166v10zM345 543l-85 -272h174
l-85 272h-4z" />
    <glyph glyph-name="Adieresis" unicode="&#xc4;" horiz-adv-x="702" 
d="M252 769q-35 0 -54.5 19.5t-19.5 54.5q0 34 19.5 53.5t54.5 19.5q34 0 53.5 -19.5t19.5 -53.5t-19.5 -54t-53.5 -20zM454 769q-35 0 -54 19.5t-19 54.5q0 34 19 53.5t54 19.5q34 0 54 -19.5t20 -53.5q0 -35 -20 -54.5t-54 -19.5zM250 700h201l241 -690v-10h-174l-41 133
h-260l-41 -133h-166v10zM345 543l-85 -272h174l-85 272h-4z" />
    <glyph glyph-name="Aring" unicode="&#xc5;" horiz-adv-x="702" 
d="M349 745q-50 0 -83.5 32t-33.5 81q0 50 33 82t84 32q52 0 85 -32t33 -82t-33 -81.5t-85 -31.5zM348 901q-26 1 -37 -21t0 -44t37 -20q28 -2 39.5 20t0 44t-39.5 21zM250 700h201l241 -690v-10h-174l-41 133h-260l-41 -133h-166v10zM345 543l-85 -272h174l-85 272h-4z" />
    <glyph glyph-name="AE" unicode="&#xc6;" horiz-adv-x="916" 
d="M176 0h-166v10l240 690h626v-140h-376l45 -129h300v-140h-251l53 -152h229v-139h-358l-41 133h-260zM345 543l-85 -272h174l-85 272h-4z" />
    <glyph glyph-name="Ccedilla" unicode="&#xc7;" horiz-adv-x="709" 
d="M369 132q64 0 102.5 34t48.5 91h159q-11 -105 -85 -179q-75 -75 -189 -85l-21 -29q44 -4 70.5 -29t26.5 -63q0 -45 -40 -72.5t-107 -27.5q-58 0 -95.5 28.5t-37.5 73.5h90q0 -12 12 -21t30 -9q20 0 33.5 8t13.5 22q0 30 -44 30h-32l-25 31l30 60q-134 20 -207 116
q-72 97 -72 238q0 159 88 259q89 101 251 101q131 0 216 -79q87 -81 94 -194h-160q-6 58 -45 94.5t-105 36.5q-87 0 -133 -56t-46 -162t46 -161.5t133 -55.5z" />
    <glyph glyph-name="Egrave" unicode="&#xc8;" horiz-adv-x="610" 
d="M416 760h-110l-116 146v10h160l66 -146v-10zM570 0h-500v700h500v-140h-343v-129h312v-140h-312v-152h343v-139z" />
    <glyph glyph-name="Eacute" unicode="&#xc9;" horiz-adv-x="610" 
d="M377 760h-110v10l66 146h160v-10zM570 0h-500v700h500v-140h-343v-129h312v-140h-312v-152h343v-139z" />
    <glyph glyph-name="Ecircumflex" unicode="&#xca;" horiz-adv-x="610" 
d="M279 762h-118v10l94 142h163l94 -142v-10h-118l-55 54h-4zM570 0h-500v700h500v-140h-343v-129h312v-140h-312v-152h343v-139z" />
    <glyph glyph-name="Edieresis" unicode="&#xcb;" horiz-adv-x="610" 
d="M236 769q-35 0 -54.5 19.5t-19.5 54.5q0 34 19.5 53.5t54.5 19.5q34 0 53.5 -19.5t19.5 -53.5t-19.5 -54t-53.5 -20zM438 769q-35 0 -54 19.5t-19 54.5q0 34 19 53.5t54 19.5q34 0 54 -19.5t20 -53.5q0 -35 -20 -54.5t-54 -19.5zM570 0h-500v700h500v-140h-343v-129h312
v-140h-312v-152h343v-139z" />
    <glyph glyph-name="Igrave" unicode="&#xcc;" horiz-adv-x="298" 
d="M233 760h-110l-116 146v10h160l66 -146v-10zM228 0h-158v700h158v-700z" />
    <glyph glyph-name="Iacute" unicode="&#xcd;" horiz-adv-x="298" 
d="M194 760h-110v10l66 146h160v-10zM228 0h-158v700h158v-700z" />
    <glyph glyph-name="Icircumflex" unicode="&#xce;" horiz-adv-x="298" 
d="M96 762h-118v10l94 142h163l94 -142v-10h-118l-55 54h-4zM228 0h-158v700h158v-700z" />
    <glyph glyph-name="Idieresis" unicode="&#xcf;" horiz-adv-x="298" 
d="M53 769q-35 0 -54.5 19.5t-19.5 54.5q0 34 19.5 53.5t54.5 19.5q34 0 53.5 -19.5t19.5 -53.5t-19.5 -54t-53.5 -20zM182 843q0 34 19 53.5t54 19.5q34 0 54 -19.5t20 -53.5q0 -35 -19.5 -54.5t-54.5 -19.5t-54 19.5t-19 54.5zM228 0h-158v700h158v-700z" />
    <glyph glyph-name="Eth" unicode="&#xd0;" horiz-adv-x="745" 
d="M111 700h242q159 0 260 -97q102 -97 102 -253q0 -149 -101 -250q-100 -100 -261 -100h-242v297h-71v131h71v272zM258 139h86q211 0 211 211q0 105 -54 157.5t-157 52.5h-86v-132h142v-131h-142v-158z" />
    <glyph glyph-name="Ntilde" unicode="&#xd1;" horiz-adv-x="743" 
d="M453 760q-33 0 -68 18l-15 8q-23 13 -36 13q-27 0 -27 -37h-92v15q0 62 28.5 95.5t79.5 33.5q33 0 70 -19l16 -8q25 -13 36 -13q14 0 19 8.5t5 29.5h91v-15q0 -129 -107 -129zM225 0h-155v700h185l258 -457h4v457h156v-700h-186l-258 454h-4v-454z" />
    <glyph glyph-name="Ograve" unicode="&#xd2;" horiz-adv-x="740" 
d="M452 760h-110l-116 146v10h160l66 -146v-10zM30 350q0 158 88 258q89 101 252 101q162 0 251 -101t89 -258t-89 -258t-251 -101q-163 0 -252 101q-88 100 -88 258zM370 567q-88 0 -134 -55.5t-46 -161.5t46.5 -161.5t133.5 -55.5t133.5 55.5t46.5 161.5t-46.5 161.5
t-133.5 55.5z" />
    <glyph glyph-name="Oacute" unicode="&#xd3;" horiz-adv-x="740" 
d="M413 760h-110v10l66 146h160v-10zM30 350q0 158 88 258q89 101 252 101q162 0 251 -101t89 -258t-89 -258t-251 -101q-163 0 -252 101q-88 100 -88 258zM370 567q-88 0 -134 -55.5t-46 -161.5t46.5 -161.5t133.5 -55.5t133.5 55.5t46.5 161.5t-46.5 161.5t-133.5 55.5z
" />
    <glyph glyph-name="Ocircumflex" unicode="&#xd4;" horiz-adv-x="740" 
d="M315 762h-118v10l94 142h163l94 -142v-10h-118l-55 54h-4zM30 350q0 158 88 258q89 101 252 101q162 0 251 -101t89 -258t-89 -258t-251 -101q-163 0 -252 101q-88 100 -88 258zM370 567q-88 0 -134 -55.5t-46 -161.5t46.5 -161.5t133.5 -55.5t133.5 55.5t46.5 161.5
t-46.5 161.5t-133.5 55.5z" />
    <glyph glyph-name="Otilde" unicode="&#xd5;" horiz-adv-x="740" 
d="M424 760q-34 0 -68 18l-15 8q-23 13 -36 13q-27 0 -27 -37h-92v15q0 62 28.5 95.5t79.5 33.5q33 0 70 -19l16 -8q25 -13 36 -13q14 0 19 8.5t5 29.5h91v-15q0 -129 -107 -129zM30 350q0 158 88 258q89 101 252 101q162 0 251 -101t89 -258t-89 -258t-251 -101
q-163 0 -252 101q-88 100 -88 258zM370 567q-88 0 -134 -55.5t-46 -161.5t46.5 -161.5t133.5 -55.5t133.5 55.5t46.5 161.5t-46.5 161.5t-133.5 55.5z" />
    <glyph glyph-name="Odieresis" unicode="&#xd6;" horiz-adv-x="740" 
d="M272 769q-35 0 -54.5 19.5t-19.5 54.5q0 34 19.5 53.5t54.5 19.5q34 0 53.5 -19.5t19.5 -53.5t-19.5 -54t-53.5 -20zM474 769q-35 0 -54 19.5t-19 54.5q0 34 19 53.5t54 19.5q34 0 54 -19.5t20 -53.5q0 -35 -20 -54.5t-54 -19.5zM30 350q0 158 88 258q89 101 252 101
q162 0 251 -101t89 -258t-89 -258t-251 -101q-163 0 -252 101q-88 100 -88 258zM370 567q-88 0 -134 -55.5t-46 -161.5t46.5 -161.5t133.5 -55.5t133.5 55.5t46.5 161.5t-46.5 161.5t-133.5 55.5z" />
    <glyph glyph-name="multiply" unicode="&#xd7;" horiz-adv-x="467" 
d="M234 226l-136 -136l-93 93l136 136l-136 135l93 93l136 -135l135 135l93 -93l-135 -135l135 -136l-93 -93z" />
    <glyph glyph-name="Oslash" unicode="&#xd8;" horiz-adv-x="740" 
d="M575 738h145v-10l-92 -128q82 -94 82 -250q0 -157 -89 -258t-251 -101q-90 0 -156 31l-51 -70h-143v10l95 133q-85 98 -85 255q0 158 88 258q89 101 252 101q90 0 160 -33zM190 350q0 -72 21 -120l233 324q-30 13 -74 13q-88 0 -134 -55.5t-46 -161.5zM550 350
q0 70 -19 115l-230 -321q33 -11 69 -11q87 0 133.5 55.5t46.5 161.5z" />
    <glyph glyph-name="Ugrave" unicode="&#xd9;" horiz-adv-x="714" 
d="M439 760h-110l-116 146v10h160l66 -146v-10zM356 -9q-128 0 -213 74q-83 74 -83 212v423h157v-421q0 -148 139 -148q140 0 140 148v421h158v-423q0 -139 -84 -212q-83 -74 -214 -74z" />
    <glyph glyph-name="Uacute" unicode="&#xda;" horiz-adv-x="714" 
d="M400 760h-110v10l66 146h160v-10zM356 -9q-128 0 -213 74q-83 74 -83 212v423h157v-421q0 -148 139 -148q140 0 140 148v421h158v-423q0 -139 -84 -212q-83 -74 -214 -74z" />
    <glyph glyph-name="Ucircumflex" unicode="&#xdb;" horiz-adv-x="714" 
d="M302 762h-118v10l94 142h163l94 -142v-10h-118l-55 54h-4zM356 -9q-128 0 -213 74q-83 74 -83 212v423h157v-421q0 -148 139 -148q140 0 140 148v421h158v-423q0 -139 -84 -212q-83 -74 -214 -74z" />
    <glyph glyph-name="Udieresis" unicode="&#xdc;" horiz-adv-x="714" 
d="M259 769q-35 0 -54.5 19.5t-19.5 54.5q0 34 19.5 53.5t54.5 19.5q34 0 53.5 -19.5t19.5 -53.5t-19.5 -54t-53.5 -20zM388 843q0 34 19 53.5t54 19.5q34 0 54 -19.5t20 -53.5q0 -35 -19.5 -54.5t-54.5 -19.5t-54 19.5t-19 54.5zM356 -9q-128 0 -213 74q-83 74 -83 212v423
h157v-421q0 -148 139 -148q140 0 140 148v421h158v-423q0 -139 -84 -212q-83 -74 -214 -74z" />
    <glyph glyph-name="Yacute" unicode="&#xdd;" horiz-adv-x="698" 
d="M401 760h-110v10l66 146h160v-10zM429 0h-158v278l-261 412v10h183l156 -264h4l152 264h183v-10l-259 -410v-280z" />
    <glyph glyph-name="Thorn" unicode="&#xde;" horiz-adv-x="649" 
d="M228 0h-158v700h158v-90h160q105 0 168 -66q63 -64 63 -165q0 -102 -64 -169q-63 -66 -167 -66h-160v-144zM228 471v-187h129q102 0 102 95q0 45 -27 68.5t-75 23.5h-129z" />
    <glyph glyph-name="germandbls" unicode="&#xdf;" horiz-adv-x="685" 
d="M455 -9q-102 0 -159 50.5t-59 137.5h144q0 -63 74 -63q27 0 43.5 10.5t16.5 26.5q0 18 -15 29t-53 24l-64 20q-130 40 -130 142q0 41 17.5 69.5t43 42.5t51 24.5t43 23.5t17.5 30q0 60 -106 60q-55 0 -85 -28t-30 -80v-510h-154v510q0 110 74 175q76 65 195 65
q118 0 184.5 -51.5t66.5 -139.5q0 -37 -13 -65t-32.5 -43t-42.5 -27t-42.5 -18.5t-32.5 -16.5t-13 -22q0 -24 39 -36l97 -31q68 -22 99 -58t31 -91q0 -73 -55 -116.5t-150 -43.5z" />
    <glyph glyph-name="agrave" unicode="&#xe0;" horiz-adv-x="541" 
d="M360 583h-110l-116 146v10h160l66 -146v-10zM208 -9q-85 0 -134 45.5t-49 118.5q0 76 53.5 118.5t156.5 42.5q67 0 112 -15v43q0 64 -80 64q-35 0 -55.5 -16.5t-20.5 -41.5h-144q0 81 59 131.5t166 50.5q105 0 167 -53t62 -135v-344h-138l-11 47h-4q-50 -56 -140 -56z
M247 111q45 0 72.5 23t27.5 57v5q-43 17 -94 17q-35 0 -55.5 -14t-20.5 -36q0 -24 18.5 -38t51.5 -14z" />
    <glyph glyph-name="aacute" unicode="&#xe1;" horiz-adv-x="541" 
d="M321 583h-110v10l66 146h160v-10zM208 -9q-85 0 -134 45.5t-49 118.5q0 76 53.5 118.5t156.5 42.5q67 0 112 -15v43q0 64 -80 64q-35 0 -55.5 -16.5t-20.5 -41.5h-144q0 81 59 131.5t166 50.5q105 0 167 -53t62 -135v-344h-138l-11 47h-4q-50 -56 -140 -56zM247 111
q45 0 72.5 23t27.5 57v5q-43 17 -94 17q-35 0 -55.5 -14t-20.5 -36q0 -24 18.5 -38t51.5 -14z" />
    <glyph glyph-name="acircumflex" unicode="&#xe2;" horiz-adv-x="541" 
d="M223 585h-118v10l94 142h163l94 -142v-10h-118l-55 54h-4zM208 -9q-85 0 -134 45.5t-49 118.5q0 76 53.5 118.5t156.5 42.5q67 0 112 -15v43q0 64 -80 64q-35 0 -55.5 -16.5t-20.5 -41.5h-144q0 81 59 131.5t166 50.5q105 0 167 -53t62 -135v-344h-138l-11 47h-4
q-50 -56 -140 -56zM247 111q45 0 72.5 23t27.5 57v5q-43 17 -94 17q-35 0 -55.5 -14t-20.5 -36q0 -24 18.5 -38t51.5 -14z" />
    <glyph glyph-name="atilde" unicode="&#xe3;" horiz-adv-x="541" 
d="M332 583q-34 0 -68 18l-15 8q-23 13 -36 13q-27 0 -27 -37h-92v15q0 62 28.5 95.5t79.5 33.5q33 0 70 -19l16 -8q25 -13 36 -13q14 0 19 8.5t5 29.5h91v-15q0 -129 -107 -129zM208 -9q-85 0 -134 45.5t-49 118.5q0 76 53.5 118.5t156.5 42.5q67 0 112 -15v43q0 64 -80 64
q-35 0 -55.5 -16.5t-20.5 -41.5h-144q0 81 59 131.5t166 50.5q105 0 167 -53t62 -135v-344h-138l-11 47h-4q-50 -56 -140 -56zM247 111q45 0 72.5 23t27.5 57v5q-43 17 -94 17q-35 0 -55.5 -14t-20.5 -36q0 -24 18.5 -38t51.5 -14z" />
    <glyph glyph-name="adieresis" unicode="&#xe4;" horiz-adv-x="541" 
d="M180 592q-35 0 -54.5 19.5t-19.5 54.5q0 34 19.5 53.5t54.5 19.5q34 0 53.5 -19.5t19.5 -53.5t-19.5 -54t-53.5 -20zM382 592q-35 0 -54 19.5t-19 54.5q0 34 19 53.5t54 19.5q34 0 54 -19.5t20 -53.5t-20 -54t-54 -20zM208 -9q-85 0 -134 45.5t-49 118.5q0 76 53.5 118.5
t156.5 42.5q67 0 112 -15v43q0 64 -80 64q-35 0 -55.5 -16.5t-20.5 -41.5h-144q0 81 59 131.5t166 50.5q105 0 167 -53t62 -135v-344h-138l-11 47h-4q-50 -56 -140 -56zM247 111q45 0 72.5 23t27.5 57v5q-43 17 -94 17q-35 0 -55.5 -14t-20.5 -36q0 -24 18.5 -38t51.5 -14z
" />
    <glyph glyph-name="aring" unicode="&#xe5;" horiz-adv-x="541" 
d="M277 568q-50 0 -83.5 32t-33.5 81q0 50 33 82t84 32q52 0 85 -32t33 -82t-33 -81.5t-85 -31.5zM276 639q28 -2 39.5 20t0 44t-39.5 21q-26 1 -37 -21t0 -44t37 -20zM208 -9q-85 0 -134 45.5t-49 118.5q0 76 53.5 118.5t156.5 42.5q67 0 112 -15v43q0 64 -80 64
q-35 0 -55.5 -16.5t-20.5 -41.5h-144q0 81 59 131.5t166 50.5q105 0 167 -53t62 -135v-344h-138l-11 47h-4q-50 -56 -140 -56zM247 111q45 0 72.5 23t27.5 57v5q-43 17 -94 17q-35 0 -55.5 -14t-20.5 -36q0 -24 18.5 -38t51.5 -14z" />
    <glyph glyph-name="ae" unicode="&#xe6;" horiz-adv-x="876" 
d="M213 -9q-86 0 -137 45.5t-51 118.5q0 76 53.5 118.5t156.5 42.5q67 0 112 -15v43q0 64 -80 64q-35 0 -55.5 -16.5t-20.5 -41.5h-144q0 81 59 131.5t166 50.5q105 0 167 -58h4q61 58 158 58q116 0 183 -73q67 -71 67 -182v-57h-349q1 -49 26.5 -76.5t75.5 -27.5
q72 0 91 52h149q-10 -75 -75 -126q-63 -51 -165 -51q-127 0 -193 87h-4q-61 -87 -194 -87zM503 317h191q-2 41 -26 65t-67 24q-46 0 -71 -24t-27 -65zM247 111q45 0 72.5 23t27.5 57v5q-43 17 -94 17q-35 0 -55.5 -14t-20.5 -36q0 -24 18.5 -38t51.5 -14z" />
    <glyph glyph-name="ccedilla" unicode="&#xe7;" horiz-adv-x="551" 
d="M284 126q36 0 59.5 22t27.5 58h155q-5 -88 -58 -145.5t-144 -67.5l-21 -29q44 -4 70.5 -29t26.5 -63q0 -45 -40 -72.5t-107 -27.5q-58 0 -95.5 28.5t-37.5 73.5h90q0 -12 12 -21t30 -9q20 0 33.5 8t13.5 22q0 30 -44 30h-32l-25 31l31 61q-96 18 -150 89t-54 177
q0 121 68 195q68 75 191 75q112 0 174 -60t68 -155h-155q-4 36 -27.5 58t-59.5 22q-102 0 -102 -135q0 -136 102 -136z" />
    <glyph glyph-name="egrave" unicode="&#xe8;" horiz-adv-x="556" 
d="M363 583h-110l-116 146v10h160l66 -146v-10zM284 -9q-120 0 -190 76q-69 77 -69 194q0 118 67 194q68 77 189 77q116 0 183 -73q67 -71 67 -182v-57h-349q1 -49 26.5 -76.5t75.5 -27.5q72 0 91 52h149q-10 -75 -75 -126q-63 -51 -165 -51zM183 317h191q-2 41 -26 65
t-67 24q-46 0 -71 -24t-27 -65z" />
    <glyph glyph-name="eacute" unicode="&#xe9;" horiz-adv-x="556" 
d="M324 583h-110v10l66 146h160v-10zM284 -9q-120 0 -190 76q-69 77 -69 194q0 118 67 194q68 77 189 77q116 0 183 -73q67 -71 67 -182v-57h-349q1 -49 26.5 -76.5t75.5 -27.5q72 0 91 52h149q-10 -75 -75 -126q-63 -51 -165 -51zM183 317h191q-2 41 -26 65t-67 24
q-46 0 -71 -24t-27 -65z" />
    <glyph glyph-name="ecircumflex" unicode="&#xea;" horiz-adv-x="556" 
d="M226 585h-118v10l94 142h163l94 -142v-10h-118l-55 54h-4zM284 -9q-120 0 -190 76q-69 77 -69 194q0 118 67 194q68 77 189 77q116 0 183 -73q67 -71 67 -182v-57h-349q1 -49 26.5 -76.5t75.5 -27.5q72 0 91 52h149q-10 -75 -75 -126q-63 -51 -165 -51zM183 317h191
q-2 41 -26 65t-67 24q-46 0 -71 -24t-27 -65z" />
    <glyph glyph-name="edieresis" unicode="&#xeb;" horiz-adv-x="556" 
d="M183 592q-35 0 -54.5 19.5t-19.5 54.5q0 34 19.5 53.5t54.5 19.5q34 0 53.5 -19.5t19.5 -53.5t-19.5 -54t-53.5 -20zM312 666q0 34 19 53.5t54 19.5q34 0 54 -20t20 -53q0 -34 -20 -54t-54 -20q-35 0 -54 19.5t-19 54.5zM284 -9q-120 0 -190 76q-69 77 -69 194
q0 118 67 194q68 77 189 77q116 0 183 -73q67 -71 67 -182v-57h-349q1 -49 26.5 -76.5t75.5 -27.5q72 0 91 52h149q-10 -75 -75 -126q-63 -51 -165 -51zM183 317h191q-2 41 -26 65t-67 24q-46 0 -71 -24t-27 -65z" />
    <glyph glyph-name="igrave" unicode="&#xec;" horiz-adv-x="244" 
d="M209 583h-110l-116 146v10h160l66 -146v-10zM204 0h-154v523h154v-523z" />
    <glyph glyph-name="iacute" unicode="&#xed;" horiz-adv-x="244" 
d="M170 583h-110v10l66 146h160v-10zM204 0h-154v523h154v-523z" />
    <glyph glyph-name="icircumflex" unicode="&#xee;" horiz-adv-x="244" 
d="M72 585h-118v10l94 142h163l94 -142v-10h-118l-55 54h-4zM204 0h-154v523h154v-523z" />
    <glyph glyph-name="idieresis" unicode="&#xef;" horiz-adv-x="244" 
d="M29 592q-35 0 -54.5 19.5t-19.5 54.5q0 34 19.5 53.5t54.5 19.5q34 0 53.5 -19.5t19.5 -53.5t-19.5 -54t-53.5 -20zM158 666q0 34 19 53.5t54 19.5q34 0 54 -20t20 -53q0 -34 -20 -54t-54 -20q-35 0 -54 19.5t-19 54.5zM204 0h-154v523h154v-523z" />
    <glyph glyph-name="eth" unicode="&#xf0;" horiz-adv-x="572" 
d="M547 263v-1v-1q0 -121 -69 -196q-68 -74 -192 -74t-193 74q-68 76 -68 196q0 121 69 196t192 75q21 0 26 -1q-24 30 -53 59l-127 -50l-30 76l87 35q-65 50 -121 79v10h147q38 -21 76 -49l115 46l30 -77l-72 -29q87 -80 134.5 -174t48.5 -193v-1zM390 261q0 136 -104 136
t-104 -136q0 -135 104 -135t104 135z" />
    <glyph glyph-name="ntilde" unicode="&#xf1;" horiz-adv-x="581" 
d="M385 583q-33 0 -68 18l-15 8q-23 13 -36 13q-27 0 -27 -37h-92v15q0 62 28.5 95.5t79.5 33.5q33 0 70 -19l16 -8q25 -13 36 -13q14 0 19 8.5t5 29.5h91v-15q0 -129 -107 -129zM204 0h-154v523h138l12 -50h4q50 59 143 59q88 0 141 -51t53 -137v-344h-154v296q0 96 -88 96
q-42 0 -68.5 -27.5t-26.5 -74.5v-290z" />
    <glyph glyph-name="ograve" unicode="&#xf2;" horiz-adv-x="572" 
d="M368 583h-110l-116 146v10h160l66 -146v-10zM478 65q-68 -74 -192 -74t-193 74q-68 76 -68 196q0 121 69 196t192 75t192 -75t69 -196t-69 -196zM390 261q0 136 -104 136t-104 -136q0 -135 104 -135t104 135z" />
    <glyph glyph-name="oacute" unicode="&#xf3;" horiz-adv-x="572" 
d="M329 583h-110v10l66 146h160v-10zM478 65q-68 -74 -192 -74t-193 74q-68 76 -68 196q0 121 69 196t192 75t192 -75t69 -196t-69 -196zM390 261q0 136 -104 136t-104 -136q0 -135 104 -135t104 135z" />
    <glyph glyph-name="ocircumflex" unicode="&#xf4;" horiz-adv-x="572" 
d="M231 585h-118v10l94 142h163l94 -142v-10h-118l-55 54h-4zM478 65q-68 -74 -192 -74t-193 74q-68 76 -68 196q0 121 69 196t192 75t192 -75t69 -196t-69 -196zM390 261q0 136 -104 136t-104 -136q0 -135 104 -135t104 135z" />
    <glyph glyph-name="otilde" unicode="&#xf5;" horiz-adv-x="572" 
d="M340 583q-34 0 -68 18l-15 8q-23 13 -36 13q-27 0 -27 -37h-92v15q0 62 28.5 95.5t79.5 33.5q33 0 70 -19l16 -8q25 -13 36 -13q14 0 19 8.5t5 29.5h91v-15q0 -129 -107 -129zM478 65q-68 -74 -192 -74t-193 74q-68 76 -68 196q0 121 69 196t192 75t192 -75t69 -196
t-69 -196zM390 261q0 136 -104 136t-104 -136q0 -135 104 -135t104 135z" />
    <glyph glyph-name="odieresis" unicode="&#xf6;" horiz-adv-x="572" 
d="M188 592q-35 0 -54.5 19.5t-19.5 54.5q0 34 19.5 53.5t54.5 19.5q34 0 53.5 -19.5t19.5 -53.5t-19.5 -54t-53.5 -20zM390 592q-35 0 -54 19.5t-19 54.5q0 34 19 53.5t54 19.5q34 0 54 -19.5t20 -53.5t-20 -54t-54 -20zM478 65q-68 -74 -192 -74t-193 74q-68 76 -68 196
q0 121 69 196t192 75t192 -75t69 -196t-69 -196zM390 261q0 136 -104 136t-104 -136q0 -135 104 -135t104 135z" />
    <glyph glyph-name="divide" unicode="&#xf7;" horiz-adv-x="496" 
d="M248 423q-38 0 -58 21t-20 58t20 57.5t58 20.5q36 0 57 -21t21 -57t-21 -57.5t-57 -21.5zM491 250h-486v126h486v-126zM248 46q-38 0 -58 21t-20 58t20 57.5t58 20.5q36 0 57 -21t21 -57t-21 -57.5t-57 -21.5z" />
    <glyph glyph-name="oslash" unicode="&#xf8;" horiz-adv-x="572" 
d="M542 559l-64 -102q69 -73 69 -196q0 -121 -69 -196q-68 -74 -192 -74q-49 0 -94 13l-39 -62h-123v10l68 109q-73 73 -73 200q0 121 69 196t192 75q54 0 98 -15l33 52h125v-10zM182 261q0 -33 6 -57l120 191q-18 2 -22 2q-104 0 -104 -136zM286 126q104 0 104 135
q0 23 -4 50l-116 -184q3 -1 16 -1z" />
    <glyph glyph-name="ugrave" unicode="&#xf9;" horiz-adv-x="579" 
d="M374 593v-10h-110l-116 146v10h160zM375 232v291h154v-314q0 -92 -60 -155q-59 -63 -179 -63h-1q-120 0 -180 63q-59 64 -59 155v314h154v-291q0 -96 86 -96q85 0 85 96z" />
    <glyph glyph-name="uacute" unicode="&#xfa;" horiz-adv-x="579" 
d="M451 739v-10l-116 -146h-110v10l66 146h160zM375 232v291h154v-314q0 -92 -60 -155q-59 -63 -179 -63h-1q-120 0 -180 63q-59 64 -59 155v314h154v-291q0 -96 86 -96q85 0 85 96z" />
    <glyph glyph-name="ucircumflex" unicode="&#xfb;" horiz-adv-x="579" 
d="M297 639h-4l-56 -54h-118v10l94 142h163l94 -142v-10h-118zM375 232v291h154v-314q0 -92 -60 -155q-59 -63 -179 -63h-1q-120 0 -180 63q-59 64 -59 155v314h154v-291q0 -96 86 -96q85 0 85 96z" />
    <glyph glyph-name="udieresis" unicode="&#xfc;" horiz-adv-x="579" 
d="M194 592q-35 0 -54.5 19.5t-19.5 54.5q0 34 19.5 53.5t54.5 19.5q34 0 53.5 -19.5t19.5 -53.5t-19.5 -54t-53.5 -20zM396 592q-35 0 -54 19.5t-19 54.5q0 34 19 53.5t54 19.5q34 0 54 -19.5t20 -53.5t-20 -54t-54 -20zM375 232v291h154v-314q0 -92 -60 -155
q-59 -63 -179 -63h-1q-120 0 -180 63q-59 64 -59 155v314h154v-291q0 -96 86 -96q85 0 85 96z" />
    <glyph glyph-name="yacute" unicode="&#xfd;" horiz-adv-x="567" 
d="M336 583h-110v10l66 146h160v-10zM294 -229h-167v10l75 219h-26l-166 513v10h158l106 -371h4l113 371h166v-10z" />
    <glyph glyph-name="thorn" unicode="&#xfe;" horiz-adv-x="600" 
d="M347 532q96 0 154 -76t58 -195t-58 -195q-57 -75 -154 -75q-89 0 -139 59h-4v-279h-154v969h154v-267h4q50 59 139 59zM403 261q0 63 -26 99.5t-77 36.5t-77 -36.5t-26 -99.5q0 -135 103 -135t103 135z" />
    <glyph glyph-name="ydieresis" unicode="&#xff;" horiz-adv-x="567" 
d="M195 592q-35 0 -54.5 19.5t-19.5 54.5q0 34 19.5 53.5t54.5 19.5q34 0 53.5 -19.5t19.5 -53.5t-19.5 -54t-53.5 -20zM324 666q0 34 19 53.5t54 19.5q34 0 54 -20t20 -53q0 -34 -20 -54t-54 -20q-35 0 -54 19.5t-19 54.5zM294 -229h-167v10l75 219h-26l-166 513v10h158
l106 -371h4l113 371h166v-10z" />
    <glyph glyph-name="Amacron" unicode="&#x100;" horiz-adv-x="702" 
d="M205 895h293v-111h-293v111zM250 700h201l241 -690v-10h-174l-41 133h-260l-41 -133h-166v10zM345 543l-85 -272h174l-85 272h-4z" />
    <glyph glyph-name="amacron" unicode="&#x101;" horiz-adv-x="541" 
d="M426 607h-293v111h293v-111zM208 -9q-85 0 -134 45.5t-49 118.5q0 76 53.5 118.5t156.5 42.5q67 0 112 -15v43q0 64 -80 64q-35 0 -55.5 -16.5t-20.5 -41.5h-144q0 81 59 131.5t166 50.5q105 0 167 -53t62 -135v-344h-138l-11 47h-4q-50 -56 -140 -56zM247 111
q45 0 72.5 23t27.5 57v5q-43 17 -94 17q-35 0 -55.5 -14t-20.5 -36q0 -24 18.5 -38t51.5 -14z" />
    <glyph glyph-name="Abreve" unicode="&#x102;" horiz-adv-x="702" 
d="M350 762q-77 0 -119 38.5t-42 110.5h108q3 -50 53 -50t53 50h108q0 -72 -41.5 -110.5t-119.5 -38.5zM250 700h201l241 -690v-10h-174l-41 133h-260l-41 -133h-166v10zM345 543l-85 -272h174l-85 272h-4z" />
    <glyph glyph-name="abreve" unicode="&#x103;" horiz-adv-x="541" 
d="M278 585q-77 0 -119 38.5t-42 110.5h108q3 -50 53 -50t53 50h108q0 -72 -41.5 -110.5t-119.5 -38.5zM208 -9q-85 0 -134 45.5t-49 118.5q0 76 53.5 118.5t156.5 42.5q67 0 112 -15v43q0 64 -80 64q-35 0 -55.5 -16.5t-20.5 -41.5h-144q0 81 59 131.5t166 50.5
q105 0 167 -53t62 -135v-344h-138l-11 47h-4q-50 -56 -140 -56zM247 111q45 0 72.5 23t27.5 57v5q-43 17 -94 17q-35 0 -55.5 -14t-20.5 -36q0 -24 18.5 -38t51.5 -14z" />
    <glyph glyph-name="Aogonek" unicode="&#x104;" horiz-adv-x="702" 
d="M250 700h201l241 -690v-10h-1q-37 -15 -61 -41t-24 -53q0 -42 49 -42q21 0 36 4v-88q-34 -8 -70 -8q-54 0 -94 28q-41 27 -41 78q0 76 73 122h-41l-41 133h-260l-41 -133h-166v10zM345 543l-85 -272h174l-85 272h-4z" />
    <glyph glyph-name="aogonek" unicode="&#x105;" horiz-adv-x="541" 
d="M272 532q105 0 167 -53t62 -135v-344h-1q-37 -15 -61 -41t-24 -53q0 -42 49 -42q21 0 36 4v-88q-34 -8 -70 -8q-54 0 -94 28q-41 27 -41 78q0 76 73 122h-5l-11 47h-4q-50 -56 -140 -56q-85 0 -134 45.5t-49 118.5q0 76 53.5 118.5t156.5 42.5q67 0 112 -15v43
q0 64 -80 64q-35 0 -55.5 -16.5t-20.5 -41.5h-144q0 81 59 131.5t166 50.5zM347 191v5q-43 17 -94 17q-35 0 -55.5 -14t-20.5 -36q0 -24 18.5 -38t51.5 -14q45 0 72.5 23t27.5 57z" />
    <glyph glyph-name="Cacute" unicode="&#x106;" horiz-adv-x="709" 
d="M412 760h-110v10l66 146h160v-10zM369 -9q-162 0 -251 101q-88 100 -88 257q0 159 88 259q89 101 251 101q131 0 216 -79q87 -81 94 -194h-160q-6 58 -45 94.5t-105 36.5q-87 0 -133 -56t-46 -162t46 -161.5t133 -55.5q64 0 102.5 34t48.5 91h159q-11 -113 -96 -189
q-86 -77 -214 -77z" />
    <glyph glyph-name="cacute" unicode="&#x107;" horiz-adv-x="551" 
d="M334 583h-110v10l66 146h160v-10zM288 -9q-122 0 -193 74q-70 74 -70 197q0 121 68 195q68 75 191 75q112 0 174 -60t68 -155h-155q-4 36 -27.5 58t-59.5 22q-102 0 -102 -135q0 -136 102 -136q36 0 59.5 22t27.5 58h155q-6 -96 -67 -155q-61 -60 -171 -60z" />
    <glyph glyph-name="Ccircumflex" unicode="&#x108;" horiz-adv-x="709" 
d="M314 762h-118v10l94 142h163l94 -142v-10h-118l-55 54h-4zM369 -9q-162 0 -251 101q-88 100 -88 257q0 159 88 259q89 101 251 101q131 0 216 -79q87 -81 94 -194h-160q-6 58 -45 94.5t-105 36.5q-87 0 -133 -56t-46 -162t46 -161.5t133 -55.5q64 0 102.5 34t48.5 91h159
q-11 -113 -96 -189q-86 -77 -214 -77z" />
    <glyph glyph-name="ccircumflex" unicode="&#x109;" horiz-adv-x="551" 
d="M236 585h-118v10l94 142h163l94 -142v-10h-118l-55 54h-4zM288 -9q-122 0 -193 74q-70 74 -70 197q0 121 68 195q68 75 191 75q112 0 174 -60t68 -155h-155q-4 36 -27.5 58t-59.5 22q-102 0 -102 -135q0 -136 102 -136q36 0 59.5 22t27.5 58h155q-6 -96 -67 -155
q-61 -60 -171 -60z" />
    <glyph glyph-name="Cdotaccent" unicode="&#x10a;" horiz-adv-x="709" 
d="M369 753q-45 0 -69 23.5t-24 66.5q0 42 24 65.5t69 23.5q44 0 68.5 -23.5t24.5 -65.5t-24.5 -66t-68.5 -24zM369 -9q-162 0 -251 101q-88 100 -88 257q0 159 88 259q89 101 251 101q131 0 216 -79q87 -81 94 -194h-160q-6 58 -45 94.5t-105 36.5q-87 0 -133 -56t-46 -162
t46 -161.5t133 -55.5q64 0 102.5 34t48.5 91h159q-11 -113 -96 -189q-86 -77 -214 -77z" />
    <glyph glyph-name="cdotaccent" unicode="&#x10b;" horiz-adv-x="551" 
d="M291 576q-45 0 -69 23.5t-24 66.5q0 42 24 65.5t69 23.5q44 0 68.5 -23.5t24.5 -65.5t-24.5 -66t-68.5 -24zM288 -9q-122 0 -193 74q-70 74 -70 197q0 121 68 195q68 75 191 75q112 0 174 -60t68 -155h-155q-4 36 -27.5 58t-59.5 22q-102 0 -102 -135q0 -136 102 -136
q36 0 59.5 22t27.5 58h155q-6 -96 -67 -155q-61 -60 -171 -60z" />
    <glyph glyph-name="Ccaron" unicode="&#x10c;" horiz-adv-x="709" 
d="M453 762h-163l-94 142v10h118l55 -54h4l56 54h118v-10zM369 -9q-162 0 -251 101q-88 100 -88 257q0 159 88 259q89 101 251 101q131 0 216 -79q87 -81 94 -194h-160q-6 58 -45 94.5t-105 36.5q-87 0 -133 -56t-46 -162t46 -161.5t133 -55.5q64 0 102.5 34t48.5 91h159
q-11 -113 -96 -189q-86 -77 -214 -77z" />
    <glyph glyph-name="ccaron" unicode="&#x10d;" horiz-adv-x="551" 
d="M375 585h-163l-94 142v10h118l55 -54h4l56 54h118v-10zM288 -9q-122 0 -193 74q-70 74 -70 197q0 121 68 195q68 75 191 75q112 0 174 -60t68 -155h-155q-4 36 -27.5 58t-59.5 22q-102 0 -102 -135q0 -136 102 -136q36 0 59.5 22t27.5 58h155q-6 -96 -67 -155
q-61 -60 -171 -60z" />
    <glyph glyph-name="Dcaron" unicode="&#x10e;" horiz-adv-x="704" 
d="M406 762h-163l-94 142v10h118l55 -54h4l56 54h118v-10zM312 0h-242v700h242q159 0 260 -97q102 -97 102 -253q0 -149 -101 -250q-100 -100 -261 -100zM217 560v-421h86q211 0 211 211q0 105 -54 157.5t-157 52.5h-86z" />
    <glyph glyph-name="dcaron" unicode="&#x10f;" 
d="M237 -9q-97 0 -155 75q-57 76 -57 196q0 119 57 194q58 76 155 76q89 0 139 -59h4v267h154v-740h-138l-16 50h-4q-50 -59 -139 -59zM674 570h-100v170h150v-10zM387 262q0 135 -103 135t-103 -135q0 -63 26 -99.5t77 -36.5t77 36.5t26 99.5z" />
    <glyph glyph-name="Dcroat" unicode="&#x110;" horiz-adv-x="745" 
d="M111 700h242q159 0 260 -97q102 -97 102 -253q0 -149 -101 -250q-100 -100 -261 -100h-242v297h-71v131h71v272zM258 139h86q211 0 211 211q0 105 -54 157.5t-157 52.5h-86v-132h142v-131h-142v-158z" />
    <glyph glyph-name="dslash" unicode="&#x111;" 
d="M534 680h56v-100h-56v-580h-138l-16 50h-4q-50 -59 -139 -59q-97 0 -155 75q-57 76 -57 196q0 119 57 194q58 76 155 76q89 0 139 -59h4v107h-114v100h114v60h154v-60zM387 262q0 135 -103 135t-103 -135q0 -63 26 -99.5t77 -36.5t77 36.5t26 99.5z" />
    <glyph glyph-name="Emacron" unicode="&#x112;" horiz-adv-x="610" 
d="M482 784h-293v111h293v-111zM570 0h-500v700h500v-140h-343v-129h312v-140h-312v-152h343v-139z" />
    <glyph glyph-name="emacron" unicode="&#x113;" horiz-adv-x="556" 
d="M429 607h-293v111h293v-111zM284 -9q-120 0 -190 76q-69 77 -69 194q0 118 67 194q68 77 189 77q116 0 183 -73q67 -71 67 -182v-57h-349q1 -49 26.5 -76.5t75.5 -27.5q72 0 91 52h149q-10 -75 -75 -126q-63 -51 -165 -51zM183 317h191q-2 41 -26 65t-67 24
q-46 0 -71 -24t-27 -65z" />
    <glyph glyph-name="Ebreve" unicode="&#x114;" horiz-adv-x="610" 
d="M334 762q-77 0 -119 38.5t-42 110.5h108q3 -50 53 -50t53 50h108q0 -72 -41.5 -110.5t-119.5 -38.5zM570 0h-500v700h500v-140h-343v-129h312v-140h-312v-152h343v-139z" />
    <glyph glyph-name="ebreve" unicode="&#x115;" horiz-adv-x="556" 
d="M281 585q-77 0 -119 38.5t-42 110.5h108q3 -50 53 -50t53 50h108q0 -72 -41.5 -110.5t-119.5 -38.5zM284 -9q-120 0 -190 76q-69 77 -69 194q0 118 67 194q68 77 189 77q116 0 183 -73q67 -71 67 -182v-57h-349q1 -49 26.5 -76.5t75.5 -27.5q72 0 91 52h149
q-10 -75 -75 -126q-63 -51 -165 -51zM183 317h191q-2 41 -26 65t-67 24q-46 0 -71 -24t-27 -65z" />
    <glyph glyph-name="Edotaccent" unicode="&#x116;" horiz-adv-x="610" 
d="M334 753q-45 0 -69 23.5t-24 66.5q0 42 24 65.5t69 23.5q44 0 68.5 -23.5t24.5 -65.5t-24.5 -66t-68.5 -24zM570 0h-500v700h500v-140h-343v-129h312v-140h-312v-152h343v-139z" />
    <glyph glyph-name="edotaccent" unicode="&#x117;" horiz-adv-x="556" 
d="M281 576q-45 0 -69 23.5t-24 66.5q0 42 24 65.5t69 23.5q44 0 68.5 -23.5t24.5 -65.5t-24.5 -66t-68.5 -24zM284 -9q-120 0 -190 76q-69 77 -69 194q0 118 67 194q68 77 189 77q116 0 183 -73q67 -71 67 -182v-57h-349q1 -49 26.5 -76.5t75.5 -27.5q72 0 91 52h149
q-10 -75 -75 -126q-63 -51 -165 -51zM183 317h191q-2 41 -26 65t-67 24q-46 0 -71 -24t-27 -65z" />
    <glyph glyph-name="Eogonek" unicode="&#x118;" horiz-adv-x="610" 
d="M570 700v-140h-343v-129h312v-140h-312v-152h343v-139h-4q-37 -15 -61 -41t-24 -53q0 -42 49 -42q21 0 36 4v-88q-34 -8 -70 -8q-54 0 -94 28q-41 27 -41 78q0 76 73 122h-364v700h500z" />
    <glyph glyph-name="eogonek" unicode="&#x119;" horiz-adv-x="556" 
d="M531 277v-57h-349q1 -49 26.5 -76.5t75.5 -27.5q72 0 91 52h149q-9 -59 -51.5 -104.5t-109.5 -63.5h2q-37 -15 -61 -41t-24 -53q0 -42 49 -42q21 0 36 4v-88q-34 -8 -70 -8q-54 0 -94 28q-41 27 -41 78q0 72 67 118q-96 18 -149 91q-53 74 -53 174q0 118 67 194
q68 77 189 77q116 0 183 -73q67 -71 67 -182zM183 317h191q-2 41 -26 65t-67 24q-46 0 -71 -24t-27 -65z" />
    <glyph glyph-name="Ecaron" unicode="&#x11a;" horiz-adv-x="610" 
d="M418 762h-163l-94 142v10h118l55 -54h4l56 54h118v-10zM570 0h-500v700h500v-140h-343v-129h312v-140h-312v-152h343v-139z" />
    <glyph glyph-name="ecaron" unicode="&#x11b;" horiz-adv-x="556" 
d="M365 585h-163l-94 142v10h118l55 -54h4l56 54h118v-10zM284 -9q-120 0 -190 76q-69 77 -69 194q0 118 67 194q68 77 189 77q116 0 183 -73q67 -71 67 -182v-57h-349q1 -49 26.5 -76.5t75.5 -27.5q72 0 91 52h149q-10 -75 -75 -126q-63 -51 -165 -51zM183 317h191
q-2 41 -26 65t-67 24q-46 0 -71 -24t-27 -65z" />
    <glyph glyph-name="Gcircumflex" unicode="&#x11c;" horiz-adv-x="714" 
d="M314 762h-118v10l94 142h163l94 -142v-10h-118l-55 54h-4zM369 -9q-162 0 -251 101q-88 100 -88 257q0 159 88 259q89 101 251 101q131 0 214 -73q84 -72 96 -180h-160q-10 51 -47.5 81t-102.5 30q-87 0 -133 -56t-46 -162t46 -161.5t133 -55.5q124 0 151 107h-131v139
h295v-79q0 -139 -88 -224q-88 -84 -227 -84z" />
    <glyph glyph-name="gcircumflex" unicode="&#x11d;" 
d="M220 585h-118v10l94 142h163l94 -142v-10h-118l-55 54h-4zM278 -238q-106 0 -171 53q-66 53 -67 140h151q3 -27 27 -44t60 -17q48 0 75 23t27 60v73h-4q-50 -59 -139 -59q-97 0 -155 75q-57 76 -57 195q0 120 57 195q58 76 155 76q89 0 139 -59h4l16 50h138v-548
q0 -97 -72 -155q-71 -58 -184 -58zM387 261q0 63 -26 99.5t-77 36.5t-77 -36.5t-26 -99.5q0 -135 103 -135t103 135z" />
    <glyph glyph-name="Gbreve" unicode="&#x11e;" horiz-adv-x="714" 
d="M369 762q-77 0 -119 38.5t-42 110.5h108q3 -50 53 -50t53 50h108q0 -72 -41.5 -110.5t-119.5 -38.5zM369 -9q-162 0 -251 101q-88 100 -88 257q0 159 88 259q89 101 251 101q131 0 214 -73q84 -72 96 -180h-160q-10 51 -47.5 81t-102.5 30q-87 0 -133 -56t-46 -162
t46 -161.5t133 -55.5q124 0 151 107h-131v139h295v-79q0 -139 -88 -224q-88 -84 -227 -84z" />
    <glyph glyph-name="gbreve" unicode="&#x11f;" 
d="M275 585q-77 0 -119 38.5t-42 110.5h108q3 -50 53 -50t53 50h108q0 -72 -41.5 -110.5t-119.5 -38.5zM278 -238q-106 0 -171 53q-66 53 -67 140h151q3 -27 27 -44t60 -17q48 0 75 23t27 60v73h-4q-50 -59 -139 -59q-97 0 -155 75q-57 76 -57 195q0 120 57 195
q58 76 155 76q89 0 139 -59h4l16 50h138v-548q0 -97 -72 -155q-71 -58 -184 -58zM387 261q0 63 -26 99.5t-77 36.5t-77 -36.5t-26 -99.5q0 -135 103 -135t103 135z" />
    <glyph glyph-name="Gdotaccent" unicode="&#x120;" horiz-adv-x="714" 
d="M369 753q-45 0 -69 23.5t-24 66.5q0 42 24 65.5t69 23.5q44 0 68.5 -23.5t24.5 -65.5t-24.5 -66t-68.5 -24zM369 -9q-162 0 -251 101q-88 100 -88 257q0 159 88 259q89 101 251 101q131 0 214 -73q84 -72 96 -180h-160q-10 51 -47.5 81t-102.5 30q-87 0 -133 -56
t-46 -162t46 -161.5t133 -55.5q124 0 151 107h-131v139h295v-79q0 -139 -88 -224q-88 -84 -227 -84z" />
    <glyph glyph-name="gdotaccent" unicode="&#x121;" 
d="M275 576q-45 0 -69 23.5t-24 66.5q0 42 24 65.5t69 23.5q44 0 68.5 -23.5t24.5 -65.5t-24.5 -66t-68.5 -24zM278 -238q-106 0 -171 53q-66 53 -67 140h151q3 -27 27 -44t60 -17q48 0 75 23t27 60v73h-4q-50 -59 -139 -59q-97 0 -155 75q-57 76 -57 195q0 120 57 195
q58 76 155 76q89 0 139 -59h4l16 50h138v-548q0 -97 -72 -155q-71 -58 -184 -58zM387 261q0 63 -26 99.5t-77 36.5t-77 -36.5t-26 -99.5q0 -135 103 -135t103 135z" />
    <glyph glyph-name="Gcommaaccent" unicode="&#x122;" horiz-adv-x="714" 
d="M369 -9q-162 0 -251 101q-88 100 -88 257q0 159 88 259q89 101 251 101q131 0 214 -73q84 -72 96 -180h-160q-10 51 -47.5 81t-102.5 30q-87 0 -133 -56t-46 -162t46 -161.5t133 -55.5q124 0 151 107h-131v139h295v-79q0 -139 -88 -224q-88 -84 -227 -84zM375 -217h-100
v10l21 156h150v-10z" />
    <glyph glyph-name="gcommaaccent" unicode="&#x123;" 
d="M261 745h100v-10l-21 -156h-150v10zM278 -238q-106 0 -171 53q-66 53 -67 140h151q3 -27 27 -44t60 -17q48 0 75 23t27 60v73h-4q-50 -59 -139 -59q-97 0 -155 75q-57 76 -57 195q0 120 57 195q58 76 155 76q89 0 139 -59h4l16 50h138v-548q0 -97 -72 -155
q-71 -58 -184 -58zM387 261q0 63 -26 99.5t-77 36.5t-77 -36.5t-26 -99.5q0 -135 103 -135t103 135z" />
    <glyph glyph-name="Hcircumflex" unicode="&#x124;" horiz-adv-x="735" 
d="M375 816h-4l-56 -54h-118v10l94 142h163l94 -142v-10h-118zM508 432v268h157v-700h-157v291h-281v-291h-157v700h157v-268h281z" />
    <glyph glyph-name="hcircumflex" unicode="&#x125;" horiz-adv-x="585" 
d="M73 802h-118v10l94 142h163l94 -142v-10h-118l-55 54h-4zM204 0h-154v740h154v-267h4q50 59 143 59q88 0 141 -51t53 -137v-344h-154v296q0 96 -88 96q-43 0 -71 -28.5t-28 -73.5v-290z" />
    <glyph glyph-name="Hbar" unicode="&#x126;" horiz-adv-x="835" 
d="M716 632h49v-131h-49v-501h-157v291h-281v-291h-157v501h-51v131h51v68h157v-68h281v68h157v-68zM278 432h281v69h-281v-69z" />
    <glyph glyph-name="hbar" unicode="&#x127;" horiz-adv-x="585" 
d="M351 532q88 0 141 -51t53 -137v-344h-154v296q0 96 -88 96q-43 0 -71 -28.5t-28 -73.5v-290h-154v580h-56v100h56v60h154v-60h114v-100h-114v-107h4q50 59 143 59z" />
    <glyph glyph-name="Itilde" unicode="&#x128;" horiz-adv-x="298" 
d="M205 760q-33 0 -68 18l-15 8q-23 13 -36 13q-27 0 -27 -37h-92v15q0 62 28.5 95.5t79.5 33.5q33 0 70 -19l16 -8q25 -13 36 -13q14 0 19 8.5t5 29.5h91v-15q0 -129 -107 -129zM228 0h-158v700h158v-700z" />
    <glyph glyph-name="itilde" unicode="&#x129;" horiz-adv-x="244" 
d="M181 583q-33 0 -68 18l-15 8q-23 13 -36 13q-27 0 -27 -37h-92v15q0 62 28.5 95.5t79.5 33.5q33 0 70 -19l16 -8q25 -13 36 -13q14 0 19 8.5t5 29.5h91v-15q0 -129 -107 -129zM204 0h-154v523h154v-523z" />
    <glyph glyph-name="Imacron" unicode="&#x12a;" horiz-adv-x="298" 
d="M299 784h-293v111h293v-111zM228 0h-158v700h158v-700z" />
    <glyph glyph-name="imacron" unicode="&#x12b;" horiz-adv-x="244" 
d="M275 607h-293v111h293v-111zM204 0h-154v523h154v-523z" />
    <glyph glyph-name="Ibreve" unicode="&#x12c;" horiz-adv-x="298" 
d="M151 762q-77 0 -119 38.5t-42 110.5h108q3 -50 53 -50t53 50h108q0 -72 -41.5 -110.5t-119.5 -38.5zM228 0h-158v700h158v-700z" />
    <glyph glyph-name="ibreve" unicode="&#x12d;" horiz-adv-x="244" 
d="M127 585q-77 0 -119 38.5t-42 110.5h108q3 -50 53 -50t53 50h108q0 -72 -41.5 -110.5t-119.5 -38.5zM204 0h-154v523h154v-523z" />
    <glyph glyph-name="Iogonek" unicode="&#x12e;" horiz-adv-x="298" 
d="M228 700v-700q-37 -15 -61 -41t-24 -53q0 -42 49 -42q21 0 36 4v-88q-34 -8 -70 -8q-54 0 -94 28q-41 27 -41 78q0 76 73 122h-26v700h158z" />
    <glyph glyph-name="iogonek" unicode="&#x12f;" horiz-adv-x="244" 
d="M127 576q-45 0 -69 23.5t-24 66.5q0 42 24 65.5t69 23.5q44 0 68.5 -23.5t24.5 -65.5t-24.5 -66t-68.5 -24zM72 0h-22v523h154v-523q-37 -15 -61 -41t-24 -53q0 -42 49 -42q21 0 36 4v-88q-34 -8 -70 -8q-54 0 -94 28q-41 27 -41 78q0 76 73 122z" />
    <glyph glyph-name="Idot" unicode="&#x130;" horiz-adv-x="298" 
d="M151 753q-45 0 -69 23.5t-24 66.5q0 42 24 65.5t69 23.5q44 0 68.5 -23.5t24.5 -65.5t-24.5 -66t-68.5 -24zM228 0h-158v700h158v-700z" />
    <glyph glyph-name="dotlessi" unicode="&#x131;" horiz-adv-x="244" 
d="M204 0h-154v523h154v-523z" />
    <glyph glyph-name="IJ" unicode="&#x132;" horiz-adv-x="845" 
d="M228 0h-158v700h158v-700zM543 -9q-112 0 -174 62q-61 62 -61 157h153q1 -76 84 -76q82 0 82 85v481h158v-481q0 -100 -64 -164q-63 -64 -178 -64z" />
    <glyph glyph-name="ij" unicode="&#x133;" horiz-adv-x="492" 
d="M128 576q-45 0 -69 23.5t-24 66.5q0 42 24 65.5t69 23.5q44 0 68.5 -23.5t24.5 -65.5t-24.5 -66t-68.5 -24zM377 576q-45 0 -69 23.5t-24 66.5q0 42 24 65.5t69 23.5q44 0 68.5 -23.5t24.5 -65.5t-24.5 -66t-68.5 -24zM204 0h-154v523h154v-523zM264 -238q-32 0 -70 8
v139q20 -3 38 -3q66 0 66 73v544h154v-583q0 -83 -52.5 -130.5t-135.5 -47.5z" />
    <glyph glyph-name="Jcircumflex" unicode="&#x134;" horiz-adv-x="547" 
d="M349 762h-118v10l94 142h163l94 -142v-10h-118l-55 54h-4zM245 -9q-112 0 -174 62q-61 62 -61 157h153q1 -76 84 -76q82 0 82 85v481h158v-481q0 -100 -64 -164q-63 -64 -178 -64z" />
    <glyph glyph-name="jcircumflex" unicode="&#x135;" horiz-adv-x="248" 
d="M72 585h-118v10l94 142h163l94 -142v-10h-118l-55 54h-4zM20 -238q-32 0 -70 8v139q19 -3 38 -3q66 0 66 73v544h154v-583q0 -83 -52.5 -130.5t-135.5 -47.5z" />
    <glyph glyph-name="Kcommaaccent" unicode="&#x136;" horiz-adv-x="676" 
d="M654 690l-301 -326l313 -354v-10h-186l-253 290v-290h-157v700h157v-265l243 265h184v-10zM256 -217v10l21 156h150v-10l-71 -156h-100z" />
    <glyph glyph-name="kcommaaccent" unicode="&#x137;" horiz-adv-x="561" 
d="M540 513l-212 -237l223 -266v-10h-186l-171 214v-214h-144v740h144v-407l166 190h180v-10zM185 -217v10l21 156h150v-10l-71 -156h-100z" />
    <glyph glyph-name="kgreenlandic" unicode="&#x138;" horiz-adv-x="561" 
d="M540 513l-212 -237l223 -266v-10h-186l-171 214v-214h-144v523h144v-190l166 190h180v-10z" />
    <glyph glyph-name="Lacute" unicode="&#x139;" horiz-adv-x="555" 
d="M190 760h-110v10l66 146h160v-10zM545 0h-475v700h157v-560h318v-140z" />
    <glyph glyph-name="lacute" unicode="&#x13a;" horiz-adv-x="244" 
d="M166 800h-110v10l66 146h160v-10zM204 0h-154v740h154v-740z" />
    <glyph glyph-name="Lcommaaccent" unicode="&#x13b;" horiz-adv-x="555" 
d="M545 0h-475v700h157v-560h318v-140zM313 -217h-100v10l21 156h150v-10z" />
    <glyph glyph-name="lcommaaccent" unicode="&#x13c;" horiz-adv-x="244" 
d="M204 0h-154v740h154v-740zM130 -217h-100v10l21 156h150v-10z" />
    <glyph glyph-name="Lcaron" unicode="&#x13d;" horiz-adv-x="555" 
d="M545 0h-475v700h157v-560h318v-140zM430 530h-100v170h150v-10z" />
    <glyph glyph-name="lcaron" unicode="&#x13e;" horiz-adv-x="314" 
d="M204 0h-154v740h154v-740zM344 570h-100v170h150v-10z" />
    <glyph glyph-name="Ldot" unicode="&#x13f;" horiz-adv-x="600" 
d="M545 0h-475v700h157v-560h318v-140zM397 279q-44 0 -67 23.5t-23 66.5q0 42 23 65.5t67 23.5q43 0 66.5 -24t23.5 -65q0 -42 -23.5 -66t-66.5 -24z" />
    <glyph glyph-name="ldot" unicode="&#x140;" horiz-adv-x="449" 
d="M204 0h-154v740h154v-740zM339 276q-44 0 -67 23.5t-23 66.5q0 42 23 65.5t67 23.5q43 0 66.5 -23.5t23.5 -65.5t-23.5 -66t-66.5 -24z" />
    <glyph glyph-name="Lslash" unicode="&#x141;" horiz-adv-x="625" 
d="M297 296v-156h318v-140h-475v236l-60 -23h-10v127l70 27v333h157v-272l170 66h10v-129z" />
    <glyph glyph-name="lslash" unicode="&#x142;" horiz-adv-x="357" 
d="M327 474h10v-119l-78 -35v-320h-154v252l-65 -29h-10v117l75 34v366h154v-297z" />
    <glyph glyph-name="Nacute" unicode="&#x143;" horiz-adv-x="743" 
d="M442 760h-110v10l66 146h160v-10zM225 0h-155v700h185l258 -457h4v457h156v-700h-186l-258 454h-4v-454z" />
    <glyph glyph-name="nacute" unicode="&#x144;" horiz-adv-x="581" 
d="M374 583h-110v10l66 146h160v-10zM204 0h-154v523h138l12 -50h4q50 59 143 59q88 0 141 -51t53 -137v-344h-154v296q0 96 -88 96q-42 0 -68.5 -27.5t-26.5 -74.5v-290z" />
    <glyph glyph-name="Ncommaaccent" unicode="&#x145;" horiz-adv-x="743" 
d="M225 0h-155v700h185l258 -457h4v457h156v-700h-186l-258 454h-4v-454zM366 -217h-100v10l21 156h150v-10z" />
    <glyph glyph-name="ncommaaccent" unicode="&#x146;" horiz-adv-x="581" 
d="M204 0h-154v523h138l12 -50h4q50 59 143 59q88 0 141 -51t53 -137v-344h-154v296q0 96 -88 96q-42 0 -68.5 -27.5t-26.5 -74.5v-290zM311 -217h-100v10l21 156h150v-10z" />
    <glyph glyph-name="Ncaron" unicode="&#x147;" horiz-adv-x="743" 
d="M483 762h-163l-94 142v10h118l55 -54h4l56 54h118v-10zM225 0h-155v700h185l258 -457h4v457h156v-700h-186l-258 454h-4v-454z" />
    <glyph glyph-name="ncaron" unicode="&#x148;" horiz-adv-x="581" 
d="M415 585h-163l-94 142v10h118l55 -54h4l56 54h118v-10zM204 0h-154v523h138l12 -50h4q50 59 143 59q88 0 141 -51t53 -137v-344h-154v296q0 96 -88 96q-42 0 -68.5 -27.5t-26.5 -74.5v-290z" />
    <glyph glyph-name="napostrophe" unicode="&#x149;" horiz-adv-x="611" 
d="M-4 463h-118v10l31 247h169v-10zM204 0h-154v523h138l12 -50h4q50 59 143 59q88 0 141 -51t53 -137v-344h-154v296q0 96 -88 96q-42 0 -68.5 -27.5t-26.5 -74.5v-290z" />
    <glyph glyph-name="Eng" unicode="&#x14a;" horiz-adv-x="743" 
d="M517 243v457h156v-711q0 -100 -64 -164q-63 -64 -178 -64v143q43 0 64.5 22.5t21.5 62.5v11h-30l-258 454h-4v-454h-155v700h185l258 -457h4z" />
    <glyph glyph-name="eng" unicode="&#x14b;" horiz-adv-x="581" 
d="M347 532q88 0 141 -51t53 -137v-404q0 -83 -52.5 -130.5t-135.5 -47.5q-32 0 -70 8v139q19 -3 38 -3q66 0 66 73v317q0 96 -88 96q-42 0 -68.5 -27.5t-26.5 -74.5v-290h-154v523h138l12 -50h4q50 59 143 59z" />
    <glyph glyph-name="Omacron" unicode="&#x14c;" horiz-adv-x="740" 
d="M518 784h-293v111h293v-111zM30 350q0 158 88 258q89 101 252 101q162 0 251 -101t89 -258t-89 -258t-251 -101q-163 0 -252 101q-88 100 -88 258zM370 567q-88 0 -134 -55.5t-46 -161.5t46.5 -161.5t133.5 -55.5t133.5 55.5t46.5 161.5t-46.5 161.5t-133.5 55.5z" />
    <glyph glyph-name="omacron" unicode="&#x14d;" horiz-adv-x="572" 
d="M434 607h-293v111h293v-111zM478 65q-68 -74 -192 -74t-193 74q-68 76 -68 196q0 121 69 196t192 75t192 -75t69 -196t-69 -196zM390 261q0 136 -104 136t-104 -136q0 -135 104 -135t104 135z" />
    <glyph glyph-name="Obreve" unicode="&#x14e;" horiz-adv-x="740" 
d="M370 762q-77 0 -119 38.5t-42 110.5h108q3 -50 53 -50t53 50h108q0 -72 -41.5 -110.5t-119.5 -38.5zM30 350q0 158 88 258q89 101 252 101q162 0 251 -101t89 -258t-89 -258t-251 -101q-163 0 -252 101q-88 100 -88 258zM370 567q-88 0 -134 -55.5t-46 -161.5
t46.5 -161.5t133.5 -55.5t133.5 55.5t46.5 161.5t-46.5 161.5t-133.5 55.5z" />
    <glyph glyph-name="obreve" unicode="&#x14f;" horiz-adv-x="572" 
d="M286 585q-77 0 -119 38.5t-42 110.5h108q3 -50 53 -50t53 50h108q0 -72 -41.5 -110.5t-119.5 -38.5zM478 65q-68 -74 -192 -74t-193 74q-68 76 -68 196q0 121 69 196t192 75t192 -75t69 -196t-69 -196zM390 261q0 136 -104 136t-104 -136q0 -135 104 -135t104 135z" />
    <glyph glyph-name="Ohungarumlaut" unicode="&#x150;" horiz-adv-x="740" 
d="M303 760h-100v10l46 146h160v-10zM503 760h-100v10l46 146h160v-10zM30 350q0 158 88 258q89 101 252 101q162 0 251 -101t89 -258t-89 -258t-251 -101q-163 0 -252 101q-88 100 -88 258zM370 567q-88 0 -134 -55.5t-46 -161.5t46.5 -161.5t133.5 -55.5t133.5 55.5
t46.5 161.5t-46.5 161.5t-133.5 55.5z" />
    <glyph glyph-name="ohungarumlaut" unicode="&#x151;" horiz-adv-x="572" 
d="M219 583h-100v10l46 146h160v-10zM419 583h-100v10l46 146h160v-10zM478 65q-68 -74 -192 -74t-193 74q-68 76 -68 196q0 121 69 196t192 75t192 -75t69 -196t-69 -196zM390 261q0 136 -104 136t-104 -136q0 -135 104 -135t104 135z" />
    <glyph glyph-name="OE" unicode="&#x152;" horiz-adv-x="1093" 
d="M1053 700v-140h-343v-129h312v-140h-312v-152h343v-139h-500v38q-76 -47 -183 -47q-163 0 -252 101q-88 100 -88 258t88 258q89 101 252 101q107 0 183 -47v38h500zM370 567q-88 0 -134 -55.5t-46 -161.5t46.5 -161.5t133.5 -55.5t133.5 55.5t46.5 161.5t-46.5 161.5
t-133.5 55.5z" />
    <glyph glyph-name="oe" unicode="&#x153;" horiz-adv-x="921" 
d="M896 277v-57h-349q1 -49 26.5 -76.5t75.5 -27.5q72 0 91 52h149q-11 -75 -75 -126q-63 -51 -165 -51q-109 0 -177 68q-71 -68 -186 -68q-124 0 -193 74q-68 76 -68 196q0 121 69 196t192 75q116 0 184 -67q67 67 176 67q116 0 183 -73q67 -71 67 -182zM548 317h191
q-2 41 -26 65t-67 24q-46 0 -71 -24t-27 -65zM390 261q0 136 -104 136t-104 -136q0 -135 104 -135t104 135z" />
    <glyph glyph-name="Racute" unicode="&#x154;" horiz-adv-x="670" 
d="M492 916v-10l-116 -146h-110v10l66 146h160zM491 266l169 -256v-10h-184l-151 247h-98v-247h-157v700h320q108 0 173 -65q66 -65 66 -158q0 -75 -36 -130t-102 -81zM382 560h-155v-173h155q42 0 64 25t22 64q0 37 -22.5 60.5t-63.5 23.5z" />
    <glyph glyph-name="racute" unicode="&#x155;" horiz-adv-x="389" 
d="M251 583h-110v10l66 146h160v-10zM194 0h-144v523h128l12 -76h4q42 85 134 85h36v-141h-50q-55 0 -87.5 -35.5t-32.5 -97.5v-258z" />
    <glyph glyph-name="Rcommaaccent" unicode="&#x156;" horiz-adv-x="670" 
d="M491 266l169 -256v-10h-184l-151 247h-98v-247h-157v700h320q108 0 173 -65q66 -65 66 -158q0 -75 -36 -130t-102 -81zM382 560h-155v-173h155q42 0 64 25t22 64q0 37 -22.5 60.5t-63.5 23.5zM258 -217v10l21 156h150v-10l-71 -156h-100z" />
    <glyph glyph-name="rcommaaccent" unicode="&#x157;" horiz-adv-x="389" 
d="M194 0h-144v523h128l12 -76h4q42 85 134 85h36v-141h-50q-55 0 -87.5 -35.5t-32.5 -97.5v-258zM173 -217h-100v10l21 156h150v-10z" />
    <glyph glyph-name="Rcaron" unicode="&#x158;" horiz-adv-x="670" 
d="M511 904l-94 -142h-163l-94 142v10h118l55 -54h4l56 54h118v-10zM491 266l169 -256v-10h-184l-151 247h-98v-247h-157v700h320q108 0 173 -65q66 -65 66 -158q0 -75 -36 -130t-102 -81zM382 560h-155v-173h155q42 0 64 25t22 64q0 37 -22.5 60.5t-63.5 23.5z" />
    <glyph glyph-name="rcaron" unicode="&#x159;" horiz-adv-x="389" 
d="M292 585h-163l-94 142v10h118l55 -54h4l56 54h118v-10zM194 0h-144v523h128l12 -76h4q42 85 134 85h36v-141h-50q-55 0 -87.5 -35.5t-32.5 -97.5v-258z" />
    <glyph glyph-name="Sacute" unicode="&#x15a;" horiz-adv-x="632" 
d="M359 760h-110v10l66 146h160v-10zM315 -9q-136 0 -212 65.5t-83 183.5h159q11 -110 136 -110q131 0 131 72q0 29 -20 46.5t-65 27.5l-102 22q-108 23 -162 72t-54 138q0 90 75 145q76 56 198 56t199 -64q79 -64 80 -164h-159q-3 40 -34.5 64t-87.5 24q-54 0 -82 -17.5
t-28 -43.5q0 -24 18 -40t61 -25l95 -20q115 -25 172 -75t57 -142q0 -102 -73 -158.5t-219 -56.5z" />
    <glyph glyph-name="sacute" unicode="&#x15b;" horiz-adv-x="511" 
d="M298 583h-110v10l66 146h160v-10zM257 -9q-114 0 -172 49t-60 137h154q0 -25 20.5 -41.5t57.5 -16.5t55.5 10.5t18.5 27.5q0 30 -53 41l-77 15q-160 30 -160 164q0 68 58 111.5t157 43.5t158 -50q60 -50 60 -125h-152q1 23 -17 38.5t-52 15.5q-27 0 -44 -10.5t-17 -25.5
q0 -29 39 -36l100 -19q155 -28 155 -162q0 -78 -62.5 -122.5t-166.5 -44.5z" />
    <glyph glyph-name="Scircumflex" unicode="&#x15c;" horiz-adv-x="632" 
d="M261 762h-118v10l94 142h163l94 -142v-10h-118l-55 54h-4zM315 -9q-136 0 -212 65.5t-83 183.5h159q11 -110 136 -110q131 0 131 72q0 29 -20 46.5t-65 27.5l-102 22q-108 23 -162 72t-54 138q0 90 75 145q76 56 198 56t199 -64q79 -64 80 -164h-159q-3 40 -34.5 64
t-87.5 24q-54 0 -82 -17.5t-28 -43.5q0 -24 18 -40t61 -25l95 -20q115 -25 172 -75t57 -142q0 -102 -73 -158.5t-219 -56.5z" />
    <glyph glyph-name="scircumflex" unicode="&#x15d;" horiz-adv-x="511" 
d="M200 585h-118v10l94 142h163l94 -142v-10h-118l-55 54h-4zM257 -9q-114 0 -172 49t-60 137h154q0 -25 20.5 -41.5t57.5 -16.5t55.5 10.5t18.5 27.5q0 30 -53 41l-77 15q-160 30 -160 164q0 68 58 111.5t157 43.5t158 -50q60 -50 60 -125h-152q1 23 -17 38.5t-52 15.5
q-27 0 -44 -10.5t-17 -25.5q0 -29 39 -36l100 -19q155 -28 155 -162q0 -78 -62.5 -122.5t-166.5 -44.5z" />
    <glyph glyph-name="Scedilla" unicode="&#x15e;" horiz-adv-x="632" 
d="M607 206q0 -93 -59.5 -148t-180.5 -65l-21 -29q44 -4 70.5 -29t26.5 -63q0 -45 -40 -72.5t-107 -27.5q-58 0 -95.5 28.5t-37.5 73.5h90q0 -12 12 -21t30 -9q20 0 33.5 8t13.5 22q0 30 -44 30h-32l-25 31l29 58q-115 11 -179.5 75.5t-70.5 171.5h159q11 -110 136 -110
q131 0 131 72q0 29 -20 46.5t-65 27.5l-102 22q-108 23 -162 72t-54 138q0 90 75 145q76 56 198 56t199 -64q79 -64 80 -164h-159q-3 40 -34.5 64t-87.5 24q-54 0 -82 -17.5t-28 -43.5q0 -24 18 -40t61 -25l95 -20q115 -25 172 -75t57 -142z" />
    <glyph glyph-name="scedilla" unicode="&#x15f;" horiz-adv-x="511" 
d="M486 158q0 -69 -49.5 -112.5t-135.5 -52.5l-21 -29q44 -4 70.5 -29t26.5 -63q0 -45 -40 -72.5t-107 -27.5q-58 0 -95.5 28.5t-37.5 73.5h90q0 -12 12 -21t30 -9q20 0 33.5 8t13.5 22q0 30 -44 30h-32l-25 31l30 59q-88 11 -133 58.5t-47 124.5h154q0 -25 20.5 -41.5
t57.5 -16.5t55.5 10.5t18.5 27.5q0 30 -53 41l-77 15q-160 30 -160 164q0 68 58 111.5t157 43.5t158 -50q60 -50 60 -125h-152q1 23 -17 38.5t-52 15.5q-27 0 -44 -10.5t-17 -25.5q0 -29 39 -36l100 -19q155 -28 155 -162z" />
    <glyph glyph-name="Scaron" unicode="&#x160;" horiz-adv-x="632" 
d="M400 762h-163l-94 142v10h118l55 -54h4l56 54h118v-10zM315 -9q-136 0 -212 65.5t-83 183.5h159q11 -110 136 -110q131 0 131 72q0 29 -20 46.5t-65 27.5l-102 22q-108 23 -162 72t-54 138q0 90 75 145q76 56 198 56t199 -64q79 -64 80 -164h-159q-3 40 -34.5 64
t-87.5 24q-54 0 -82 -17.5t-28 -43.5q0 -24 18 -40t61 -25l95 -20q115 -25 172 -75t57 -142q0 -102 -73 -158.5t-219 -56.5z" />
    <glyph glyph-name="scaron" unicode="&#x161;" horiz-adv-x="511" 
d="M339 585h-163l-94 142v10h118l55 -54h4l56 54h118v-10zM257 -9q-114 0 -172 49t-60 137h154q0 -25 20.5 -41.5t57.5 -16.5t55.5 10.5t18.5 27.5q0 30 -53 41l-77 15q-160 30 -160 164q0 68 58 111.5t157 43.5t158 -50q60 -50 60 -125h-152q1 23 -17 38.5t-52 15.5
q-27 0 -44 -10.5t-17 -25.5q0 -29 39 -36l100 -19q155 -28 155 -162q0 -78 -62.5 -122.5t-166.5 -44.5z" />
    <glyph glyph-name="uni0162" unicode="&#x162;" horiz-adv-x="592" 
d="M375 0h-158v559h-202v141h562v-141h-202v-559zM297 -217h-100v10l21 156h150v-10z" />
    <glyph glyph-name="uni0163" unicode="&#x163;" horiz-adv-x="431" 
d="M280 -9q-85 0 -130 45t-45 122v234h-85v131h92v109l137 28h10v-137h125v-131h-125v-197q0 -37 16 -53.5t51 -16.5q26 0 50 9h10v-128q-40 -15 -106 -15zM250 -217h-100v10l21 156h150v-10z" />
    <glyph glyph-name="Tcaron" unicode="&#x164;" horiz-adv-x="592" 
d="M384 762h-163l-94 142v10h118l55 -54h4l56 54h118v-10zM375 0h-158v559h-202v141h562v-141h-202v-559z" />
    <glyph glyph-name="tcaron" unicode="&#x165;" horiz-adv-x="431" 
d="M414 570h-100v170h150v-10zM280 -9q-85 0 -130 45t-45 122v234h-85v131h92v109l137 28h10v-137h125v-131h-125v-197q0 -37 16 -53.5t51 -16.5q26 0 50 9h10v-128q-40 -15 -106 -15z" />
    <glyph glyph-name="Tbar" unicode="&#x166;" horiz-adv-x="600" 
d="M577 700v-141h-202v-127h163v-131h-163v-301h-158v301h-155v131h155v127h-202v141h562z" />
    <glyph glyph-name="tbar" unicode="&#x167;" horiz-adv-x="431" 
d="M376 134h10v-128q-40 -15 -106 -15q-85 0 -130 45t-45 122v74h-85v100h85v60h-85v131h92v109l137 28h10v-137h125v-131h-125v-60h117v-100h-117v-37q0 -37 16 -53.5t51 -16.5q26 0 50 9z" />
    <glyph glyph-name="Utilde" unicode="&#x168;" horiz-adv-x="714" 
d="M411 760q-33 0 -68 18l-15 8q-23 13 -36 13q-27 0 -27 -37h-92v15q0 62 28.5 95.5t79.5 33.5q33 0 70 -19l16 -8q25 -13 36 -13q14 0 19 8.5t5 29.5h91v-15q0 -129 -107 -129zM356 -9q-128 0 -213 74q-83 74 -83 212v423h157v-421q0 -148 139 -148q140 0 140 148v421h158
v-423q0 -139 -84 -212q-83 -74 -214 -74z" />
    <glyph glyph-name="utilde" unicode="&#x169;" horiz-adv-x="579" 
d="M227 622q-27 0 -27 -37h-92v15q0 62 28.5 95.5t79.5 33.5q33 0 70 -19l16 -8q25 -13 36 -13q14 0 19 8.5t5 29.5h91v-15q0 -129 -107 -129q-34 0 -68 18l-15 8q-23 13 -36 13zM375 232v291h154v-314q0 -92 -60 -155q-59 -63 -179 -63h-1q-120 0 -180 63q-59 64 -59 155
v314h154v-291q0 -96 86 -96q85 0 85 96z" />
    <glyph glyph-name="Umacron" unicode="&#x16a;" horiz-adv-x="714" 
d="M505 784h-293v111h293v-111zM356 -9q-128 0 -213 74q-83 74 -83 212v423h157v-421q0 -148 139 -148q140 0 140 148v421h158v-423q0 -139 -84 -212q-83 -74 -214 -74z" />
    <glyph glyph-name="umacron" unicode="&#x16b;" horiz-adv-x="579" 
d="M147 718h293v-111h-293v111zM375 232v291h154v-314q0 -92 -60 -155q-59 -63 -179 -63h-1q-120 0 -180 63q-59 64 -59 155v314h154v-291q0 -96 86 -96q85 0 85 96z" />
    <glyph glyph-name="Ubreve" unicode="&#x16c;" horiz-adv-x="714" 
d="M357 762q-77 0 -119 38.5t-42 110.5h108q3 -50 53 -50t53 50h108q0 -72 -41.5 -110.5t-119.5 -38.5zM356 -9q-128 0 -213 74q-83 74 -83 212v423h157v-421q0 -148 139 -148q140 0 140 148v421h158v-423q0 -139 -84 -212q-83 -74 -214 -74z" />
    <glyph glyph-name="ubreve" unicode="&#x16d;" horiz-adv-x="579" 
d="M292 585q-77 0 -119 38.5t-42 110.5h108q3 -50 53 -50t53 50h108q0 -72 -41.5 -110.5t-119.5 -38.5zM375 232v291h154v-314q0 -92 -60 -155q-59 -63 -179 -63h-1q-120 0 -180 63q-59 64 -59 155v314h154v-291q0 -96 86 -96q85 0 85 96z" />
    <glyph glyph-name="Uring" unicode="&#x16e;" horiz-adv-x="714" 
d="M356 745q-50 0 -83.5 32t-33.5 81q0 50 33 82t84 32q52 0 85 -32t33 -82t-33 -81.5t-85 -31.5zM355 816q28 -2 39.5 20t0 44t-39.5 21q-26 1 -37 -21t0 -44t37 -20zM356 -9q-128 0 -213 74q-83 74 -83 212v423h157v-421q0 -148 139 -148q140 0 140 148v421h158v-423
q0 -139 -84 -212q-83 -74 -214 -74z" />
    <glyph glyph-name="uring" unicode="&#x16f;" horiz-adv-x="579" 
d="M291 568q-50 0 -83.5 32t-33.5 81q0 50 33 82t84 32q52 0 85 -32t33 -82t-33 -81.5t-85 -31.5zM290 724q-26 1 -37 -21t0 -44t37 -20q28 -2 39.5 20t0 44t-39.5 21zM375 232v291h154v-314q0 -92 -60 -155q-59 -63 -179 -63h-1q-120 0 -180 63q-59 64 -59 155v314h154
v-291q0 -96 86 -96q85 0 85 96z" />
    <glyph glyph-name="Uhungarumlaut" unicode="&#x170;" horiz-adv-x="714" 
d="M290 760h-100v10l46 146h160v-10zM490 760h-100v10l46 146h160v-10zM356 -9q-128 0 -213 74q-83 74 -83 212v423h157v-421q0 -148 139 -148q140 0 140 148v421h158v-423q0 -139 -84 -212q-83 -74 -214 -74z" />
    <glyph glyph-name="uhungarumlaut" unicode="&#x171;" horiz-adv-x="579" 
d="M331 739v-10l-106 -146h-100v10l46 146h160zM325 593l46 146h160v-10l-106 -146h-100v10zM375 232v291h154v-314q0 -92 -60 -155q-59 -63 -179 -63h-1q-120 0 -180 63q-59 64 -59 155v314h154v-291q0 -96 86 -96q85 0 85 96z" />
    <glyph glyph-name="Uogonek" unicode="&#x172;" horiz-adv-x="714" 
d="M496 279v421h158v-423q0 -112 -56.5 -183.5t-156.5 -93.5h1q-37 -15 -61 -41t-24 -53q0 -42 49 -42q21 0 36 4v-88q-34 -8 -70 -8q-54 0 -94 28q-41 27 -41 78q0 69 65 117q-111 15 -176.5 88.5t-65.5 193.5v423h157v-421q0 -148 139 -148q140 0 140 148z" />
    <glyph glyph-name="uogonek" unicode="&#x173;" horiz-adv-x="579" 
d="M375 232v291h154v-314q0 -77 -41 -133t-119 -76q-37 -15 -61 -41t-24 -53q0 -42 49 -42q21 0 36 4v-88q-34 -8 -70 -8q-54 0 -94 28q-41 27 -41 78q0 70 67 118q-88 15 -134.5 73t-46.5 140v314h154v-291q0 -96 86 -96q85 0 85 96z" />
    <glyph glyph-name="Wcircumflex" unicode="&#x174;" horiz-adv-x="949" 
d="M418 762h-118v10l94 142h163l94 -142v-10h-118l-55 54h-4zM373 0h-203l-160 690v10h169l93 -483h4l112 483h174l114 -483h4l92 483h167v-10l-160 -690h-203l-98 463h-4z" />
    <glyph glyph-name="wcircumflex" unicode="&#x175;" horiz-adv-x="833" 
d="M365 585h-118v10l94 142h163l94 -142v-10h-118l-55 54h-4zM341 0h-203l-128 513v10h151l79 -358h4l70 358h206l70 -358h4l79 358h150v-10l-128 -513h-203l-72 358h-4z" />
    <glyph glyph-name="Ycircumflex" unicode="&#x176;" horiz-adv-x="698" 
d="M303 762h-118v10l94 142h163l94 -142v-10h-118l-55 54h-4zM429 0h-158v278l-261 412v10h183l156 -264h4l152 264h183v-10l-259 -410v-280z" />
    <glyph glyph-name="ycircumflex" unicode="&#x177;" horiz-adv-x="567" 
d="M238 585h-118v10l94 142h163l94 -142v-10h-118l-55 54h-4zM294 -229h-167v10l75 219h-26l-166 513v10h158l106 -371h4l113 371h166v-10z" />
    <glyph glyph-name="Ydieresis" unicode="&#x178;" horiz-adv-x="698" 
d="M260 769q-35 0 -54.5 19.5t-19.5 54.5q0 34 19.5 53.5t54.5 19.5q34 0 53.5 -19.5t19.5 -53.5t-19.5 -54t-53.5 -20zM462 769q-35 0 -54 19.5t-19 54.5q0 34 19 53.5t54 19.5q34 0 54 -19.5t20 -53.5q0 -35 -20 -54.5t-54 -19.5zM429 0h-158v278l-261 412v10h183
l156 -264h4l152 264h183v-10l-259 -410v-280z" />
    <glyph glyph-name="Zacute" unicode="&#x179;" horiz-adv-x="597" 
d="M344 760h-110v10l66 146h160v-10zM567 0h-537v137l334 418v4h-325v141h522v-139l-333 -417v-4h339v-140z" />
    <glyph glyph-name="zacute" unicode="&#x17a;" horiz-adv-x="502" 
d="M304 583h-110v10l66 146h160v-10zM467 0h-432v129l241 259v4h-240v131h429v-130l-240 -258v-4h242v-131z" />
    <glyph glyph-name="Zdotaccent" unicode="&#x17b;" horiz-adv-x="597" 
d="M301 753q-45 0 -69 23.5t-24 66.5q0 42 24 65.5t69 23.5q44 0 68.5 -23.5t24.5 -65.5t-24.5 -66t-68.5 -24zM567 0h-537v137l334 418v4h-325v141h522v-139l-333 -417v-4h339v-140z" />
    <glyph glyph-name="zdotaccent" unicode="&#x17c;" horiz-adv-x="502" 
d="M261 576q-45 0 -69 23.5t-24 66.5q0 42 24 65.5t69 23.5q44 0 68.5 -23.5t24.5 -65.5t-24.5 -66t-68.5 -24zM467 0h-432v129l241 259v4h-240v131h429v-130l-240 -258v-4h242v-131z" />
    <glyph glyph-name="Zcaron" unicode="&#x17d;" horiz-adv-x="597" 
d="M385 762h-163l-94 142v10h118l55 -54h4l56 54h118v-10zM567 0h-537v137l334 418v4h-325v141h522v-139l-333 -417v-4h339v-140z" />
    <glyph glyph-name="zcaron" unicode="&#x17e;" horiz-adv-x="502" 
d="M345 585h-163l-94 142v10h118l55 -54h4l56 54h118v-10zM467 0h-432v129l241 259v4h-240v131h429v-130l-240 -258v-4h242v-131z" />
    <glyph glyph-name="florin" unicode="&#x192;" horiz-adv-x="483" 
d="M193 -229h-154v10l77 501h-96v130h117l17 111q16 103 72 152t160 49q46 0 77 -9v-131q-30 8 -61 8q-84 0 -98 -86l-14 -94h131v-130h-151z" />
    <glyph glyph-name="uni01CD" unicode="&#x1cd;" horiz-adv-x="702" 
d="M528 904l-94 -142h-163l-94 142v10h118l55 -54h4l56 54h118v-10zM250 700h201l241 -690v-10h-174l-41 133h-260l-41 -133h-166v10zM345 543l-85 -272h174l-85 272h-4z" />
    <glyph glyph-name="uni01CE" unicode="&#x1ce;" horiz-adv-x="541" 
d="M362 585h-163l-94 142v10h118l55 -54h4l56 54h118v-10zM208 -9q-85 0 -134 45.5t-49 118.5q0 76 53.5 118.5t156.5 42.5q67 0 112 -15v43q0 64 -80 64q-35 0 -55.5 -16.5t-20.5 -41.5h-144q0 81 59 131.5t166 50.5q105 0 167 -53t62 -135v-344h-138l-11 47h-4
q-50 -56 -140 -56zM247 111q45 0 72.5 23t27.5 57v5q-43 17 -94 17q-35 0 -55.5 -14t-20.5 -36q0 -24 18.5 -38t51.5 -14z" />
    <glyph glyph-name="uni01CF" unicode="&#x1cf;" horiz-adv-x="298" 
d="M235 762h-163l-94 142v10h118l55 -54h4l56 54h118v-10zM228 0h-158v700h158v-700z" />
    <glyph glyph-name="uni01D0" unicode="&#x1d0;" horiz-adv-x="244" 
d="M211 585h-163l-94 142v10h118l55 -54h4l56 54h118v-10zM204 0h-154v523h154v-523z" />
    <glyph glyph-name="uni01D1" unicode="&#x1d1;" horiz-adv-x="740" 
d="M454 762h-163l-94 142v10h118l55 -54h4l56 54h118v-10zM30 350q0 158 88 258q89 101 252 101q162 0 251 -101t89 -258t-89 -258t-251 -101q-163 0 -252 101q-88 100 -88 258zM370 567q-88 0 -134 -55.5t-46 -161.5t46.5 -161.5t133.5 -55.5t133.5 55.5t46.5 161.5
t-46.5 161.5t-133.5 55.5z" />
    <glyph glyph-name="uni01D2" unicode="&#x1d2;" horiz-adv-x="572" 
d="M370 585h-163l-94 142v10h118l55 -54h4l56 54h118v-10zM478 65q-68 -74 -192 -74t-193 74q-68 76 -68 196q0 121 69 196t192 75t192 -75t69 -196t-69 -196zM390 261q0 136 -104 136t-104 -136q0 -135 104 -135t104 135z" />
    <glyph glyph-name="Gcaron" unicode="&#x1e6;" horiz-adv-x="714" 
d="M453 762h-163l-94 142v10h118l55 -54h4l56 54h118v-10zM369 -9q-162 0 -251 101q-88 100 -88 257q0 159 88 259q89 101 251 101q131 0 214 -73q84 -72 96 -180h-160q-10 51 -47.5 81t-102.5 30q-87 0 -133 -56t-46 -162t46 -161.5t133 -55.5q124 0 151 107h-131v139h295
v-79q0 -139 -88 -224q-88 -84 -227 -84z" />
    <glyph glyph-name="gcaron" unicode="&#x1e7;" 
d="M359 585h-163l-94 142v10h118l55 -54h4l56 54h118v-10zM278 -238q-106 0 -171 53q-66 53 -67 140h151q3 -27 27 -44t60 -17q48 0 75 23t27 60v73h-4q-50 -59 -139 -59q-97 0 -155 75q-57 76 -57 195q0 120 57 195q58 76 155 76q89 0 139 -59h4l16 50h138v-548
q0 -97 -72 -155q-71 -58 -184 -58zM387 261q0 63 -26 99.5t-77 36.5t-77 -36.5t-26 -99.5q0 -135 103 -135t103 135z" />
    <glyph glyph-name="Scommaaccent" unicode="&#x218;" horiz-adv-x="632" 
d="M315 -9q-136 0 -212 65.5t-83 183.5h159q11 -110 136 -110q131 0 131 72q0 29 -20 46.5t-65 27.5l-102 22q-108 23 -162 72t-54 138q0 90 75 145q76 56 198 56t199 -64q79 -64 80 -164h-159q-3 40 -34.5 64t-87.5 24q-54 0 -82 -17.5t-28 -43.5q0 -24 18 -40t61 -25
l95 -20q115 -25 172 -75t57 -142q0 -102 -73 -158.5t-219 -56.5zM322 -217h-100v10l21 156h150v-10z" />
    <glyph glyph-name="scommaaccent" unicode="&#x219;" horiz-adv-x="511" 
d="M257 -9q-114 0 -172 49t-60 137h154q0 -25 20.5 -41.5t57.5 -16.5t55.5 10.5t18.5 27.5q0 30 -53 41l-77 15q-160 30 -160 164q0 68 58 111.5t157 43.5t158 -50q60 -50 60 -125h-152q1 23 -17 38.5t-52 15.5q-27 0 -44 -10.5t-17 -25.5q0 -29 39 -36l100 -19
q155 -28 155 -162q0 -78 -62.5 -122.5t-166.5 -44.5zM256 -217h-100v10l21 156h150v-10z" />
    <glyph glyph-name="uni021A" unicode="&#x21a;" horiz-adv-x="592" 
d="M375 559v-559h-28l-26 -36q44 -4 70.5 -29t26.5 -63q0 -45 -40 -72.5t-107 -27.5q-58 0 -95.5 28.5t-37.5 73.5h90q0 -12 12 -21t30 -9q20 0 33.5 8t13.5 22q0 30 -44 30h-32l-25 31l33 65h-32v559h-202v141h562v-141h-202z" />
    <glyph glyph-name="uni021B" unicode="&#x21b;" horiz-adv-x="431" 
d="M386 134v-128q-35 -12 -92 -15l-20 -27q44 -4 70.5 -29t26.5 -63q0 -45 -40 -72.5t-107 -27.5q-58 0 -95.5 28.5t-37.5 73.5h90q0 -12 12 -21t30 -9q20 0 33.5 8t13.5 22q0 30 -44 30h-32l-25 31l34 68q-98 35 -98 155v234h-85v131h92v109l137 28h10v-137h125v-131h-125
v-197q0 -37 16 -53.5t51 -16.5q26 0 50 9h10z" />
    <glyph glyph-name="uni0237" unicode="&#x237;" horiz-adv-x="248" 
d="M20 -238q-32 0 -70 8v139q19 -3 38 -3q66 0 66 73v544h154v-583q0 -83 -52.5 -130.5t-135.5 -47.5z" />
    <glyph glyph-name="circumflex" unicode="&#x2c6;" horiz-adv-x="401" 
d="M143 585h-118v10l94 142h163l94 -142v-10h-118l-55 54h-4z" />
    <glyph glyph-name="caron" unicode="&#x2c7;" horiz-adv-x="401" 
d="M282 585h-163l-94 142v10h118l55 -54h4l56 54h118v-10z" />
    <glyph glyph-name="breve" unicode="&#x2d8;" horiz-adv-x="392" 
d="M196 585q-77 0 -119 38.5t-42 110.5h108q3 -50 53 -50t53 50h108q0 -72 -41.5 -110.5t-119.5 -38.5z" />
    <glyph glyph-name="dotaccent" unicode="&#x2d9;" horiz-adv-x="246" 
d="M123 576q-45 0 -69 23.5t-24 66.5q0 42 24 65.5t69 23.5q44 0 68.5 -23.5t24.5 -65.5t-24.5 -66t-68.5 -24z" />
    <glyph glyph-name="ring" unicode="&#x2da;" horiz-adv-x="295" 
d="M147 568q-50 0 -83.5 32t-33.5 81q0 50 33 82t84 32q52 0 85 -32t33 -82t-33 -81.5t-85 -31.5zM146 639q28 -2 39.5 20t0 44t-39.5 21q-26 1 -37 -21t0 -44t37 -20z" />
    <glyph glyph-name="ogonek" unicode="&#x2db;" horiz-adv-x="265" 
d="M165 -228q-54 0 -94 28q-41 27 -41 78q0 90 102 138l103 -16q-37 -15 -61 -41t-24 -53q0 -42 49 -42q21 0 36 4v-88q-34 -8 -70 -8z" />
    <glyph glyph-name="tilde" unicode="&#x2dc;" horiz-adv-x="385" 
d="M258 583q-34 0 -68 18l-15 8q-23 13 -36 13q-27 0 -27 -37h-92v15q0 62 28.5 95.5t79.5 33.5q33 0 70 -19l16 -8q25 -13 36 -13q14 0 19 8.5t5 29.5h91v-15q0 -129 -107 -129z" />
    <glyph glyph-name="hungarumlaut" unicode="&#x2dd;" horiz-adv-x="466" 
d="M130 583h-100v10l46 146h160v-10zM330 583h-100v10l46 146h160v-10z" />
    <glyph glyph-name="uni0326" unicode="&#x326;" horiz-adv-x="0" 
d="M-101 -217h-100v10l21 156h150v-10z" />
    <glyph glyph-name="Wgrave" unicode="&#x1e80;" horiz-adv-x="949" 
d="M555 760h-110l-116 146v10h160l66 -146v-10zM373 0h-203l-160 690v10h169l93 -483h4l112 483h174l114 -483h4l92 483h167v-10l-160 -690h-203l-98 463h-4z" />
    <glyph glyph-name="wgrave" unicode="&#x1e81;" horiz-adv-x="833" 
d="M502 583h-110l-116 146v10h160l66 -146v-10zM341 0h-203l-128 513v10h151l79 -358h4l70 358h206l70 -358h4l79 358h150v-10l-128 -513h-203l-72 358h-4z" />
    <glyph glyph-name="Wacute" unicode="&#x1e82;" horiz-adv-x="949" 
d="M516 760h-110v10l66 146h160v-10zM373 0h-203l-160 690v10h169l93 -483h4l112 483h174l114 -483h4l92 483h167v-10l-160 -690h-203l-98 463h-4z" />
    <glyph glyph-name="wacute" unicode="&#x1e83;" horiz-adv-x="833" 
d="M463 583h-110v10l66 146h160v-10zM341 0h-203l-128 513v10h151l79 -358h4l70 358h206l70 -358h4l79 358h150v-10l-128 -513h-203l-72 358h-4z" />
    <glyph glyph-name="Wdieresis" unicode="&#x1e84;" horiz-adv-x="949" 
d="M375 769q-35 0 -54.5 19.5t-19.5 54.5q0 34 19.5 53.5t54.5 19.5q34 0 53.5 -19.5t19.5 -53.5t-19.5 -54t-53.5 -20zM504 843q0 34 19 53.5t54 19.5q34 0 54 -19.5t20 -53.5q0 -35 -19.5 -54.5t-54.5 -19.5t-54 19.5t-19 54.5zM373 0h-203l-160 690v10h169l93 -483h4
l112 483h174l114 -483h4l92 483h167v-10l-160 -690h-203l-98 463h-4z" />
    <glyph glyph-name="wdieresis" unicode="&#x1e85;" horiz-adv-x="833" 
d="M322 592q-35 0 -54.5 19.5t-19.5 54.5q0 34 19.5 53.5t54.5 19.5q34 0 53.5 -19.5t19.5 -53.5t-19.5 -54t-53.5 -20zM524 592q-35 0 -54 19.5t-19 54.5q0 34 19 53.5t54 19.5q34 0 54 -19.5t20 -53.5t-20 -54t-54 -20zM341 0h-203l-128 513v10h151l79 -358h4l70 358h206
l70 -358h4l79 358h150v-10l-128 -513h-203l-72 358h-4z" />
    <glyph glyph-name="uni1EBC" unicode="&#x1ebc;" horiz-adv-x="610" 
d="M388 760q-34 0 -68 18l-15 8q-23 13 -36 13q-27 0 -27 -37h-92v15q0 62 28.5 95.5t79.5 33.5q33 0 70 -19l16 -8q25 -13 36 -13q14 0 19 8.5t5 29.5h91v-15q0 -129 -107 -129zM570 0h-500v700h500v-140h-343v-129h312v-140h-312v-152h343v-139z" />
    <glyph glyph-name="uni1EBD" unicode="&#x1ebd;" horiz-adv-x="556" 
d="M335 583q-33 0 -68 18l-15 8q-23 13 -36 13q-27 0 -27 -37h-92v15q0 62 28.5 95.5t79.5 33.5q33 0 70 -19l16 -8q25 -13 36 -13q14 0 19 8.5t5 29.5h91v-15q0 -129 -107 -129zM284 -9q-120 0 -190 76q-69 77 -69 194q0 118 67 194q68 77 189 77q116 0 183 -73
q67 -71 67 -182v-57h-349q1 -49 26.5 -76.5t75.5 -27.5q72 0 91 52h149q-10 -75 -75 -126q-63 -51 -165 -51zM183 317h191q-2 41 -26 65t-67 24q-46 0 -71 -24t-27 -65z" />
    <glyph glyph-name="Ygrave" unicode="&#x1ef2;" horiz-adv-x="698" 
d="M440 760h-110l-116 146v10h160l66 -146v-10zM429 0h-158v278l-261 412v10h183l156 -264h4l152 264h183v-10l-259 -410v-280z" />
    <glyph glyph-name="ygrave" unicode="&#x1ef3;" horiz-adv-x="567" 
d="M375 583h-110l-116 146v10h160l66 -146v-10zM294 -229h-167v10l75 219h-26l-166 513v10h158l106 -371h4l113 371h166v-10z" />
    <glyph glyph-name="uni2000" unicode="&#x2000;" horiz-adv-x="486" 
 />
    <glyph glyph-name="uni2001" unicode="&#x2001;" horiz-adv-x="972" 
 />
    <glyph glyph-name="uni2002" unicode="&#x2002;" horiz-adv-x="486" 
 />
    <glyph glyph-name="uni2003" unicode="&#x2003;" horiz-adv-x="972" 
 />
    <glyph glyph-name="uni2004" unicode="&#x2004;" horiz-adv-x="324" 
 />
    <glyph glyph-name="uni2005" unicode="&#x2005;" horiz-adv-x="243" 
 />
    <glyph glyph-name="uni2006" unicode="&#x2006;" horiz-adv-x="162" 
 />
    <glyph glyph-name="uni2007" unicode="&#x2007;" horiz-adv-x="162" 
 />
    <glyph glyph-name="uni2008" unicode="&#x2008;" horiz-adv-x="121" 
 />
    <glyph glyph-name="uni2009" unicode="&#x2009;" horiz-adv-x="194" 
 />
    <glyph glyph-name="uni200A" unicode="&#x200a;" horiz-adv-x="54" 
 />
    <glyph glyph-name="uni2010" unicode="&#x2010;" horiz-adv-x="466" 
d="M386 224h-306v138h306v-138z" />
    <glyph glyph-name="uni2011" unicode="&#x2011;" horiz-adv-x="466" 
d="M386 224h-306v138h306v-138z" />
    <glyph glyph-name="figuredash" unicode="&#x2012;" horiz-adv-x="466" 
d="M386 224h-306v138h306v-138z" />
    <glyph glyph-name="endash" unicode="&#x2013;" horiz-adv-x="622" 
d="M562 224h-502v138h502v-138z" />
    <glyph glyph-name="emdash" unicode="&#x2014;" horiz-adv-x="1102" 
d="M1042 224h-982v138h982v-138z" />
    <glyph glyph-name="quoteleft" unicode="&#x2018;" horiz-adv-x="240" 
d="M102 700h118v-10l-31 -247h-169v10z" />
    <glyph glyph-name="quoteright" unicode="&#x2019;" horiz-adv-x="240" 
d="M138 443h-118v10l31 247h169v-10z" />
    <glyph glyph-name="quotesinglbase" unicode="&#x201a;" horiz-adv-x="240" 
d="M138 -144h-118v10l31 247h169v-10z" />
    <glyph glyph-name="quotedblleft" unicode="&#x201c;" horiz-adv-x="450" 
d="M102 700h118v-10l-31 -247h-169v10zM312 700h118v-10l-31 -247h-169v10z" />
    <glyph glyph-name="quotedblright" unicode="&#x201d;" horiz-adv-x="450" 
d="M138 443h-118v10l31 247h169v-10zM348 443h-118v10l31 247h169v-10z" />
    <glyph glyph-name="quotedblbase" unicode="&#x201e;" horiz-adv-x="450" 
d="M138 -144h-118v10l31 247h169v-10zM348 -144h-118v10l31 247h169v-10z" />
    <glyph glyph-name="dagger" unicode="&#x2020;" horiz-adv-x="454" 
d="M294 587h110v-122h-110v-129l-20 -165h-94l-20 165v129h-110v122h110v113h134v-113z" />
    <glyph glyph-name="daggerdbl" unicode="&#x2021;" horiz-adv-x="454" 
d="M404 465h-117l-13 -115l14 -115h116v-122h-110v-113h-134v113h-110v122h116l14 115l-13 115h-117v122h110v113h134v-113h110v-122z" />
    <glyph glyph-name="bullet" unicode="&#x2022;" horiz-adv-x="386" 
d="M193 156q-63 0 -98 37t-35 101q0 62 35 98.5t98 36.5q62 0 97.5 -37t35.5 -98q0 -63 -35.5 -100.5t-97.5 -37.5z" />
    <glyph glyph-name="ellipsis" unicode="&#x2026;" horiz-adv-x="850" 
d="M125 -9q-44 0 -67 23.5t-23 66.5q0 42 23 65.5t67 23.5q43 0 66.5 -24t23.5 -65q0 -42 -23.5 -66t-66.5 -24zM425 -9q-44 0 -67 23.5t-23 66.5q0 42 23 65.5t67 23.5q43 0 66.5 -24t23.5 -65q0 -42 -23.5 -66t-66.5 -24zM725 -9q-44 0 -67 23.5t-23 66.5q0 42 23 65.5
t67 23.5q43 0 66.5 -24t23.5 -65q0 -42 -23.5 -66t-66.5 -24z" />
    <glyph glyph-name="uni202F" unicode="&#x202f;" horiz-adv-x="194" 
 />
    <glyph glyph-name="perthousand" unicode="&#x2030;" horiz-adv-x="1224" 
d="M329 398q-45 -50 -122 -50t-122 50t-45 132t45 132t122 50t122 -50t45 -132t-45 -132zM246 0h-129v10l474 690h127v-10zM144 530q0 -84 63 -84t63 84t-63 84t-63 -84zM759 41q-45 -50 -122 -50t-122 50q-45 49 -45 132t45 132q45 50 122 50t122 -50q45 -49 45 -132
t-45 -132zM1139 41q-45 -50 -122 -50t-122 50q-45 49 -45 132t45 132q45 50 122 50t122 -50q45 -49 45 -132t-45 -132zM574 173q0 -84 63 -84t63 84t-63 84t-63 -84zM954 173q0 -84 63 -84t63 84t-63 84t-63 -84z" />
    <glyph glyph-name="guilsinglleft" unicode="&#x2039;" horiz-adv-x="362" 
d="M332 66h-146l-166 212v10l166 212h146v-10l-140 -207l140 -207v-10z" />
    <glyph glyph-name="guilsinglright" unicode="&#x203a;" horiz-adv-x="362" 
d="M176 66h-146v10l140 207l-140 207v10h146l166 -212v-10z" />
    <glyph glyph-name="fraction" unicode="&#x2044;" horiz-adv-x="561" 
d="M139 -100h-149v10l434 890h147v-10z" />
    <glyph glyph-name="uni205F" unicode="&#x205f;" horiz-adv-x="243" 
 />
    <glyph glyph-name="Euro" unicode="&#x20ac;" horiz-adv-x="751" 
d="M411 132q64 0 102.5 34t48.5 91h159q-11 -113 -96 -189q-86 -77 -214 -77q-123 0 -206.5 61t-114.5 168h-60v96h43q-1 7 -1 33q0 20 1 26h-43v96h57q31 111 114.5 174.5t209.5 63.5q131 0 216 -79q87 -81 94 -194h-160q-6 58 -45 94.5t-105 36.5q-117 0 -157 -96h207
l-20 -96h-208q-1 -5 -1 -26q0 -26 1 -33h193l-20 -96h-149q43 -88 154 -88z" />
    <glyph glyph-name="uni2116" unicode="&#x2116;" horiz-adv-x="1159" 
d="M1089 520q0 -85 -48.5 -137t-134.5 -52t-134 51.5t-48 137.5t48.5 137.5t133.5 51.5t134 -51.5t49 -137.5zM225 0h-155v700h185l258 -457h4v457h156v-700h-186l-258 454h-4v-454zM839 520q0 -87 67 -87t67 87t-67 87t-67 -87zM1070 181h-326v111h326v-111z" />
    <glyph glyph-name="trademark" unicode="&#x2122;" horiz-adv-x="730" 
d="M208 373h-84v252h-94v75h272v-75h-94v-252zM421 373h-77v327h92l87 -145h4l85 145h91v-327h-77v201h-4l-92 -148h-10l-95 150h-4v-203z" />
    <glyph glyph-name="minus" unicode="&#x2212;" horiz-adv-x="496" 
d="M491 247h-486v132h486v-132z" />
    <glyph glyph-name="notequal" unicode="&#x2260;" horiz-adv-x="496" 
d="M491 479v-132h-166l-52 -88h218v-132h-297l-27 -45h-102v10l21 35h-81v132h160l52 88h-212v132h291l33 55h102v-10l-27 -45h87z" />
    <glyph glyph-name="lessequal" unicode="&#x2264;" horiz-adv-x="520" 
d="M490 314v-141l-460 154v150l460 154v-141l-308 -86v-4zM490 1h-460v132h460v-132z" />
    <glyph glyph-name="greaterequal" unicode="&#x2265;" horiz-adv-x="520" 
d="M490 327l-460 -154v141l308 86v4l-308 86v141l460 -154v-150zM490 1h-460v132h460v-132z" />
    <glyph glyph-name="uni25FC" unicode="&#x25fc;" horiz-adv-x="525" 
d="M0 0v525h525v-525h-525z" />
    <glyph glyph-name="NULL" horiz-adv-x="0" 
 />
    <glyph glyph-name="CR" horiz-adv-x="333" 
 />
    <glyph glyph-name="i.loclTRK" horiz-adv-x="244" 
d="M127 576q-45 0 -69 23.5t-24 66.5q0 42 24 65.5t69 23.5q44 0 68.5 -23.5t24.5 -65.5t-24.5 -66t-68.5 -24zM204 0h-154v523h154v-523z" />
    <glyph glyph-name="a.ss01" 
d="M237 -9q-97 0 -155 75q-57 76 -57 196q0 119 57 194q58 76 155 76q89 0 139 -59h4l16 50h138v-523h-138l-16 50h-4q-50 -59 -139 -59zM387 262q0 135 -103 135t-103 -135q0 -63 26 -99.5t77 -36.5t77 36.5t26 99.5z" />
    <glyph glyph-name="aacute.ss01" 
d="M325 583h-110v10l66 146h160v-10zM237 -9q-97 0 -155 75q-57 76 -57 196q0 119 57 194q58 76 155 76q89 0 139 -59h4l16 50h138v-523h-138l-16 50h-4q-50 -59 -139 -59zM387 262q0 135 -103 135t-103 -135q0 -63 26 -99.5t77 -36.5t77 36.5t26 99.5z" />
    <glyph glyph-name="abreve.ss01" 
d="M282 585q-77 0 -119 38.5t-42 110.5h108q3 -50 53 -50t53 50h108q0 -72 -41.5 -110.5t-119.5 -38.5zM237 -9q-97 0 -155 75q-57 76 -57 196q0 119 57 194q58 76 155 76q89 0 139 -59h4l16 50h138v-523h-138l-16 50h-4q-50 -59 -139 -59zM387 262q0 135 -103 135
t-103 -135q0 -63 26 -99.5t77 -36.5t77 36.5t26 99.5z" />
    <glyph glyph-name="uni01CE.ss01" 
d="M366 585h-163l-94 142v10h118l55 -54h4l56 54h118v-10zM237 -9q-97 0 -155 75q-57 76 -57 196q0 119 57 194q58 76 155 76q89 0 139 -59h4l16 50h138v-523h-138l-16 50h-4q-50 -59 -139 -59zM387 262q0 135 -103 135t-103 -135q0 -63 26 -99.5t77 -36.5t77 36.5t26 99.5z
" />
    <glyph glyph-name="acircumflex.ss01" 
d="M227 585h-118v10l94 142h163l94 -142v-10h-118l-55 54h-4zM237 -9q-97 0 -155 75q-57 76 -57 196q0 119 57 194q58 76 155 76q89 0 139 -59h4l16 50h138v-523h-138l-16 50h-4q-50 -59 -139 -59zM387 262q0 135 -103 135t-103 -135q0 -63 26 -99.5t77 -36.5t77 36.5
t26 99.5z" />
    <glyph glyph-name="adieresis.ss01" 
d="M184 592q-35 0 -54.5 19.5t-19.5 54.5q0 34 19.5 53.5t54.5 19.5q34 0 53.5 -19.5t19.5 -53.5t-19.5 -54t-53.5 -20zM386 592q-35 0 -54 19.5t-19 54.5q0 34 19 53.5t54 19.5q34 0 54 -19.5t20 -53.5t-20 -54t-54 -20zM237 -9q-97 0 -155 75q-57 76 -57 196q0 119 57 194
q58 76 155 76q89 0 139 -59h4l16 50h138v-523h-138l-16 50h-4q-50 -59 -139 -59zM387 262q0 135 -103 135t-103 -135q0 -63 26 -99.5t77 -36.5t77 36.5t26 99.5z" />
    <glyph glyph-name="agrave.ss01" 
d="M364 583h-110l-116 146v10h160l66 -146v-10zM237 -9q-97 0 -155 75q-57 76 -57 196q0 119 57 194q58 76 155 76q89 0 139 -59h4l16 50h138v-523h-138l-16 50h-4q-50 -59 -139 -59zM387 262q0 135 -103 135t-103 -135q0 -63 26 -99.5t77 -36.5t77 36.5t26 99.5z" />
    <glyph glyph-name="amacron.ss01" 
d="M430 607h-293v111h293v-111zM237 -9q-97 0 -155 75q-57 76 -57 196q0 119 57 194q58 76 155 76q89 0 139 -59h4l16 50h138v-523h-138l-16 50h-4q-50 -59 -139 -59zM387 262q0 135 -103 135t-103 -135q0 -63 26 -99.5t77 -36.5t77 36.5t26 99.5z" />
    <glyph glyph-name="aogonek.ss01" 
d="M534 523v-523q-37 -15 -61 -41t-24 -53q0 -42 49 -42q21 0 36 4v-88q-34 -8 -70 -8q-54 0 -94 28q-41 27 -41 78q0 76 73 122h-6l-16 50h-4q-50 -59 -139 -59q-97 0 -155 75q-57 76 -57 196q0 119 57 194q58 76 155 76q89 0 139 -59h4l16 50h138zM387 262q0 135 -103 135
t-103 -135q0 -63 26 -99.5t77 -36.5t77 36.5t26 99.5z" />
    <glyph glyph-name="aring.ss01" 
d="M281 568q-50 0 -83.5 32t-33.5 81q0 50 33 82t84 32q52 0 85 -32t33 -82t-33 -81.5t-85 -31.5zM280 639q28 -2 39.5 20t0 44t-39.5 21q-26 1 -37 -21t0 -44t37 -20zM237 -9q-97 0 -155 75q-57 76 -57 196q0 119 57 194q58 76 155 76q89 0 139 -59h4l16 50h138v-523h-138
l-16 50h-4q-50 -59 -139 -59zM387 262q0 135 -103 135t-103 -135q0 -63 26 -99.5t77 -36.5t77 36.5t26 99.5z" />
    <glyph glyph-name="atilde.ss01" 
d="M336 583q-34 0 -68 18l-15 8q-23 13 -36 13q-27 0 -27 -37h-92v15q0 62 28.5 95.5t79.5 33.5q33 0 70 -19l16 -8q25 -13 36 -13q14 0 19 8.5t5 29.5h91v-15q0 -129 -107 -129zM237 -9q-97 0 -155 75q-57 76 -57 196q0 119 57 194q58 76 155 76q89 0 139 -59h4l16 50h138
v-523h-138l-16 50h-4q-50 -59 -139 -59zM387 262q0 135 -103 135t-103 -135q0 -63 26 -99.5t77 -36.5t77 36.5t26 99.5z" />
    <glyph glyph-name="caron.Slovak" horiz-adv-x="210" 
d="M130 530h-100v170h150v-10z" />
    </font>
</defs>
</svg>
