<?xml version="1.0" standalone="no"?>
<!DOCTYPE svg PUBLIC "-//W3C//DTD SVG 1.1//EN" "http://www.w3.org/Graphics/SVG/1.1/DTD/svg11.dtd" >
<svg xmlns="http://www.w3.org/2000/svg" xmlns:xlink="http://www.w3.org/1999/xlink" version="1.1">
<metadata>
Created by FontForge 20170731 at Tue May 15 23:49:08 2018
 By Aleksey,,,
Copyright (c) 2018 by atipo. All rights reserved.
</metadata>
<defs>
<font id="BasierCircle-BoldItalic" horiz-adv-x="574" >
  <font-face 
    font-family="Basier Circle"
    font-weight="700"
    font-style="italic"
    font-stretch="normal"
    units-per-em="1000"
    panose-1="0 0 8 0 0 0 0 0 0 0"
    ascent="800"
    descent="-200"
    x-height="523"
    cap-height="700"
    bbox="-245 -245 1224 972"
    underline-thickness="50"
    underline-position="-350"
    unicode-range="U+0020-25FC"
  />
<missing-glyph horiz-adv-x="940" 
 />
    <glyph glyph-name=".notdef" horiz-adv-x="940" 
 />
    <glyph glyph-name=".null" horiz-adv-x="0" 
 />
    <glyph glyph-name="nonmarkingreturn" horiz-adv-x="333" 
 />
    <glyph glyph-name="space" unicode=" " horiz-adv-x="280" 
 />
    <glyph glyph-name="exclam" unicode="!" horiz-adv-x="250" 
d="M227 222h-117l57 382l19 96h164l-19 -96zM123 -9q-74 0 -74 69q0 50 29.5 80t81.5 30q36 0 55 -18.5t19 -51.5q0 -48 -30 -78.5t-81 -30.5z" />
    <glyph glyph-name="quotedbl" unicode="&#x22;" horiz-adv-x="436" 
d="M255 420h-104l6 157l25 123h156l-25 -123zM455 420h-104l6 157l25 123h156l-25 -123z" />
    <glyph glyph-name="numbersign" unicode="#" horiz-adv-x="705" 
d="M763 533l-27 -134h-111l-39 -103h79l-27 -134h-102l-60 -162h-142l60 162h-88l-60 -162h-142l60 162h-81l27 134h104l39 103h-72l27 134h95l62 167h142l-62 -167h88l62 167h142l-62 -167h88zM356 296h88l39 103h-88z" />
    <glyph glyph-name="dollar" unicode="$" horiz-adv-x="632" 
d="M693 481h-159q8 63 -54 81l-28 -136l12 -3q94 -21 142 -63t48 -115q0 -108 -73 -174.5t-217 -77.5l-17 -83h-98l17 83q-112 12 -162 76t-35 171h159q-10 -85 67 -105l33 161l-8 2q-88 20 -133.5 60.5t-45.5 110.5q0 100 71.5 163.5t198.5 74.5l17 83h98l-17 -84
q99 -14 150 -75t34 -150zM306 498q0 -35 52 -51l24 118q-37 -8 -56.5 -26t-19.5 -41zM489 215q0 43 -68 60l-29 -142q97 13 97 82z" />
    <glyph glyph-name="percent" unicode="%" horiz-adv-x="844" 
d="M288 348q-66 0 -105.5 39t-39.5 103q0 96 54 159t145 63q65 0 105 -39.5t40 -102.5q0 -97 -55 -159q-54 -63 -144 -63zM246 0h-129l2 10l614 690h127l-2 -10zM298 446q84 0 84 111q0 57 -50 57q-84 0 -84 -111q0 -57 50 -57zM645 -9q-65 0 -105 39t-40 103q0 96 54 159
q56 63 145 63q65 0 105 -39.5t40 -102.5q0 -96 -54 -159t-145 -63zM655 89q84 0 84 111q0 57 -50 57q-84 0 -84 -111q0 -57 50 -57z" />
    <glyph glyph-name="ampersand" unicode="&#x26;" horiz-adv-x="731" 
d="M626 398h156l-2 -10q-85 -158 -174 -250l90 -128l-2 -10h-181l-29 42q-93 -51 -199 -51q-84 0 -145 47q-60 48 -60 129q0 72 40.5 121.5t127.5 95.5q-39 62 -39 116q0 87 61 148t180 61h2q81 0 128 -41.5t47 -106.5q0 -60 -41 -109.5t-132 -98.5l73 -104q52 58 99 149z
M425 582h-2q-27 -1 -46 -21t-19 -45q0 -28 25 -62l1 -2q55 30 70 49q16 19 16 40q0 18 -12 29.5t-33 11.5zM313 129q44 0 95 23l-89 130q-44 -25 -60.5 -45t-16.5 -49q0 -25 20 -42t51 -17z" />
    <glyph glyph-name="quotesingle" unicode="'" horiz-adv-x="236" 
d="M255 420h-104l6 157l25 123h156l-25 -123z" />
    <glyph glyph-name="parenleft" unicode="(" horiz-adv-x="365" 
d="M482 770l-2 -10q-84 -87 -153 -206t-98 -258q-21 -98 -14 -188q15 -168 76 -276l-2 -10h-120q-38 53 -63 123.5t-33.5 162t12.5 188.5q30 146 105 267q77 123 172 207h120z" />
    <glyph glyph-name="parenright" unicode=")" horiz-adv-x="365" 
d="M197 770h120q39 -54 63 -121q62 -172 20 -353q-29 -141 -105 -265q-77 -126 -171 -209h-120l2 10q81 84 152 206q71 123 98 258q22 93 14 188q-12 162 -75 276z" />
    <glyph glyph-name="asterisk" unicode="*" horiz-adv-x="486" 
d="M376 342h-116l40 124l-4 2l-110 -74l-32 103l124 31l1 4l-111 33l74 103l81 -70l4 3l9 119h116l-39 -119l4 -3l109 70l32 -103l-125 -33l-1 -4l112 -31l-74 -103l-80 74l-4 -2z" />
    <glyph glyph-name="plus" unicode="+" horiz-adv-x="496" 
d="M332 60h-140l38 187h-175l27 132h175l38 187h140l-38 -187h171l-27 -132h-171z" />
    <glyph glyph-name="comma" unicode="," horiz-adv-x="238" 
d="M101 -144h-118l2 10l81 247h169l-2 -10z" />
    <glyph glyph-name="hyphen" unicode="-" horiz-adv-x="466" 
d="M432 224h-306l28 138h306z" />
    <glyph glyph-name="period" unicode="." horiz-adv-x="250" 
d="M123 -9q-74 0 -74 69q0 50 29.5 80t81.5 30q36 0 55 -18.5t19 -51.5q0 -48 -30 -78.5t-81 -30.5z" />
    <glyph glyph-name="slash" unicode="/" horiz-adv-x="458" 
d="M134 -133h-146l2 10l456 860h147l-2 -10z" />
    <glyph glyph-name="zero" unicode="0" horiz-adv-x="628" 
d="M312 -9q-106 0 -159.5 60.5t-55.5 171.5q0 130 39.5 239t123.5 179.5t199 70.5q106 0 160.5 -60.5t54.5 -171.5q0 -130 -39.5 -239t-123.5 -179.5t-199 -70.5zM341 127q62 1 104 58.5t58.5 132.5t14.5 156q-2 102 -87 102q-46 -1 -82.5 -33t-57.5 -86q-38 -108 -38 -228
q1 -102 88 -102z" />
    <glyph glyph-name="one" unicode="1" horiz-adv-x="425" 
d="M365 0h-155l111 545h-4l-186 -120h-10l30 147l200 128h156z" />
    <glyph glyph-name="two" unicode="2" horiz-adv-x="569" 
d="M534 0h-497l26 126l273 219q71 56 102.5 94.5t31.5 74.5q0 28 -19.5 45t-52.5 17q-44 0 -75 -26t-42 -76h-150q19 112 96.5 175t193.5 63q95 0 151 -49q58 -48 58 -125q0 -66 -37 -121t-125 -125l-191 -150l-1 -4h286z" />
    <glyph glyph-name="three" unicode="3" horiz-adv-x="603" 
d="M309 -9q-122 0 -189 58q-68 59 -45 170h154q-9 -40 14 -66.5t83 -26.5t92 28t32 73q0 70 -100 70h-61l28 135h59q55 0 83.5 23.5t28.5 62.5q0 26 -21 42.5t-58 16.5q-95 0 -115 -93h-155q19 106 99.5 167t201.5 61q92 0 151 -45q60 -45 60 -117q0 -61 -35 -107t-94 -68
l-1 -4q39 -12 64 -48t25 -83q0 -94 -70 -167q-35 -38 -95.5 -60t-135.5 -22z" />
    <glyph glyph-name="four" unicode="4" horiz-adv-x="588" 
d="M485 0h-155l26 128h-309l30 148l361 424h189l-88 -436h84l-28 -136h-84zM228 268l-1 -4h157l50 245h-4z" />
    <glyph glyph-name="five" unicode="5" horiz-adv-x="594" 
d="M299 -9q-113 0 -176 64q-62 65 -44 153h155q-2 -35 20 -58t68 -23q61 0 96 41q36 42 36 89q0 37 -23 61t-65 24q-67 0 -110 -49h-149l109 407h432l-27 -137h-306l-39 -133h4q53 37 135 37q91 0 144 -53q54 -52 54 -135q0 -121 -84 -205q-85 -83 -230 -83z" />
    <glyph glyph-name="six" unicode="6" horiz-adv-x="612" 
d="M324 -9q-107 0 -167.5 66.5t-60.5 182.5q0 188 94 326q47 68 119 107t157 39q107 0 159 -58q53 -59 47 -143h-147q0 28 -23 46t-64 18q-64 0 -113 -48q-51 -49 -64 -131h4q67 61 161 61q89 0 144 -53t53 -131q-1 -119 -85 -201q-82 -81 -214 -81zM336 127q54 0 94 36
t40 83q0 86 -92 86q-55 0 -95 -35q-39 -35 -39 -87q0 -39 25 -61t67 -22z" />
    <glyph glyph-name="seven" unicode="7" horiz-adv-x="541" 
d="M255 0h-172l2 10q119 273 396 547l1 4h-353l28 139h511l-29 -144q-266 -271 -384 -556z" />
    <glyph glyph-name="eight" unicode="8" horiz-adv-x="602" 
d="M534 373l-1 -4q80 -38 80 -130q0 -114 -85 -181q-83 -65 -219 -67q-107 2 -172 47q-65 47 -65 129q0 143 147 202l1 4q-61 36 -61 121q0 97 82 157q82 61 205 61q96 0 153.5 -42.5t57.5 -113.5q0 -61 -32 -109t-91 -74zM390 435q46 0 75.5 22t29.5 63q0 28 -21 43t-55 15
q-46 0 -76 -22t-30 -62q0 -29 21 -44t56 -15zM326 125q58 1 93.5 29t35.5 75q0 33 -24.5 52t-68.5 20q-58 -1 -93.5 -29t-35.5 -74q0 -35 24.5 -53.5t68.5 -19.5z" />
    <glyph glyph-name="nine" unicode="9" horiz-adv-x="612" 
d="M289 -9q-108 0 -160 58t-46 143h147q0 -28 23 -46t64 -18q63 0 113 48q51 49 64 131h-4q-67 -61 -161 -61q-89 0 -144 53t-53 131q2 120 84 201t215 81q107 0 167.5 -66.5t60.5 -182.5q0 -188 -95 -327q-46 -67 -118 -106t-157 -39zM377 371q55 0 95 35q39 34 39 87
q0 39 -25 61t-67 22q-53 0 -94 -36q-40 -36 -40 -83q0 -86 92 -86z" />
    <glyph glyph-name="colon" unicode=":" horiz-adv-x="238" 
d="M187 305q-74 0 -74 69q0 49 29.5 79.5t80.5 30.5q36 0 55.5 -18.5t19.5 -51.5q0 -48 -30 -78.5t-81 -30.5zM123 -9q-74 0 -74 69q0 50 29.5 80t81.5 30q36 0 55 -18.5t19 -51.5q0 -48 -30 -78.5t-81 -30.5z" />
    <glyph glyph-name="semicolon" unicode=";" horiz-adv-x="238" 
d="M187 305q-74 0 -74 69q0 49 29.5 79.5t80.5 30.5q36 0 55.5 -18.5t19.5 -51.5q0 -48 -30 -78.5t-81 -30.5zM101 -144h-118l2 10l81 247h169l-2 -10z" />
    <glyph glyph-name="less" unicode="&#x3c;" horiz-adv-x="520" 
d="M516 129l-28 -141l-411 244l23 110l509 244l-33 -151l-325 -152l-1 -4z" />
    <glyph glyph-name="equal" unicode="=" horiz-adv-x="496" 
d="M562 347h-486l26 132h486zM517 127h-486l27 132h486z" />
    <glyph glyph-name="greater" unicode="&#x3e;" horiz-adv-x="520" 
d="M537 232l-509 -244l33 151l325 152l1 4l-266 150l28 141l411 -244z" />
    <glyph glyph-name="question" unicode="?" horiz-adv-x="543" 
d="M376 221h-150l3 19q11 60 36 91q25 32 83 72l37 25l42 29q32 24 32 61q0 25 -18.5 40.5t-52.5 15.5q-90 0 -108 -87h-151q13 101 89 161.5t200 60.5q94 0 149 -45.5t55 -117.5q0 -111 -110 -183l-50 -33q-42 -28 -60 -47q-17 -17 -23 -46zM259 -9q-74 0 -74 69
q0 50 29.5 80t81.5 30q36 0 55 -18.5t19 -51.5q0 -48 -30 -78.5t-81 -30.5z" />
    <glyph glyph-name="at" unicode="@" horiz-adv-x="885" 
d="M542 -100q-189 0 -308 103q-119 104 -119 301q0 177 127 291q128 114 309 114q165 0 272 -96t107 -255q0 -264 -195 -264q-42 0 -72 17.5t-38 44.5h-4q-47 -59 -129 -59q-75 0 -121 55q-45 55 -45 142q0 89 46 145q46 57 122 57q34 0 65.5 -16.5t45.5 -43.5h4l7 49h98
l-9 -242q-1 -54 47 -54q79 0 79 169q0 113 -76 183q-76 71 -207 71q-144 0 -236 -92q-91 -91 -91 -222q0 -145 87 -223q89 -77 235 -77q121 0 205 35v-96q-81 -37 -206 -37zM514 197q89 0 89 107q0 46 -23.5 70t-59.5 24q-39 0 -61.5 -27t-22.5 -78q0 -47 21 -71.5t57 -24.5
z" />
    <glyph glyph-name="A" unicode="A" horiz-adv-x="702" 
d="M392 700h201l101 -690l-2 -10h-168l-14 133h-260l-68 -133h-172l2 10zM461 543l-140 -272h174l-30 272h-4z" />
    <glyph glyph-name="B" unicode="B" horiz-adv-x="666" 
d="M418 0h-348l142 700h335q83 0 130.5 -39.5t47.5 -108.5q0 -112 -102 -177l-1 -4q66 -35 66 -125q0 -112 -75 -180q-73 -66 -195 -66zM340 562l-27 -132h156q44 0 67 21.5t23 58.5q0 52 -63 52h-156zM286 294l-32 -155h166q53 0 80 26t27 66q0 28 -19 45.5t-56 17.5h-166z
" />
    <glyph glyph-name="C" unicode="C" horiz-adv-x="709" 
d="M372 -9q-136 0 -209 78q-72 79 -72 203q0 118 45 215t141 159q97 63 231 63q131 0 203 -80q72 -79 57 -193h-160q6 57 -26 94t-98 37q-109 0 -170 -76t-61 -202q0 -76 36.5 -116.5t106.5 -40.5q63 0 108.5 34t67.5 91h159q-34 -114 -129 -191q-94 -75 -230 -75z" />
    <glyph glyph-name="D" unicode="D" horiz-adv-x="704" 
d="M315 0h-245l142 700h242q136 0 218 -78t82 -207q0 -115 -48.5 -207.5t-149.5 -150t-241 -57.5zM331 560l-86 -421h86q120 0 190 73q71 74 71 189q0 159 -175 159h-86z" />
    <glyph glyph-name="E" unicode="E" horiz-adv-x="610" 
d="M570 0h-500l142 700h500l-28 -140h-343l-26 -129h312l-29 -140h-312l-31 -152h343z" />
    <glyph glyph-name="F" unicode="F" horiz-adv-x="610" 
d="M227 0h-157l142 700h500l-28 -140h-343l-30 -149h312l-29 -140h-312z" />
    <glyph glyph-name="G" unicode="G" horiz-adv-x="714" 
d="M377 -9q-136 0 -211 79q-75 80 -75 202q0 119 46 215q47 99 141 160q97 62 225 62q131 0 205 -74t64 -179h-160q0 51 -31.5 81t-96.5 30q-109 0 -170 -76t-61 -202q0 -76 36.5 -116.5t106.5 -40.5q123 0 173 107h-131l28 139h295l-16 -79q-28 -141 -127 -225
q-98 -83 -241 -83z" />
    <glyph glyph-name="H" unicode="H" horiz-adv-x="735" 
d="M596 432l54 268h157l-142 -700h-157l59 291h-281l-59 -291h-157l142 700h157l-54 -268h281z" />
    <glyph glyph-name="I" unicode="I" horiz-adv-x="298" 
d="M228 0h-158l142 700h158z" />
    <glyph glyph-name="J" unicode="J" horiz-adv-x="547" 
d="M243 -9q-110 0 -160 62q-49 63 -30 157h147q-7 -36 11 -56t60 -20q41 0 68 23t35 62l98 481h158l-98 -481q-22 -106 -95.5 -167t-193.5 -61z" />
    <glyph glyph-name="K" unicode="K" horiz-adv-x="676" 
d="M610 700h186l-2 -10l-367 -331l241 -349l-2 -10h-178l-202 292l-59 -292h-157l142 700h157l-54 -265z" />
    <glyph glyph-name="L" unicode="L" horiz-adv-x="555" 
d="M545 0h-475l142 700h157l-114 -560h318z" />
    <glyph glyph-name="M" unicode="M" horiz-adv-x="880" 
d="M222 0h-152l142 700h167l132 -321h4l262 321h175l-142 -700h-152l92 452h-4l-277 -336h-10l-140 339h-4z" />
    <glyph glyph-name="N" unicode="N" horiz-adv-x="743" 
d="M225 0h-155l142 700h179l171 -457h4l93 457h156l-142 -700h-178l-174 454h-4z" />
    <glyph glyph-name="O" unicode="O" horiz-adv-x="740" 
d="M368 -9q-136 0 -207 78q-70 77 -70 204q0 63 17 125t52 118.5t84 99t119 68t151 25.5q136 0 206 -78q71 -79 71 -204q0 -79 -29 -156t-81.5 -139.5t-134.5 -101.5t-178 -39zM397 133q106 0 169 81t63 195q0 158 -144 158q-107 0 -170 -81q-62 -82 -62 -195
q0 -77 37 -117.5t107 -40.5z" />
    <glyph glyph-name="P" unicode="P" horiz-adv-x="649" 
d="M227 0h-157l142 700h318q88 0 139 -52t51 -135q0 -115 -82 -197q-81 -82 -202 -82h-161zM341 561l-38 -187h130q60 0 92 30t32 85q0 72 -86 72h-130z" />
    <glyph glyph-name="Q" unicode="Q" horiz-adv-x="740" 
d="M791 427q0 -101 -45 -195t-126 -157l66 -138l-2 -10h-156l-39 81q-59 -17 -121 -17q-136 0 -207 78q-70 77 -70 204q0 63 17 125t52 118.5t84 99t119 68t151 25.5q136 0 206 -78q71 -79 71 -204zM397 133q6 0 32 2l-62 131l2 10h155l34 -71q71 80 71 204q0 158 -144 158
q-107 0 -170 -81q-62 -82 -62 -195q0 -77 37 -117.5t107 -40.5z" />
    <glyph glyph-name="R" unicode="R" horiz-adv-x="670" 
d="M731 515q0 -87 -51 -155q-50 -66 -134 -95l116 -255l-2 -10h-184l-101 247h-98l-50 -247h-157l142 700h320q93 0 146 -53t53 -132zM496 560h-155l-35 -173h155q49 0 77.5 31.5t28.5 73.5q0 31 -18 49.5t-53 18.5z" />
    <glyph glyph-name="S" unicode="S" horiz-adv-x="632" 
d="M313 -9q-136 0 -198.5 65.5t-45.5 183.5h159q-7 -54 23 -82t90 -28q148 0 148 85q0 44 -71 61l-98 22q-88 20 -133.5 60.5t-45.5 110.5q0 109 84 174q85 66 235 66q122 0 186 -64q66 -65 47 -164h-159q4 40 -22 64t-82 24q-60 0 -92 -20t-32 -51q0 -40 68 -55l90 -20
q94 -21 142 -63t48 -115q0 -113 -83 -184q-82 -70 -258 -70z" />
    <glyph glyph-name="T" unicode="T" horiz-adv-x="592" 
d="M375 0h-158l114 559h-202l28 141h562l-28 -141h-202z" />
    <glyph glyph-name="U" unicode="U" horiz-adv-x="714" 
d="M364 -9q-130 0 -204 74q-72 76 -44 212l86 423h158l-86 -421q-30 -148 109 -148q140 0 170 148l86 421h157l-86 -423q-29 -140 -119 -213t-227 -73z" />
    <glyph glyph-name="V" unicode="V" horiz-adv-x="706" 
d="M449 0h-189l-110 690l2 10h173l58 -513h4l263 513h188l-2 -10z" />
    <glyph glyph-name="W" unicode="W" horiz-adv-x="949" 
d="M375 0h-210l-15 690l2 10h179l-15 -483h4l205 483h184l11 -483h4l180 483h177l-2 -10l-294 -690h-211l-2 463h-4z" />
    <glyph glyph-name="X" unicode="X" horiz-adv-x="702" 
d="M220 0h-205l2 10l288 342l1 4l-142 334l2 10h181l93 -243h4l191 243h194l-2 -10l-271 -339l-1 -4l134 -337l-2 -10h-182l-93 243h-4z" />
    <glyph glyph-name="Y" unicode="Y" horiz-adv-x="698" 
d="M429 0h-158l57 278l-178 412l2 10h178l100 -264h4l208 264h188l-2 -10l-342 -410z" />
    <glyph glyph-name="Z" unicode="Z" horiz-adv-x="597" 
d="M567 0h-537l28 137l412 418l1 4h-318l28 141h522l-28 -139l-411 -417l-1 -4h332z" />
    <glyph glyph-name="bracketleft" unicode="[" horiz-adv-x="337" 
d="M246 -178h-252l193 948h252l-25 -120h-123l-144 -708h123z" />
    <glyph glyph-name="backslash" unicode="\" horiz-adv-x="458" 
d="M416 -133h-146l-107 860l2 10h147l106 -860z" />
    <glyph glyph-name="bracketright" unicode="]" horiz-adv-x="337" 
d="M271 -178h-252l24 120h123l144 708h-123l25 120h252z" />
    <glyph glyph-name="asciicircum" unicode="^" horiz-adv-x="588" 
d="M244 310h-146l2 10l273 380h127l118 -380l-2 -10h-136l-68 238h-4z" />
    <glyph glyph-name="underscore" unicode="_" horiz-adv-x="551" 
d="M491 -148h-491l25 121h491z" />
    <glyph glyph-name="grave" unicode="`" horiz-adv-x="286" 
d="M375 583h-110l-87 146l2 10h160l37 -146z" />
    <glyph glyph-name="a" unicode="a" 
d="M235 -9q-78 0 -121.5 55.5t-43.5 148.5q0 142 76 239q77 98 199 98q95 0 127 -59h4l26 50h138l-106 -523h-138l-6 50h-4q-59 -59 -151 -59zM310 126q47 0 79 29q57 52 57 147t-81 95q-38 0 -66.5 -17t-42.5 -44.5t-20.5 -55.5t-6.5 -57q0 -45 20 -71t61 -26z" />
    <glyph glyph-name="b" unicode="b" horiz-adv-x="584" 
d="M345 -9q-89 0 -127 59h-4l-26 -50h-138l151 740h154l-55 -267h4q62 59 151 59q78 0 122 -55.5t44 -148.5q0 -140 -79 -238q-80 -99 -197 -99zM326 126q47 0 79 29q57 52 57 147t-81 95q-38 0 -66.5 -17t-42.5 -44.5t-20.5 -55.5t-6.5 -57q0 -45 20 -71t61 -26z" />
    <glyph glyph-name="c" unicode="c" horiz-adv-x="551" 
d="M286 -9q-101 0 -158 58t-57 156q0 139 83 233q84 94 228 94q113 0 167 -61q55 -59 41 -154h-155q4 36 -15 58t-55 22q-65 0 -100.5 -47t-35.5 -131q0 -93 81 -93q36 0 64 22t39 58h155q-20 -95 -95 -155q-73 -60 -187 -60z" />
    <glyph glyph-name="d" unicode="d" 
d="M235 -9q-78 0 -121.5 55.5t-43.5 148.5q0 139 78 238q80 99 197 99q89 0 127 -59h4l55 267h154l-151 -740h-138l-6 50h-4q-62 -59 -151 -59zM310 126q47 0 79 29q57 52 57 147t-81 95q-38 0 -66.5 -17t-42.5 -44.5t-20.5 -55.5t-6.5 -57q0 -45 20 -71t61 -26z" />
    <glyph glyph-name="e" unicode="e" horiz-adv-x="556" 
d="M282 -9q-100 0 -156 60q-55 61 -55 156q0 133 82 228q82 97 226 97q123 0 177 -72q54 -71 31 -183l-12 -57h-348q-9 -49 11 -76.5t70 -27.5q71 0 101 52h149q-28 -80 -99.5 -128.5t-176.5 -48.5zM247 317h191q6 41 -12.5 65t-61.5 24q-91 0 -117 -89z" />
    <glyph glyph-name="f" unicode="f" horiz-adv-x="429" 
d="M218 -229h-154l127 622h-91l26 130h92l5 27q38 200 257 200q39 0 67 -7l-28 -130q-32 5 -49 5q-81 0 -93 -68l-5 -27h123l-26 -130h-124z" />
    <glyph glyph-name="g" unicode="g" 
d="M230 -238q-106 0 -160.5 52.5t-38.5 140.5h151q-2 -27 18 -44t56 -17q48 0 79.5 22.5t39.5 60.5l15 73h-4q-62 -59 -151 -59q-78 0 -122 55.5t-44 148.5q0 140 79 238q80 99 197 99q89 0 127 -59h4l26 50h138l-111 -548q-21 -101 -99 -157t-200 -56zM310 126q38 0 66 17
t42 44.5t20.5 55.5t6.5 57q0 97 -80 97q-69 0 -103 -54q-33 -54 -33 -122q0 -95 81 -95z" />
    <glyph glyph-name="h" unicode="h" horiz-adv-x="585" 
d="M204 0h-154l151 740h154l-55 -267h4q62 59 155 59q88 0 131 -51t25 -137l-70 -344h-154l60 296q19 96 -68 96q-42 0 -76 -28.5t-44 -73.5z" />
    <glyph glyph-name="i" unicode="i" horiz-adv-x="244" 
d="M245 576q-77 0 -77 70q0 49 30.5 79t83.5 30q37 0 57 -18.5t20 -51.5q0 -49 -31 -79t-83 -30zM204 0h-154l106 523h154z" />
    <glyph glyph-name="j" unicode="j" horiz-adv-x="248" 
d="M250 576q-77 0 -77 70q0 49 30.5 79t83.5 30q37 0 57 -18.5t20 -51.5q0 -49 -31 -79t-83 -30zM-28 -238q-32 0 -69 8l28 139q20 -3 38 -3q68 0 81 73l111 544h154l-119 -583q-16 -84 -80 -131t-144 -47z" />
    <glyph glyph-name="k" unicode="k" horiz-adv-x="561" 
d="M456 523h190l-2 -10l-262 -243l171 -260l-2 -10h-171l-142 217l-44 -217h-144l151 740h144l-82 -404z" />
    <glyph glyph-name="l" unicode="l" horiz-adv-x="244" 
d="M204 0h-154l151 740h154z" />
    <glyph glyph-name="m" unicode="m" horiz-adv-x="896" 
d="M770 532q88 0 131 -51t25 -137l-70 -344h-154l60 296q9 49 -5 72.5t-57 23.5q-41 0 -69.5 -27t-38.5 -75l-59 -290h-152l60 296q9 49 -5 72.5t-57 23.5q-42 0 -74 -27.5t-42 -74.5l-59 -290h-154l106 523h138l2 -50h4q62 59 155 59q107 0 142 -71h3q71 71 170 71z" />
    <glyph glyph-name="n" unicode="n" horiz-adv-x="581" 
d="M204 0h-154l106 523h138l2 -50h4q62 59 155 59q88 0 131 -51t25 -137l-70 -344h-154l60 296q19 96 -68 96q-42 0 -74 -27.5t-42 -74.5z" />
    <glyph glyph-name="o" unicode="o" horiz-adv-x="572" 
d="M290 -9q-104 0 -162 57t-58 154q-3 144 79.5 236.5t238.5 93.5q103 0 161.5 -58t58.5 -155q0 -144 -80 -236t-238 -92zM312 126q64 0 100.5 46.5t36.5 129.5q0 95 -82 95q-64 0 -100.5 -46.5t-36.5 -129.5q0 -95 82 -95z" />
    <glyph glyph-name="p" unicode="p" horiz-adv-x="584" 
d="M157 -229h-154l153 752h138l6 -50h4q50 59 141 59q79 0 127 -58q49 -56 49 -147q0 -140 -79 -238q-80 -98 -197 -98q-94 0 -127 59h-4zM326 126q38 0 66 17t42 44.5t20.5 55.5t6.5 57q0 97 -80 97q-69 0 -103 -54q-33 -54 -33 -122q0 -95 81 -95z" />
    <glyph glyph-name="q" unicode="q" 
d="M487 -229h-154l57 279h-4q-62 -59 -151 -59q-78 0 -122 55.5t-44 148.5q0 140 79 238q80 99 197 99q89 0 127 -59h4l26 50h138zM310 126q38 0 66 17t42 44.5t20.5 55.5t6.5 57q0 97 -80 97q-69 0 -103 -54q-33 -54 -33 -122q0 -95 81 -95z" />
    <glyph glyph-name="r" unicode="r" horiz-adv-x="389" 
d="M194 0h-144l106 523h128l-3 -76h4q58 85 151 85h41l-33 -141h-50q-55 0 -95 -35.5t-53 -97.5z" />
    <glyph glyph-name="s" unicode="s" horiz-adv-x="511" 
d="M255 -9q-114 0 -162 49t-32 137h154q-6 -25 11 -41.5t55 -16.5q40 0 61.5 12.5t21.5 31.5q0 26 -46 35l-74 15q-130 25 -130 134q0 84 64 134.5t186 50.5q98 0 148 -50t35 -125h-152q6 23 -9 38.5t-49 15.5q-30 0 -49.5 -12t-19.5 -30q0 -24 32 -30l96 -19
q126 -24 126 -129q0 -96 -70 -148t-197 -52z" />
    <glyph glyph-name="t" unicode="t" horiz-adv-x="431" 
d="M278 -9q-85 0 -120.5 45t-20.5 122l48 234h-85l26 131h92l23 109l142 28h10l-28 -137h125l-26 -131h-125l-40 -197q-7 -37 5 -53.5t47 -16.5q27 0 52 9h10l-26 -128q-43 -15 -109 -15z" />
    <glyph glyph-name="u" unicode="u" horiz-adv-x="579" 
d="M422 232l59 291h155l-64 -314q-45 -218 -279 -218h-1q-120 0 -169 63q-49 64 -30 155l64 314h153l-59 -291q-19 -96 67 -96q84 0 104 96z" />
    <glyph glyph-name="v" unicode="v" horiz-adv-x="587" 
d="M393 0h-197l-82 513l2 10h161l41 -378h4l188 378h173l-2 -10z" />
    <glyph glyph-name="w" unicode="w" horiz-adv-x="833" 
d="M341 0h-213l-14 513l2 10h157l-3 -358h4l142 358h206l-2 -358h4l141 358h164l-2 -10l-222 -513h-213l1 358h-4z" />
    <glyph glyph-name="x" unicode="x" horiz-adv-x="580" 
d="M201 0h-186l2 10l212 253l-104 250l2 10h170l60 -165h4l125 165h185l-2 -10l-197 -248l92 -255l-2 -10h-172l-55 170h-4z" />
    <glyph glyph-name="y" unicode="y" horiz-adv-x="601" 
d="M281 -229h-167l2 10l120 219h-26l-62 513l2 10h158l31 -371h4l188 371h166l-2 -10z" />
    <glyph glyph-name="z" unicode="z" horiz-adv-x="502" 
d="M467 0h-432l26 129l286 259l1 4h-232l26 131h429l-26 -130l-285 -258v-4h234z" />
    <glyph glyph-name="braceleft" unicode="{" horiz-adv-x="430" 
d="M440 770h92l-25 -120h-53q-68 0 -85 -75l-36 -175q-18 -90 -100 -102l-1 -2v-2q78 -12 59 -102l-36 -175q-17 -75 55 -75h53l-24 -120h-92q-67 0 -105 44q-37 43 -23 113l34 167q10 47 -8 67.5t-67 22.5l24 120q50 2 76 23t36 67l34 167q14 71 66 114t126 43z" />
    <glyph glyph-name="bar" unicode="|" horiz-adv-x="274" 
d="M176 -138h-134l183 898h134z" />
    <glyph glyph-name="braceright" unicode="}" horiz-adv-x="430" 
d="M432 613l-34 -167q-10 -47 7.5 -67.5t66.5 -22.5l-24 -120q-49 -2 -75 -23t-36 -67l-34 -167q-13 -70 -67 -114q-52 -43 -125 -43h-92l24 120h53q70 0 86 75l35 175q18 90 101 102v2l1 2q-78 12 -60 102l36 175q17 75 -55 75h-53l25 120h92q67 0 105 -44q37 -43 23 -113z
" />
    <glyph glyph-name="asciitilde" unicode="~" horiz-adv-x="533" 
d="M405 197q-47 0 -92 27l-40 25q-25 15 -51 15q-56 0 -88 -57l-67 51q28 56 74 90.5t103 34.5q46 0 90 -26l42 -25q26 -16 53 -16q57 0 88 57l67 -51q-28 -56 -74.5 -90.5t-104.5 -34.5z" />
    <glyph glyph-name="uni00A0" unicode="&#xa0;" horiz-adv-x="280" 
 />
    <glyph glyph-name="exclamdown" unicode="&#xa1;" horiz-adv-x="250" 
d="M197 353q-75 0 -75 69q0 49 30 79.5t81 30.5q36 0 55.5 -18.5t19.5 -51.5q0 -48 -30 -78.5t-81 -30.5zM170 -189h-164l19 96l99 382h117l-52 -382z" />
    <glyph glyph-name="cent" unicode="&#xa2;" horiz-adv-x="551" 
d="M609 407h-155q5 50 -28 69l-51 -249q43 21 57 69h155q-20 -86 -82 -144q-63 -58 -159 -69l-17 -83h-98l18 86q-77 15 -118 70t-41 139q0 127 71 218q70 91 196 106l16 81h98l-17 -82q86 -15 126.5 -72t28.5 -139zM248 309q0 -57 30 -78l49 245q-79 -37 -79 -167z" />
    <glyph glyph-name="sterling" unicode="&#xa3;" horiz-adv-x="611" 
d="M591 0h-560l27 131q32 0 55 21.5t30 58.5l12 61h-70l27 133h70l18 88q21 102 90.5 160.5t181.5 58.5q111 0 164 -65t34 -157h-145q9 42 -9 69.5t-63 27.5q-42 0 -71.5 -26t-37.5 -68l-18 -88h169l-27 -133h-169l-13 -65q-10 -57 -48 -75l-1 -4h380z" />
    <glyph glyph-name="currency" unicode="&#xa4;" horiz-adv-x="558" 
d="M180 55l-82 -70l-65 79l82 71q-12 36 -12 78q0 75 60 152l-54 72l97 79l55 -72q57 30 116 30t103 -28l82 70l65 -79l-81 -69q15 -34 15 -83q0 -76 -62 -153l52 -68l-97 -79l-52 68q-61 -29 -116 -29q-60 0 -106 31zM311 147q47 0 84 35q37 34 37 86q0 36 -22 59t-58 23
q-48 0 -86 -35q-37 -34 -37 -85q0 -37 22.5 -60t59.5 -23z" />
    <glyph glyph-name="yen" unicode="&#xa5;" horiz-adv-x="698" 
d="M639 700h191l-2 -10l-228 -277h81l-23 -111h-149l-18 -22l-10 -47h163l-22 -111h-163l-25 -122h-158l25 122h-175l22 111h176l9 45l-11 24h-160l23 111h88l-123 277l2 10h188l95 -264h4z" />
    <glyph glyph-name="brokenbar" unicode="&#xa6;" horiz-adv-x="274" 
d="M286 402h-134l73 358h134zM176 -138h-134l73 358h134z" />
    <glyph glyph-name="section" unicode="&#xa7;" horiz-adv-x="633" 
d="M263 -245q-97 0 -143 55t-28 139h123q-7 -34 11 -54t57 -20q40 0 65 21t25 52q0 33 -35 60l-138 111q-76 61 -76 136q0 112 124 173q-22 34 -22 81q0 83 66 141q68 59 172 59q96 0 142 -55t30 -139h-123q7 34 -11 54t-57 20q-41 0 -66 -21t-25 -52q0 -33 35 -60l138 -111
q76 -60 76 -136q0 -112 -124 -173q23 -35 23 -81q0 -83 -67 -141q-67 -59 -172 -59zM285 215l124 -101q64 21 64 75q0 35 -30 60l-124 101q-65 -23 -65 -75q0 -35 31 -60z" />
    <glyph glyph-name="dieresis" unicode="&#xa8;" horiz-adv-x="450" 
d="M244 592q-29 0 -45 15.5t-16 42.5q0 39 25 64t66 25q29 0 45 -15.5t16 -42.5q0 -39 -25.5 -64t-65.5 -25zM446 592q-60 0 -60 57q0 40 24.5 65t65.5 25q30 0 46 -15.5t16 -42.5q0 -39 -25.5 -64t-66.5 -25z" />
    <glyph glyph-name="copyright" unicode="&#xa9;" horiz-adv-x="820" 
d="M831 350q-33 -159 -150 -259q-116 -100 -273 -100q-156 0 -232 100q-77 101 -45 259q33 158 150 258q118 101 273 101t232 -101q76 -100 45 -258zM734 350q25 124 -27.5 194.5t-171.5 70.5t-200 -70.5t-107 -194.5q-24 -124 28 -194.5t171 -70.5t200 70.5t107 194.5z
M523 548q79 0 113 -46q35 -46 25 -108h-93q9 67 -62 67q-118 0 -118 -150q0 -78 71 -78q69 0 92 66h93q-19 -67 -73 -109.5t-128 -42.5q-73 0 -112 40.5t-39 112.5q0 106 63 177t168 71z" />
    <glyph glyph-name="ordfeminine" unicode="&#xaa;" horiz-adv-x="405" 
d="M224 296q-50 0 -79 36.5t-29 96.5q0 91 52 155q53 65 129 65q59 0 82 -38h4l16 32h91l-70 -341h-90l-5 32h-2q-38 -38 -99 -38zM273 384q44 0 67 35q23 37 23 80q0 62 -54 62q-47 0 -68 -36q-21 -35 -21 -77q0 -64 53 -64z" />
    <glyph glyph-name="guillemotleft" unicode="&#xab;" horiz-adv-x="622" 
d="M345 66h-146l-122 212l2 10l209 212h146l-2 -10l-182 -207l97 -207zM605 66h-146l-122 212l2 10l209 212h146l-2 -10l-182 -207l97 -207z" />
    <glyph glyph-name="uni00AD" unicode="&#xad;" horiz-adv-x="466" 
d="M432 224h-306l28 138h306z" />
    <glyph glyph-name="registered" unicode="&#xae;" horiz-adv-x="514" 
d="M312 268q-91 0 -143 55t-52 139q0 113 85 195q86 83 206 83q89 0 141 -55q53 -56 53 -139q0 -113 -85 -195q-86 -83 -205 -83zM327 343q86 0 141 53q55 54 55 143q0 59 -34.5 92.5t-96.5 33.5q-87 0 -142 -54q-54 -53 -54 -142q0 -59 34.5 -92.5t96.5 -33.5zM312 397h-61
l42 208h109q29 0 47 -17t18 -44q0 -24 -13 -46t-36 -33l28 -62l-1 -6h-66l-24 58h-31zM343 551l-8 -42h36q30 0 30 26q0 16 -22 16h-36z" />
    <glyph glyph-name="overscore" unicode="&#xaf;" horiz-adv-x="353" 
d="M446 607h-293l23 111h293z" />
    <glyph glyph-name="degree" unicode="&#xb0;" horiz-adv-x="412" 
d="M280 365q-66 0 -106 40.5t-40 103.5q0 85 65 145q64 61 152 61q66 0 106.5 -40.5t40.5 -103.5q0 -84 -65 -146q-65 -60 -153 -60zM300 464q39 0 64.5 26.5t25.5 65.5q0 28 -15 44t-44 16q-38 0 -63.5 -27t-25.5 -64q0 -28 15.5 -44.5t42.5 -16.5z" />
    <glyph glyph-name="plusminus" unicode="&#xb1;" horiz-adv-x="496" 
d="M359 190h-140l28 137h-175l26 132h175l28 137h140l-28 -137h171l-26 -132h-171zM492 7h-486l27 132h486z" />
    <glyph glyph-name="uni00B2" unicode="&#xb2;" horiz-adv-x="411" 
d="M426 248h-340l18 86l185 136q51 38 70 60t19 47q0 19 -13 30.5t-36 11.5q-28 0 -48.5 -16.5t-26.5 -46.5h-106q13 72 66.5 114t130.5 42q63 0 102.5 -33t39.5 -84q0 -45 -23 -81t-84 -80l-123 -89v-3h189z" />
    <glyph glyph-name="uni00B3" unicode="&#xb3;" horiz-adv-x="434" 
d="M273 236q-86 0 -129.5 40.5t-28.5 114.5h105q-7 -26 9.5 -44.5t56.5 -18.5q41 0 62.5 17.5t21.5 44.5q0 45 -70 45h-40l18 92h38q78 0 78 53q0 18 -14 29t-40 11q-66 0 -79 -64h-105q15 73 69.5 114.5t135.5 41.5q63 0 103.5 -32t40.5 -82q0 -79 -82 -110v-3
q56 -21 56 -85q0 -68 -52 -116q-51 -48 -154 -48z" />
    <glyph glyph-name="acute" unicode="&#xb4;" horiz-adv-x="286" 
d="M259 583h-110l2 10l95 146h160l-2 -10z" />
    <glyph glyph-name="paragraph" unicode="&#xb6;" horiz-adv-x="600" 
d="M325 -104h-125l93 457q-67 0 -111 45q-43 46 -43 113q0 89 68 154t163 65h369l-23 -109h-59l-147 -725h-125l147 725h-60z" />
    <glyph glyph-name="middot" unicode="&#xb7;" horiz-adv-x="238" 
d="M168 209q-75 0 -75 69q0 49 30 79.5t81 30.5q36 0 55 -18.5t19 -51.5q0 -48 -30 -78.5t-80 -30.5z" />
    <glyph glyph-name="cedilla" unicode="&#xb8;" horiz-adv-x="340" 
d="M117 -228q-58 0 -90 28.5t-23 73.5h90q-2 -12 8 -21t28 -9q54 0 54 35q0 25 -39 25h-32l-18 31l56 79h101l-46 -50q37 -3 58.5 -24t21.5 -53q0 -49 -47 -82t-122 -33z" />
    <glyph glyph-name="uni00B9" unicode="&#xb9;" horiz-adv-x="295" 
d="M310 248h-105l70 343h-4l-125 -82h-7l21 104l135 87h107z" />
    <glyph glyph-name="ordmasculine" unicode="&#xba;" horiz-adv-x="391" 
d="M255 296q-66 0 -102.5 37.5t-36.5 101.5q0 91 58 152q59 62 153 62q67 0 103.5 -37.5t36.5 -101.5q0 -92 -58 -153t-154 -61zM273 384q42 0 66 30.5t24 85.5q0 61 -54 61q-41 0 -64.5 -30.5t-23.5 -84.5q0 -62 52 -62z" />
    <glyph glyph-name="guillemotright" unicode="&#xbb;" horiz-adv-x="621" 
d="M132 500h146l122 -212l-2 -10l-209 -212h-146l2 10l182 207l-97 207zM392 500h146l122 -212l-2 -10l-209 -212h-146l2 10l182 207l-97 207z" />
    <glyph glyph-name="onequarter" unicode="&#xbc;" horiz-adv-x="914" 
d="M310 248h-105l70 343h-4l-125 -82h-7l21 104l135 87h107zM286 0h-119l2 10l574 690h117l-2 -10zM827 0h-105l16 80h-207l21 102l226 270h141l-57 -278h52l-19 -94h-52zM655 178l-1 -4h103l33 159h-4z" />
    <glyph glyph-name="onehalf" unicode="&#xbd;" horiz-adv-x="955" 
d="M310 248h-105l70 343h-4l-125 -82h-7l21 104l135 87h107zM286 0h-119l2 10l574 690h117l-2 -10zM920 0h-340l18 86l185 136q51 38 70 60t19 47q0 19 -13 30.5t-36 11.5q-28 0 -48.5 -16.5t-26.5 -46.5h-106q13 72 66.5 114t130.5 42q63 0 102.5 -33t39.5 -84
q0 -45 -23 -81t-84 -80l-123 -89v-3h189z" />
    <glyph glyph-name="threequarters" unicode="&#xbe;" horiz-adv-x="1004" 
d="M273 236q-86 0 -129.5 40.5t-28.5 114.5h105q-7 -26 9.5 -44.5t56.5 -18.5q41 0 62.5 17.5t21.5 44.5q0 45 -70 45h-40l18 92h38q78 0 78 53q0 18 -14 29t-40 11q-66 0 -79 -64h-105q15 73 69.5 114.5t135.5 41.5q63 0 103.5 -32t40.5 -82q0 -79 -82 -110v-3
q56 -21 56 -85q0 -68 -52 -116q-51 -48 -154 -48zM376 0h-119l2 10l574 690h117l-2 -10zM917 0h-105l16 80h-207l21 102l226 270h141l-57 -278h52l-19 -94h-52zM745 178l-1 -4h103l33 159h-4z" />
    <glyph glyph-name="questiondown" unicode="&#xbf;" horiz-adv-x="543" 
d="M353 354q-36 0 -55 18.5t-19 51.5q0 48 30.5 78.5t80.5 30.5q74 0 74 -69q0 -50 -29.5 -80t-81.5 -30zM231 -185q-94 0 -149 46t-55 119q0 109 110 181l50 33q41 27 60 46q17 19 23 47l3 16h150l-3 -19q-11 -59 -36 -92q-26 -32 -83 -71l-37 -25q-42 -28 -58 -47t-16 -43
q0 -25 18.5 -40.5t52.5 -15.5q90 0 108 87h151q-13 -101 -89 -161.5t-200 -60.5z" />
    <glyph glyph-name="Agrave" unicode="&#xc0;" horiz-adv-x="702" 
d="M589 770l-2 -10h-110l-87 146l2 10h160zM392 700h201l101 -690l-2 -10h-168l-14 133h-260l-68 -133h-172l2 10zM461 543l-140 -272h174l-30 272h-4z" />
    <glyph glyph-name="Aacute" unicode="&#xc1;" horiz-adv-x="702" 
d="M695 916l-2 -10l-145 -146h-110l2 10l95 146h160zM12 10l380 690h201l101 -690l-2 -10h-168l-14 133h-260l-68 -133h-172zM461 543l-140 -272h174l-30 272h-4z" />
    <glyph glyph-name="Acircumflex" unicode="&#xc2;" horiz-adv-x="702" 
d="M523 816h-4l-67 -54h-120l2 10l123 142h163l65 -142l-2 -10h-116zM392 700h201l101 -690l-2 -10h-168l-14 133h-260l-68 -133h-172l2 10zM461 543l-140 -272h174l-30 272h-4z" />
    <glyph glyph-name="Atilde" unicode="&#xc3;" horiz-adv-x="702" 
d="M413 762h-92l3 15q13 62 48 95.5t86 33.5q35 0 66 -19l14 -8q22 -13 34 -13q14 0 21 8.5t11 29.5h91l-3 -15q-26 -129 -133 -129q-35 0 -63 18l-15 9q-56 32 -68 -25zM12 10l380 690h201l101 -690l-2 -10h-168l-14 133h-260l-68 -133h-172zM461 543l-140 -272h174
l-30 272h-4z" />
    <glyph glyph-name="Adieresis" unicode="&#xc4;" horiz-adv-x="702" 
d="M408 769q-29 0 -45 15.5t-16 42.5q0 39 25 64t66 25q29 0 45 -15.5t16 -42.5q0 -39 -25.5 -64t-65.5 -25zM610 769q-60 0 -60 57q0 40 24.5 65t65.5 25q30 0 46 -15.5t16 -42.5q0 -39 -25.5 -64t-66.5 -25zM12 10l380 690h201l101 -690l-2 -10h-168l-14 133h-260
l-68 -133h-172zM461 543l-140 -272h174l-30 272h-4z" />
    <glyph glyph-name="Aring" unicode="&#xc5;" horiz-adv-x="702" 
d="M506 745q-44 0 -73 26t-29 67q0 58 39 95q41 39 99 39q45 0 73.5 -26t28.5 -67q0 -57 -39 -95.5t-99 -38.5zM531 901q-21 0 -36.5 -15.5t-15.5 -35.5q0 -15 9.5 -24.5t25.5 -9.5q23 0 39 14.5t16 35.5q0 15 -10 25t-28 10zM392 700h201l101 -690l-2 -10h-168l-14 133
h-260l-68 -133h-172l2 10zM461 543l-140 -272h174l-30 272h-4z" />
    <glyph glyph-name="AE" unicode="&#xc6;" horiz-adv-x="916" 
d="M176 0h-166l2 10l380 690h626l-28 -140h-376l19 -129h300l-29 -140h-251l22 -152h229l-28 -139h-358l-14 133h-260zM455 543l-140 -272h174l-30 272h-4z" />
    <glyph glyph-name="Ccedilla" unicode="&#xc7;" horiz-adv-x="709" 
d="M768 436h-160q6 57 -26 94t-98 37q-109 0 -170 -76t-61 -202q0 -76 36.5 -116.5t106.5 -40.5q63 0 108.5 34t67.5 91h159q-32 -108 -119 -182q-86 -74 -209 -83l-26 -28q37 -3 58.5 -24t21.5 -53q0 -49 -47 -82t-122 -33q-58 0 -90 28.5t-23 73.5h90q-2 -12 8 -21t28 -9
q54 0 54 35q0 25 -39 25h-32l-18 31l43 61q-104 18 -161 92t-57 184q0 118 45 215t141 159q97 63 231 63q131 0 203 -80q72 -79 57 -193z" />
    <glyph glyph-name="Egrave" unicode="&#xc8;" horiz-adv-x="610" 
d="M571 760h-110l-87 146l2 10h160l37 -146zM570 0h-500l142 700h500l-28 -140h-343l-26 -129h312l-29 -140h-312l-31 -152h343z" />
    <glyph glyph-name="Eacute" unicode="&#xc9;" horiz-adv-x="610" 
d="M532 760h-110l2 10l95 146h160l-2 -10zM570 0h-500l142 700h500l-28 -140h-343l-26 -129h312l-29 -140h-312l-31 -152h343z" />
    <glyph glyph-name="Ecircumflex" unicode="&#xca;" horiz-adv-x="610" 
d="M436 762h-120l2 10l123 142h163l65 -142l-2 -10h-116l-44 54h-4zM570 0h-500l142 700h500l-28 -140h-343l-26 -129h312l-29 -140h-312l-31 -152h343z" />
    <glyph glyph-name="Edieresis" unicode="&#xcb;" horiz-adv-x="610" 
d="M392 769q-29 0 -45 15.5t-16 42.5q0 39 25 64t66 25q29 0 45 -15.5t16 -42.5q0 -39 -25.5 -64t-65.5 -25zM594 769q-60 0 -60 57q0 40 24.5 65t65.5 25q30 0 46 -15.5t16 -42.5q0 -39 -25.5 -64t-66.5 -25zM570 0h-500l142 700h500l-28 -140h-343l-26 -129h312l-29 -140
h-312l-31 -152h343z" />
    <glyph glyph-name="Igrave" unicode="&#xcc;" horiz-adv-x="298" 
d="M388 760h-110l-87 146l2 10h160l37 -146zM228 0h-158l142 700h158z" />
    <glyph glyph-name="Iacute" unicode="&#xcd;" horiz-adv-x="298" 
d="M349 760h-110l2 10l95 146h160l-2 -10zM228 0h-158l142 700h158z" />
    <glyph glyph-name="Icircumflex" unicode="&#xce;" horiz-adv-x="298" 
d="M253 762h-120l2 10l123 142h163l65 -142l-2 -10h-116l-44 54h-4zM228 0h-158l142 700h158z" />
    <glyph glyph-name="Idieresis" unicode="&#xcf;" horiz-adv-x="298" 
d="M209 769q-29 0 -45 15.5t-16 42.5q0 39 25 64t66 25q29 0 45 -15.5t16 -42.5q0 -39 -25.5 -64t-65.5 -25zM411 769q-60 0 -60 57q0 40 24.5 65t65.5 25q30 0 46 -15.5t16 -42.5q0 -39 -25.5 -64t-66.5 -25zM228 0h-158l142 700h158z" />
    <glyph glyph-name="Eth" unicode="&#xd0;" horiz-adv-x="745" 
d="M253 700h242q135 0 218 -78q82 -78 82 -207q0 -115 -48.5 -207.5t-149.5 -150t-241 -57.5h-245l60 297h-71l27 131h71zM286 139h86q120 0 190 73q71 74 71 189q0 159 -175 159h-86l-27 -132h142l-27 -131h-142z" />
    <glyph glyph-name="Ntilde" unicode="&#xd1;" horiz-adv-x="743" 
d="M608 760q-34 0 -63 18l-15 9q-56 32 -68 -25h-92l3 15q13 62 48 95.5t86 33.5q35 0 66 -19l14 -8q22 -13 34 -13q14 0 21 8.5t11 29.5h91l-3 -15q-25 -129 -133 -129zM225 0h-155l142 700h179l171 -457h4l93 457h156l-142 -700h-178l-174 454h-4z" />
    <glyph glyph-name="Ograve" unicode="&#xd2;" horiz-adv-x="740" 
d="M607 760h-110l-87 146l2 10h160l37 -146zM368 -9q-136 0 -207 78q-70 77 -70 204q0 63 17 125t52 118.5t84 99t119 68t151 25.5q136 0 206 -78q71 -79 71 -204q0 -79 -29 -156t-81.5 -139.5t-134.5 -101.5t-178 -39zM397 133q106 0 169 81t63 195q0 158 -144 158
q-107 0 -170 -81q-62 -82 -62 -195q0 -77 37 -117.5t107 -40.5z" />
    <glyph glyph-name="Oacute" unicode="&#xd3;" horiz-adv-x="740" 
d="M568 760h-110l2 10l95 146h160l-2 -10zM368 -9q-136 0 -207 78q-70 77 -70 204q0 63 17 125t52 118.5t84 99t119 68t151 25.5q136 0 206 -78q71 -79 71 -204q0 -79 -29 -156t-81.5 -139.5t-134.5 -101.5t-178 -39zM397 133q106 0 169 81t63 195q0 158 -144 158
q-107 0 -170 -81q-62 -82 -62 -195q0 -77 37 -117.5t107 -40.5z" />
    <glyph glyph-name="Ocircumflex" unicode="&#xd4;" horiz-adv-x="740" 
d="M472 762h-120l2 10l123 142h163l65 -142l-2 -10h-116l-44 54h-4zM368 -9q-136 0 -207 78q-70 77 -70 204q0 63 17 125t52 118.5t84 99t119 68t151 25.5q136 0 206 -78q71 -79 71 -204q0 -79 -29 -156t-81.5 -139.5t-134.5 -101.5t-178 -39zM397 133q106 0 169 81t63 195
q0 158 -144 158q-107 0 -170 -81q-62 -82 -62 -195q0 -77 37 -117.5t107 -40.5z" />
    <glyph glyph-name="Otilde" unicode="&#xd5;" horiz-adv-x="740" 
d="M579 760q-35 0 -63 18l-15 9q-56 32 -68 -25h-92l3 15q13 62 48 95.5t86 33.5q35 0 66 -19l14 -8q22 -13 34 -13q14 0 21 8.5t11 29.5h91l-3 -15q-26 -129 -133 -129zM368 -9q-136 0 -207 78q-70 77 -70 204q0 63 17 125t52 118.5t84 99t119 68t151 25.5q136 0 206 -78
q71 -79 71 -204q0 -79 -29 -156t-81.5 -139.5t-134.5 -101.5t-178 -39zM397 133q106 0 169 81t63 195q0 158 -144 158q-107 0 -170 -81q-62 -82 -62 -195q0 -77 37 -117.5t107 -40.5z" />
    <glyph glyph-name="Odieresis" unicode="&#xd6;" horiz-adv-x="740" 
d="M428 769q-29 0 -45 15.5t-16 42.5q0 39 25 64t66 25q29 0 45 -15.5t16 -42.5q0 -39 -25.5 -64t-65.5 -25zM630 769q-60 0 -60 57q0 40 24.5 65t65.5 25q30 0 46 -15.5t16 -42.5q0 -39 -25.5 -64t-66.5 -25zM368 -9q-136 0 -207 78q-70 77 -70 204q0 63 17 125t52 118.5
t84 99t119 68t151 25.5q136 0 206 -78q71 -79 71 -204q0 -79 -29 -156t-81.5 -139.5t-134.5 -101.5t-178 -39zM397 133q106 0 169 81t63 195q0 158 -144 158q-107 0 -170 -81q-62 -82 -62 -195q0 -77 37 -117.5t107 -40.5z" />
    <glyph glyph-name="multiply" unicode="&#xd7;" horiz-adv-x="467" 
d="M280 226l-164 -136l-79 99l164 136l-104 129l112 93l104 -129l162 135l79 -99l-162 -135l107 -136l-112 -93z" />
    <glyph glyph-name="Oslash" unicode="&#xd8;" horiz-adv-x="740" 
d="M725 738h145l-2 -10l-121 -131q44 -70 44 -170q0 -79 -29 -156t-81.5 -139.5t-134.5 -101.5t-178 -39q-85 0 -148 33l-67 -72h-143l2 10l126 137q-47 71 -47 174q0 63 17 125t52 118.5t84 99t119 68t151 25.5q87 0 152 -35zM253 291q0 -37 7 -59l295 321q-31 14 -70 14
q-107 0 -170 -81q-62 -82 -62 -195zM629 409q0 24 -5 54l-293 -318q29 -12 66 -12q106 0 169 81t63 195z" />
    <glyph glyph-name="Ugrave" unicode="&#xd9;" horiz-adv-x="714" 
d="M594 760h-110l-87 146l2 10h160l37 -146zM364 -9q-130 0 -204 74q-72 76 -44 212l86 423h158l-86 -421q-30 -148 109 -148q140 0 170 148l86 421h157l-86 -423q-29 -140 -119 -213t-227 -73z" />
    <glyph glyph-name="Uacute" unicode="&#xda;" horiz-adv-x="714" 
d="M555 760h-110l2 10l95 146h160l-2 -10zM364 -9q-130 0 -204 74q-72 76 -44 212l86 423h158l-86 -421q-30 -148 109 -148q140 0 170 148l86 421h157l-86 -423q-29 -140 -119 -213t-227 -73z" />
    <glyph glyph-name="Ucircumflex" unicode="&#xdb;" horiz-adv-x="714" 
d="M459 762h-120l2 10l123 142h163l65 -142l-2 -10h-116l-44 54h-4zM364 -9q-130 0 -204 74q-72 76 -44 212l86 423h158l-86 -421q-30 -148 109 -148q140 0 170 148l86 421h157l-86 -423q-29 -140 -119 -213t-227 -73z" />
    <glyph glyph-name="Udieresis" unicode="&#xdc;" horiz-adv-x="714" 
d="M415 769q-29 0 -45 15.5t-16 42.5q0 39 25 64t66 25q29 0 45 -15.5t16 -42.5q0 -39 -25.5 -64t-65.5 -25zM617 769q-60 0 -60 57q0 40 24.5 65t65.5 25q30 0 46 -15.5t16 -42.5q0 -39 -25.5 -64t-66.5 -25zM364 -9q-130 0 -204 74q-72 76 -44 212l86 423h158l-86 -421
q-30 -148 109 -148q140 0 170 148l86 421h157l-86 -423q-29 -140 -119 -213t-227 -73z" />
    <glyph glyph-name="Yacute" unicode="&#xdd;" horiz-adv-x="698" 
d="M548 760h-110l2 10l95 146h160l-2 -10zM429 0h-158l57 278l-178 412l2 10h178l100 -264h4l208 264h188l-2 -10l-342 -410z" />
    <glyph glyph-name="Thorn" unicode="&#xde;" horiz-adv-x="649" 
d="M228 0h-158l142 700h158l-18 -90h160q88 0 139 -52t51 -135q0 -115 -82 -197t-203 -82h-160zM324 471l-38 -187h129q60 0 92 30t32 85q0 72 -86 72h-129z" />
    <glyph glyph-name="germandbls" unicode="&#xdf;" horiz-adv-x="685" 
d="M453 -9q-102 0 -148.5 50.5t-31.5 137.5h144q-11 -63 62 -63q30 0 49 12.5t19 30.5q0 28 -58 47l-60 20q-104 35 -104 117q0 51 22 85t53.5 49.5t63.5 26.5t54 25.5t22 37.5q0 51 -95 51q-55 0 -91 -28.5t-46 -79.5l-151 -739h-154l151 739q23 111 109 175q89 65 209 65
q103 0 159.5 -43t56.5 -116q0 -56 -22.5 -93.5t-55 -54.5t-65 -28t-55 -23t-22.5 -30q0 -20 33 -31l90 -31q104 -36 104 -120t-67 -136q-68 -53 -175 -53z" />
    <glyph glyph-name="agrave" unicode="&#xe0;" 
d="M483 583h-110l-87 146l2 10h160l37 -146zM235 -9q-78 0 -121.5 55.5t-43.5 148.5q0 142 76 239q77 98 199 98q95 0 127 -59h4l26 50h138l-106 -523h-138l-6 50h-4q-59 -59 -151 -59zM310 126q47 0 79 29q57 52 57 147t-81 95q-38 0 -66.5 -17t-42.5 -44.5t-20.5 -55.5
t-6.5 -57q0 -45 20 -71t61 -26z" />
    <glyph glyph-name="aacute" unicode="&#xe1;" 
d="M444 583h-110l2 10l95 146h160l-2 -10zM235 -9q-78 0 -121.5 55.5t-43.5 148.5q0 142 76 239q77 98 199 98q95 0 127 -59h4l26 50h138l-106 -523h-138l-6 50h-4q-59 -59 -151 -59zM310 126q47 0 79 29q57 52 57 147t-81 95q-38 0 -66.5 -17t-42.5 -44.5t-20.5 -55.5
t-6.5 -57q0 -45 20 -71t61 -26z" />
    <glyph glyph-name="acircumflex" unicode="&#xe2;" 
d="M348 585h-120l2 10l123 142h163l65 -142l-2 -10h-116l-44 54h-4zM235 -9q-78 0 -121.5 55.5t-43.5 148.5q0 142 76 239q77 98 199 98q95 0 127 -59h4l26 50h138l-106 -523h-138l-6 50h-4q-59 -59 -151 -59zM310 126q47 0 79 29q57 52 57 147t-81 95q-38 0 -66.5 -17
t-42.5 -44.5t-20.5 -55.5t-6.5 -57q0 -45 20 -71t61 -26z" />
    <glyph glyph-name="atilde" unicode="&#xe3;" 
d="M455 583q-35 0 -63 18l-15 9q-56 32 -68 -25h-92l3 15q13 62 48 95.5t86 33.5q35 0 66 -19l14 -8q22 -13 34 -13q14 0 21 8.5t11 29.5h91l-3 -15q-26 -129 -133 -129zM235 -9q-78 0 -121.5 55.5t-43.5 148.5q0 142 76 239q77 98 199 98q95 0 127 -59h4l26 50h138
l-106 -523h-138l-6 50h-4q-59 -59 -151 -59zM310 126q47 0 79 29q57 52 57 147t-81 95q-38 0 -66.5 -17t-42.5 -44.5t-20.5 -55.5t-6.5 -57q0 -45 20 -71t61 -26z" />
    <glyph glyph-name="adieresis" unicode="&#xe4;" 
d="M304 592q-29 0 -45 15.5t-16 42.5q0 39 25 64t66 25q29 0 45 -15.5t16 -42.5q0 -39 -25.5 -64t-65.5 -25zM506 592q-60 0 -60 57q0 40 24.5 65t65.5 25q30 0 46 -15.5t16 -42.5q0 -39 -25.5 -64t-66.5 -25zM235 -9q-78 0 -121.5 55.5t-43.5 148.5q0 142 76 239
q77 98 199 98q95 0 127 -59h4l26 50h138l-106 -523h-138l-6 50h-4q-59 -59 -151 -59zM310 126q47 0 79 29q57 52 57 147t-81 95q-38 0 -66.5 -17t-42.5 -44.5t-20.5 -55.5t-6.5 -57q0 -45 20 -71t61 -26z" />
    <glyph glyph-name="aring" unicode="&#xe5;" 
d="M402 568q-44 0 -73 26t-29 67q0 57 39 95q41 39 99 39q45 0 73.5 -26t28.5 -67q0 -57 -39 -95.5t-99 -38.5zM410 639q23 0 39 14.5t16 35.5q0 15 -10 25t-28 10q-21 0 -36.5 -15t-15.5 -36q0 -15 9.5 -24.5t25.5 -9.5zM235 -9q-78 0 -121.5 55.5t-43.5 148.5
q0 142 76 239q77 98 199 98q95 0 127 -59h4l26 50h138l-106 -523h-138l-6 50h-4q-59 -59 -151 -59zM310 126q47 0 79 29q57 52 57 147t-81 95q-38 0 -66.5 -17t-42.5 -44.5t-20.5 -55.5t-6.5 -57q0 -45 20 -71t61 -26z" />
    <glyph glyph-name="ae" unicode="&#xe6;" horiz-adv-x="876" 
d="M211 -9q-74 0 -116 37.5t-42 98.5q0 86 64 137.5t182 51.5q69 0 109 -15l9 43q6 30 -10.5 47t-56.5 17q-35 0 -59 -16.5t-29 -41.5h-144q16 79 84 130q67 52 178 52q104 0 155 -58h4q73 58 170 58q117 0 169 -73q52 -71 29 -182l-12 -57h-348q-9 -49 11 -76.5t70 -27.5
q71 0 101 52h149q-25 -74 -100 -126q-73 -51 -176 -51q-127 0 -175 87h-4q-79 -87 -212 -87zM567 317h191q6 41 -12.5 65t-61.5 24q-91 0 -117 -89zM270 111q45 0 77 23t39 57l1 5q-39 17 -91 17q-39 0 -63 -16.5t-24 -41.5q0 -44 61 -44z" />
    <glyph glyph-name="ccedilla" unicode="&#xe7;" horiz-adv-x="551" 
d="M590 317h-155q4 36 -15 58t-55 22q-65 0 -100.5 -47t-35.5 -131q0 -93 81 -93q36 0 64 22t39 58h155q-19 -89 -84 -146.5t-162 -66.5l-26 -29q37 -3 58.5 -24t21.5 -53q0 -49 -47 -82t-122 -33q-58 0 -90 28.5t-23 73.5h90q-2 -12 8 -21t28 -9q54 0 54 35q0 25 -39 25
h-32l-18 31l44 61q-76 15 -117 70t-41 139q0 139 83 233q84 94 228 94q113 0 167 -61q55 -59 41 -154z" />
    <glyph glyph-name="egrave" unicode="&#xe8;" horiz-adv-x="556" 
d="M482 583h-110l-87 146l2 10h160l37 -146zM282 -9q-100 0 -156 60q-55 61 -55 156q0 133 82 228q82 97 226 97q123 0 177 -72q54 -71 31 -183l-12 -57h-348q-9 -49 11 -76.5t70 -27.5q71 0 101 52h149q-28 -80 -99.5 -128.5t-176.5 -48.5zM247 317h191q6 41 -12.5 65
t-61.5 24q-91 0 -117 -89z" />
    <glyph glyph-name="eacute" unicode="&#xe9;" horiz-adv-x="556" 
d="M443 583h-110l2 10l95 146h160l-2 -10zM282 -9q-100 0 -156 60q-55 61 -55 156q0 133 82 228q82 97 226 97q123 0 177 -72q54 -71 31 -183l-12 -57h-348q-9 -49 11 -76.5t70 -27.5q71 0 101 52h149q-28 -80 -99.5 -128.5t-176.5 -48.5zM247 317h191q6 41 -12.5 65
t-61.5 24q-91 0 -117 -89z" />
    <glyph glyph-name="ecircumflex" unicode="&#xea;" horiz-adv-x="556" 
d="M347 585h-120l2 10l123 142h163l65 -142l-2 -10h-116l-44 54h-4zM282 -9q-100 0 -156 60q-55 61 -55 156q0 133 82 228q82 97 226 97q123 0 177 -72q54 -71 31 -183l-12 -57h-348q-9 -49 11 -76.5t70 -27.5q71 0 101 52h149q-28 -80 -99.5 -128.5t-176.5 -48.5zM247 317
h191q6 41 -12.5 65t-61.5 24q-91 0 -117 -89z" />
    <glyph glyph-name="edieresis" unicode="&#xeb;" horiz-adv-x="556" 
d="M303 592q-29 0 -45 15.5t-16 42.5q0 39 25 64t66 25q29 0 45 -15.5t16 -42.5q0 -39 -25.5 -64t-65.5 -25zM505 592q-60 0 -60 57q0 40 24.5 65t65.5 25q30 0 46 -15.5t16 -42.5q0 -39 -25.5 -64t-66.5 -25zM282 -9q-100 0 -156 60q-55 61 -55 156q0 133 82 228
q82 97 226 97q123 0 177 -72q54 -71 31 -183l-12 -57h-348q-9 -49 11 -76.5t70 -27.5q71 0 101 52h149q-28 -80 -99.5 -128.5t-176.5 -48.5zM247 317h191q6 41 -12.5 65t-61.5 24q-91 0 -117 -89z" />
    <glyph glyph-name="igrave" unicode="&#xec;" horiz-adv-x="244" 
d="M328 583h-110l-87 146l2 10h160l37 -146zM204 0h-154l106 523h154z" />
    <glyph glyph-name="iacute" unicode="&#xed;" horiz-adv-x="244" 
d="M289 583h-110l2 10l95 146h160l-2 -10zM204 0h-154l106 523h154z" />
    <glyph glyph-name="icircumflex" unicode="&#xee;" horiz-adv-x="244" 
d="M193 585h-120l2 10l123 142h163l65 -142l-2 -10h-116l-44 54h-4zM204 0h-154l106 523h154z" />
    <glyph glyph-name="idieresis" unicode="&#xef;" horiz-adv-x="244" 
d="M149 592q-29 0 -45 15.5t-16 42.5q0 39 25 64t66 25q29 0 45 -15.5t16 -42.5q0 -39 -25.5 -64t-65.5 -25zM351 592q-60 0 -60 57q0 40 24.5 65t65.5 25q30 0 46 -15.5t16 -42.5q0 -39 -25.5 -64t-66.5 -25zM204 0h-154l106 523h154z" />
    <glyph glyph-name="eth" unicode="&#xf0;" horiz-adv-x="572" 
d="M570 660l-78 -28q125 -143 116 -309v-4q0 -139 -89 -234q-88 -94 -235 -94q-103 0 -158.5 56.5t-55.5 154.5q0 140 89 235t235 95q21 0 27 -1q-21 33 -42 59l-137 -50l-15 76l94 35q-49 45 -104 79l2 10h147q42 -29 65 -49l125 46zM312 126q64 0 100.5 46.5t36.5 129.5
q0 95 -82 95q-64 0 -100.5 -46.5t-36.5 -129.5q0 -95 82 -95z" />
    <glyph glyph-name="ntilde" unicode="&#xf1;" horiz-adv-x="581" 
d="M504 583q-34 0 -63 18l-15 9q-56 32 -68 -25h-92l3 15q13 62 48 95.5t86 33.5q35 0 66 -19l14 -8q22 -13 34 -13q14 0 21 8.5t11 29.5h91l-3 -15q-25 -129 -133 -129zM204 0h-154l106 523h138l2 -50h4q62 59 155 59q88 0 131 -51t25 -137l-70 -344h-154l60 296
q19 96 -68 96q-42 0 -74 -27.5t-42 -74.5z" />
    <glyph glyph-name="ograve" unicode="&#xf2;" horiz-adv-x="572" 
d="M487 583h-110l-87 146l2 10h160l37 -146zM290 -9q-104 0 -162 57t-58 154q-3 144 79.5 236.5t238.5 93.5q103 0 161.5 -58t58.5 -155q0 -144 -80 -236t-238 -92zM312 126q64 0 100.5 46.5t36.5 129.5q0 95 -82 95q-64 0 -100.5 -46.5t-36.5 -129.5q0 -95 82 -95z" />
    <glyph glyph-name="oacute" unicode="&#xf3;" horiz-adv-x="572" 
d="M448 583h-110l2 10l95 146h160l-2 -10zM290 -9q-104 0 -162 57t-58 154q-3 144 79.5 236.5t238.5 93.5q103 0 161.5 -58t58.5 -155q0 -144 -80 -236t-238 -92zM312 126q64 0 100.5 46.5t36.5 129.5q0 95 -82 95q-64 0 -100.5 -46.5t-36.5 -129.5q0 -95 82 -95z" />
    <glyph glyph-name="ocircumflex" unicode="&#xf4;" horiz-adv-x="572" 
d="M352 585h-120l2 10l123 142h163l65 -142l-2 -10h-116l-44 54h-4zM290 -9q-104 0 -162 57t-58 154q-3 144 79.5 236.5t238.5 93.5q103 0 161.5 -58t58.5 -155q0 -144 -80 -236t-238 -92zM312 126q64 0 100.5 46.5t36.5 129.5q0 95 -82 95q-64 0 -100.5 -46.5t-36.5 -129.5
q0 -95 82 -95z" />
    <glyph glyph-name="otilde" unicode="&#xf5;" horiz-adv-x="572" 
d="M459 583q-35 0 -63 18l-15 9q-56 32 -68 -25h-92l3 15q13 62 48 95.5t86 33.5q35 0 66 -19l14 -8q22 -13 34 -13q14 0 21 8.5t11 29.5h91l-3 -15q-26 -129 -133 -129zM290 -9q-104 0 -162 57t-58 154q-3 144 79.5 236.5t238.5 93.5q103 0 161.5 -58t58.5 -155
q0 -144 -80 -236t-238 -92zM312 126q64 0 100.5 46.5t36.5 129.5q0 95 -82 95q-64 0 -100.5 -46.5t-36.5 -129.5q0 -95 82 -95z" />
    <glyph glyph-name="odieresis" unicode="&#xf6;" horiz-adv-x="572" 
d="M308 592q-29 0 -45 15.5t-16 42.5q0 39 25 64t66 25q29 0 45 -15.5t16 -42.5q0 -39 -25.5 -64t-65.5 -25zM510 592q-60 0 -60 57q0 40 24.5 65t65.5 25q30 0 46 -15.5t16 -42.5q0 -39 -25.5 -64t-66.5 -25zM290 -9q-104 0 -162 57t-58 154q-3 144 79.5 236.5t238.5 93.5
q103 0 161.5 -58t58.5 -155q0 -144 -80 -236t-238 -92zM312 126q64 0 100.5 46.5t36.5 129.5q0 95 -82 95q-64 0 -100.5 -46.5t-36.5 -129.5q0 -95 82 -95z" />
    <glyph glyph-name="divide" unicode="&#xf7;" horiz-adv-x="496" 
d="M334 423q-30 0 -47 16.5t-17 44.5q0 42 26 69t70 27q30 0 47 -17t17 -45q0 -42 -27 -68.5t-69 -26.5zM542 250h-486l25 126h486zM257 46q-30 0 -47 16.5t-17 44.5q0 42 26 69t70 27q31 0 48 -16.5t17 -45.5q0 -42 -26.5 -68.5t-70.5 -26.5z" />
    <glyph glyph-name="oslash" unicode="&#xf8;" horiz-adv-x="572" 
d="M533 569h125l-2 -10l-87 -105q39 -52 39 -135q0 -139 -89 -234q-88 -94 -235 -94q-48 0 -90 14l-53 -63h-123l2 10l92 111q-42 54 -42 139q0 140 89 235t235 95q53 0 95 -16zM230 221q0 -13 1 -16l157 190q-16 2 -21 2q-64 0 -100.5 -46.5t-36.5 -129.5zM449 302v9
l-153 -184q3 -1 16 -1q64 0 100.5 46.5t36.5 129.5z" />
    <glyph glyph-name="ugrave" unicode="&#xf9;" horiz-adv-x="579" 
d="M495 593l-2 -10h-110l-87 146l2 10h160zM422 232l59 291h155l-64 -314q-45 -218 -279 -218h-1q-120 0 -169 63q-49 64 -30 155l64 314h153l-59 -291q-19 -96 67 -96q84 0 104 96z" />
    <glyph glyph-name="uacute" unicode="&#xfa;" horiz-adv-x="579" 
d="M601 739l-2 -10l-145 -146h-110l2 10l95 146h160zM422 232l59 291h155l-64 -314q-45 -218 -279 -218h-1q-120 0 -169 63q-49 64 -30 155l64 314h153l-59 -291q-19 -96 67 -96q84 0 104 96z" />
    <glyph glyph-name="ucircumflex" unicode="&#xfb;" horiz-adv-x="579" 
d="M429 639h-4l-67 -54h-120l2 10l123 142h163l65 -142l-2 -10h-116zM422 232l59 291h155l-64 -314q-45 -218 -279 -218h-1q-120 0 -169 63q-49 64 -30 155l64 314h153l-59 -291q-19 -96 67 -96q84 0 104 96z" />
    <glyph glyph-name="udieresis" unicode="&#xfc;" horiz-adv-x="579" 
d="M314 592q-29 0 -45 15.5t-16 42.5q0 39 25 64t66 25q29 0 45 -15.5t16 -42.5q0 -39 -25.5 -64t-65.5 -25zM516 592q-60 0 -60 57q0 40 24.5 65t65.5 25q30 0 46 -15.5t16 -42.5q0 -39 -25.5 -64t-66.5 -25zM422 232l59 291h155l-64 -314q-45 -218 -279 -218h-1
q-120 0 -169 63q-49 64 -30 155l64 314h153l-59 -291q-19 -96 67 -96q84 0 104 96z" />
    <glyph glyph-name="yacute" unicode="&#xfd;" horiz-adv-x="601" 
d="M485 583h-110l2 10l95 146h160l-2 -10zM281 -229h-167l2 10l120 219h-26l-62 513l2 10h158l31 -371h4l188 371h166l-2 -10z" />
    <glyph glyph-name="thorn" unicode="&#xfe;" horiz-adv-x="600" 
d="M455 532q77 0 121.5 -56t44.5 -149q0 -140 -79 -238q-80 -98 -197 -98q-89 0 -127 59h-4l-57 -279h-154l153 752h1l44 217h154l-54 -267h3q62 59 151 59zM326 126q38 0 66 17t42 44.5t20.5 55.5t6.5 57q0 97 -80 97q-69 0 -103 -54q-33 -54 -33 -122q0 -95 81 -95z" />
    <glyph glyph-name="ydieresis" unicode="&#xff;" horiz-adv-x="601" 
d="M345 592q-29 0 -45 15.5t-16 42.5q0 39 25 64t66 25q29 0 45 -15.5t16 -42.5q0 -39 -25.5 -64t-65.5 -25zM547 592q-60 0 -60 57q0 40 24.5 65t65.5 25q30 0 46 -15.5t16 -42.5q0 -39 -25.5 -64t-66.5 -25zM281 -229h-167l2 10l120 219h-26l-62 513l2 10h158l31 -371h4
l188 371h166l-2 -10z" />
    <glyph glyph-name="Amacron" unicode="&#x100;" horiz-adv-x="702" 
d="M387 895h293l-23 -111h-293zM392 700h201l101 -690l-2 -10h-168l-14 133h-260l-68 -133h-172l2 10zM461 543l-140 -272h174l-30 272h-4z" />
    <glyph glyph-name="amacron" unicode="&#x101;" 
d="M553 607h-293l23 111h293zM235 -9q-78 0 -121.5 55.5t-43.5 148.5q0 142 76 239q77 98 199 98q95 0 127 -59h4l26 50h138l-106 -523h-138l-6 50h-4q-59 -59 -151 -59zM310 126q47 0 79 29q57 52 57 147t-81 95q-38 0 -66.5 -17t-42.5 -44.5t-20.5 -55.5t-6.5 -57
q0 -45 20 -71t61 -26z" />
    <glyph glyph-name="Abreve" unicode="&#x102;" horiz-adv-x="702" 
d="M509 762q-78 0 -113.5 39t-21.5 110h108q-8 -50 43 -50t63 50h108q-15 -75 -60 -112t-127 -37zM12 10l380 690h201l101 -690l-2 -10h-168l-14 133h-260l-68 -133h-172zM461 543l-140 -272h174l-30 272h-4z" />
    <glyph glyph-name="abreve" unicode="&#x103;" 
d="M405 585q-78 0 -113.5 39t-21.5 110h108q-8 -50 43 -50t63 50h108q-15 -75 -60 -112t-127 -37zM235 -9q-78 0 -121.5 55.5t-43.5 148.5q0 142 76 239q77 98 199 98q95 0 127 -59h4l26 50h138l-106 -523h-138l-6 50h-4q-59 -59 -151 -59zM310 126q47 0 79 29q57 52 57 147
t-81 95q-38 0 -66.5 -17t-42.5 -44.5t-20.5 -55.5t-6.5 -57q0 -45 20 -71t61 -26z" />
    <glyph glyph-name="Aogonek" unicode="&#x104;" horiz-adv-x="702" 
d="M392 700h201l101 -690l-2 -10h-1q-45 -16 -75 -45t-30 -58q0 -33 41 -33q22 0 37 4l-18 -88q-32 -8 -71 -8q-49 0 -82.5 24t-33.5 65q0 83 99 139h-34l-14 133h-260l-68 -133h-172l2 10zM461 543l-140 -272h174l-30 272h-4z" />
    <glyph glyph-name="aogonek" unicode="&#x105;" 
d="M640 523l-106 -523q-45 -16 -75 -45t-30 -58q0 -33 41 -33q22 0 37 4l-18 -88q-32 -8 -71 -8q-49 0 -82.5 24t-33.5 65q0 83 99 139h-5l-6 50h-4q-59 -59 -151 -59q-78 0 -121.5 55.5t-43.5 148.5q0 142 76 239q77 98 199 98q95 0 127 -59h4l26 50h138zM310 126
q47 0 79 29q57 52 57 147t-81 95q-38 0 -66.5 -17t-42.5 -44.5t-20.5 -55.5t-6.5 -57q0 -45 20 -71t61 -26z" />
    <glyph glyph-name="Cacute" unicode="&#x106;" horiz-adv-x="709" 
d="M567 760h-110l2 10l95 146h160l-2 -10zM372 -9q-136 0 -209 78q-72 79 -72 203q0 118 45 215t141 159q97 63 231 63q131 0 203 -80q72 -79 57 -193h-160q6 57 -26 94t-98 37q-109 0 -170 -76t-61 -202q0 -76 36.5 -116.5t106.5 -40.5q63 0 108.5 34t67.5 91h159
q-34 -114 -129 -191q-94 -75 -230 -75z" />
    <glyph glyph-name="cacute" unicode="&#x107;" horiz-adv-x="551" 
d="M453 583h-110l2 10l95 146h160l-2 -10zM286 -9q-101 0 -158 58t-57 156q0 139 83 233q84 94 228 94q113 0 167 -61q55 -59 41 -154h-155q4 36 -15 58t-55 22q-65 0 -100.5 -47t-35.5 -131q0 -93 81 -93q36 0 64 22t39 58h155q-20 -95 -95 -155q-73 -60 -187 -60z" />
    <glyph glyph-name="Ccircumflex" unicode="&#x108;" horiz-adv-x="709" 
d="M471 762h-120l2 10l123 142h163l65 -142l-2 -10h-116l-44 54h-4zM372 -9q-136 0 -209 78q-72 79 -72 203q0 118 45 215t141 159q97 63 231 63q131 0 203 -80q72 -79 57 -193h-160q6 57 -26 94t-98 37q-109 0 -170 -76t-61 -202q0 -76 36.5 -116.5t106.5 -40.5
q63 0 108.5 34t67.5 91h159q-34 -114 -129 -191q-94 -75 -230 -75z" />
    <glyph glyph-name="ccircumflex" unicode="&#x109;" horiz-adv-x="551" 
d="M357 585h-120l2 10l123 142h163l65 -142l-2 -10h-116l-44 54h-4zM286 -9q-101 0 -158 58t-57 156q0 139 83 233q84 94 228 94q113 0 167 -61q55 -59 41 -154h-155q4 36 -15 58t-55 22q-65 0 -100.5 -47t-35.5 -131q0 -93 81 -93q36 0 64 22t39 58h155q-20 -95 -95 -155
q-73 -60 -187 -60z" />
    <glyph glyph-name="Cdotaccent" unicode="&#x10a;" horiz-adv-x="709" 
d="M522 753q-77 0 -77 70q0 49 30.5 79t83.5 30q37 0 57 -18.5t20 -51.5q0 -49 -31 -79t-83 -30zM372 -9q-136 0 -209 78q-72 79 -72 203q0 118 45 215t141 159q97 63 231 63q131 0 203 -80q72 -79 57 -193h-160q6 57 -26 94t-98 37q-109 0 -170 -76t-61 -202
q0 -76 36.5 -116.5t106.5 -40.5q63 0 108.5 34t67.5 91h159q-34 -114 -129 -191q-94 -75 -230 -75z" />
    <glyph glyph-name="cdotaccent" unicode="&#x10b;" horiz-adv-x="551" 
d="M408 576q-77 0 -77 70q0 49 30.5 79t83.5 30q37 0 57 -18.5t20 -51.5q0 -49 -31 -79t-83 -30zM286 -9q-101 0 -158 58t-57 156q0 139 83 233q84 94 228 94q113 0 167 -61q55 -59 41 -154h-155q4 36 -15 58t-55 22q-65 0 -100.5 -47t-35.5 -131q0 -93 81 -93q36 0 64 22
t39 58h155q-20 -95 -95 -155q-73 -60 -187 -60z" />
    <glyph glyph-name="Ccaron" unicode="&#x10c;" horiz-adv-x="709" 
d="M608 762h-163l-65 142l2 10h113l44 -54h4l67 54h123l-2 -10zM372 -9q-136 0 -209 78q-72 79 -72 203q0 118 45 215t141 159q97 63 231 63q131 0 203 -80q72 -79 57 -193h-160q6 57 -26 94t-98 37q-109 0 -170 -76t-61 -202q0 -76 36.5 -116.5t106.5 -40.5q63 0 108.5 34
t67.5 91h159q-34 -114 -129 -191q-94 -75 -230 -75z" />
    <glyph glyph-name="ccaron" unicode="&#x10d;" horiz-adv-x="551" 
d="M494 585h-163l-65 142l2 10h113l44 -54h4l67 54h123l-2 -10zM286 -9q-101 0 -158 58t-57 156q0 139 83 233q84 94 228 94q113 0 167 -61q55 -59 41 -154h-155q4 36 -15 58t-55 22q-65 0 -100.5 -47t-35.5 -131q0 -93 81 -93q36 0 64 22t39 58h155q-20 -95 -95 -155
q-73 -60 -187 -60z" />
    <glyph glyph-name="Dcaron" unicode="&#x10e;" horiz-adv-x="704" 
d="M561 762h-163l-65 142l2 10h113l44 -54h4l67 54h123l-2 -10zM315 0h-245l142 700h242q136 0 218 -78t82 -207q0 -115 -48.5 -207.5t-149.5 -150t-241 -57.5zM331 560l-86 -421h86q120 0 190 73q71 74 71 189q0 159 -175 159h-86z" />
    <glyph glyph-name="dcaron" unicode="&#x10f;" 
d="M235 -9q-78 0 -121.5 55.5t-43.5 148.5q0 139 78 238q80 99 197 99q89 0 127 -59h4l55 267h154l-151 -740h-138l-6 50h-4q-62 -59 -151 -59zM790 570h-100l35 170h150l-2 -10zM310 126q47 0 79 29q57 52 57 147t-81 95q-38 0 -66.5 -17t-42.5 -44.5t-20.5 -55.5t-6.5 -57
q0 -45 20 -71t61 -26z" />
    <glyph glyph-name="Dcroat" unicode="&#x110;" horiz-adv-x="745" 
d="M253 700h242q135 0 218 -78q82 -78 82 -207q0 -115 -48.5 -207.5t-149.5 -150t-241 -57.5h-245l60 297h-71l27 131h71zM286 139h86q120 0 190 73q71 74 71 189q0 159 -175 159h-86l-27 -132h142l-27 -131h-142z" />
    <glyph glyph-name="dslash" unicode="&#x111;" 
d="M673 680h55l-20 -100h-56l-118 -580h-138l-6 50h-4q-62 -59 -151 -59q-78 0 -121.5 55.5t-43.5 148.5q0 139 78 238q80 99 197 99q89 0 127 -59h4l22 107h-114l20 100h115l12 60h154zM310 126q47 0 79 29q57 52 57 147t-81 95q-38 0 -66.5 -17t-42.5 -44.5t-20.5 -55.5
t-6.5 -57q0 -45 20 -71t61 -26z" />
    <glyph glyph-name="Emacron" unicode="&#x112;" horiz-adv-x="610" 
d="M641 784h-293l23 111h293zM570 0h-500l142 700h500l-28 -140h-343l-26 -129h312l-29 -140h-312l-31 -152h343z" />
    <glyph glyph-name="emacron" unicode="&#x113;" horiz-adv-x="556" 
d="M552 607h-293l23 111h293zM282 -9q-100 0 -156 60q-55 61 -55 156q0 133 82 228q82 97 226 97q123 0 177 -72q54 -71 31 -183l-12 -57h-348q-9 -49 11 -76.5t70 -27.5q71 0 101 52h149q-28 -80 -99.5 -128.5t-176.5 -48.5zM247 317h191q6 41 -12.5 65t-61.5 24
q-91 0 -117 -89z" />
    <glyph glyph-name="Ebreve" unicode="&#x114;" horiz-adv-x="610" 
d="M493 762q-78 0 -113.5 39t-21.5 110h108q-8 -50 43 -50t63 50h108q-15 -75 -60 -112t-127 -37zM570 0h-500l142 700h500l-28 -140h-343l-26 -129h312l-29 -140h-312l-31 -152h343z" />
    <glyph glyph-name="ebreve" unicode="&#x115;" horiz-adv-x="556" 
d="M404 585q-78 0 -113.5 39t-21.5 110h108q-8 -50 43 -50q49 0 63 50h108q-15 -75 -60 -112t-127 -37zM282 -9q-100 0 -156 60q-55 61 -55 156q0 133 82 228q82 97 226 97q123 0 177 -72q54 -71 31 -183l-12 -57h-348q-9 -49 11 -76.5t70 -27.5q71 0 101 52h149
q-28 -80 -99.5 -128.5t-176.5 -48.5zM247 317h191q6 41 -12.5 65t-61.5 24q-91 0 -117 -89z" />
    <glyph glyph-name="Edotaccent" unicode="&#x116;" horiz-adv-x="610" 
d="M487 753q-77 0 -77 70q0 49 30.5 79t83.5 30q37 0 57 -18.5t20 -51.5q0 -49 -31 -79t-83 -30zM570 0h-500l142 700h500l-28 -140h-343l-26 -129h312l-29 -140h-312l-31 -152h343z" />
    <glyph glyph-name="edotaccent" unicode="&#x117;" horiz-adv-x="556" 
d="M398 576q-77 0 -77 70q0 49 30.5 79t83.5 30q37 0 57 -18.5t20 -51.5q0 -49 -31 -79t-83 -30zM282 -9q-100 0 -156 60q-55 61 -55 156q0 133 82 228q82 97 226 97q123 0 177 -72q54 -71 31 -183l-12 -57h-348q-9 -49 11 -76.5t70 -27.5q71 0 101 52h149
q-28 -80 -99.5 -128.5t-176.5 -48.5zM247 317h191q6 41 -12.5 65t-61.5 24q-91 0 -117 -89z" />
    <glyph glyph-name="Eogonek" unicode="&#x118;" horiz-adv-x="610" 
d="M712 700l-28 -140h-343l-26 -129h312l-29 -140h-312l-31 -152h343l-28 -139h-4q-45 -16 -75 -45t-30 -58q0 -33 41 -33q22 0 37 4l-18 -88q-32 -8 -71 -8q-49 0 -82.5 24t-33.5 65q0 83 99 139h-363l142 700h500z" />
    <glyph glyph-name="eogonek" unicode="&#x119;" horiz-adv-x="556" 
d="M379 532q123 0 177 -72q54 -71 31 -183l-12 -57h-348q-9 -49 11 -76.5t70 -27.5q71 0 101 52h149q-22 -63 -71.5 -107t-121.5 -61q-45 -16 -75 -45t-30 -58q0 -33 41 -33q22 0 37 4l-18 -88q-32 -8 -71 -8q-49 0 -82.5 24t-33.5 65q0 81 93 136q-74 15 -114.5 71.5
t-40.5 138.5q0 133 82 228q82 97 226 97zM247 317h191q6 41 -12.5 65t-61.5 24q-91 0 -117 -89z" />
    <glyph glyph-name="Ecaron" unicode="&#x11a;" horiz-adv-x="610" 
d="M573 762h-163l-65 142l2 10h113l44 -54h4l67 54h123l-2 -10zM570 0h-500l142 700h500l-28 -140h-343l-26 -129h312l-29 -140h-312l-31 -152h343z" />
    <glyph glyph-name="ecaron" unicode="&#x11b;" horiz-adv-x="556" 
d="M484 585h-163l-65 142l2 10h113l44 -54h4l67 54h123l-2 -10zM282 -9q-100 0 -156 60q-55 61 -55 156q0 133 82 228q82 97 226 97q123 0 177 -72q54 -71 31 -183l-12 -57h-348q-9 -49 11 -76.5t70 -27.5q71 0 101 52h149q-28 -80 -99.5 -128.5t-176.5 -48.5zM247 317h191
q6 41 -12.5 65t-61.5 24q-91 0 -117 -89z" />
    <glyph glyph-name="Gcircumflex" unicode="&#x11c;" horiz-adv-x="714" 
d="M471 762h-120l2 10l123 142h163l65 -142l-2 -10h-116l-44 54h-4zM377 -9q-136 0 -211 79q-75 80 -75 202q0 119 46 215q47 99 141 160q97 62 225 62q131 0 205 -74t64 -179h-160q0 51 -31.5 81t-96.5 30q-109 0 -170 -76t-61 -202q0 -76 36.5 -116.5t106.5 -40.5
q123 0 173 107h-131l28 139h295l-16 -79q-28 -141 -127 -225q-98 -83 -241 -83z" />
    <glyph glyph-name="gcircumflex" unicode="&#x11d;" 
d="M341 585h-120l2 10l123 142h163l65 -142l-2 -10h-116l-44 54h-4zM230 -238q-106 0 -160.5 52.5t-38.5 140.5h151q-2 -27 18 -44t56 -17q48 0 79.5 22.5t39.5 60.5l15 73h-4q-62 -59 -151 -59q-78 0 -122 55.5t-44 148.5q0 140 79 238q80 99 197 99q89 0 127 -59h4l26 50
h138l-111 -548q-21 -101 -99 -157t-200 -56zM310 126q38 0 66 17t42 44.5t20.5 55.5t6.5 57q0 97 -80 97q-69 0 -103 -54q-33 -54 -33 -122q0 -95 81 -95z" />
    <glyph glyph-name="Gbreve" unicode="&#x11e;" horiz-adv-x="714" 
d="M528 762q-78 0 -113.5 39t-21.5 110h108q-8 -50 43 -50q49 0 63 50h108q-15 -75 -60 -112t-127 -37zM377 -9q-136 0 -211 79q-75 80 -75 202q0 119 46 215q47 99 141 160q97 62 225 62q131 0 205 -74t64 -179h-160q0 51 -31.5 81t-96.5 30q-109 0 -170 -76t-61 -202
q0 -76 36.5 -116.5t106.5 -40.5q123 0 173 107h-131l28 139h295l-16 -79q-28 -141 -127 -225q-98 -83 -241 -83z" />
    <glyph glyph-name="gbreve" unicode="&#x11f;" 
d="M398 585q-78 0 -113.5 39t-21.5 110h108q-8 -50 43 -50q49 0 63 50h108q-15 -75 -60 -112t-127 -37zM230 -238q-106 0 -160.5 52.5t-38.5 140.5h151q-2 -27 18 -44t56 -17q48 0 79.5 22.5t39.5 60.5l15 73h-4q-62 -59 -151 -59q-78 0 -122 55.5t-44 148.5q0 140 79 238
q80 99 197 99q89 0 127 -59h4l26 50h138l-111 -548q-21 -101 -99 -157t-200 -56zM310 126q38 0 66 17t42 44.5t20.5 55.5t6.5 57q0 97 -80 97q-69 0 -103 -54q-33 -54 -33 -122q0 -95 81 -95z" />
    <glyph glyph-name="Gdotaccent" unicode="&#x120;" horiz-adv-x="714" 
d="M522 753q-77 0 -77 70q0 49 30.5 79t83.5 30q37 0 57 -18.5t20 -51.5q0 -49 -31 -79t-83 -30zM377 -9q-136 0 -211 79q-75 80 -75 202q0 119 46 215q47 99 141 160q97 62 225 62q131 0 205 -74t64 -179h-160q0 51 -31.5 81t-96.5 30q-109 0 -170 -76t-61 -202
q0 -76 36.5 -116.5t106.5 -40.5q123 0 173 107h-131l28 139h295l-16 -79q-28 -141 -127 -225q-98 -83 -241 -83z" />
    <glyph glyph-name="gdotaccent" unicode="&#x121;" 
d="M392 576q-77 0 -77 70q0 49 30.5 79t83.5 30q37 0 57 -18.5t20 -51.5q0 -49 -31 -79t-83 -30zM230 -238q-106 0 -160.5 52.5t-38.5 140.5h151q-2 -27 18 -44t56 -17q48 0 79.5 22.5t39.5 60.5l15 73h-4q-62 -59 -151 -59q-78 0 -122 55.5t-44 148.5q0 140 79 238
q80 99 197 99q89 0 127 -59h4l26 50h138l-111 -548q-21 -101 -99 -157t-200 -56zM310 126q38 0 66 17t42 44.5t20.5 55.5t6.5 57q0 97 -80 97q-69 0 -103 -54q-33 -54 -33 -122q0 -95 81 -95z" />
    <glyph glyph-name="Gcommaaccent" unicode="&#x122;" horiz-adv-x="714" 
d="M377 -9q-136 0 -211 79q-75 80 -75 202q0 119 46 215q47 99 141 160q97 62 225 62q131 0 205 -74t64 -179h-160q0 51 -31.5 81t-96.5 30q-109 0 -170 -76t-61 -202q0 -76 36.5 -116.5t106.5 -40.5q123 0 173 107h-131l28 139h295l-16 -79q-28 -141 -127 -225
q-98 -83 -241 -83zM331 -217h-100l2 10l53 156h150l-2 -10z" />
    <glyph glyph-name="gcommaaccent" unicode="&#x123;" 
d="M414 745h100l-2 -10l-53 -156h-150l2 10zM230 -238q-106 0 -160.5 52.5t-38.5 140.5h151q-2 -27 18 -44t56 -17q48 0 79.5 22.5t39.5 60.5l15 73h-4q-62 -59 -151 -59q-78 0 -122 55.5t-44 148.5q0 140 79 238q80 99 197 99q89 0 127 -59h4l26 50h138l-111 -548
q-21 -101 -99 -157t-200 -56zM310 126q38 0 66 17t42 44.5t20.5 55.5t6.5 57q0 97 -80 97q-69 0 -103 -54q-33 -54 -33 -122q0 -95 81 -95z" />
    <glyph glyph-name="Hcircumflex" unicode="&#x124;" horiz-adv-x="735" 
d="M543 816h-4l-67 -54h-120l2 10l123 142h163l65 -142l-2 -10h-116zM596 432l54 268h157l-142 -700h-157l59 291h-281l-59 -291h-157l142 700h157l-54 -268h281z" />
    <glyph glyph-name="hcircumflex" unicode="&#x125;" horiz-adv-x="585" 
d="M239 802h-120l2 10l123 142h163l65 -142l-2 -10h-116l-44 54h-4zM204 0h-154l151 740h154l-55 -267h4q62 59 155 59q88 0 131 -51t25 -137l-70 -344h-154l60 296q19 96 -68 96q-42 0 -76 -28.5t-44 -73.5z" />
    <glyph glyph-name="Hbar" unicode="&#x126;" horiz-adv-x="835" 
d="M844 632h50l-27 -131h-49l-102 -501h-157l59 291h-281l-59 -291h-157l102 501h-51l27 131h50l14 68h157l-14 -68h281l14 68h157zM366 432h281l14 69h-281z" />
    <glyph glyph-name="hbar" unicode="&#x127;" horiz-adv-x="585" 
d="M459 532q88 0 131 -51t25 -137l-70 -344h-154l60 296q19 96 -68 96q-42 0 -76 -28.5t-44 -73.5l-59 -290h-154l118 580h-56l20 100h57l12 60h154l-12 -60h113l-20 -100h-114l-22 -107h4q62 59 155 59z" />
    <glyph glyph-name="Itilde" unicode="&#x128;" horiz-adv-x="298" 
d="M360 760q-34 0 -63 18l-15 9q-56 32 -68 -25h-92l3 15q13 62 48 95.5t86 33.5q35 0 66 -19l14 -8q22 -13 34 -13q14 0 21 8.5t11 29.5h91l-3 -15q-25 -129 -133 -129zM228 0h-158l142 700h158z" />
    <glyph glyph-name="itilde" unicode="&#x129;" horiz-adv-x="244" 
d="M300 583q-34 0 -63 18l-15 9q-56 32 -68 -25h-92l3 15q13 62 48 95.5t86 33.5q35 0 66 -19l14 -8q22 -13 34 -13q14 0 21 8.5t11 29.5h91l-3 -15q-25 -129 -133 -129zM204 0h-154l106 523h154z" />
    <glyph glyph-name="Imacron" unicode="&#x12a;" horiz-adv-x="298" 
d="M458 784h-293l23 111h293zM228 0h-158l142 700h158z" />
    <glyph glyph-name="imacron" unicode="&#x12b;" horiz-adv-x="244" 
d="M398 607h-293l23 111h293zM204 0h-154l106 523h154z" />
    <glyph glyph-name="Ibreve" unicode="&#x12c;" horiz-adv-x="298" 
d="M310 762q-78 0 -113.5 39t-21.5 110h108q-8 -50 43 -50q49 0 63 50h108q-15 -75 -60 -112t-127 -37zM228 0h-158l142 700h158z" />
    <glyph glyph-name="ibreve" unicode="&#x12d;" horiz-adv-x="244" 
d="M250 585q-78 0 -113.5 39t-21.5 110h108q-8 -50 43 -50q49 0 63 50h108q-15 -75 -60 -112t-127 -37zM204 0h-154l106 523h154z" />
    <glyph glyph-name="Iogonek" unicode="&#x12e;" horiz-adv-x="298" 
d="M370 700l-142 -700q-45 -16 -75 -45t-30 -58q0 -33 41 -33q22 0 37 4l-18 -88q-32 -8 -71 -8q-49 0 -82.5 24t-33.5 65q0 83 99 139h-25l142 700h158z" />
    <glyph glyph-name="iogonek" unicode="&#x12f;" horiz-adv-x="244" 
d="M281 755q37 0 57 -18.5t20 -51.5q0 -49 -31 -79t-83 -30q-77 0 -77 70q0 49 30.5 79t83.5 30zM71 0h-21l106 523h154l-106 -523q-45 -16 -75 -45t-30 -58q0 -33 41 -33q22 0 37 4l-18 -88q-32 -8 -71 -8q-49 0 -82.5 24t-33.5 65q0 83 99 139z" />
    <glyph glyph-name="Idot" unicode="&#x130;" horiz-adv-x="298" 
d="M304 753q-77 0 -77 70q0 49 30.5 79t83.5 30q37 0 57 -18.5t20 -51.5q0 -49 -31 -79t-83 -30zM228 0h-158l142 700h158z" />
    <glyph glyph-name="dotlessi" unicode="&#x131;" horiz-adv-x="244" 
d="M204 0h-154l106 523h154z" />
    <glyph glyph-name="IJ" unicode="&#x132;" horiz-adv-x="845" 
d="M228 0h-158l142 700h158zM541 -9q-110 0 -160 62q-49 63 -30 157h147q-7 -36 11 -56t60 -20q41 0 68 23t35 62l98 481h158l-98 -481q-22 -106 -95.5 -167t-193.5 -61z" />
    <glyph glyph-name="ij" unicode="&#x133;" horiz-adv-x="492" 
d="M245 576q-77 0 -77 70q0 49 30.5 79t83.5 30q37 0 57 -18.5t20 -51.5q0 -49 -31 -79t-83 -30zM494 576q-77 0 -77 70q0 49 30.5 79t83.5 30q37 0 57 -18.5t20 -51.5q0 -49 -31 -79t-83 -30zM204 0h-154l106 523h154zM216 -238q-32 0 -69 8l28 139q19 -3 38 -3q68 0 81 73
l111 544h154l-119 -583q-16 -84 -80 -131t-144 -47z" />
    <glyph glyph-name="Jcircumflex" unicode="&#x134;" horiz-adv-x="547" 
d="M506 762h-120l2 10l123 142h163l65 -142l-2 -10h-116l-44 54h-4zM243 -9q-110 0 -160 62q-49 63 -30 157h147q-7 -36 11 -56t60 -20q41 0 68 23t35 62l98 481h158l-98 -481q-22 -106 -95.5 -167t-193.5 -61z" />
    <glyph glyph-name="jcircumflex" unicode="&#x135;" horiz-adv-x="248" 
d="M193 585h-120l2 10l123 142h163l65 -142l-2 -10h-116l-44 54h-4zM-28 -238q-32 0 -69 8l28 139q20 -3 38 -3q68 0 81 73l111 544h154l-119 -583q-16 -84 -80 -131t-144 -47z" />
    <glyph glyph-name="Kcommaaccent" unicode="&#x136;" horiz-adv-x="676" 
d="M610 700h186l-2 -10l-367 -331l241 -349l-2 -10h-178l-202 292l-59 -292h-157l142 700h157l-54 -265zM212 -217l2 10l53 156h150l-2 -10l-103 -156h-100z" />
    <glyph glyph-name="kcommaaccent" unicode="&#x137;" horiz-adv-x="561" 
d="M456 523h190l-2 -10l-262 -243l171 -260l-2 -10h-171l-142 217l-44 -217h-144l151 740h144l-82 -404zM141 -217l2 10l53 156h150l-2 -10l-103 -156h-100z" />
    <glyph glyph-name="kgreenlandic" unicode="&#x138;" horiz-adv-x="561" 
d="M466 523h180l-2 -10l-260 -237l169 -266l-2 -10h-186l-128 214l-43 -214h-144l106 523h144l-38 -190z" />
    <glyph glyph-name="Lacute" unicode="&#x139;" horiz-adv-x="555" 
d="M345 760h-110l2 10l95 146h160l-2 -10zM545 0h-475l142 700h157l-114 -560h318z" />
    <glyph glyph-name="lacute" unicode="&#x13a;" horiz-adv-x="244" 
d="M330 800h-110l2 10l95 146h160l-2 -10zM204 0h-154l151 740h154z" />
    <glyph glyph-name="Lcommaaccent" unicode="&#x13b;" horiz-adv-x="555" 
d="M545 0h-475l142 700h157l-114 -560h318zM269 -217h-100l2 10l53 156h150l-2 -10z" />
    <glyph glyph-name="lcommaaccent" unicode="&#x13c;" horiz-adv-x="244" 
d="M204 0h-154l151 740h154zM86 -217h-100l2 10l53 156h150l-2 -10z" />
    <glyph glyph-name="Lcaron" unicode="&#x13d;" horiz-adv-x="555" 
d="M545 0h-475l142 700h157l-114 -560h318zM538 530h-100l34 170h150l-2 -10z" />
    <glyph glyph-name="lcaron" unicode="&#x13e;" horiz-adv-x="314" 
d="M204 0h-154l151 740h154zM460 570h-100l35 170h150l-2 -10z" />
    <glyph glyph-name="Ldot" unicode="&#x13f;" horiz-adv-x="600" 
d="M545 0h-475l142 700h157l-114 -560h318zM440 279q-75 0 -75 69q0 49 30 79.5t81 30.5q36 0 55 -18.5t19 -51.5q0 -48 -30 -78.5t-80 -30.5z" />
    <glyph glyph-name="ldot" unicode="&#x140;" horiz-adv-x="449" 
d="M204 0h-154l151 740h154zM382 276q-75 0 -75 69q0 49 30 79.5t81 30.5q36 0 55 -18.5t19 -51.5q0 -48 -30 -78.5t-80 -30.5z" />
    <glyph glyph-name="Lslash" unicode="&#x141;" horiz-adv-x="625" 
d="M357 296l-32 -156h318l-28 -140h-475l48 236l-65 -23h-10l26 127l75 27l68 333h157l-55 -272l184 66h10l-27 -129z" />
    <glyph glyph-name="lslash" unicode="&#x142;" horiz-adv-x="357" 
d="M423 474h10l-24 -119l-85 -34l-65 -321h-154l51 252l-71 -29h-10l24 117l82 34l75 366h154l-60 -296z" />
    <glyph glyph-name="Nacute" unicode="&#x143;" horiz-adv-x="743" 
d="M597 760h-110l2 10l95 146h160l-2 -10zM225 0h-155l142 700h179l171 -457h4l93 457h156l-142 -700h-178l-174 454h-4z" />
    <glyph glyph-name="nacute" unicode="&#x144;" horiz-adv-x="581" 
d="M493 583h-110l2 10l95 146h160l-2 -10zM204 0h-154l106 523h138l2 -50h4q62 59 155 59q88 0 131 -51t25 -137l-70 -344h-154l60 296q19 96 -68 96q-42 0 -74 -27.5t-42 -74.5z" />
    <glyph glyph-name="Ncommaaccent" unicode="&#x145;" horiz-adv-x="743" 
d="M225 0h-155l142 700h179l171 -457h4l93 457h156l-142 -700h-178l-174 454h-4zM322 -217h-100l2 10l53 156h150l-2 -10z" />
    <glyph glyph-name="ncommaaccent" unicode="&#x146;" horiz-adv-x="581" 
d="M204 0h-154l106 523h138l2 -50h4q62 59 155 59q88 0 131 -51t25 -137l-70 -344h-154l60 296q19 96 -68 96q-42 0 -74 -27.5t-42 -74.5zM267 -217h-100l2 10l53 156h150l-2 -10z" />
    <glyph glyph-name="Ncaron" unicode="&#x147;" horiz-adv-x="743" 
d="M638 762h-163l-65 142l2 10h113l44 -54h4l67 54h123l-2 -10zM225 0h-155l142 700h179l171 -457h4l93 457h156l-142 -700h-178l-174 454h-4z" />
    <glyph glyph-name="ncaron" unicode="&#x148;" horiz-adv-x="581" 
d="M534 585h-163l-65 142l2 10h113l44 -54h4l67 54h123l-2 -10zM204 0h-154l106 523h138l2 -50h4q62 59 155 59q88 0 131 -51t25 -137l-70 -344h-154l60 296q19 96 -68 96q-42 0 -74 -27.5t-42 -74.5z" />
    <glyph glyph-name="napostrophe" unicode="&#x149;" horiz-adv-x="611" 
d="M85 463h-118l2 10l81 247h169l-2 -10zM204 0h-154l106 523h138l2 -50h4q62 59 155 59q88 0 131 -51t25 -137l-70 -344h-154l60 296q19 96 -68 96q-42 0 -74 -27.5t-42 -74.5z" />
    <glyph glyph-name="Eng" unicode="&#x14a;" horiz-adv-x="743" 
d="M659 700h156l-47 -230h1l-98 -481q-19 -98 -97 -164q-76 -64 -192 -64l29 143q86 0 104 85l2 11h-30l-166 454h-4l-92 -454h-155l142 700h185l165 -457h4z" />
    <glyph glyph-name="eng" unicode="&#x14b;" horiz-adv-x="581" 
d="M455 532q88 0 131 -51t25 -137l-25 -121h1l-58 -283q-16 -84 -80 -131t-144 -47q-32 0 -69 8l28 139q20 -3 38 -3q68 0 81 73l4 21l60 296q19 96 -68 96q-42 0 -74 -27.5t-42 -74.5l-59 -290h-154l106 523h138l2 -50h4q62 59 155 59z" />
    <glyph glyph-name="Omacron" unicode="&#x14c;" horiz-adv-x="740" 
d="M677 784h-293l23 111h293zM368 -9q-136 0 -207 78q-70 77 -70 204q0 63 17 125t52 118.5t84 99t119 68t151 25.5q136 0 206 -78q71 -79 71 -204q0 -79 -29 -156t-81.5 -139.5t-134.5 -101.5t-178 -39zM397 133q106 0 169 81t63 195q0 158 -144 158q-107 0 -170 -81
q-62 -82 -62 -195q0 -77 37 -117.5t107 -40.5z" />
    <glyph glyph-name="omacron" unicode="&#x14d;" horiz-adv-x="572" 
d="M557 607h-293l23 111h293zM290 -9q-104 0 -162 57t-58 154q-3 144 79.5 236.5t238.5 93.5q103 0 161.5 -58t58.5 -155q0 -144 -80 -236t-238 -92zM312 126q64 0 100.5 46.5t36.5 129.5q0 95 -82 95q-64 0 -100.5 -46.5t-36.5 -129.5q0 -95 82 -95z" />
    <glyph glyph-name="Obreve" unicode="&#x14e;" horiz-adv-x="740" 
d="M529 762q-78 0 -113.5 39t-21.5 110h108q-8 -50 43 -50t63 50h108q-15 -75 -60 -112t-127 -37zM368 -9q-136 0 -207 78q-70 77 -70 204q0 63 17 125t52 118.5t84 99t119 68t151 25.5q136 0 206 -78q71 -79 71 -204q0 -79 -29 -156t-81.5 -139.5t-134.5 -101.5t-178 -39z
M397 133q106 0 169 81t63 195q0 158 -144 158q-107 0 -170 -81q-62 -82 -62 -195q0 -77 37 -117.5t107 -40.5z" />
    <glyph glyph-name="obreve" unicode="&#x14f;" horiz-adv-x="572" 
d="M409 585q-78 0 -113.5 39t-21.5 110h108q-8 -50 43 -50t63 50h108q-15 -75 -60 -112t-127 -37zM290 -9q-104 0 -162 57t-58 154q-3 144 79.5 236.5t238.5 93.5q103 0 161.5 -58t58.5 -155q0 -144 -80 -236t-238 -92zM312 126q64 0 100.5 46.5t36.5 129.5q0 95 -82 95
q-64 0 -100.5 -46.5t-36.5 -129.5q0 -95 82 -95z" />
    <glyph glyph-name="Ohungarumlaut" unicode="&#x150;" horiz-adv-x="740" 
d="M458 760h-100l2 10l75 146h160l-2 -10zM658 760h-100l2 10l75 146h160l-2 -10zM368 -9q-136 0 -207 78q-70 77 -70 204q0 63 17 125t52 118.5t84 99t119 68t151 25.5q136 0 206 -78q71 -79 71 -204q0 -79 -29 -156t-81.5 -139.5t-134.5 -101.5t-178 -39zM397 133
q106 0 169 81t63 195q0 158 -144 158q-107 0 -170 -81q-62 -82 -62 -195q0 -77 37 -117.5t107 -40.5z" />
    <glyph glyph-name="ohungarumlaut" unicode="&#x151;" horiz-adv-x="572" 
d="M338 583h-100l2 10l75 146h160l-2 -10zM538 583h-100l2 10l75 146h160l-2 -10zM290 -9q-104 0 -162 57t-58 154q-3 144 79.5 236.5t238.5 93.5q103 0 161.5 -58t58.5 -155q0 -144 -80 -236t-238 -92zM312 126q64 0 100.5 46.5t36.5 129.5q0 95 -82 95q-64 0 -100.5 -46.5
t-36.5 -129.5q0 -95 82 -95z" />
    <glyph glyph-name="OE" unicode="&#x152;" horiz-adv-x="1093" 
d="M1195 700l-28 -140h-343l-26 -129h312l-29 -140h-312l-31 -152h343l-28 -139h-500l7 34q-85 -43 -192 -43q-136 0 -207 78q-70 77 -70 204q0 117 48 214q50 99 147 160q98 62 228 62q104 0 173 -51l8 42h500zM397 133q80 0 135.5 42t79.5 118l15 70q2 40 2 46
q0 158 -144 158q-110 0 -171 -76q-61 -74 -61 -200q0 -77 37 -117.5t107 -40.5z" />
    <glyph glyph-name="oe" unicode="&#x153;" horiz-adv-x="921" 
d="M754 532q117 0 169 -73q52 -71 29 -182l-12 -57h-345q-2 -5 -3 -11l-2 -6q-8 -87 83 -87q71 0 101 52h149q-25 -74 -100 -126q-73 -51 -176 -51t-158 67q-85 -67 -205 -67q-103 0 -158.5 56.5t-55.5 154.5q0 140 89 235t235 95q108 0 166 -66q80 66 194 66zM612 317h191
q6 41 -12.5 65t-61.5 24q-91 0 -117 -89zM312 126q64 0 100.5 46.5t36.5 129.5q0 95 -82 95q-64 0 -100.5 -46.5t-36.5 -129.5q0 -95 82 -95z" />
    <glyph glyph-name="Racute" unicode="&#x154;" horiz-adv-x="670" 
d="M678 916l-2 -10l-145 -146h-110l2 10l95 146h160zM731 515q0 -87 -51 -155q-50 -66 -134 -95l116 -255l-2 -10h-184l-101 247h-98l-50 -247h-157l142 700h320q93 0 146 -53t53 -132zM496 560h-155l-35 -173h155q49 0 77.5 31.5t28.5 73.5q0 31 -18 49.5t-53 18.5z" />
    <glyph glyph-name="racute" unicode="&#x155;" horiz-adv-x="389" 
d="M370 583h-110l2 10l95 146h160l-2 -10zM194 0h-144l106 523h128l-3 -76h4q58 85 151 85h41l-33 -141h-50q-55 0 -95 -35.5t-53 -97.5z" />
    <glyph glyph-name="Rcommaaccent" unicode="&#x156;" horiz-adv-x="670" 
d="M731 515q0 -87 -51 -155q-50 -66 -134 -95l116 -255l-2 -10h-184l-101 247h-98l-50 -247h-157l142 700h320q93 0 146 -53t53 -132zM496 560h-155l-35 -173h155q49 0 77.5 31.5t28.5 73.5q0 31 -18 49.5t-53 18.5zM214 -217l2 10l53 156h150l-2 -10l-103 -156h-100z" />
    <glyph glyph-name="rcommaaccent" unicode="&#x157;" horiz-adv-x="389" 
d="M194 0h-144l106 523h128l-3 -76h4q58 85 151 85h41l-33 -141h-50q-55 0 -95 -35.5t-53 -97.5zM129 -217h-100l2 10l53 156h150l-2 -10z" />
    <glyph glyph-name="Rcaron" unicode="&#x158;" horiz-adv-x="670" 
d="M695 904l-123 -142h-163l-65 142l2 10h113l44 -54h4l67 54h123zM731 515q0 -87 -51 -155q-50 -66 -134 -95l116 -255l-2 -10h-184l-101 247h-98l-50 -247h-157l142 700h320q93 0 146 -53t53 -132zM496 560h-155l-35 -173h155q49 0 77.5 31.5t28.5 73.5q0 31 -18 49.5
t-53 18.5z" />
    <glyph glyph-name="rcaron" unicode="&#x159;" horiz-adv-x="389" 
d="M411 585h-163l-65 142l2 10h113l44 -54h4l67 54h123l-2 -10zM194 0h-144l106 523h128l-3 -76h4q58 85 151 85h41l-33 -141h-50q-55 0 -95 -35.5t-53 -97.5z" />
    <glyph glyph-name="Sacute" unicode="&#x15a;" horiz-adv-x="632" 
d="M514 760h-110l2 10l95 146h160l-2 -10zM313 -9q-136 0 -198.5 65.5t-45.5 183.5h159q-7 -54 23 -82t90 -28q148 0 148 85q0 44 -71 61l-98 22q-88 20 -133.5 60.5t-45.5 110.5q0 109 84 174q85 66 235 66q122 0 186 -64q66 -65 47 -164h-159q4 40 -22 64t-82 24
q-60 0 -92 -20t-32 -51q0 -40 68 -55l90 -20q94 -21 142 -63t48 -115q0 -113 -83 -184q-82 -70 -258 -70z" />
    <glyph glyph-name="sacute" unicode="&#x15b;" horiz-adv-x="511" 
d="M417 583h-110l2 10l95 146h160l-2 -10zM255 -9q-114 0 -162 49t-32 137h154q-6 -25 11 -41.5t55 -16.5q40 0 61.5 12.5t21.5 31.5q0 26 -46 35l-74 15q-130 25 -130 134q0 84 64 134.5t186 50.5q98 0 148 -50t35 -125h-152q6 23 -9 38.5t-49 15.5q-30 0 -49.5 -12
t-19.5 -30q0 -24 32 -30l96 -19q126 -24 126 -129q0 -96 -70 -148t-197 -52z" />
    <glyph glyph-name="Scircumflex" unicode="&#x15c;" horiz-adv-x="632" 
d="M418 762h-120l2 10l123 142h163l65 -142l-2 -10h-116l-44 54h-4zM313 -9q-136 0 -198.5 65.5t-45.5 183.5h159q-7 -54 23 -82t90 -28q148 0 148 85q0 44 -71 61l-98 22q-88 20 -133.5 60.5t-45.5 110.5q0 109 84 174q85 66 235 66q122 0 186 -64q66 -65 47 -164h-159
q4 40 -22 64t-82 24q-60 0 -92 -20t-32 -51q0 -40 68 -55l90 -20q94 -21 142 -63t48 -115q0 -113 -83 -184q-82 -70 -258 -70z" />
    <glyph glyph-name="scircumflex" unicode="&#x15d;" horiz-adv-x="511" 
d="M321 585h-120l2 10l123 142h163l65 -142l-2 -10h-116l-44 54h-4zM255 -9q-114 0 -162 49t-32 137h154q-6 -25 11 -41.5t55 -16.5q40 0 61.5 12.5t21.5 31.5q0 26 -46 35l-74 15q-130 25 -130 134q0 84 64 134.5t186 50.5q98 0 148 -50t35 -125h-152q6 23 -9 38.5
t-49 15.5q-30 0 -49.5 -12t-19.5 -30q0 -24 32 -30l96 -19q126 -24 126 -129q0 -96 -70 -148t-197 -52z" />
    <glyph glyph-name="Scedilla" unicode="&#x15e;" horiz-adv-x="632" 
d="M693 481h-159q4 40 -22 64t-82 24q-60 0 -92 -20t-32 -51q0 -40 68 -55l90 -20q94 -21 142 -63t48 -115q0 -106 -70 -172.5t-209 -78.5l-27 -30q37 -3 58.5 -24t21.5 -53q0 -49 -47 -82t-122 -33q-58 0 -90 28.5t-23 73.5h90q-2 -12 8 -21t28 -9q54 0 54 35q0 25 -39 25
h-32l-18 31l41 57q-118 9 -171.5 74t-37.5 174h159q-7 -54 23 -82t90 -28q148 0 148 85q0 44 -71 61l-98 22q-88 20 -133.5 60.5t-45.5 110.5q0 109 84 174q85 66 235 66q122 0 186 -64q66 -65 47 -164z" />
    <glyph glyph-name="scedilla" unicode="&#x15f;" horiz-adv-x="511" 
d="M547 357h-152q6 23 -9 38.5t-49 15.5q-30 0 -49.5 -12t-19.5 -30q0 -24 32 -30l96 -19q126 -24 126 -129q0 -87 -58 -138.5t-165 -59.5l-26 -29q37 -3 58.5 -24t21.5 -53q0 -49 -47 -82t-122 -33q-58 0 -90 28.5t-23 73.5h90q-2 -12 8 -21t28 -9q54 0 54 35q0 25 -39 25
h-32l-18 31l42 59q-170 22 -143 183h154q-6 -25 11 -41.5t55 -16.5q40 0 61.5 12.5t21.5 31.5q0 26 -46 35l-74 15q-130 25 -130 134q0 84 64 134.5t186 50.5q98 0 148 -50t35 -125z" />
    <glyph glyph-name="Scaron" unicode="&#x160;" horiz-adv-x="632" 
d="M555 762h-163l-65 142l2 10h113l44 -54h4l67 54h123l-2 -10zM313 -9q-136 0 -198.5 65.5t-45.5 183.5h159q-7 -54 23 -82t90 -28q148 0 148 85q0 44 -71 61l-98 22q-88 20 -133.5 60.5t-45.5 110.5q0 109 84 174q85 66 235 66q122 0 186 -64q66 -65 47 -164h-159
q4 40 -22 64t-82 24q-60 0 -92 -20t-32 -51q0 -40 68 -55l90 -20q94 -21 142 -63t48 -115q0 -113 -83 -184q-82 -70 -258 -70z" />
    <glyph glyph-name="scaron" unicode="&#x161;" horiz-adv-x="511" 
d="M458 585h-163l-65 142l2 10h113l44 -54h4l67 54h123l-2 -10zM255 -9q-114 0 -162 49t-32 137h154q-6 -25 11 -41.5t55 -16.5q40 0 61.5 12.5t21.5 31.5q0 26 -46 35l-74 15q-130 25 -130 134q0 84 64 134.5t186 50.5q98 0 148 -50t35 -125h-152q6 23 -9 38.5t-49 15.5
q-30 0 -49.5 -12t-19.5 -30q0 -24 32 -30l96 -19q126 -24 126 -129q0 -96 -70 -148t-197 -52z" />
    <glyph glyph-name="uni0162" unicode="&#x162;" horiz-adv-x="592" 
d="M375 0h-158l114 559h-202l28 141h562l-28 -141h-202zM253 -217h-100l2 10l53 156h150l-2 -10z" />
    <glyph glyph-name="uni0163" unicode="&#x163;" horiz-adv-x="431" 
d="M278 -9q-85 0 -120.5 45t-20.5 122l48 234h-85l26 131h92l23 109l142 28h10l-28 -137h125l-26 -131h-125l-40 -197q-7 -37 5 -53.5t47 -16.5q27 0 52 9h10l-26 -128q-43 -15 -109 -15zM206 -217h-100l2 10l53 156h150l-2 -10z" />
    <glyph glyph-name="Tcaron" unicode="&#x164;" horiz-adv-x="592" 
d="M539 762h-163l-65 142l2 10h113l44 -54h4l67 54h123l-2 -10zM375 0h-158l114 559h-202l28 141h562l-28 -141h-202z" />
    <glyph glyph-name="tcaron" unicode="&#x165;" horiz-adv-x="431" 
d="M530 570h-100l35 170h150l-2 -10zM278 -9q-85 0 -120.5 45t-20.5 122l48 234h-85l26 131h92l23 109l142 28h10l-28 -137h125l-26 -131h-125l-40 -197q-7 -37 5 -53.5t47 -16.5q27 0 52 9h10l-26 -128q-43 -15 -109 -15z" />
    <glyph glyph-name="Tbar" unicode="&#x166;" horiz-adv-x="600" 
d="M719 700l-28 -141h-202l-26 -127h163l-27 -131h-163l-61 -301h-158l61 301h-155l27 131h155l26 127h-202l28 141h562z" />
    <glyph glyph-name="tbar" unicode="&#x167;" horiz-adv-x="431" 
d="M490 523l-26 -131h-125l-12 -60h117l-21 -100h-116l-8 -37q-7 -37 5 -53.5t47 -16.5q27 0 52 9h10l-26 -128q-43 -15 -109 -15q-85 0 -120.5 45t-20.5 122l15 74h-85l21 100h85l12 60h-85l26 131h92l23 109l142 28h10l-28 -137h125z" />
    <glyph glyph-name="Utilde" unicode="&#x168;" horiz-adv-x="714" 
d="M566 760q-34 0 -63 18l-15 9q-56 32 -68 -25h-92l3 15q13 62 48 95.5t86 33.5q35 0 66 -19l14 -8q22 -13 34 -13q14 0 21 8.5t11 29.5h91l-3 -15q-25 -129 -133 -129zM364 -9q-130 0 -204 74q-72 76 -44 212l86 423h158l-86 -421q-30 -148 109 -148q140 0 170 148l86 421
h157l-86 -423q-29 -140 -119 -213t-227 -73z" />
    <glyph glyph-name="utilde" unicode="&#x169;" horiz-adv-x="579" 
d="M319 585h-92l3 15q13 62 48 95.5t86 33.5q35 0 66 -19l14 -8q22 -13 34 -13q14 0 21 8.5t11 29.5h91l-3 -15q-26 -129 -133 -129q-35 0 -63 18l-15 9q-56 32 -68 -25zM422 232l59 291h155l-64 -314q-45 -218 -279 -218h-1q-120 0 -169 63q-49 64 -30 155l64 314h153
l-59 -291q-19 -96 67 -96q84 0 104 96z" />
    <glyph glyph-name="Umacron" unicode="&#x16a;" horiz-adv-x="714" 
d="M664 784h-293l23 111h293zM364 -9q-130 0 -204 74q-72 76 -44 212l86 423h158l-86 -421q-30 -148 109 -148q140 0 170 148l86 421h157l-86 -423q-29 -140 -119 -213t-227 -73z" />
    <glyph glyph-name="umacron" unicode="&#x16b;" horiz-adv-x="579" 
d="M293 718h293l-23 -111h-293zM422 232l59 291h155l-64 -314q-45 -218 -279 -218h-1q-120 0 -169 63q-49 64 -30 155l64 314h153l-59 -291q-19 -96 67 -96q84 0 104 96z" />
    <glyph glyph-name="Ubreve" unicode="&#x16c;" horiz-adv-x="714" 
d="M516 762q-78 0 -113.5 39t-21.5 110h108q-8 -50 43 -50q49 0 63 50h108q-15 -75 -60 -112t-127 -37zM364 -9q-130 0 -204 74q-72 76 -44 212l86 423h158l-86 -421q-30 -148 109 -148q140 0 170 148l86 421h157l-86 -423q-29 -140 -119 -213t-227 -73z" />
    <glyph glyph-name="ubreve" unicode="&#x16d;" horiz-adv-x="579" 
d="M415 585q-78 0 -113.5 39t-21.5 110h108q-8 -50 43 -50t63 50h108q-15 -75 -60 -112t-127 -37zM422 232l59 291h155l-64 -314q-45 -218 -279 -218h-1q-120 0 -169 63q-49 64 -30 155l64 314h153l-59 -291q-19 -96 67 -96q84 0 104 96z" />
    <glyph glyph-name="Uring" unicode="&#x16e;" horiz-adv-x="714" 
d="M513 745q-44 0 -73 26t-29 67q0 58 39 95q40 39 99 39q45 0 73.5 -26t28.5 -67q0 -57 -39 -95.5t-99 -38.5zM521 816q23 0 39 14.5t16 35.5q0 15 -10 25t-28 10q-22 0 -37 -15.5t-15 -35.5q0 -15 9.5 -24.5t25.5 -9.5zM364 -9q-130 0 -204 74q-72 76 -44 212l86 423h158
l-86 -421q-30 -148 109 -148q140 0 170 148l86 421h157l-86 -423q-29 -140 -119 -213t-227 -73z" />
    <glyph glyph-name="uring" unicode="&#x16f;" horiz-adv-x="579" 
d="M412 568q-44 0 -73 26t-29 67q0 57 39 95q41 39 99 39q45 0 73.5 -26t28.5 -67q0 -57 -39 -95.5t-99 -38.5zM437 724q-21 0 -36.5 -15t-15.5 -36q0 -15 9.5 -24.5t25.5 -9.5q23 0 39 14.5t16 35.5q0 15 -10 25t-28 10zM422 232l59 291h155l-64 -314q-45 -218 -279 -218
h-1q-120 0 -169 63q-49 64 -30 155l64 314h153l-59 -291q-19 -96 67 -96q84 0 104 96z" />
    <glyph glyph-name="Uhungarumlaut" unicode="&#x170;" horiz-adv-x="714" 
d="M445 760h-100l2 10l75 146h160l-2 -10zM645 760h-100l2 10l75 146h160l-2 -10zM364 -9q-130 0 -204 74q-72 76 -44 212l86 423h158l-86 -421q-30 -148 109 -148q140 0 170 148l86 421h157l-86 -423q-29 -140 -119 -213t-227 -73z" />
    <glyph glyph-name="uhungarumlaut" unicode="&#x171;" horiz-adv-x="579" 
d="M481 739l-2 -10l-135 -146h-100l2 10l75 146h160zM446 593l75 146h160l-2 -10l-135 -146h-100zM422 232l59 291h155l-64 -314q-45 -218 -279 -218h-1q-120 0 -169 63q-49 64 -30 155l64 314h153l-59 -291q-19 -96 67 -96q84 0 104 96z" />
    <glyph glyph-name="Uogonek" unicode="&#x172;" horiz-adv-x="714" 
d="M553 279l86 421h157l-86 -423q-24 -121 -96 -192.5t-182 -88.5q-41 -18 -68 -45t-27 -54q0 -33 41 -33q22 0 37 4l-18 -88q-32 -8 -71 -8q-49 0 -82.5 24t-33.5 65q0 79 92 135q-104 17 -157 89q-53 74 -29 192l86 423h158l-86 -421q-30 -148 109 -148q140 0 170 148z
" />
    <glyph glyph-name="uogonek" unicode="&#x173;" horiz-adv-x="579" 
d="M422 232l59 291h155l-64 -314q-37 -186 -214 -213q-41 -18 -67.5 -45t-26.5 -54q0 -33 41 -33q22 0 37 4l-18 -88q-32 -8 -71 -8q-49 0 -82.5 24t-33.5 65q0 81 93 136q-86 17 -120 75q-33 61 -17 137l64 314h153l-59 -291q-19 -96 67 -96q84 0 104 96z" />
    <glyph glyph-name="Wcircumflex" unicode="&#x174;" horiz-adv-x="949" 
d="M575 762h-120l2 10l123 142h163l65 -142l-2 -10h-116l-44 54h-4zM375 0h-210l-15 690l2 10h179l-15 -483h4l205 483h184l11 -483h4l180 483h177l-2 -10l-294 -690h-211l-2 463h-4z" />
    <glyph glyph-name="wcircumflex" unicode="&#x175;" horiz-adv-x="833" 
d="M486 585h-120l2 10l123 142h163l65 -142l-2 -10h-116l-44 54h-4zM341 0h-213l-14 513l2 10h157l-3 -358h4l142 358h206l-2 -358h4l141 358h164l-2 -10l-222 -513h-213l1 358h-4z" />
    <glyph glyph-name="Ycircumflex" unicode="&#x176;" horiz-adv-x="698" 
d="M452 762h-120l2 10l123 142h163l65 -142l-2 -10h-116l-44 54h-4zM429 0h-158l57 278l-178 412l2 10h178l100 -264h4l208 264h188l-2 -10l-342 -410z" />
    <glyph glyph-name="ycircumflex" unicode="&#x177;" horiz-adv-x="601" 
d="M389 585h-120l2 10l123 142h163l65 -142l-2 -10h-116l-44 54h-4zM281 -229h-167l2 10l120 219h-26l-62 513l2 10h158l31 -371h4l188 371h166l-2 -10z" />
    <glyph glyph-name="Ydieresis" unicode="&#x178;" horiz-adv-x="698" 
d="M408 769q-29 0 -45 15.5t-16 42.5q0 39 25 64t66 25q29 0 45 -15.5t16 -42.5q0 -39 -25.5 -64t-65.5 -25zM610 769q-60 0 -60 57q0 40 24.5 65t65.5 25q30 0 46 -15.5t16 -42.5q0 -39 -25.5 -64t-66.5 -25zM429 0h-158l57 278l-178 412l2 10h178l100 -264h4l208 264h188
l-2 -10l-342 -410z" />
    <glyph glyph-name="Zacute" unicode="&#x179;" horiz-adv-x="597" 
d="M499 760h-110l2 10l95 146h160l-2 -10zM567 0h-537l28 137l412 418l1 4h-318l28 141h522l-28 -139l-411 -417l-1 -4h332z" />
    <glyph glyph-name="zacute" unicode="&#x17a;" horiz-adv-x="502" 
d="M423 583h-110l2 10l95 146h160l-2 -10zM467 0h-432l26 129l286 259l1 4h-232l26 131h429l-26 -130l-285 -258v-4h234z" />
    <glyph glyph-name="Zdotaccent" unicode="&#x17b;" horiz-adv-x="597" 
d="M454 753q-77 0 -77 70q0 49 30.5 79t83.5 30q37 0 57 -18.5t20 -51.5q0 -49 -31 -79t-83 -30zM567 0h-537l28 137l412 418l1 4h-318l28 141h522l-28 -139l-411 -417l-1 -4h332z" />
    <glyph glyph-name="zdotaccent" unicode="&#x17c;" horiz-adv-x="502" 
d="M378 576q-77 0 -77 70q0 49 30.5 79t83.5 30q37 0 57 -18.5t20 -51.5q0 -49 -31 -79t-83 -30zM467 0h-432l26 129l286 259l1 4h-232l26 131h429l-26 -130l-285 -258v-4h234z" />
    <glyph glyph-name="Zcaron" unicode="&#x17d;" horiz-adv-x="597" 
d="M540 762h-163l-65 142l2 10h113l44 -54h4l67 54h123l-2 -10zM567 0h-537l28 137l412 418l1 4h-318l28 141h522l-28 -139l-411 -417l-1 -4h332z" />
    <glyph glyph-name="zcaron" unicode="&#x17e;" horiz-adv-x="502" 
d="M464 585h-163l-65 142l2 10h113l44 -54h4l67 54h123l-2 -10zM467 0h-432l26 129l286 259l1 4h-232l26 131h429l-26 -130l-285 -258v-4h234z" />
    <glyph glyph-name="florin" unicode="&#x192;" horiz-adv-x="483" 
d="M193 -229h-154v10l77 501h-96v130h117l17 111q16 103 72 152t160 49q46 0 77 -9v-131q-30 8 -61 8q-84 0 -98 -86l-14 -94h131v-130h-151z" />
    <glyph glyph-name="uni01CD" unicode="&#x1cd;" horiz-adv-x="702" 
d="M524 860l67 54h123l-2 -10l-123 -142h-163l-65 142l2 10h113l44 -54h4zM12 10l380 690h201l101 -690l-2 -10h-168l-14 133h-260l-68 -133h-172zM461 543l-140 -272h174l-30 272h-4z" />
    <glyph glyph-name="uni01CE" unicode="&#x1ce;" 
d="M485 585h-163l-65 142l2 10h113l44 -54h4l67 54h123l-2 -10zM235 -9q-78 0 -121.5 55.5t-43.5 148.5q0 142 76 239q77 98 199 98q95 0 127 -59h4l26 50h138l-106 -523h-138l-6 50h-4q-59 -59 -151 -59zM310 126q47 0 79 29q57 52 57 147t-81 95q-38 0 -66.5 -17
t-42.5 -44.5t-20.5 -55.5t-6.5 -57q0 -45 20 -71t61 -26z" />
    <glyph glyph-name="uni01CF" unicode="&#x1cf;" horiz-adv-x="298" 
d="M390 762h-163l-65 142l2 10h113l44 -54h4l67 54h123l-2 -10zM228 0h-158l142 700h158z" />
    <glyph glyph-name="uni01D0" unicode="&#x1d0;" horiz-adv-x="244" 
d="M330 585h-163l-65 142l2 10h113l44 -54h4l67 54h123l-2 -10zM204 0h-154l106 523h154z" />
    <glyph glyph-name="uni01D1" unicode="&#x1d1;" horiz-adv-x="740" 
d="M609 762h-163l-65 142l2 10h113l44 -54h4l67 54h123l-2 -10zM368 -9q-136 0 -207 78q-70 77 -70 204q0 63 17 125t52 118.5t84 99t119 68t151 25.5q136 0 206 -78q71 -79 71 -204q0 -79 -29 -156t-81.5 -139.5t-134.5 -101.5t-178 -39zM397 133q106 0 169 81t63 195
q0 158 -144 158q-107 0 -170 -81q-62 -82 -62 -195q0 -77 37 -117.5t107 -40.5z" />
    <glyph glyph-name="uni01D2" unicode="&#x1d2;" horiz-adv-x="572" 
d="M489 585h-163l-65 142l2 10h113l44 -54h4l67 54h123l-2 -10zM290 -9q-104 0 -162 57t-58 154q-3 144 79.5 236.5t238.5 93.5q103 0 161.5 -58t58.5 -155q0 -144 -80 -236t-238 -92zM312 126q64 0 100.5 46.5t36.5 129.5q0 95 -82 95q-64 0 -100.5 -46.5t-36.5 -129.5
q0 -95 82 -95z" />
    <glyph glyph-name="Gcaron" unicode="&#x1e6;" horiz-adv-x="714" 
d="M608 762h-163l-65 142l2 10h113l44 -54h4l67 54h123l-2 -10zM377 -9q-136 0 -211 79q-75 80 -75 202q0 119 46 215q47 99 141 160q97 62 225 62q131 0 205 -74t64 -179h-160q0 51 -31.5 81t-96.5 30q-109 0 -170 -76t-61 -202q0 -76 36.5 -116.5t106.5 -40.5
q123 0 173 107h-131l28 139h295l-16 -79q-28 -141 -127 -225q-98 -83 -241 -83z" />
    <glyph glyph-name="gcaron" unicode="&#x1e7;" 
d="M478 585h-163l-65 142l2 10h113l44 -54h4l67 54h123l-2 -10zM230 -238q-106 0 -160.5 52.5t-38.5 140.5h151q-2 -27 18 -44t56 -17q48 0 79.5 22.5t39.5 60.5l15 73h-4q-62 -59 -151 -59q-78 0 -122 55.5t-44 148.5q0 140 79 238q80 99 197 99q89 0 127 -59h4l26 50h138
l-111 -548q-21 -101 -99 -157t-200 -56zM310 126q38 0 66 17t42 44.5t20.5 55.5t6.5 57q0 97 -80 97q-69 0 -103 -54q-33 -54 -33 -122q0 -95 81 -95z" />
    <glyph glyph-name="Scommaaccent" unicode="&#x218;" horiz-adv-x="632" 
d="M313 -9q-136 0 -198.5 65.5t-45.5 183.5h159q-7 -54 23 -82t90 -28q148 0 148 85q0 44 -71 61l-98 22q-88 20 -133.5 60.5t-45.5 110.5q0 109 84 174q85 66 235 66q122 0 186 -64q66 -65 47 -164h-159q4 40 -22 64t-82 24q-60 0 -92 -20t-32 -51q0 -40 68 -55l90 -20
q94 -21 142 -63t48 -115q0 -113 -83 -184q-82 -70 -258 -70zM287 -217h-100l2 10l53 156h150l-2 -10z" />
    <glyph glyph-name="scommaaccent" unicode="&#x219;" horiz-adv-x="511" 
d="M255 -9q-114 0 -162 49t-32 137h154q-6 -25 11 -41.5t55 -16.5q40 0 61.5 12.5t21.5 31.5q0 26 -46 35l-74 15q-130 25 -130 134q0 84 64 134.5t186 50.5q98 0 148 -50t35 -125h-152q6 23 -9 38.5t-49 15.5q-30 0 -49.5 -12t-19.5 -30q0 -24 32 -30l96 -19
q126 -24 126 -129q0 -96 -70 -148t-197 -52zM212 -217h-100l2 10l53 156h150l-2 -10z" />
    <glyph glyph-name="uni021A" unicode="&#x21a;" horiz-adv-x="592" 
d="M129 559l28 141h562l-28 -141h-202l-114 -559h-28l-33 -36q37 -3 58.5 -24t21.5 -53q0 -49 -47 -82t-122 -33q-58 0 -90 28.5t-23 73.5h90q-2 -12 8 -21t28 -9q54 0 54 35q0 25 -39 25h-32l-18 31l46 65h-32l114 559h-202z" />
    <glyph glyph-name="uni021B" unicode="&#x21b;" horiz-adv-x="431" 
d="M464 392h-125l-40 -197q-7 -37 5 -53.5t47 -16.5q27 0 52 9h10l-26 -128q-38 -12 -95 -15l-25 -27q37 -3 58.5 -24t21.5 -53q0 -49 -47 -82t-122 -33q-58 0 -90 28.5t-23 73.5h90q-2 -12 8 -21t28 -9q54 0 54 35q0 25 -39 25h-32l-18 31l48 68q-90 34 -67 155l48 234h-85
l26 131h92l23 109l142 28h10l-28 -137h125z" />
    <glyph glyph-name="uni0237" unicode="&#x237;" horiz-adv-x="248" 
d="M-28 -238q-32 0 -69 8l28 139q20 -3 38 -3q68 0 81 73l111 544h154l-119 -583q-16 -84 -80 -131t-144 -47z" />
    <glyph glyph-name="circumflex" unicode="&#x2c6;" horiz-adv-x="401" 
d="M264 585h-120l2 10l123 142h163l65 -142l-2 -10h-116l-44 54h-4z" />
    <glyph glyph-name="caron" unicode="&#x2c7;" horiz-adv-x="401" 
d="M401 585h-163l-65 142l2 10h113l44 -54h4l67 54h123l-2 -10z" />
    <glyph glyph-name="breve" unicode="&#x2d8;" horiz-adv-x="392" 
d="M319 585q-78 0 -113.5 39t-21.5 110h108q-8 -50 43 -50t63 50h108q-15 -75 -60 -112t-127 -37z" />
    <glyph glyph-name="dotaccent" unicode="&#x2d9;" horiz-adv-x="246" 
d="M240 576q-77 0 -77 70q0 49 30.5 79t83.5 30q37 0 57 -18.5t20 -51.5q0 -49 -31 -79t-83 -30z" />
    <glyph glyph-name="ring" unicode="&#x2da;" horiz-adv-x="295" 
d="M268 568q-44 0 -73 26t-29 67q0 57 39 95q41 39 99 39q45 0 73.5 -26t28.5 -67q0 -57 -39 -95.5t-99 -38.5zM276 639q23 0 39 14.5t16 35.5q0 15 -10 25t-28 10q-21 0 -36.5 -15t-15.5 -36q0 -15 9.5 -24.5t25.5 -9.5z" />
    <glyph glyph-name="ogonek" unicode="&#x2db;" horiz-adv-x="265" 
d="M119 -228q-49 0 -82.5 24t-33.5 65q0 98 132 155l100 -16q-45 -16 -75 -45t-30 -58q0 -33 41 -33q22 0 37 4l-18 -88q-32 -8 -71 -8z" />
    <glyph glyph-name="tilde" unicode="&#x2dc;" horiz-adv-x="385" 
d="M377 583q-35 0 -63 18l-15 9q-56 32 -68 -25h-92l3 15q13 62 48 95.5t86 33.5q35 0 66 -19l14 -8q22 -13 34 -13q14 0 21 8.5t11 29.5h91l-3 -15q-26 -129 -133 -129z" />
    <glyph glyph-name="hungarumlaut" unicode="&#x2dd;" horiz-adv-x="466" 
d="M249 583h-100l2 10l75 146h160l-2 -10zM449 583h-100l2 10l75 146h160l-2 -10z" />
    <glyph glyph-name="uni0326" unicode="&#x326;" horiz-adv-x="0" 
d="M-145 -217h-100l2 10l53 156h150l-2 -10z" />
    <glyph glyph-name="Wgrave" unicode="&#x1e80;" horiz-adv-x="949" 
d="M710 760h-110l-87 146l2 10h160l37 -146zM375 0h-210l-15 690l2 10h179l-15 -483h4l205 483h184l11 -483h4l180 483h177l-2 -10l-294 -690h-211l-2 463h-4z" />
    <glyph glyph-name="wgrave" unicode="&#x1e81;" horiz-adv-x="833" 
d="M621 583h-110l-87 146l2 10h160l37 -146zM341 0h-213l-14 513l2 10h157l-3 -358h4l142 358h206l-2 -358h4l141 358h164l-2 -10l-222 -513h-213l1 358h-4z" />
    <glyph glyph-name="Wacute" unicode="&#x1e82;" horiz-adv-x="949" 
d="M671 760h-110l2 10l95 146h160l-2 -10zM375 0h-210l-15 690l2 10h179l-15 -483h4l205 483h184l11 -483h4l180 483h177l-2 -10l-294 -690h-211l-2 463h-4z" />
    <glyph glyph-name="wacute" unicode="&#x1e83;" horiz-adv-x="833" 
d="M582 583h-110l2 10l95 146h160l-2 -10zM341 0h-213l-14 513l2 10h157l-3 -358h4l142 358h206l-2 -358h4l141 358h164l-2 -10l-222 -513h-213l1 358h-4z" />
    <glyph glyph-name="Wdieresis" unicode="&#x1e84;" horiz-adv-x="949" 
d="M531 769q-29 0 -45 15.5t-16 42.5q0 39 25 64t66 25q29 0 45 -15.5t16 -42.5q0 -39 -25.5 -64t-65.5 -25zM733 769q-60 0 -60 57q0 40 24.5 65t65.5 25q30 0 46 -15.5t16 -42.5q0 -39 -25.5 -64t-66.5 -25zM375 0h-210l-15 690l2 10h179l-15 -483h4l205 483h184l11 -483
h4l180 483h177l-2 -10l-294 -690h-211l-2 463h-4z" />
    <glyph glyph-name="wdieresis" unicode="&#x1e85;" horiz-adv-x="833" 
d="M442 592q-29 0 -45 15.5t-16 42.5q0 39 25 64t66 25q29 0 45 -15.5t16 -42.5q0 -39 -25.5 -64t-65.5 -25zM644 592q-60 0 -60 57q0 40 24.5 65t65.5 25q30 0 46 -15.5t16 -42.5q0 -39 -25.5 -64t-66.5 -25zM341 0h-213l-14 513l2 10h157l-3 -358h4l142 358h206l-2 -358h4
l141 358h164l-2 -10l-222 -513h-213l1 358h-4z" />
    <glyph glyph-name="uni1EBC" unicode="&#x1ebc;" horiz-adv-x="610" 
d="M543 760q-35 0 -63 18l-15 9q-56 32 -68 -25h-92l3 15q13 62 48 95.5t86 33.5q35 0 66 -19l14 -8q22 -13 34 -13q14 0 21 8.5t11 29.5h91l-3 -15q-26 -129 -133 -129zM570 0h-500l142 700h500l-28 -140h-343l-26 -129h312l-29 -140h-312l-31 -152h343z" />
    <glyph glyph-name="uni1EBD" unicode="&#x1ebd;" horiz-adv-x="556" 
d="M454 583q-34 0 -63 18l-15 9q-56 32 -68 -25h-92l3 15q13 62 48 95.5t86 33.5q35 0 66 -19l14 -8q22 -13 34 -13q14 0 21 8.5t11 29.5h91l-3 -15q-25 -129 -133 -129zM282 -9q-100 0 -156 60q-55 61 -55 156q0 133 82 228q82 97 226 97q123 0 177 -72q54 -71 31 -183
l-12 -57h-348q-9 -49 11 -76.5t70 -27.5q71 0 101 52h149q-28 -80 -99.5 -128.5t-176.5 -48.5zM247 317h191q6 41 -12.5 65t-61.5 24q-91 0 -117 -89z" />
    <glyph glyph-name="Ygrave" unicode="&#x1ef2;" horiz-adv-x="698" 
d="M587 760h-110l-87 146l2 10h160l37 -146zM429 0h-158l57 278l-178 412l2 10h178l100 -264h4l208 264h188l-2 -10l-342 -410z" />
    <glyph glyph-name="ygrave" unicode="&#x1ef3;" horiz-adv-x="601" 
d="M524 583h-110l-87 146l2 10h160l37 -146zM281 -229h-167l2 10l120 219h-26l-62 513l2 10h158l31 -371h4l188 371h166l-2 -10z" />
    <glyph glyph-name="uni2000" unicode="&#x2000;" horiz-adv-x="486" 
 />
    <glyph glyph-name="uni2001" unicode="&#x2001;" horiz-adv-x="972" 
 />
    <glyph glyph-name="uni2002" unicode="&#x2002;" horiz-adv-x="486" 
 />
    <glyph glyph-name="uni2003" unicode="&#x2003;" horiz-adv-x="972" 
 />
    <glyph glyph-name="uni2004" unicode="&#x2004;" horiz-adv-x="324" 
 />
    <glyph glyph-name="uni2005" unicode="&#x2005;" horiz-adv-x="243" 
 />
    <glyph glyph-name="uni2006" unicode="&#x2006;" horiz-adv-x="162" 
 />
    <glyph glyph-name="uni2007" unicode="&#x2007;" horiz-adv-x="162" 
 />
    <glyph glyph-name="uni2008" unicode="&#x2008;" horiz-adv-x="121" 
 />
    <glyph glyph-name="uni2009" unicode="&#x2009;" horiz-adv-x="194" 
 />
    <glyph glyph-name="uni200A" unicode="&#x200a;" horiz-adv-x="54" 
 />
    <glyph glyph-name="uni2010" unicode="&#x2010;" horiz-adv-x="466" 
d="M432 224h-306l28 138h306z" />
    <glyph glyph-name="uni2011" unicode="&#x2011;" horiz-adv-x="466" 
d="M432 224h-306l28 138h306z" />
    <glyph glyph-name="figuredash" unicode="&#x2012;" horiz-adv-x="466" 
d="M432 224h-306l28 138h306z" />
    <glyph glyph-name="endash" unicode="&#x2013;" horiz-adv-x="622" 
d="M608 224h-502l28 138h502z" />
    <glyph glyph-name="emdash" unicode="&#x2014;" horiz-adv-x="1102" 
d="M1088 224h-982l28 138h982z" />
    <glyph glyph-name="quoteleft" unicode="&#x2018;" horiz-adv-x="240" 
d="M244 700h118l-2 -10l-81 -247h-169l2 10z" />
    <glyph glyph-name="quoteright" unicode="&#x2019;" horiz-adv-x="240" 
d="M228 443h-118l2 10l81 247h169l-2 -10z" />
    <glyph glyph-name="quotesinglbase" unicode="&#x201a;" horiz-adv-x="240" 
d="M109 -144h-118l2 10l81 247h169l-2 -10z" />
    <glyph glyph-name="quotedblleft" unicode="&#x201c;" horiz-adv-x="450" 
d="M244 700h118l-2 -10l-81 -247h-169l2 10zM454 700h118l-2 -10l-81 -247h-169l2 10z" />
    <glyph glyph-name="quotedblright" unicode="&#x201d;" horiz-adv-x="450" 
d="M228 443h-118l2 10l81 247h169l-2 -10zM438 443h-118l2 10l81 247h169l-2 -10z" />
    <glyph glyph-name="quotedblbase" unicode="&#x201e;" horiz-adv-x="450" 
d="M109 -144h-118l2 10l81 247h169l-2 -10zM319 -144h-118l2 10l81 247h169l-2 -10z" />
    <glyph glyph-name="dagger" unicode="&#x2020;" horiz-adv-x="454" 
d="M413 587h110l-24 -122h-111l-26 -129l-53 -165h-94l13 165l26 129h-109l24 122h110l23 113h134z" />
    <glyph glyph-name="daggerdbl" unicode="&#x2021;" horiz-adv-x="454" 
d="M499 465h-117l-37 -115l-9 -115h116l-25 -122h-110l-23 -113h-134l23 113h-110l25 122h115l38 115l10 115h-116l24 122h110l23 113h134l-23 -113h110z" />
    <glyph glyph-name="bullet" unicode="&#x2022;" horiz-adv-x="386" 
d="M225 156q-53 0 -81 28.5t-28 78.5q0 71 44 118q44 48 120 48q51 0 80 -29t29 -78q0 -72 -46 -119q-45 -47 -118 -47z" />
    <glyph glyph-name="ellipsis" unicode="&#x2026;" horiz-adv-x="850" 
d="M123 -9q-74 0 -74 69q0 50 29.5 80t81.5 30q36 0 55 -18.5t19 -51.5q0 -48 -30 -78.5t-81 -30.5zM423 -9q-74 0 -74 69q0 50 29.5 80t81.5 30q36 0 55 -18.5t19 -51.5q0 -48 -30 -78.5t-81 -30.5zM723 -9q-74 0 -74 69q0 50 29.5 80t81.5 30q36 0 55 -18.5t19 -51.5
q0 -48 -30 -78.5t-81 -30.5z" />
    <glyph glyph-name="uni202F" unicode="&#x202f;" horiz-adv-x="194" 
 />
    <glyph glyph-name="perthousand" unicode="&#x2030;" horiz-adv-x="1224" 
d="M278 348q-64 0 -99.5 38t-35.5 104q0 96 58 158q58 64 151 64q63 0 99 -38.5t36 -103.5q0 -94 -59 -159q-58 -63 -150 -63zM246 0h-129l2 10l614 690h127l-2 -10zM298 446q84 0 84 111q0 57 -50 57q-84 0 -84 -111q0 -57 50 -57zM635 -9q-63 0 -99 38t-36 104
q0 94 59 158q58 64 150 64q63 0 99 -38.5t36 -103.5q0 -94 -59 -159q-59 -63 -150 -63zM1015 -9q-63 0 -99 38t-36 104q0 94 59 158q58 64 150 64q63 0 99 -38.5t36 -103.5q0 -94 -59 -159q-59 -63 -150 -63zM655 89q84 0 84 111q0 57 -50 57q-84 0 -84 -111q0 -57 50 -57z
M1035 89q84 0 84 111q0 57 -50 57q-84 0 -84 -111q0 -57 50 -57z" />
    <glyph glyph-name="guilsinglleft" unicode="&#x2039;" horiz-adv-x="362" 
d="M345 66h-146l-122 212l2 10l209 212h146l-2 -10l-182 -207l97 -207z" />
    <glyph glyph-name="guilsinglright" unicode="&#x203a;" horiz-adv-x="362" 
d="M189 66h-146l2 10l183 207l-98 207l2 10h146l123 -212l-2 -10z" />
    <glyph glyph-name="fraction" unicode="&#x2044;" horiz-adv-x="561" 
d="M119 -100h-149l2 10l615 890h147l-2 -10z" />
    <glyph glyph-name="uni205F" unicode="&#x205f;" horiz-adv-x="243" 
 />
    <glyph glyph-name="Euro" unicode="&#x20ac;" horiz-adv-x="751" 
d="M810 436h-160q6 57 -26 94t-98 37q-122 0 -184 -96h215l-40 -96h-213q-6 -26 -8 -59h194l-39 -96h-146q28 -88 133 -88q63 0 108.5 34t67.5 91h159q-34 -114 -129 -191q-94 -75 -230 -75q-118 0 -190 62t-87 167h-62l19 96h41q2 33 8 59h-37l20 96h46q49 112 145.5 175
t232.5 63q131 0 203 -80q72 -79 57 -193z" />
    <glyph glyph-name="uni2116" unicode="&#x2116;" horiz-adv-x="1159" 
d="M983 331q-74 0 -116.5 40.5t-42.5 107.5q0 101 57 165q57 65 161 65q72 0 115 -41t43 -108q0 -99 -56 -164t-161 -65zM225 0h-155l142 700h185l165 -457h4l93 457h156l-142 -700h-186l-166 454h-4zM994 433q41 0 64.5 29.5t23.5 83.5q0 61 -53 61q-40 0 -64 -29.5
t-24 -82.5q0 -30 14.5 -46t38.5 -16zM1107 181h-326l22 111h326z" />
    <glyph glyph-name="trademark" unicode="&#x2122;" horiz-adv-x="730" 
d="M284 373h-84l51 252h-94l15 75h272l-15 -75h-94zM501 373h-81l66 327h92l59 -140h4l113 140h91l-66 -327h-81l40 196h-4l-117 -143h-10l-62 145h-4z" />
    <glyph glyph-name="minus" unicode="&#x2212;" horiz-adv-x="496" 
d="M541 247h-486l27 132h486z" />
    <glyph glyph-name="notequal" unicode="&#x2260;" horiz-adv-x="496" 
d="M588 479l-26 -132h-166l-70 -88h218l-27 -132h-297l-36 -45h-102l2 10l28 35h-81l27 132h160l70 88h-212l26 132h292l44 55h102l-2 -10l-36 -45h86z" />
    <glyph glyph-name="lessequal" unicode="&#x2264;" horiz-adv-x="520" 
d="M554 314l-29 -141l-428 154l30 150l491 154l-28 -141l-326 -84l-1 -4zM490 1h-460l27 132h460z" />
    <glyph glyph-name="greaterequal" unicode="&#x2265;" horiz-adv-x="520" 
d="M557 327l-492 -154l29 141l325 89l1 4l-290 83l28 141l429 -154zM490 1h-460l27 132h460z" />
    <glyph glyph-name="uni25FC" unicode="&#x25fc;" horiz-adv-x="525" 
d="M0 0v525h525v-525h-525z" />
    <glyph glyph-name="NULL" horiz-adv-x="0" 
 />
    <glyph glyph-name="CR" horiz-adv-x="333" 
 />
    <glyph glyph-name="i.loclTRK" horiz-adv-x="244" 
d="M244 576q-77 0 -77 70q0 49 30.5 79t83.5 30q37 0 57 -18.5t20 -51.5q0 -49 -31 -79t-83 -30zM204 0h-154l106 523h154z" />
    <glyph glyph-name="caron.Slovak" horiz-adv-x="210" 
d="M238 530h-100l34 170h150l-2 -10z" />
    </font>
</defs>
</svg>
