<?xml version="1.0" standalone="no"?>
<!DOCTYPE svg PUBLIC "-//W3C//DTD SVG 1.1//EN" "http://www.w3.org/Graphics/SVG/1.1/DTD/svg11.dtd" >
<svg xmlns="http://www.w3.org/2000/svg" xmlns:xlink="http://www.w3.org/1999/xlink" version="1.1">
<metadata>
Created by FontForge 20170731 at Tue May 15 23:49:04 2018
 By Aleksey,,,
Copyright (c) 2018 by atipo. All rights reserved.
</metadata>
<defs>
<font id="BasierCircle-Regular" horiz-adv-x="589" >
  <font-face 
    font-family="Basier Circle"
    font-weight="400"
    font-stretch="normal"
    units-per-em="1000"
    panose-1="0 0 5 0 0 0 0 0 0 0"
    ascent="800"
    descent="-200"
    x-height="511"
    cap-height="700"
    bbox="-162 -245 1134 980"
    underline-thickness="50"
    underline-position="-350"
    unicode-range="U+0020-25FC"
  />
<missing-glyph horiz-adv-x="940" 
 />
    <glyph glyph-name=".notdef" horiz-adv-x="940" 
 />
    <glyph glyph-name=".null" horiz-adv-x="0" 
 />
    <glyph glyph-name="nonmarkingreturn" horiz-adv-x="333" 
 />
    <glyph glyph-name="space" unicode=" " horiz-adv-x="300" 
 />
    <glyph glyph-name="exclam" unicode="!" horiz-adv-x="278" 
d="M161 222h-47l-21 382v96h94v-96zM139 -9q-29 0 -44 16.5t-15 44.5q0 27 16 43.5t43 16.5t43 -16.5t16 -43.5q0 -28 -15.5 -44.5t-43.5 -16.5z" />
    <glyph glyph-name="quotedbl" unicode="&#x22;" horiz-adv-x="416" 
d="M145 440h-54l-16 147v113h86v-113zM325 440h-54l-16 147v113h86v-113z" />
    <glyph glyph-name="numbersign" unicode="#" horiz-adv-x="685" 
d="M635 503v-74h-136l-28 -163h114v-74h-126l-33 -192h-72l33 192h-148l-33 -192h-72l33 192h-117v74h129l28 163h-107v74h120l33 197h72l-33 -197h148l33 197h72l-33 -197h123zM251 266h148l28 163h-148z" />
    <glyph glyph-name="dollar" unicode="$" horiz-adv-x="632" 
d="M577 192q0 -86 -60 -139t-165 -61v-82h-68v82q-110 7 -170.5 64.5t-63.5 153.5h89q4 -60 41.5 -95.5t103.5 -42.5v251l-25 5q-94 21 -140 66.5t-46 122.5q0 84 55 134t156 57v82h68v-83q97 -9 154.5 -65t58.5 -141h-89q-2 52 -33.5 85t-90.5 41v-229l26 -5
q199 -40 199 -201zM283 413h1v215q-120 -12 -120 -111q0 -78 119 -104zM352 308v-236q134 12 134 120q0 47 -31 74t-94 40z" />
    <glyph glyph-name="percent" unicode="%" horiz-adv-x="854" 
d="M327 398q-36 -50 -110 -50q-73 0 -111 50q-36 50 -36 132t36 132q38 50 111 50q74 0 110 -50q37 -49 37 -132t-37 -132zM230 0h-79v10l474 690h77v-10zM141 530q0 -118 76 -118t76 118t-76 118t-76 -118zM747 41q-36 -50 -110 -50q-73 0 -111 50q-36 49 -36 132t36 132
q38 50 111 50q74 0 110 -50q37 -49 37 -132t-37 -132zM561 173q0 -118 76 -118t76 118t-76 118t-76 -118z" />
    <glyph glyph-name="ampersand" unicode="&#x26;" horiz-adv-x="731" 
d="M594 398h87v-10q-60 -152 -132 -246l125 -132v-10h-111l-72 78q-95 -87 -208 -87q-95 0 -156 52q-62 53 -62 138q0 62 35 109t110 89l-11 12q-72 77 -72 155q0 70 49 116q48 45 128 47h2q80 0 129 -46q50 -47 50 -117q0 -108 -144 -185l151 -160q58 81 102 197zM305 632
h-2q-41 -1 -66 -25t-25 -61q0 -53 69 -122l6 -6q60 30 87.5 59.5t27.5 68.5t-26 62.5t-71 23.5zM283 69q82 0 153 67l-173 186q-61 -33 -85.5 -65t-24.5 -76q0 -51 36 -81.5t94 -30.5z" />
    <glyph glyph-name="quotesingle" unicode="'" horiz-adv-x="236" 
d="M145 440h-54l-16 147v113h86v-113z" />
    <glyph glyph-name="parenleft" unicode="(" horiz-adv-x="365" 
d="M210 750h65v-10q-146 -191 -146 -444t146 -444v-10h-65q-160 194 -160 454t160 454z" />
    <glyph glyph-name="parenright" unicode=")" horiz-adv-x="365" 
d="M90 750h65q160 -194 160 -454t-160 -454h-65v10q146 191 146 444t-146 444v10z" />
    <glyph glyph-name="asterisk" unicode="*" horiz-adv-x="486" 
d="M281 382h-76l16 126l-4 3l-107 -71l-35 68l122 41v4l-122 41l35 68l105 -74l4 4l-14 128h76l-14 -128l4 -4l105 74l35 -68l-122 -41v-4l122 -41l-35 -68l-107 71l-4 -3z" />
    <glyph glyph-name="plus" unicode="+" horiz-adv-x="476" 
d="M280 70h-80v207h-195v72h195v207h80v-207h191v-72h-191v-207z" />
    <glyph glyph-name="comma" unicode="," horiz-adv-x="238" 
d="M110 -134h-68v10l31 227h99v-10z" />
    <glyph glyph-name="hyphen" unicode="-" horiz-adv-x="466" 
d="M386 254h-306v78h306v-78z" />
    <glyph glyph-name="period" unicode="." horiz-adv-x="238" 
d="M119 -9q-29 0 -44 16.5t-15 44.5q0 27 16 43.5t43 16.5t43 -16.5t16 -43.5q0 -28 -15.5 -44.5t-43.5 -16.5z" />
    <glyph glyph-name="slash" unicode="/" horiz-adv-x="388" 
d="M91 -133h-76v10l281 860h77v-10z" />
    <glyph glyph-name="zero" unicode="0" horiz-adv-x="628" 
d="M70 352q0 360 244 360t244 -360q0 -361 -244 -361t-244 361zM471 352q0 284 -157 284t-157 -284q0 -120 30 -199q36 -86 127 -86q93 0 126 86q31 74 31 199z" />
    <glyph glyph-name="one" unicode="1" horiz-adv-x="425" 
d="M315 0h-85v605h-4l-161 -126h-10v86l174 135h86v-700z" />
    <glyph glyph-name="two" unicode="2" horiz-adv-x="569" 
d="M504 0h-437v66l239 279q44 51 60 72q40 53 40 103q0 54 -32.5 85t-92.5 31q-62 0 -96.5 -34.5t-34.5 -97.5h-85q0 94 58 151t158 57q97 0 154 -54q58 -52 58 -135q0 -54 -28 -100q-27 -45 -101 -131l-181 -210v-4h321v-78z" />
    <glyph glyph-name="three" unicode="3" horiz-adv-x="603" 
d="M301 -9q-106 0 -168 55q-63 55 -63 148h84q1 -57 39.5 -92.5t106.5 -35.5t106.5 35t38.5 95q0 63 -40.5 97t-114.5 34h-61v75h59q60 0 97.5 33t37.5 87q0 53 -32 84t-93 31q-63 0 -97.5 -32.5t-36.5 -89.5h-85q5 93 63 145t159 52q93 0 151 -51q59 -50 59 -133
q0 -112 -105 -153v-4q60 -19 93.5 -65t33.5 -109q0 -89 -62 -148q-61 -58 -170 -58z" />
    <glyph glyph-name="four" unicode="4" horiz-adv-x="588" 
d="M449 0h-85v148h-319v88l283 464h121v-476h94v-76h-94v-148zM127 228v-4h237v391h-4z" />
    <glyph glyph-name="five" unicode="5" horiz-adv-x="594" 
d="M296 -9q-106 0 -168 58q-63 59 -63 149h85q0 -57 39.5 -94t106.5 -37q74 0 110.5 42t36.5 117q0 72 -37.5 114t-108.5 42q-83 0 -132 -69h-88l27 387h392v-77h-318l-16 -223h4q52 57 144 57q103 0 161 -64q58 -62 58 -164q0 -111 -60.5 -174.5t-172.5 -63.5z" />
    <glyph glyph-name="six" unicode="6" horiz-adv-x="622" 
d="M317 -9q-128 0 -188 94q-59 95 -59 254q0 155 57 259q62 114 200 114q90 0 148.5 -49.5t68.5 -131.5h-87q-5 48 -40.5 76t-89.5 28q-89 0 -131 -77q-41 -77 -41 -197h4q51 96 170 96q105 0 163 -66q60 -64 60 -164q0 -102 -64 -169q-63 -67 -171 -67zM465 225
q0 70 -39 113.5t-108 43.5q-70 0 -109 -43t-39 -113t40 -114.5t108 -44.5t107.5 44t39.5 114z" />
    <glyph glyph-name="seven" unicode="7" horiz-adv-x="541" 
d="M199 0h-84v10q76 316 293 607v4h-363v79h451v-84q-219 -296 -297 -616z" />
    <glyph glyph-name="eight" unicode="8" horiz-adv-x="602" 
d="M418 373v-4q119 -45 119 -176q0 -94 -63 -147.5t-173 -54.5q-110 1 -173 54.5t-63 147.5q0 131 119 176v4q-98 44 -98 154q0 85 57.5 134.5t157.5 50.5q100 -1 157.5 -50.5t57.5 -134.5q0 -110 -98 -154zM172 523q0 -52 34 -84.5t95 -33.5q61 1 95 33.5t34 84.5
q0 53 -33.5 83.5t-95.5 31.5q-62 -1 -95.5 -31.5t-33.5 -83.5zM301 65q73 1 111 36.5t38 97.5q0 61 -37.5 96t-111.5 36q-74 -1 -111.5 -36t-37.5 -96q0 -62 38 -97.5t111 -36.5z" />
    <glyph glyph-name="nine" unicode="9" horiz-adv-x="622" 
d="M295 -9q-90 0 -148.5 49.5t-68.5 131.5h87q5 -48 40.5 -76t89.5 -28q90 0 130 76q42 76 42 198h-4q-51 -96 -170 -96q-104 0 -164 65q-59 67 -59 165q0 102 63 169q64 67 172 67q128 0 187 -95q60 -94 60 -253q0 -155 -57 -260q-62 -113 -200 -113zM304 321q70 0 109 43
t39 113t-40 114.5t-108 44.5t-107.5 -44t-39.5 -114t39 -113.5t108 -43.5z" />
    <glyph glyph-name="colon" unicode=":" horiz-adv-x="238" 
d="M119 351q-29 0 -44 16.5t-15 44.5q0 27 16 43.5t43 16.5t43 -16.5t16 -43.5q0 -28 -15.5 -44.5t-43.5 -16.5zM119 -9q-29 0 -44 16.5t-15 44.5q0 27 16 43.5t43 16.5t43 -16.5t16 -43.5q0 -28 -15.5 -44.5t-43.5 -16.5z" />
    <glyph glyph-name="semicolon" unicode=";" horiz-adv-x="238" 
d="M119 351q-29 0 -44 16.5t-15 44.5q0 27 16 43.5t43 16.5t43 -16.5t16 -43.5q0 -28 -15.5 -44.5t-43.5 -16.5zM110 -134h-68v10l31 227h99v-10z" />
    <glyph glyph-name="less" unicode="&#x3c;" horiz-adv-x="520" 
d="M470 79v-91l-420 249v90l420 249v-91l-341 -201v-4z" />
    <glyph glyph-name="equal" unicode="=" horiz-adv-x="476" 
d="M471 370h-466v72h466v-72zM471 180h-466v72h466v-72z" />
    <glyph glyph-name="greater" unicode="&#x3e;" horiz-adv-x="520" 
d="M470 237l-420 -249v91l341 201v4l-341 201v91l420 -249v-90z" />
    <glyph glyph-name="question" unicode="?" horiz-adv-x="543" 
d="M301 222h-80v16q0 58 20 90q22 33 70 71l32 25q51 40 52 103q0 49 -31.5 78.5t-89.5 29.5q-64 0 -96 -33.5t-32 -93.5h-86q0 86 55 144t159 58q94 0 151.5 -49.5t57.5 -131.5q0 -95 -76 -153l-42 -33q-36 -27 -51 -49q-13 -19 -13 -56v-16zM261 -9q-29 0 -44 16.5
t-15 44.5q0 27 16 43.5t43 16.5t43 -16.5t16 -43.5q0 -28 -15.5 -44.5t-43.5 -16.5z" />
    <glyph glyph-name="at" unicode="@" horiz-adv-x="916" 
d="M462 -100q-178 0 -288 110q-109 109 -109 294q0 179 113 292q115 113 293 113q165 0 272 -96t107 -255q0 -111 -48 -188q-48 -76 -139 -76q-39 0 -67.5 19.5t-33.5 52.5h-4q-34 -69 -121 -69q-74 0 -117.5 54t-43.5 143t46 145q46 57 127 57q33 0 62.5 -16.5t43.5 -43.5
h4l7 49h68l-9 -266q-1 -54 47 -54q47 0 76 56q28 55 28 137q0 130 -86 207t-222 77q-145 0 -236 -97t-91 -247q0 -147 89 -239q90 -91 233 -91q121 0 205 35v-66q-81 -37 -206 -37zM449 167q50 0 77 38t27 99q0 57 -25.5 90.5t-72.5 33.5t-73 -37.5t-26 -97.5
q0 -57 24.5 -91.5t68.5 -34.5z" />
    <glyph glyph-name="A" unicode="A" horiz-adv-x="682" 
d="M287 700h107l258 -690v-10h-93l-66 183h-306l-66 -183h-91v10zM338 603l-123 -342h250l-123 342h-4z" />
    <glyph glyph-name="B" unicode="B" horiz-adv-x="666" 
d="M388 0h-288v700h281q91 0 147.5 -49t56.5 -133q0 -104 -88 -143v-4q114 -47 114 -169q0 -95 -59.5 -148.5t-163.5 -53.5zM186 622v-222h174q64 0 100 30t36 88q0 50 -32.5 77t-92.5 27h-185zM186 324v-245h192q65 0 104 33t39 90q0 60 -37 91t-106 31h-192z" />
    <glyph glyph-name="C" unicode="C" horiz-adv-x="709" 
d="M369 -9q-148 0 -229 97q-80 98 -80 261q0 165 81 262q81 98 228 98q123 0 196 -64.5t84 -178.5h-90q-9 77 -57 119t-133 42q-59 0 -102.5 -23t-68.5 -63t-36.5 -88t-11.5 -104t11.5 -103.5t36.5 -87.5t68.5 -63t102.5 -23q164 0 191 155h89q-15 -112 -87 -174t-193 -62z
" />
    <glyph glyph-name="D" unicode="D" horiz-adv-x="704" 
d="M332 0h-232v700h232q146 0 229 -95t83 -255q0 -154 -81 -252q-80 -98 -231 -98zM187 620v-541h136q114 0 172 76q59 77 59 195q0 116 -59 193t-172 77h-136z" />
    <glyph glyph-name="E" unicode="E" horiz-adv-x="610" 
d="M550 0h-450v700h450v-80h-363v-219h332v-80h-332v-242h363v-79z" />
    <glyph glyph-name="F" unicode="F" horiz-adv-x="599" 
d="M187 0h-87v700h439v-80h-352v-235h318v-80h-318v-305z" />
    <glyph glyph-name="G" unicode="G" horiz-adv-x="721" 
d="M366 -9q-148 0 -227 96q-79 97 -79 261q0 166 79 263q80 98 227 98q126 0 199 -64q74 -63 84 -169h-90q-7 69 -57.5 110t-135.5 41q-59 0 -102 -23.5t-67.5 -64t-35.5 -88t-11 -103.5q0 -118 51 -198q53 -78 165 -78q101 0 156 61q56 62 56 156h-192v79h275v-59
q0 -147 -78 -233q-78 -85 -217 -85z" />
    <glyph glyph-name="H" unicode="H" horiz-adv-x="735" 
d="M548 402v298h87v-700h-87v321h-361v-321h-87v700h87v-298h361z" />
    <glyph glyph-name="I" unicode="I" horiz-adv-x="288" 
d="M188 0h-88v700h88v-700z" />
    <glyph glyph-name="J" unicode="J" horiz-adv-x="532" 
d="M235 -9q-95 0 -150 57q-55 58 -55 152h88q0 -59 31 -92.5t88 -33.5t87 34t30 95v497h88v-497q0 -97 -55.5 -154.5t-151.5 -57.5z" />
    <glyph glyph-name="K" unicode="K" horiz-adv-x="631" 
d="M611 690l-314 -321l324 -359v-10h-105l-329 364v-364h-87v700h87v-326l320 326h104v-10z" />
    <glyph glyph-name="L" unicode="L" horiz-adv-x="550" 
d="M525 0h-425v700h87v-620h338v-80z" />
    <glyph glyph-name="M" unicode="M" horiz-adv-x="880" 
d="M183 0h-83v700h103l236 -427h4l236 427h101v-700h-83v561h-4l-248 -441h-10l-248 444h-4v-564z" />
    <glyph glyph-name="N" unicode="N" horiz-adv-x="743" 
d="M185 0h-85v700h95l358 -557h4v557h86v-700h-96l-358 554h-4v-554z" />
    <glyph glyph-name="O" unicode="O" horiz-adv-x="740" 
d="M370 709q154 0 232 -100q78 -99 78 -259q0 -159 -78 -259t-232 -100t-232 99q-78 101 -78 260t77 259q78 100 233 100zM370 627q-60 0 -104.5 -23t-68.5 -63t-35.5 -87.5t-11.5 -103.5q0 -119 52 -198t168 -79q115 0 167 79q53 80 53 198t-53 198q-52 79 -167 79z" />
    <glyph glyph-name="P" unicode="P" horiz-adv-x="649" 
d="M187 0h-87v700h258q107 0 168 -61q63 -62 63 -160q0 -101 -63 -163q-64 -62 -168 -62h-171v-254zM187 621v-287h160q73 0 112.5 37.5t39.5 107.5q0 67 -40.5 104.5t-111.5 37.5h-160z" />
    <glyph glyph-name="Q" unicode="Q" horiz-adv-x="740" 
d="M680 350q0 -189 -101 -284l94 -129v-10h-95l-68 93q-61 -29 -140 -29q-154 0 -232 99q-78 101 -78 260t77 259q78 100 233 100q154 0 232 -100q78 -99 78 -259zM370 73q50 0 89 16l-86 119v10h95l58 -80q64 73 64 212q0 118 -53 198q-52 79 -167 79q-60 0 -104.5 -23
t-68.5 -63t-35.5 -87.5t-11.5 -103.5q0 -119 52 -198t168 -79z" />
    <glyph glyph-name="R" unicode="R" horiz-adv-x="670" 
d="M448 288l188 -278v-10h-95l-184 277h-170v-277h-87v700h277q104 0 163 -59t59 -151q0 -76 -40 -128.5t-111 -73.5zM372 620h-185v-263h185q66 0 101 34.5t35 97.5q0 62 -35.5 96.5t-100.5 34.5z" />
    <glyph glyph-name="S" unicode="S" horiz-adv-x="632" 
d="M315 -9q-124 0 -193 58.5t-72 160.5h89q4 -66 49.5 -103t126.5 -37q171 0 171 122q0 47 -31 74t-94 40l-102 22q-94 21 -140 66.5t-46 122.5q0 90 64.5 141t178.5 51q113 0 180 -58q68 -57 69 -150h-89q-3 60 -44 94t-118 34q-150 0 -150 -112q0 -78 119 -104l95 -20
q199 -40 199 -201q0 -94 -70 -147.5t-192 -53.5z" />
    <glyph glyph-name="T" unicode="T" horiz-adv-x="592" 
d="M340 0h-88v620h-217v80h522v-80h-217v-620z" />
    <glyph glyph-name="U" unicode="U" horiz-adv-x="714" 
d="M356 -9q-124 0 -195 68t-71 188v453h87v-451q0 -84 46 -131t133 -47q88 0 134 47t46 131v451h88v-453q0 -120 -71 -188t-197 -68z" />
    <glyph glyph-name="V" unicode="V" horiz-adv-x="664" 
d="M376 0h-89l-257 690v10h91l210 -583h4l207 583h92v-10z" />
    <glyph glyph-name="W" unicode="W" horiz-adv-x="906" 
d="M289 0h-87l-172 690v10h85l134 -564h4l154 564h90l156 -564h4l133 564h86v-10l-174 -690h-88l-159 559h-4z" />
    <glyph glyph-name="X" unicode="X" horiz-adv-x="631" 
d="M117 0h-97v10l239 340v4l-232 336v10h97l189 -285h4l189 285h97v-10l-232 -336v-4l239 -340v-10h-97l-196 280h-4z" />
    <glyph glyph-name="Y" unicode="Y" horiz-adv-x="649" 
d="M369 0h-88v292l-251 398v10h98l196 -324h4l195 324h96v-10l-250 -398v-292z" />
    <glyph glyph-name="Z" unicode="Z" horiz-adv-x="597" 
d="M557 0h-517v77l402 538v4h-393v81h502v-79l-401 -537v-4h407v-80z" />
    <glyph glyph-name="bracketleft" unicode="[" horiz-adv-x="345" 
d="M255 -158h-205v908h202v-64h-128v-781h131v-63z" />
    <glyph glyph-name="backslash" unicode="\" horiz-adv-x="388" 
d="M373 -133h-76l-282 860v10h77l281 -860v-10z" />
    <glyph glyph-name="bracketright" unicode="]" horiz-adv-x="345" 
d="M295 -158h-205v63h131v781h-128v64h202v-908z" />
    <glyph glyph-name="asciicircum" unicode="^" horiz-adv-x="588" 
d="M136 310h-86v10l199 380h90l199 -380v-10h-86l-156 311h-4z" />
    <glyph glyph-name="underscore" unicode="_" horiz-adv-x="591" 
d="M531 -98h-471v71h471v-71z" />
    <glyph glyph-name="grave" unicode="`" horiz-adv-x="261" 
d="M226 583h-75l-116 136v10h115l76 -136v-10z" />
    <glyph glyph-name="a" unicode="a" horiz-adv-x="549" 
d="M228 -9q-80 0 -130 45q-48 45 -48 113q0 72 54 116t157 44q61 0 126 -18v51q0 48 -30.5 77t-87.5 29q-53 0 -82.5 -25.5t-30.5 -65.5h-81q0 73 54 118q55 45 140 45q94 0 147 -50t53 -126v-344h-71l-6 72h-4q-48 -81 -160 -81zM243 61q64 0 104 40t40 97v26
q-59 18 -126 18q-126 0 -126 -92q0 -41 28 -65t80 -24z" />
    <glyph glyph-name="b" unicode="b" horiz-adv-x="599" 
d="M332 -9q-106 0 -154 80h-4l-11 -71h-73v740h84v-300h4q48 80 154 80q105 0 160 -73q56 -74 57 -191q-1 -124 -58.5 -194.5t-158.5 -70.5zM318 66q73 0 109.5 51.5t36.5 138.5t-37 138t-109 51q-70 0 -108 -52t-38 -137t38 -137.5t108 -52.5z" />
    <glyph glyph-name="c" unicode="c" horiz-adv-x="543" 
d="M282 -9q-112 0 -172 70t-60 194t60 194.5t171 70.5q96 0 150 -50t60 -134h-84q-4 51 -37.5 80t-88.5 29q-73 0 -109.5 -51t-36.5 -139q0 -89 36.5 -139.5t109.5 -50.5q57 0 90 28t38 79h84q-8 -86 -62 -133.5t-149 -47.5z" />
    <glyph glyph-name="d" unicode="d" 
d="M267 -9q-101 0 -158.5 70.5t-58.5 194.5q1 117 57 191q55 73 160 73q106 0 154 -80h4v300h84v-740h-73l-11 71h-4q-48 -80 -154 -80zM281 66q70 0 108 52.5t38 137.5t-38 137t-108 52q-72 0 -109 -51t-37 -138t36.5 -138.5t109.5 -51.5z" />
    <glyph glyph-name="e" unicode="e" horiz-adv-x="552" 
d="M282 -9q-110 0 -171 73t-61 191q0 117 59 191t172 74q105 0 163 -70q58 -68 58 -179v-41h-364q0 -76 37.5 -120t106.5 -44q51 0 85 21.5t44 60.5h84q-11 -71 -70 -114t-143 -43zM139 300h276q0 65 -35 105t-99 40q-66 0 -103 -39.5t-39 -105.5z" />
    <glyph glyph-name="f" unicode="f" horiz-adv-x="370" 
d="M206 0h-84v441h-91v70h91v89q0 67 40.5 108.5t108.5 41.5q35 0 64 -7v-70q-28 5 -50 5q-38 0 -58.5 -20.5t-20.5 -57.5v-89h124v-70h-124v-441z" />
    <glyph glyph-name="g" unicode="g" 
d="M283 -238q-97 0 -156 49q-61 50 -62 124h81q3 -44 38.5 -72.5t98.5 -28.5q68 0 105 38t37 100v99h-4q-48 -80 -154 -80q-105 0 -160 73q-56 74 -57 191q1 124 58.5 194.5t158.5 70.5q106 0 154 -80h4l11 71h73v-541q0 -90 -60 -149q-61 -59 -166 -59zM281 66q70 0 108 52
t38 137t-38 137.5t-108 52.5q-73 0 -109.5 -51.5t-36.5 -138.5t37 -138t109 -51z" />
    <glyph glyph-name="h" unicode="h" horiz-adv-x="595" 
d="M174 0h-84v740h84v-309h4q47 89 156 89q85 0 133 -50t48 -138v-332h-84v319q0 126 -120 126q-63 0 -100 -44t-37 -121v-280z" />
    <glyph glyph-name="i" unicode="i" horiz-adv-x="254" 
d="M132 609q-58 0 -58 59q0 58 58 58q28 0 43 -15.5t15 -42.5t-15.5 -43t-42.5 -16zM174 0h-84v511h84v-511z" />
    <glyph glyph-name="j" unicode="j" horiz-adv-x="268" 
d="M146 609q-58 0 -58 59q0 58 58 58q28 0 43 -15.5t15 -42.5t-15.5 -43t-42.5 -16zM40 -238q-19 0 -40 6v71q20 -3 38 -3q66 0 66 73v602h84v-601q0 -148 -148 -148z" />
    <glyph glyph-name="k" unicode="k" horiz-adv-x="515" 
d="M90 0v740h84v-740h-84zM489 501l-207 -214l213 -277v-10h-97l-224 287l216 224h99v-10z" />
    <glyph glyph-name="l" unicode="l" horiz-adv-x="254" 
d="M174 0h-84v740h84v-740z" />
    <glyph glyph-name="m" unicode="m" horiz-adv-x="906" 
d="M650 520q83 0 129.5 -50t46.5 -138v-332h-84v319q0 126 -113 126q-60 0 -94 -43t-34 -120v-282h-84v319q0 126 -113 126q-60 0 -95 -43t-35 -120v-282h-84v511h73l7 -80h4q47 89 153 89q110 0 154 -89h4q47 89 165 89z" />
    <glyph glyph-name="n" unicode="n" horiz-adv-x="591" 
d="M174 0h-84v511h73l7 -80h4q47 89 158 89q84 0 131.5 -50t47.5 -138v-332h-84v319q0 126 -118 126q-64 0 -99.5 -43t-35.5 -120v-282z" />
    <glyph glyph-name="o" unicode="o" horiz-adv-x="562" 
d="M281 -9q-115 0 -173 73t-58 191q0 117 59 191t172 74t172 -74t59 -191t-59 -191q-58 -73 -172 -73zM281 66q73 0 109.5 49.5t36.5 139.5t-36.5 140t-109.5 50q-72 0 -109 -50.5t-37 -139.5t36.5 -139t109.5 -50z" />
    <glyph glyph-name="p" unicode="p" horiz-adv-x="599" 
d="M174 -229h-84v740h73l11 -71h4q48 80 154 80q101 0 158.5 -70.5t58.5 -194.5q-1 -117 -57 -191q-55 -73 -160 -73q-106 0 -154 80h-4v-300zM318 66q72 0 109 51t37 138t-36.5 138.5t-109.5 51.5q-70 0 -108 -52.5t-38 -137.5t38 -137t108 -52z" />
    <glyph glyph-name="q" unicode="q" 
d="M509 -229h-84v300h-4q-48 -80 -154 -80q-105 0 -160 73q-56 74 -57 191q1 124 58.5 194.5t158.5 70.5q106 0 154 -80h4l11 71h73v-740zM281 66q70 0 108 52t38 137t-38 137.5t-108 52.5q-73 0 -109.5 -51.5t-36.5 -138.5t37 -138t109 -51z" />
    <glyph glyph-name="r" unicode="r" horiz-adv-x="390" 
d="M174 0h-84v511h73l7 -86h4q16 43 52 67.5t83 24.5h46v-81h-40q-141 0 -141 -188v-248z" />
    <glyph glyph-name="s" unicode="s" horiz-adv-x="511" 
d="M259 -9q-93 0 -150 47.5t-59 130.5h84q0 -49 33.5 -76t91.5 -27q117 0 117 73q0 57 -78 73l-102 19q-63 13 -96.5 50t-33.5 93q0 64 51.5 105t134.5 41q88 0 142.5 -45.5t54.5 -119.5h-82q-2 46 -32.5 70t-82.5 24q-49 0 -77 -19.5t-28 -55.5q0 -58 89 -72l80 -15
q76 -18 110.5 -51.5t34.5 -96.5q0 -68 -58 -108t-144 -40z" />
    <glyph glyph-name="t" unicode="t" horiz-adv-x="381" 
d="M260 -9q-71 0 -103 34t-32 103v312h-85v71h87v109l72 28h10v-137h125v-71h-125v-305q0 -37 16 -53.5t51 -16.5q28 0 50 6h10v-72q-34 -8 -76 -8z" />
    <glyph glyph-name="u" unicode="u" horiz-adv-x="578" 
d="M414 200v311h84v-325q0 -87 -58 -141q-59 -53 -151 -53t-151 53q-58 54 -58 141v325h84v-311q0 -133 125 -133t125 133z" />
    <glyph glyph-name="v" unicode="v" horiz-adv-x="526" 
d="M308 0h-87l-201 501v10h87l157 -413h4l151 413h87v-10z" />
    <glyph glyph-name="w" unicode="w" horiz-adv-x="750" 
d="M252 0h-87l-145 501v10h87l102 -397h4l120 397h86l120 -397h4l102 397h85v-10l-144 -501h-87l-120 397h-4z" />
    <glyph glyph-name="x" unicode="x" horiz-adv-x="483" 
d="M99 0h-89v10l179 247l-173 244v10h90l135 -197h4l134 197h91v-10l-174 -242l177 -249v-10h-88l-140 202h-4z" />
    <glyph glyph-name="y" unicode="y" horiz-adv-x="527" 
d="M224 -229h-85v10l87 223l-1 2l-205 495v10h90l155 -401h4l150 401h88v-10z" />
    <glyph glyph-name="z" unicode="z" horiz-adv-x="502" 
d="M447 0h-392v69l291 367v4h-290v71h389v-70l-290 -366v-4h292v-71z" />
    <glyph glyph-name="braceleft" unicode="{" horiz-adv-x="430" 
d="M127 298v-4q90 -12 90 -112v-170q0 -57 22 -81t78 -24h23v-65h-27q-90 0 -130 40t-40 127v157q0 86 -93 90v80q93 4 93 90v157q0 87 40 127t130 40h27v-65h-23q-56 0 -78 -24t-22 -81v-170q0 -100 -90 -112z" />
    <glyph glyph-name="bar" unicode="|" horiz-adv-x="274" 
d="M174 -138h-74v898h74v-898z" />
    <glyph glyph-name="braceright" unicode="}" horiz-adv-x="430" 
d="M287 583v-157q0 -86 93 -90v-80q-93 -4 -93 -90v-157q0 -87 -40 -127t-130 -40h-27v65h23q56 0 78 24t22 81v170q0 100 90 112v4q-90 12 -90 112v170q0 57 -22 81t-78 24h-23v65h27q90 0 130 -40t40 -127z" />
    <glyph glyph-name="asciitilde" unicode="~" horiz-adv-x="573" 
d="M385 217q-47 0 -97 27l-46 25q-28 15 -54 15q-54 0 -86 -57l-57 41q48 95 143 95q47 0 94 -26l46 -25q28 -16 57 -16q55 0 86 57l57 -41q-48 -95 -143 -95z" />
    <glyph glyph-name="uni00A0" unicode="&#xa0;" horiz-adv-x="300" 
 />
    <glyph glyph-name="exclamdown" unicode="&#xa1;" horiz-adv-x="278" 
d="M80 459q0 28 15 44.5t44 16.5q28 0 43.5 -16.5t15.5 -44.5q0 -27 -16 -43.5t-43 -16.5t-43 16.5t-16 43.5zM187 -189h-94v96l21 382h47l26 -382v-96z" />
    <glyph glyph-name="cent" unicode="&#xa2;" horiz-adv-x="543" 
d="M409 262h84q-7 -77 -52 -124t-125 -55v-83h-68v83q-96 10 -147 78.5t-51 183.5q0 113 51.5 183t146.5 80v92h68v-92q80 -9 125 -57.5t50 -124.5h-84q-6 87 -91 106v-374q84 16 93 104zM135 345q0 -78 28.5 -127t84.5 -60v374q-56 -11 -84.5 -60.5t-28.5 -126.5z" />
    <glyph glyph-name="sterling" unicode="&#xa3;" horiz-adv-x="601" 
d="M561 0h-520v81q79 1 79 80v151h-80v73h80v130q0 80 59 139q58 58 157 58q96 0 155 -60q59 -61 59 -140h-85q0 53 -35.5 89t-95.5 36q-61 0 -95.5 -33.5t-34.5 -88.5v-130h249v-73h-249v-155q0 -57 -33 -75v-4h390v-78z" />
    <glyph glyph-name="currency" unicode="&#xa4;" horiz-adv-x="594" 
d="M182 62l-73 -76l-59 59l73 76q-35 55 -35 118q0 66 37 121l-75 77l60 59l75 -78q55 35 116 35t111 -31l72 74l60 -59l-70 -73q41 -58 41 -125q0 -71 -40 -123l69 -71l-59 -59l-70 72q-53 -33 -114 -33q-64 0 -119 37zM161 239q0 -62 40 -102t100 -40q59 0 98 40
q40 40 40 102t-39 101.5t-99 39.5t-100 -40t-40 -101z" />
    <glyph glyph-name="yen" unicode="&#xa5;" horiz-adv-x="649" 
d="M523 700h96v-10l-199 -317h132v-81h-183v-89h183v-81h-183v-122h-88v122h-184v81h184v89h-184v81h133l-200 317v10h98l196 -324h4z" />
    <glyph glyph-name="brokenbar" unicode="&#xa6;" horiz-adv-x="274" 
d="M174 402h-74v358h74v-358zM174 -138h-74v358h74v-358z" />
    <glyph glyph-name="section" unicode="&#xa7;" horiz-adv-x="545" 
d="M268 -245q-82 0 -135 50q-53 49 -54 129h83q2 -50 30.5 -78.5t75.5 -28.5q48 0 73.5 23t25.5 65q0 46 -42 82l-210 171q-65 54 -65 135q0 87 86 135q-41 47 -41 109q0 72 50.5 117t131.5 45q82 0 135 -50q52 -49 54 -129h-83q-2 50 -30.5 78.5t-75.5 28.5
q-46 0 -72.5 -23.5t-26.5 -64.5q0 -47 42 -82l189 -153q86 -69 86 -153q0 -40 -24 -76t-62 -59q41 -47 41 -109q0 -75 -49 -118.5t-133 -43.5zM168 230l192 -158q24 13 38.5 34.5t14.5 45.5q0 52 -45 90l-183 150q-53 -29 -53 -86q0 -46 36 -76z" />
    <glyph glyph-name="dieresis" unicode="&#xa8;" horiz-adv-x="385" 
d="M105 609q-58 0 -58 59q0 58 58 58q28 0 43 -15.5t15 -42.5t-15.5 -43t-42.5 -16zM280 609q-58 0 -58 59q0 58 58 58q28 0 43 -15.5t15 -42.5t-15.5 -43t-42.5 -16z" />
    <glyph glyph-name="copyright" unicode="&#xa9;" horiz-adv-x="820" 
d="M760 350q-1 -153 -99 -257q-97 -102 -251 -102t-251 102q-98 104 -99 257q1 154 99 256q97 103 251 103t251 -103q98 -102 99 -256zM693 350q-2 133 -77 213q-76 82 -206 82t-206 -82q-75 -80 -77 -213q2 -133 77 -214q76 -81 206 -81t206 81q75 81 77 214zM412 203
q88 0 98 81h63q-5 -64 -46.5 -100.5t-113.5 -36.5q-84 0 -129.5 53t-45.5 147t45.5 147.5t128.5 53.5q73 0 114.5 -38t44.5 -101h-63q-3 38 -28 60t-68 22q-55 0 -82.5 -38.5t-27.5 -105.5t27.5 -105.5t82.5 -38.5z" />
    <glyph glyph-name="ordfeminine" unicode="&#xaa;" horiz-adv-x="385" 
d="M172 296q-53 0 -87.5 31t-34.5 77q0 47 38 78t106 31q37 0 80 -12v26q0 67 -75 67q-35 0 -54 -15t-19 -42h-59q0 49 37.5 80.5t94.5 31.5q62 0 99 -34t37 -86v-227h-54l-4 44h-3q-32 -50 -102 -50zM182 350q41 0 66.5 23.5t25.5 60.5v16q-42 12 -80 12q-80 0 -80 -58
q0 -54 68 -54z" />
    <glyph glyph-name="guillemotleft" unicode="&#xab;" horiz-adv-x="572" 
d="M282 66h-76l-166 212v10l166 212h76v-10l-140 -207l140 -207v-10zM512 66h-76l-166 212v10l166 212h76v-10l-140 -207l140 -207v-10z" />
    <glyph glyph-name="uni00AD" unicode="&#xad;" horiz-adv-x="466" 
d="M386 254h-306v78h306v-78z" />
    <glyph glyph-name="registered" unicode="&#xae;" horiz-adv-x="474" 
d="M382 356q-57 -58 -145 -58t-145 58t-57 148t57 148t145 58t145 -58t57 -148t-57 -148zM125 386q42 -43 112 -43t112 43q42 44 42 118t-42 118q-42 43 -112 43t-112 -43q-42 -44 -42 -118t42 -118zM206 397h-44v208h86q33 0 53.5 -18t20.5 -46q0 -47 -39 -64l49 -74v-6
h-44l-47 74h-35v-74zM206 566v-56h41q30 0 30 28t-30 28h-41z" />
    <glyph glyph-name="overscore" unicode="&#xaf;" horiz-adv-x="343" 
d="M308 617h-273v81h273v-81z" />
    <glyph glyph-name="degree" unicode="&#xb0;" horiz-adv-x="466" 
d="M357 417q-49 -49 -124 -49t-124 49t-49 123t49 123t124 49t124 -49t49 -123t-49 -123zM158 463q28 -31 75 -31t75 31t28 77t-28 77t-75 31t-75 -31t-28 -77t28 -77z" />
    <glyph glyph-name="plusminus" unicode="&#xb1;" horiz-adv-x="476" 
d="M280 210h-80v167h-195v72h195v167h80v-167h191v-72h-191v-167zM471 67h-466v72h466v-72z" />
    <glyph glyph-name="uni00B2" unicode="&#xb2;" horiz-adv-x="403" 
d="M353 253h-302v63l154 153q38 38 51.5 61t13.5 51q0 26 -19 44t-52 18q-35 0 -54.5 -19.5t-19.5 -48.5h-75q0 56 41 97t108 40q71 0 108 -39q39 -39 39 -90q0 -39 -18.5 -73t-64.5 -78l-110 -106v-3h200v-70z" />
    <glyph glyph-name="uni00B3" unicode="&#xb3;" horiz-adv-x="416" 
d="M208 247q-72 0 -115 39.5t-43 101.5h71q1 -32 24.5 -52t62.5 -20q81 0 81 72q0 31 -21.5 48.5t-62.5 17.5h-52v68h51q74 0 74 65q0 25 -19.5 41t-52.5 16q-73 0 -78 -69h-72q2 63 41.5 100t110.5 37q66 1 106.5 -34t40.5 -91q0 -31 -15.5 -56t-38.5 -37v-4
q30 -11 47.5 -38t17.5 -63q0 -64 -43 -103t-115 -39z" />
    <glyph glyph-name="acute" unicode="&#xb4;" horiz-adv-x="261" 
d="M110 583h-75v10l76 136h115v-10z" />
    <glyph glyph-name="paragraph" unicode="&#xb6;" horiz-adv-x="647" 
d="M293 -104h-75v457q-78 0 -133 55t-55 134q0 78 55 133t133 55h329v-69h-69v-765h-75v765h-110v-765z" />
    <glyph glyph-name="middot" unicode="&#xb7;" horiz-adv-x="238" 
d="M119 241q-29 0 -44 16.5t-15 44.5q0 27 16 43.5t43 16.5t43 -16.5t16 -43.5q0 -28 -15.5 -44.5t-43.5 -16.5z" />
    <glyph glyph-name="cedilla" unicode="&#xb8;" horiz-adv-x="300" 
d="M148 -218q-50 0 -81.5 24t-31.5 67h60q0 -34 52 -34q21 0 34 9t13 24q0 14 -12 23t-32 9h-32l-25 31l40 79h71l-36 -60q43 0 70 -22.5t27 -59.5q0 -41 -30 -65.5t-87 -24.5z" />
    <glyph glyph-name="uni00B9" unicode="&#xb9;" horiz-adv-x="288" 
d="M238 248h-75v365h-4l-99 -76h-10v76l113 87h75v-452z" />
    <glyph glyph-name="ordmasculine" unicode="&#xba;" horiz-adv-x="414" 
d="M207 296q-74 0 -115.5 48.5t-41.5 127.5t42 128t115 49q74 0 115.5 -49t41.5 -128q0 -80 -41 -128t-116 -48zM295 472q0 117 -88 117t-88 -117q0 -116 88 -116t88 116z" />
    <glyph glyph-name="guillemotright" unicode="&#xbb;" horiz-adv-x="572" 
d="M302 278l-166 -212h-76v10l140 207l-140 207v10h76l166 -212v-10zM532 278l-166 -212h-76v10l140 207l-140 207v10h76l166 -212v-10z" />
    <glyph glyph-name="onequarter" unicode="&#xbc;" horiz-adv-x="891" 
d="M238 248h-75v365h-4l-99 -76h-10v76l113 87h75v-452zM254 0h-79v10l434 690h77v-10zM780 0h-74v95h-206v77l184 280h96v-287h61v-70h-61v-95zM575 169v-4h131v201h-4z" />
    <glyph glyph-name="onehalf" unicode="&#xbd;" horiz-adv-x="922" 
d="M238 248h-75v365h-4l-99 -76h-10v76l113 87h75v-452zM254 0h-79v10l434 690h77v-10zM872 0h-302v63l154 153q38 38 51.5 61t13.5 51q0 26 -19 44t-52 18q-35 0 -54.5 -19.5t-19.5 -48.5h-75q0 55 41 96t108 41q70 0 108 -39q39 -39 39 -90q0 -39 -18.5 -73t-64.5 -78
l-110 -106v-3h200v-70z" />
    <glyph glyph-name="threequarters" unicode="&#xbe;" horiz-adv-x="981" 
d="M208 247q-72 0 -115 39.5t-43 101.5h71q1 -32 24.5 -52t62.5 -20q81 0 81 72q0 31 -21.5 48.5t-62.5 17.5h-52v68h51q74 0 74 65q0 25 -19.5 41t-52.5 16q-73 0 -78 -69h-72q2 63 41.5 100t110.5 37q66 1 106.5 -34t40.5 -91q0 -31 -15.5 -56t-38.5 -37v-4
q30 -11 47.5 -38t17.5 -63q0 -64 -43 -103t-115 -39zM344 0h-79v10l434 690h77v-10zM870 0h-74v95h-206v77l184 280h96v-287h61v-70h-61v-95zM665 169v-4h131v201h-4z" />
    <glyph glyph-name="questiondown" unicode="&#xbf;" horiz-adv-x="543" 
d="M223 459q0 28 15.5 44.5t43.5 16.5q29 0 44 -16.5t15 -44.5q0 -27 -16 -43.5t-43 -16.5t-43 16.5t-16 43.5zM269 -199q-94 0 -151.5 49.5t-57.5 131.5q0 95 76 153l42 33q35 27 50 48q14 20 14 57v16h80v-16q0 -60 -21 -91q-19 -31 -69 -70l-32 -25q-52 -40 -52 -103
q0 -49 31.5 -78.5t89.5 -29.5q64 0 96 33.5t32 93.5h86q0 -85 -56 -144q-55 -58 -158 -58z" />
    <glyph glyph-name="Agrave" unicode="&#xc0;" horiz-adv-x="682" 
d="M399 782v-10h-75l-116 136v10h115zM287 700h107l258 -690v-10h-93l-66 183h-306l-66 -183h-91v10zM338 603l-123 -342h250l-123 342h-4z" />
    <glyph glyph-name="Aacute" unicode="&#xc1;" horiz-adv-x="682" 
d="M478 918v-10l-116 -136h-75v10l76 136h115zM287 700h107l258 -690v-10h-93l-66 183h-306l-66 -183h-91v10zM338 603l-123 -342h250l-123 342h-4z" />
    <glyph glyph-name="Acircumflex" unicode="&#xc2;" horiz-adv-x="682" 
d="M345 854h-4l-72 -80h-83v10l102 132h111l102 -132v-10h-84zM287 700h107l258 -690v-10h-93l-66 183h-306l-66 -183h-91v10zM338 603l-123 -342h250l-123 342h-4z" />
    <glyph glyph-name="Atilde" unicode="&#xc3;" horiz-adv-x="682" 
d="M266 833q-16 0 -26.5 -11.5t-10.5 -31.5h-60v15q0 46 27 72t71 26q33 0 67 -22l14 -9q23 -14 40 -14q16 0 26.5 12t10.5 31h59v-15q0 -47 -26.5 -72.5t-70.5 -25.5q-32 0 -66 22l-14 9q-23 14 -41 14zM287 700h107l258 -690v-10h-93l-66 183h-306l-66 -183h-91v10z
M338 603l-123 -342h250l-123 342h-4z" />
    <glyph glyph-name="Adieresis" unicode="&#xc4;" horiz-adv-x="682" 
d="M256 798q-58 0 -58 59q0 58 58 58q28 0 43 -15.5t15 -42.5t-15.5 -43t-42.5 -16zM431 798q-58 0 -58 59q0 58 58 58q28 0 43 -15.5t15 -42.5t-15.5 -43t-42.5 -16zM287 700h107l258 -690v-10h-93l-66 183h-306l-66 -183h-91v10zM338 603l-123 -342h250l-123 342h-4z" />
    <glyph glyph-name="Aring" unicode="&#xc5;" horiz-adv-x="682" 
d="M340 761q-48 0 -79.5 30.5t-31.5 78.5t31.5 79t79.5 31q50 0 81 -30.5t31 -79.5q0 -48 -31.5 -78.5t-80.5 -30.5zM339 919q-29 2 -41 -23.5t0 -51t41 -22.5q30 -3 42.5 22.5t0 51t-42.5 23.5zM287 700h107l258 -690v-10h-93l-66 183h-306l-66 -183h-91v10zM338 603
l-123 -342h250l-123 342h-4z" />
    <glyph glyph-name="AE" unicode="&#xc6;" horiz-adv-x="910" 
d="M121 0h-91v10l257 690h563v-80h-426l82 -219h313v-80h-283l90 -242h224v-79h-291l-66 183h-306zM338 603l-123 -342h250l-123 342h-4z" />
    <glyph glyph-name="Ccedilla" unicode="&#xc7;" horiz-adv-x="709" 
d="M369 72q164 0 191 155h89q-14 -106 -78.5 -167t-173.5 -68l-23 -38q43 0 70 -22.5t27 -59.5q0 -41 -30 -65.5t-87 -24.5q-50 0 -81.5 24t-31.5 67h60q0 -34 52 -34q21 0 34 9t13 24q0 14 -12 23t-32 9h-32l-25 31l29 58q-128 13 -199 108q-69 96 -69 248q0 165 81 262
q81 98 228 98q123 0 196 -64.5t84 -178.5h-90q-9 77 -57 119t-133 42q-59 0 -102.5 -23t-68.5 -63t-36.5 -88t-11.5 -104t11.5 -103.5t36.5 -87.5t68.5 -63t102.5 -23z" />
    <glyph glyph-name="Egrave" unicode="&#xc8;" horiz-adv-x="610" 
d="M390 772h-75l-116 136v10h115l76 -136v-10zM550 0h-450v700h450v-80h-363v-219h332v-80h-332v-242h363v-79z" />
    <glyph glyph-name="Eacute" unicode="&#xc9;" horiz-adv-x="610" 
d="M353 772h-75v10l76 136h115v-10zM550 0h-450v700h450v-80h-363v-219h332v-80h-332v-242h363v-79z" />
    <glyph glyph-name="Ecircumflex" unicode="&#xca;" horiz-adv-x="610" 
d="M260 774h-83v10l102 132h111l102 -132v-10h-84l-72 80h-4zM550 0h-450v700h450v-80h-363v-219h332v-80h-332v-242h363v-79z" />
    <glyph glyph-name="Edieresis" unicode="&#xcb;" horiz-adv-x="610" 
d="M247 798q-58 0 -58 59q0 58 58 58q28 0 43 -15.5t15 -42.5t-15.5 -43t-42.5 -16zM422 798q-58 0 -58 59q0 58 58 58q28 0 43 -15.5t15 -42.5t-15.5 -43t-42.5 -16zM550 0h-450v700h450v-80h-363v-219h332v-80h-332v-242h363v-79z" />
    <glyph glyph-name="Igrave" unicode="&#xcc;" horiz-adv-x="288" 
d="M203 772h-75l-116 136v10h115l76 -136v-10zM188 0h-88v700h88v-700z" />
    <glyph glyph-name="Iacute" unicode="&#xcd;" horiz-adv-x="288" 
d="M166 772h-75v10l76 136h115v-10zM188 0h-88v700h88v-700z" />
    <glyph glyph-name="Icircumflex" unicode="&#xce;" horiz-adv-x="288" 
d="M73 774h-83v10l102 132h111l102 -132v-10h-84l-72 80h-4zM188 0h-88v700h88v-700z" />
    <glyph glyph-name="Idieresis" unicode="&#xcf;" horiz-adv-x="288" 
d="M60 798q-58 0 -58 59q0 58 58 58q28 0 43 -15.5t15 -42.5t-15.5 -43t-42.5 -16zM235 798q-58 0 -58 59q0 58 58 58q28 0 43 -15.5t15 -42.5t-15.5 -43t-42.5 -16zM188 0h-88v700h88v-700z" />
    <glyph glyph-name="Eth" unicode="&#xd0;" horiz-adv-x="755" 
d="M151 700h232q146 0 229 -95t83 -255q0 -154 -81 -252q-80 -98 -231 -98h-232v321h-71v81h71v298zM238 79h136q114 0 172 76q59 77 59 195q0 116 -59 193t-172 77h-136v-218h197v-81h-197v-242z" />
    <glyph glyph-name="Ntilde" unicode="&#xd1;" horiz-adv-x="743" 
d="M430 788q-32 0 -66 22l-14 9q-23 14 -41 14q-16 0 -26.5 -11.5t-10.5 -31.5h-60v15q0 46 27 72t71 26q33 0 67 -22l14 -9q23 -14 40 -14q16 0 26.5 12t10.5 31h59v-15q0 -47 -26.5 -72.5t-70.5 -25.5zM185 0h-85v700h95l358 -557h4v557h86v-700h-96l-358 554h-4v-554z
" />
    <glyph glyph-name="Ograve" unicode="&#xd2;" horiz-adv-x="740" 
d="M434 772h-75l-116 136v10h115l76 -136v-10zM370 709q154 0 232 -100q78 -99 78 -259q0 -159 -78 -259t-232 -100t-232 99q-78 101 -78 260t77 259q78 100 233 100zM370 627q-60 0 -104.5 -23t-68.5 -63t-35.5 -87.5t-11.5 -103.5q0 -119 52 -198t168 -79q115 0 167 79
q53 80 53 198t-53 198q-52 79 -167 79z" />
    <glyph glyph-name="Oacute" unicode="&#xd3;" horiz-adv-x="740" 
d="M397 772h-75v10l76 136h115v-10zM370 709q154 0 232 -100q78 -99 78 -259q0 -159 -78 -259t-232 -100t-232 99q-78 101 -78 260t77 259q78 100 233 100zM370 627q-60 0 -104.5 -23t-68.5 -63t-35.5 -87.5t-11.5 -103.5q0 -119 52 -198t168 -79q115 0 167 79q53 80 53 198
t-53 198q-52 79 -167 79z" />
    <glyph glyph-name="Ocircumflex" unicode="&#xd4;" horiz-adv-x="740" 
d="M304 774h-83v10l102 132h111l102 -132v-10h-84l-72 80h-4zM370 709q154 0 232 -100q78 -99 78 -259q0 -159 -78 -259t-232 -100t-232 99q-78 101 -78 260t77 259q78 100 233 100zM370 627q-60 0 -104.5 -23t-68.5 -63t-35.5 -87.5t-11.5 -103.5q0 -119 52 -198t168 -79
q115 0 167 79q53 80 53 198t-53 198q-52 79 -167 79z" />
    <glyph glyph-name="Otilde" unicode="&#xd5;" horiz-adv-x="740" 
d="M422 788q-32 0 -66 22l-14 9q-23 14 -41 14q-16 0 -26.5 -11.5t-10.5 -31.5h-60v15q0 46 27 72t71 26q33 0 67 -22l14 -9q23 -14 40 -14q16 0 26.5 12t10.5 31h59v-15q0 -47 -26.5 -72.5t-70.5 -25.5zM370 709q154 0 232 -100q78 -99 78 -259q0 -159 -78 -259t-232 -100
t-232 99q-78 101 -78 260t77 259q78 100 233 100zM370 627q-60 0 -104.5 -23t-68.5 -63t-35.5 -87.5t-11.5 -103.5q0 -119 52 -198t168 -79q115 0 167 79q53 80 53 198t-53 198q-52 79 -167 79z" />
    <glyph glyph-name="Odieresis" unicode="&#xd6;" horiz-adv-x="740" 
d="M291 798q-58 0 -58 59q0 58 58 58q28 0 43 -15.5t15 -42.5t-15.5 -43t-42.5 -16zM466 798q-58 0 -58 59q0 58 58 58q28 0 43 -15.5t15 -42.5t-15.5 -43t-42.5 -16zM370 709q154 0 232 -100q78 -99 78 -259q0 -159 -78 -259t-232 -100t-232 99q-78 101 -78 260t77 259
q78 100 233 100zM370 627q-60 0 -104.5 -23t-68.5 -63t-35.5 -87.5t-11.5 -103.5q0 -119 52 -198t168 -79q115 0 167 79q53 80 53 198t-53 198q-52 79 -167 79z" />
    <glyph glyph-name="multiply" unicode="&#xd7;" horiz-adv-x="411" 
d="M212 263l-150 -146l-54 54l149 145l-149 145l54 54l150 -146l150 146l54 -54l-149 -145l149 -145l-54 -54z" />
    <glyph glyph-name="Oslash" unicode="&#xd8;" horiz-adv-x="740" 
d="M613 738h79v-10l-89 -120q77 -97 77 -258q0 -159 -78 -259t-232 -100q-109 0 -184 54l-61 -83h-77v10l89 120q-77 95 -77 258q0 159 77 259q78 100 233 100q109 0 183 -53zM150 350q0 -112 42 -183l309 419q-53 41 -131 41q-60 0 -104.5 -23t-68.5 -63t-35.5 -87.5
t-11.5 -103.5zM590 350q0 112 -42 183l-310 -418q52 -42 132 -42q115 0 167 79q53 80 53 198z" />
    <glyph glyph-name="Ugrave" unicode="&#xd9;" horiz-adv-x="714" 
d="M411 772h-75l-116 136v10h115l76 -136v-10zM356 -9q-124 0 -195 68t-71 188v453h87v-451q0 -84 46 -131t133 -47q88 0 134 47t46 131v451h88v-453q0 -120 -71 -188t-197 -68z" />
    <glyph glyph-name="Uacute" unicode="&#xda;" horiz-adv-x="714" 
d="M374 772h-75v10l76 136h115v-10zM356 -9q-124 0 -195 68t-71 188v453h87v-451q0 -84 46 -131t133 -47q88 0 134 47t46 131v451h88v-453q0 -120 -71 -188t-197 -68z" />
    <glyph glyph-name="Ucircumflex" unicode="&#xdb;" horiz-adv-x="714" 
d="M281 774h-83v10l102 132h111l102 -132v-10h-84l-72 80h-4zM356 -9q-124 0 -195 68t-71 188v453h87v-451q0 -84 46 -131t133 -47q88 0 134 47t46 131v451h88v-453q0 -120 -71 -188t-197 -68z" />
    <glyph glyph-name="Udieresis" unicode="&#xdc;" horiz-adv-x="714" 
d="M268 798q-58 0 -58 59q0 58 58 58q28 0 43 -15.5t15 -42.5t-15.5 -43t-42.5 -16zM443 798q-58 0 -58 59q0 58 58 58q28 0 43 -15.5t15 -42.5t-15.5 -43t-42.5 -16zM356 -9q-124 0 -195 68t-71 188v453h87v-451q0 -84 46 -131t133 -47q88 0 134 47t46 131v451h88v-453
q0 -120 -71 -188t-197 -68z" />
    <glyph glyph-name="Yacute" unicode="&#xdd;" horiz-adv-x="649" 
d="M350 772h-75v10l76 136h115v-10zM369 0h-88v292l-251 398v10h98l196 -324h4l195 324h96v-10l-250 -398v-292z" />
    <glyph glyph-name="Thorn" unicode="&#xde;" horiz-adv-x="600" 
d="M188 0h-88v700h88v-100h170q107 0 168 -61q63 -62 63 -160q0 -101 -63 -163q-64 -62 -168 -62h-170v-154zM188 521v-287h159q73 0 112.5 37.5t39.5 107.5q0 67 -40.5 104.5t-111.5 37.5h-159z" />
    <glyph glyph-name="germandbls" unicode="&#xdf;" horiz-adv-x="635" 
d="M410 -9q-84 0 -135 47.5t-53 130.5h84q0 -50 27.5 -76.5t76.5 -26.5q42 0 66 19t24 54q0 50 -68 73l-64 22q-70 24 -100 53.5t-30 80.5q0 39 18.5 66t45.5 41t54 26.5t45.5 31.5t18.5 47q0 43 -31.5 69t-89.5 26q-125 0 -125 -135v-540h-84v550q0 86 55 142q55 58 154 58
q98 0 152 -51t54 -119q0 -85 -66 -121q-13 -6 -40 -18t-41 -19t-26.5 -20.5t-12.5 -29.5q0 -27 26 -43q18 -11 63 -27l43 -15q70 -24 102 -59t32 -89q0 -68 -52 -108t-123 -40z" />
    <glyph glyph-name="agrave" unicode="&#xe0;" horiz-adv-x="549" 
d="M330 583h-75l-116 136v10h115l76 -136v-10zM228 -9q-80 0 -130 45q-48 45 -48 113q0 72 54 116t157 44q61 0 126 -18v51q0 48 -30.5 77t-87.5 29q-53 0 -82.5 -25.5t-30.5 -65.5h-81q0 73 54 118q55 45 140 45q94 0 147 -50t53 -126v-344h-71l-6 72h-4q-48 -81 -160 -81z
M243 61q64 0 104 40t40 97v26q-59 18 -126 18q-126 0 -126 -92q0 -41 28 -65t80 -24z" />
    <glyph glyph-name="aacute" unicode="&#xe1;" horiz-adv-x="549" 
d="M293 583h-75v10l76 136h115v-10zM228 -9q-80 0 -130 45q-48 45 -48 113q0 72 54 116t157 44q61 0 126 -18v51q0 48 -30.5 77t-87.5 29q-53 0 -82.5 -25.5t-30.5 -65.5h-81q0 73 54 118q55 45 140 45q94 0 147 -50t53 -126v-344h-71l-6 72h-4q-48 -81 -160 -81zM243 61
q64 0 104 40t40 97v26q-59 18 -126 18q-126 0 -126 -92q0 -41 28 -65t80 -24z" />
    <glyph glyph-name="acircumflex" unicode="&#xe2;" horiz-adv-x="549" 
d="M200 585h-83v10l102 132h111l102 -132v-10h-84l-72 80h-4zM228 -9q-80 0 -130 45q-48 45 -48 113q0 72 54 116t157 44q61 0 126 -18v51q0 48 -30.5 77t-87.5 29q-53 0 -82.5 -25.5t-30.5 -65.5h-81q0 73 54 118q55 45 140 45q94 0 147 -50t53 -126v-344h-71l-6 72h-4
q-48 -81 -160 -81zM243 61q64 0 104 40t40 97v26q-59 18 -126 18q-126 0 -126 -92q0 -41 28 -65t80 -24z" />
    <glyph glyph-name="atilde" unicode="&#xe3;" horiz-adv-x="549" 
d="M318 599q-32 0 -66 22l-14 9q-23 14 -41 14q-16 0 -26.5 -11.5t-10.5 -31.5h-60v15q0 46 27 72t71 26q33 0 67 -22l14 -9q23 -14 40 -14q16 0 26.5 12t10.5 31h59v-15q0 -47 -26.5 -72.5t-70.5 -25.5zM228 -9q-80 0 -130 45q-48 45 -48 113q0 72 54 116t157 44
q61 0 126 -18v51q0 48 -30.5 77t-87.5 29q-53 0 -82.5 -25.5t-30.5 -65.5h-81q0 73 54 118q55 45 140 45q94 0 147 -50t53 -126v-344h-71l-6 72h-4q-48 -81 -160 -81zM243 61q64 0 104 40t40 97v26q-59 18 -126 18q-126 0 -126 -92q0 -41 28 -65t80 -24z" />
    <glyph glyph-name="adieresis" unicode="&#xe4;" horiz-adv-x="549" 
d="M187 609q-58 0 -58 59q0 58 58 58q28 0 43 -15.5t15 -42.5t-15.5 -43t-42.5 -16zM362 609q-58 0 -58 59q0 58 58 58q28 0 43 -15.5t15 -42.5t-15.5 -43t-42.5 -16zM228 -9q-80 0 -130 45q-48 45 -48 113q0 72 54 116t157 44q61 0 126 -18v51q0 48 -30.5 77t-87.5 29
q-53 0 -82.5 -25.5t-30.5 -65.5h-81q0 73 54 118q55 45 140 45q94 0 147 -50t53 -126v-344h-71l-6 72h-4q-48 -81 -160 -81zM243 61q64 0 104 40t40 97v26q-59 18 -126 18q-126 0 -126 -92q0 -41 28 -65t80 -24z" />
    <glyph glyph-name="aring" unicode="&#xe5;" horiz-adv-x="549" 
d="M271 572q-48 0 -79.5 30.5t-31.5 78.5t31.5 79t79.5 31q50 0 81 -30.5t31 -79.5q0 -48 -31.5 -78.5t-80.5 -30.5zM270 633q30 -3 42.5 22.5t0 51t-42.5 23.5q-29 2 -41 -23.5t0 -51t41 -22.5zM228 -9q-80 0 -130 45q-48 45 -48 113q0 72 54 116t157 44q61 0 126 -18v51
q0 48 -30.5 77t-87.5 29q-53 0 -82.5 -25.5t-30.5 -65.5h-81q0 73 54 118q55 45 140 45q94 0 147 -50t53 -126v-344h-71l-6 72h-4q-48 -81 -160 -81zM243 61q64 0 104 40t40 97v26q-59 18 -126 18q-126 0 -126 -92q0 -41 28 -65t80 -24z" />
    <glyph glyph-name="ae" unicode="&#xe6;" horiz-adv-x="882" 
d="M228 -9q-80 0 -130 45q-48 45 -48 113q0 72 54 116t157 44q61 0 126 -18v51q0 48 -30.5 77t-87.5 29q-53 0 -82.5 -25.5t-30.5 -65.5h-81q0 73 54 118q55 45 140 45q115 0 169 -78h4q58 78 169 78q105 0 163 -70q58 -68 58 -179v-41h-364q0 -76 37.5 -120t106.5 -44
q51 0 85 21.5t44 60.5h84q-11 -71 -70 -114t-143 -43q-129 0 -186 104h-4q-23 -45 -73 -74.5t-121 -29.5zM469 300h276q0 65 -35 105t-99 40q-66 0 -103 -39.5t-39 -105.5zM243 61q64 0 104 40t40 97v26q-59 18 -126 18q-126 0 -126 -92q0 -41 28 -65t80 -24z" />
    <glyph glyph-name="ccedilla" unicode="&#xe7;" horiz-adv-x="543" 
d="M409 172h84q-7 -80 -55 -127t-133 -53l-23 -38q43 0 70 -22.5t27 -59.5q0 -41 -30 -65.5t-87 -24.5q-50 0 -81.5 24t-31.5 67h60q0 -34 52 -34q21 0 34 9t13 24q0 14 -12 23t-32 9h-32l-25 31l30 59q-90 14 -138.5 82t-48.5 179q0 124 60 194.5t171 70.5q96 0 150 -50
t60 -134h-84q-4 51 -37.5 80t-88.5 29q-73 0 -109.5 -51t-36.5 -139q0 -89 36.5 -139.5t109.5 -50.5q57 0 90 28t38 79z" />
    <glyph glyph-name="egrave" unicode="&#xe8;" horiz-adv-x="552" 
d="M340 583h-75l-116 136v10h115l76 -136v-10zM282 -9q-110 0 -171 73t-61 191q0 117 59 191t172 74q105 0 163 -70q58 -68 58 -179v-41h-364q0 -76 37.5 -120t106.5 -44q51 0 85 21.5t44 60.5h84q-11 -71 -70 -114t-143 -43zM139 300h276q0 65 -35 105t-99 40
q-66 0 -103 -39.5t-39 -105.5z" />
    <glyph glyph-name="eacute" unicode="&#xe9;" horiz-adv-x="552" 
d="M303 583h-75v10l76 136h115v-10zM282 -9q-110 0 -171 73t-61 191q0 117 59 191t172 74q105 0 163 -70q58 -68 58 -179v-41h-364q0 -76 37.5 -120t106.5 -44q51 0 85 21.5t44 60.5h84q-11 -71 -70 -114t-143 -43zM139 300h276q0 65 -35 105t-99 40q-66 0 -103 -39.5
t-39 -105.5z" />
    <glyph glyph-name="ecircumflex" unicode="&#xea;" horiz-adv-x="552" 
d="M210 585h-83v10l102 132h111l102 -132v-10h-84l-72 80h-4zM282 -9q-110 0 -171 73t-61 191q0 117 59 191t172 74q105 0 163 -70q58 -68 58 -179v-41h-364q0 -76 37.5 -120t106.5 -44q51 0 85 21.5t44 60.5h84q-11 -71 -70 -114t-143 -43zM139 300h276q0 65 -35 105
t-99 40q-66 0 -103 -39.5t-39 -105.5z" />
    <glyph glyph-name="edieresis" unicode="&#xeb;" horiz-adv-x="552" 
d="M197 609q-58 0 -58 59q0 58 58 58q28 0 43 -15.5t15 -42.5t-15.5 -43t-42.5 -16zM372 609q-58 0 -58 59q0 58 58 58q28 0 43 -15.5t15 -42.5t-15.5 -43t-42.5 -16zM282 -9q-110 0 -171 73t-61 191q0 117 59 191t172 74q105 0 163 -70q58 -68 58 -179v-41h-364
q0 -76 37.5 -120t106.5 -44q51 0 85 21.5t44 60.5h84q-11 -71 -70 -114t-143 -43zM139 300h276q0 65 -35 105t-99 40q-66 0 -103 -39.5t-39 -105.5z" />
    <glyph glyph-name="igrave" unicode="&#xec;" horiz-adv-x="254" 
d="M191 583h-75l-116 136v10h115l76 -136v-10zM174 0h-84v511h84v-511z" />
    <glyph glyph-name="iacute" unicode="&#xed;" horiz-adv-x="254" 
d="M154 583h-75v10l76 136h115v-10zM174 0h-84v511h84v-511z" />
    <glyph glyph-name="icircumflex" unicode="&#xee;" horiz-adv-x="254" 
d="M61 585h-83v10l102 132h111l102 -132v-10h-84l-72 80h-4zM174 0h-84v511h84v-511z" />
    <glyph glyph-name="idieresis" unicode="&#xef;" horiz-adv-x="254" 
d="M48 609q-58 0 -58 59q0 58 58 58q28 0 43 -15.5t15 -42.5t-15.5 -43t-42.5 -16zM223 609q-58 0 -58 59q0 58 58 58q28 0 43 -15.5t15 -42.5t-15.5 -43t-42.5 -16zM174 0h-84v511h84v-511z" />
    <glyph glyph-name="eth" unicode="&#xf0;" horiz-adv-x="562" 
d="M512 256v-1q0 -117 -59 -191q-58 -73 -172 -73q-115 0 -173 73t-58 191q0 117 59 191t172 74q21 0 51 -5q-34 43 -78 84l-104 -61l-35 54l87 52q-63 49 -129 86v10h107q52 -30 87 -58l95 56l35 -55l-77 -45q157 -142 185 -310q7 -29 7 -72zM281 66q73 0 109.5 49.5
t36.5 139.5t-36.5 140t-109.5 50q-72 0 -109 -50.5t-37 -139.5t36.5 -139t109.5 -50z" />
    <glyph glyph-name="ntilde" unicode="&#xf1;" horiz-adv-x="591" 
d="M368 599q-32 0 -66 22l-14 9q-23 14 -41 14q-16 0 -26.5 -11.5t-10.5 -31.5h-60v15q0 46 27 72t71 26q33 0 67 -22l14 -9q23 -14 40 -14q16 0 26.5 12t10.5 31h59v-15q0 -47 -26.5 -72.5t-70.5 -25.5zM174 0h-84v511h73l7 -80h4q47 89 158 89q84 0 131.5 -50t47.5 -138
v-332h-84v319q0 126 -118 126q-64 0 -99.5 -43t-35.5 -120v-282z" />
    <glyph glyph-name="ograve" unicode="&#xf2;" horiz-adv-x="562" 
d="M340 583h-75l-116 136v10h115l76 -136v-10zM281 -9q-115 0 -173 73t-58 191q0 117 59 191t172 74t172 -74t59 -191t-59 -191q-58 -73 -172 -73zM281 66q73 0 109.5 49.5t36.5 139.5t-36.5 140t-109.5 50q-72 0 -109 -50.5t-37 -139.5t36.5 -139t109.5 -50z" />
    <glyph glyph-name="oacute" unicode="&#xf3;" horiz-adv-x="562" 
d="M303 583h-75v10l76 136h115v-10zM281 -9q-115 0 -173 73t-58 191q0 117 59 191t172 74t172 -74t59 -191t-59 -191q-58 -73 -172 -73zM281 66q73 0 109.5 49.5t36.5 139.5t-36.5 140t-109.5 50q-72 0 -109 -50.5t-37 -139.5t36.5 -139t109.5 -50z" />
    <glyph glyph-name="ocircumflex" unicode="&#xf4;" horiz-adv-x="562" 
d="M210 585h-83v10l102 132h111l102 -132v-10h-84l-72 80h-4zM281 -9q-115 0 -173 73t-58 191q0 117 59 191t172 74t172 -74t59 -191t-59 -191q-58 -73 -172 -73zM281 66q73 0 109.5 49.5t36.5 139.5t-36.5 140t-109.5 50q-72 0 -109 -50.5t-37 -139.5t36.5 -139t109.5 -50z
" />
    <glyph glyph-name="otilde" unicode="&#xf5;" horiz-adv-x="562" 
d="M328 599q-32 0 -66 22l-14 9q-23 14 -41 14q-16 0 -26.5 -11.5t-10.5 -31.5h-60v15q0 46 27 72t71 26q33 0 67 -22l14 -9q23 -14 40 -14q16 0 26.5 12t10.5 31h59v-15q0 -47 -26.5 -72.5t-70.5 -25.5zM281 -9q-115 0 -173 73t-58 191q0 117 59 191t172 74t172 -74
t59 -191t-59 -191q-58 -73 -172 -73zM281 66q73 0 109.5 49.5t36.5 139.5t-36.5 140t-109.5 50q-72 0 -109 -50.5t-37 -139.5t36.5 -139t109.5 -50z" />
    <glyph glyph-name="odieresis" unicode="&#xf6;" horiz-adv-x="562" 
d="M197 609q-58 0 -58 59q0 58 58 58q28 0 43 -15.5t15 -42.5t-15.5 -43t-42.5 -16zM372 609q-58 0 -58 59q0 58 58 58q28 0 43 -15.5t15 -42.5t-15.5 -43t-42.5 -16zM281 -9q-115 0 -173 73t-58 191q0 117 59 191t172 74t172 -74t59 -191t-59 -191q-58 -73 -172 -73z
M281 66q73 0 109.5 49.5t36.5 139.5t-36.5 140t-109.5 50q-72 0 -109 -50.5t-37 -139.5t36.5 -139t109.5 -50z" />
    <glyph glyph-name="divide" unicode="&#xf7;" horiz-adv-x="476" 
d="M238 418q-59 0 -59 60q0 28 15 43.5t44 15.5q28 0 43.5 -16t15.5 -43t-16 -43.5t-43 -16.5zM471 277h-466v72h466v-72zM238 89q-59 0 -59 60q0 28 15 43.5t44 15.5q28 0 43.5 -16t15.5 -43t-16 -43.5t-43 -16.5z" />
    <glyph glyph-name="oslash" unicode="&#xf8;" horiz-adv-x="562" 
d="M437 549h75v-10l-61 -91q61 -70 61 -193q0 -117 -59 -191q-58 -73 -172 -73q-69 0 -119 29l-39 -58h-73v10l60 90q-60 70 -60 193q0 117 59 191t172 74q69 0 118 -28zM135 255q0 -74 25 -120l195 292q-30 18 -74 18q-72 0 -109 -50.5t-37 -139.5zM427 255q0 75 -25 121
l-196 -291q31 -19 75 -19q73 0 109.5 49.5t36.5 139.5z" />
    <glyph glyph-name="ugrave" unicode="&#xf9;" horiz-adv-x="578" 
d="M351 593v-10h-75l-116 136v10h115zM414 200v311h84v-325q0 -87 -58 -141q-59 -53 -151 -53t-151 53q-58 54 -58 141v325h84v-311q0 -133 125 -133t125 133z" />
    <glyph glyph-name="uacute" unicode="&#xfa;" horiz-adv-x="578" 
d="M430 729v-10l-116 -136h-75v10l76 136h115zM414 200v311h84v-325q0 -87 -58 -141q-59 -53 -151 -53t-151 53q-58 54 -58 141v325h84v-311q0 -133 125 -133t125 133z" />
    <glyph glyph-name="ucircumflex" unicode="&#xfb;" horiz-adv-x="578" 
d="M297 665h-4l-72 -80h-83v10l102 132h111l102 -132v-10h-84zM414 200v311h84v-325q0 -87 -58 -141q-59 -53 -151 -53t-151 53q-58 54 -58 141v325h84v-311q0 -133 125 -133t125 133z" />
    <glyph glyph-name="udieresis" unicode="&#xfc;" horiz-adv-x="578" 
d="M208 609q-58 0 -58 59q0 58 58 58q28 0 43 -15.5t15 -42.5t-15.5 -43t-42.5 -16zM383 609q-58 0 -58 59q0 58 58 58q28 0 43 -15.5t15 -42.5t-15.5 -43t-42.5 -16zM414 200v311h84v-325q0 -87 -58 -141q-59 -53 -151 -53t-151 53q-58 54 -58 141v325h84v-311
q0 -133 125 -133t125 133z" />
    <glyph glyph-name="yacute" unicode="&#xfd;" horiz-adv-x="527" 
d="M291 583h-75v10l76 136h115v-10zM224 -229h-85v10l87 223l-1 2l-205 495v10h90l155 -401h4l150 401h88v-10z" />
    <glyph glyph-name="thorn" unicode="&#xfe;" horiz-adv-x="600" 
d="M332 520q101 0 158.5 -70.5t58.5 -194.5q-1 -117 -57 -191q-55 -73 -160 -73q-106 0 -154 80h-4v-300h-84v969h84v-300h4q48 80 154 80zM318 66q72 0 109 51t37 138t-36.5 138.5t-109.5 51.5q-70 0 -108 -52.5t-38 -137.5t38 -137t108 -52z" />
    <glyph glyph-name="ydieresis" unicode="&#xff;" horiz-adv-x="527" 
d="M185 609q-58 0 -58 59q0 58 58 58q28 0 43 -15.5t15 -42.5t-15.5 -43t-42.5 -16zM360 609q-58 0 -58 59q0 58 58 58q28 0 43 -15.5t15 -42.5t-15.5 -43t-42.5 -16zM224 -229h-85v10l87 223l-1 2l-205 495v10h90l155 -401h4l150 401h88v-10z" />
    <glyph glyph-name="Amacron" unicode="&#x100;" horiz-adv-x="682" 
d="M206 887h273v-81h-273v81zM287 700h107l258 -690v-10h-93l-66 183h-306l-66 -183h-91v10zM338 603l-123 -342h250l-123 342h-4z" />
    <glyph glyph-name="amacron" unicode="&#x101;" horiz-adv-x="549" 
d="M410 617h-273v81h273v-81zM228 -9q-80 0 -130 45q-48 45 -48 113q0 72 54 116t157 44q61 0 126 -18v51q0 48 -30.5 77t-87.5 29q-53 0 -82.5 -25.5t-30.5 -65.5h-81q0 73 54 118q55 45 140 45q94 0 147 -50t53 -126v-344h-71l-6 72h-4q-48 -81 -160 -81zM243 61
q64 0 104 40t40 97v26q-59 18 -126 18q-126 0 -126 -92q0 -41 28 -65t80 -24z" />
    <glyph glyph-name="Abreve" unicode="&#x102;" horiz-adv-x="682" 
d="M340 774q-68 0 -107 39t-39 103h73q5 -65 73 -65t73 65h73q0 -65 -38 -103.5t-108 -38.5zM287 700h107l258 -690v-10h-93l-66 183h-306l-66 -183h-91v10zM338 603l-123 -342h250l-123 342h-4z" />
    <glyph glyph-name="abreve" unicode="&#x103;" horiz-adv-x="549" 
d="M271 585q-68 0 -107 39t-39 103h73q5 -65 73 -65t73 65h73q0 -65 -38 -103.5t-108 -38.5zM228 -9q-80 0 -130 45q-48 45 -48 113q0 72 54 116t157 44q61 0 126 -18v51q0 48 -30.5 77t-87.5 29q-53 0 -82.5 -25.5t-30.5 -65.5h-81q0 73 54 118q55 45 140 45q94 0 147 -50
t53 -126v-344h-71l-6 72h-4q-48 -81 -160 -81zM243 61q64 0 104 40t40 97v26q-59 18 -126 18q-126 0 -126 -92q0 -41 28 -65t80 -24z" />
    <glyph glyph-name="Aogonek" unicode="&#x104;" horiz-adv-x="682" 
d="M652 10v-10q-85 -40 -85 -97q0 -23 15 -35t38 -12q17 0 32 4v-68q-22 -8 -50 -8q-49 0 -82 28t-33 73q0 71 72 115l-66 183h-306l-66 -183h-91v10l257 690h107zM338 603l-123 -342h250l-123 342h-4z" />
    <glyph glyph-name="aogonek" unicode="&#x105;" horiz-adv-x="549" 
d="M469 344v-344q-85 -40 -85 -97q0 -23 15 -35t38 -12q17 0 32 4v-68q-22 -8 -50 -8q-49 0 -82 28t-33 73q0 82 93 127l-5 60h-4q-48 -81 -160 -81q-80 0 -130 45q-48 45 -48 113q0 72 54 116t157 44q61 0 126 -18v51q0 48 -30.5 77t-87.5 29q-53 0 -82.5 -25.5
t-30.5 -65.5h-81q0 73 54 118q55 45 140 45q94 0 147 -50t53 -126zM387 198v26q-59 18 -126 18q-126 0 -126 -92q0 -41 28 -65t80 -24q64 0 104 40t40 97z" />
    <glyph glyph-name="Cacute" unicode="&#x106;" horiz-adv-x="709" 
d="M391 772h-75v10l76 136h115v-10zM369 -9q-148 0 -229 97q-80 98 -80 261q0 165 81 262q81 98 228 98q123 0 196 -64.5t84 -178.5h-90q-9 77 -57 119t-133 42q-59 0 -102.5 -23t-68.5 -63t-36.5 -88t-11.5 -104t11.5 -103.5t36.5 -87.5t68.5 -63t102.5 -23q164 0 191 155
h89q-15 -112 -87 -174t-193 -62z" />
    <glyph glyph-name="cacute" unicode="&#x107;" horiz-adv-x="543" 
d="M304 583h-75v10l76 136h115v-10zM282 -9q-112 0 -172 70t-60 194t60 194.5t171 70.5q96 0 150 -50t60 -134h-84q-4 51 -37.5 80t-88.5 29q-73 0 -109.5 -51t-36.5 -139q0 -89 36.5 -139.5t109.5 -50.5q57 0 90 28t38 79h84q-8 -86 -62 -133.5t-149 -47.5z" />
    <glyph glyph-name="Ccircumflex" unicode="&#x108;" horiz-adv-x="709" 
d="M298 774h-83v10l102 132h111l102 -132v-10h-84l-72 80h-4zM369 -9q-148 0 -229 97q-80 98 -80 261q0 165 81 262q81 98 228 98q123 0 196 -64.5t84 -178.5h-90q-9 77 -57 119t-133 42q-59 0 -102.5 -23t-68.5 -63t-36.5 -88t-11.5 -104t11.5 -103.5t36.5 -87.5t68.5 -63
t102.5 -23q164 0 191 155h89q-15 -112 -87 -174t-193 -62z" />
    <glyph glyph-name="ccircumflex" unicode="&#x109;" horiz-adv-x="543" 
d="M211 585h-83v10l102 132h111l102 -132v-10h-84l-72 80h-4zM282 -9q-112 0 -172 70t-60 194t60 194.5t171 70.5q96 0 150 -50t60 -134h-84q-4 51 -37.5 80t-88.5 29q-73 0 -109.5 -51t-36.5 -139q0 -89 36.5 -139.5t109.5 -50.5q57 0 90 28t38 79h84q-8 -86 -62 -133.5
t-149 -47.5z" />
    <glyph glyph-name="Cdotaccent" unicode="&#x10a;" horiz-adv-x="709" 
d="M369 798q-58 0 -58 59q0 58 58 58q28 0 43 -15.5t15 -42.5t-15.5 -43t-42.5 -16zM369 -9q-148 0 -229 97q-80 98 -80 261q0 165 81 262q81 98 228 98q123 0 196 -64.5t84 -178.5h-90q-9 77 -57 119t-133 42q-59 0 -102.5 -23t-68.5 -63t-36.5 -88t-11.5 -104t11.5 -103.5
t36.5 -87.5t68.5 -63t102.5 -23q164 0 191 155h89q-15 -112 -87 -174t-193 -62z" />
    <glyph glyph-name="cdotaccent" unicode="&#x10b;" horiz-adv-x="543" 
d="M282 609q-58 0 -58 59q0 58 58 58q28 0 43 -15.5t15 -42.5t-15.5 -43t-42.5 -16zM282 -9q-112 0 -172 70t-60 194t60 194.5t171 70.5q96 0 150 -50t60 -134h-84q-4 51 -37.5 80t-88.5 29q-73 0 -109.5 -51t-36.5 -139q0 -89 36.5 -139.5t109.5 -50.5q57 0 90 28t38 79h84
q-8 -86 -62 -133.5t-149 -47.5z" />
    <glyph glyph-name="Ccaron" unicode="&#x10c;" horiz-adv-x="709" 
d="M425 774h-111l-102 132v10h83l72 -80h4l72 80h84v-10zM369 -9q-148 0 -229 97q-80 98 -80 261q0 165 81 262q81 98 228 98q123 0 196 -64.5t84 -178.5h-90q-9 77 -57 119t-133 42q-59 0 -102.5 -23t-68.5 -63t-36.5 -88t-11.5 -104t11.5 -103.5t36.5 -87.5t68.5 -63
t102.5 -23q164 0 191 155h89q-15 -112 -87 -174t-193 -62z" />
    <glyph glyph-name="ccaron" unicode="&#x10d;" horiz-adv-x="543" 
d="M338 585h-111l-102 132v10h83l72 -80h4l72 80h84v-10zM282 -9q-112 0 -172 70t-60 194t60 194.5t171 70.5q96 0 150 -50t60 -134h-84q-4 51 -37.5 80t-88.5 29q-73 0 -109.5 -51t-36.5 -139q0 -89 36.5 -139.5t109.5 -50.5q57 0 90 28t38 79h84q-8 -86 -62 -133.5
t-149 -47.5z" />
    <glyph glyph-name="Dcaron" unicode="&#x10e;" horiz-adv-x="704" 
d="M367 774h-111l-102 132v10h83l72 -80h4l72 80h84v-10zM332 0h-232v700h232q146 0 229 -95t83 -255q0 -154 -81 -252q-80 -98 -231 -98zM187 620v-541h136q114 0 172 76q59 77 59 195q0 116 -59 193t-172 77h-136z" />
    <glyph glyph-name="dcaron" unicode="&#x10f;" 
d="M267 -9q-101 0 -158.5 70.5t-58.5 194.5q1 117 57 191q55 73 160 73q106 0 154 -80h4v300h84v-740h-73l-11 71h-4q-48 -80 -154 -80zM624 570h-59v170h94v-10zM281 66q70 0 108 52.5t38 137.5t-38 137t-108 52q-72 0 -109 -51t-37 -138t36.5 -138.5t109.5 -51.5z" />
    <glyph glyph-name="Dcroat" unicode="&#x110;" horiz-adv-x="755" 
d="M151 700h232q146 0 229 -95t83 -255q0 -154 -81 -252q-80 -98 -231 -98h-232v321h-71v81h71v298zM238 79h136q114 0 172 76q59 77 59 195q0 116 -59 193t-172 77h-136v-218h197v-81h-197v-242z" />
    <glyph glyph-name="dslash" unicode="&#x111;" 
d="M509 665h67v-65h-67v-600h-73l-11 71h-4q-48 -80 -154 -80q-101 0 -158.5 70.5t-58.5 194.5q1 117 57 191q55 73 160 73q106 0 154 -80h4v160h-113v65h113v75h84v-75zM281 66q70 0 108 52.5t38 137.5t-38 137t-108 52q-72 0 -109 -51t-37 -138t36.5 -138.5t109.5 -51.5z
" />
    <glyph glyph-name="Emacron" unicode="&#x112;" horiz-adv-x="610" 
d="M470 806h-273v81h273v-81zM550 0h-450v700h450v-80h-363v-219h332v-80h-332v-242h363v-79z" />
    <glyph glyph-name="emacron" unicode="&#x113;" horiz-adv-x="552" 
d="M420 617h-273v81h273v-81zM282 -9q-110 0 -171 73t-61 191q0 117 59 191t172 74q105 0 163 -70q58 -68 58 -179v-41h-364q0 -76 37.5 -120t106.5 -44q51 0 85 21.5t44 60.5h84q-11 -71 -70 -114t-143 -43zM139 300h276q0 65 -35 105t-99 40q-66 0 -103 -39.5t-39 -105.5z
" />
    <glyph glyph-name="Ebreve" unicode="&#x114;" horiz-adv-x="610" 
d="M331 774q-68 0 -107 39t-39 103h73q5 -65 73 -65t73 65h73q0 -65 -38 -103.5t-108 -38.5zM550 0h-450v700h450v-80h-363v-219h332v-80h-332v-242h363v-79z" />
    <glyph glyph-name="ebreve" unicode="&#x115;" horiz-adv-x="552" 
d="M281 585q-68 0 -107 39t-39 103h73q5 -65 73 -65t73 65h73q0 -65 -38 -103.5t-108 -38.5zM282 -9q-110 0 -171 73t-61 191q0 117 59 191t172 74q105 0 163 -70q58 -68 58 -179v-41h-364q0 -76 37.5 -120t106.5 -44q51 0 85 21.5t44 60.5h84q-11 -71 -70 -114t-143 -43z
M139 300h276q0 65 -35 105t-99 40q-66 0 -103 -39.5t-39 -105.5z" />
    <glyph glyph-name="Edotaccent" unicode="&#x116;" horiz-adv-x="610" 
d="M331 798q-58 0 -58 59q0 58 58 58q28 0 43 -15.5t15 -42.5t-15.5 -43t-42.5 -16zM550 0h-450v700h450v-80h-363v-219h332v-80h-332v-242h363v-79z" />
    <glyph glyph-name="edotaccent" unicode="&#x117;" horiz-adv-x="552" 
d="M281 609q-58 0 -58 59q0 58 58 58q28 0 43 -15.5t15 -42.5t-15.5 -43t-42.5 -16zM282 -9q-110 0 -171 73t-61 191q0 117 59 191t172 74q105 0 163 -70q58 -68 58 -179v-41h-364q0 -76 37.5 -120t106.5 -44q51 0 85 21.5t44 60.5h84q-11 -71 -70 -114t-143 -43zM139 300
h276q0 65 -35 105t-99 40q-66 0 -103 -39.5t-39 -105.5z" />
    <glyph glyph-name="Eogonek" unicode="&#x118;" horiz-adv-x="610" 
d="M550 700v-80h-363v-219h332v-80h-332v-242h363v-79h-2q-85 -40 -85 -97q0 -23 15 -35t38 -12q17 0 32 4v-68q-22 -8 -50 -8q-49 0 -82 28t-33 73q0 71 71 115h-354v700h450z" />
    <glyph glyph-name="eogonek" unicode="&#x119;" horiz-adv-x="552" 
d="M502 271v-41h-364q0 -76 37.5 -120t106.5 -44q51 0 85 21.5t44 60.5h84q-8 -53 -46.5 -92.5t-96.5 -55.5q-85 -40 -85 -97q0 -23 15 -35t38 -12q17 0 32 4v-68q-22 -8 -50 -8q-49 0 -82 28t-33 73q0 65 61 108q-93 12 -146 83q-52 71 -52 179q0 117 59 191t172 74
q105 0 163 -70q58 -68 58 -179zM139 300h276q0 65 -35 105t-99 40q-66 0 -103 -39.5t-39 -105.5z" />
    <glyph glyph-name="Ecaron" unicode="&#x11a;" horiz-adv-x="610" 
d="M387 774h-111l-102 132v10h83l72 -80h4l72 80h84v-10zM550 0h-450v700h450v-80h-363v-219h332v-80h-332v-242h363v-79z" />
    <glyph glyph-name="ecaron" unicode="&#x11b;" horiz-adv-x="552" 
d="M337 585h-111l-102 132v10h83l72 -80h4l72 80h84v-10zM282 -9q-110 0 -171 73t-61 191q0 117 59 191t172 74q105 0 163 -70q58 -68 58 -179v-41h-364q0 -76 37.5 -120t106.5 -44q51 0 85 21.5t44 60.5h84q-11 -71 -70 -114t-143 -43zM139 300h276q0 65 -35 105t-99 40
q-66 0 -103 -39.5t-39 -105.5z" />
    <glyph glyph-name="Gcircumflex" unicode="&#x11c;" horiz-adv-x="721" 
d="M296 774h-83v10l102 132h111l102 -132v-10h-84l-72 80h-4zM366 -9q-148 0 -227 96q-79 97 -79 261q0 166 79 263q80 98 227 98q126 0 199 -64q74 -63 84 -169h-90q-7 69 -57.5 110t-135.5 41q-59 0 -102 -23.5t-67.5 -64t-35.5 -88t-11 -103.5q0 -118 51 -198
q53 -78 165 -78q101 0 156 61q56 62 56 156h-192v79h275v-59q0 -147 -78 -233q-78 -85 -217 -85z" />
    <glyph glyph-name="gcircumflex" unicode="&#x11d;" 
d="M210 585h-83v10l102 132h111l102 -132v-10h-84l-72 80h-4zM283 -238q-97 0 -156 49q-61 50 -62 124h81q3 -44 38.5 -72.5t98.5 -28.5q68 0 105 38t37 100v99h-4q-48 -80 -154 -80q-105 0 -160 73q-56 74 -57 191q1 124 58.5 194.5t158.5 70.5q106 0 154 -80h4l11 71h73
v-541q0 -90 -60 -149q-61 -59 -166 -59zM281 66q70 0 108 52t38 137t-38 137.5t-108 52.5q-73 0 -109.5 -51.5t-36.5 -138.5t37 -138t109 -51z" />
    <glyph glyph-name="Gbreve" unicode="&#x11e;" horiz-adv-x="721" 
d="M367 774q-68 0 -107 39t-39 103h73q5 -65 73 -65t73 65h73q0 -65 -38 -103.5t-108 -38.5zM366 -9q-148 0 -227 96q-79 97 -79 261q0 166 79 263q80 98 227 98q126 0 199 -64q74 -63 84 -169h-90q-7 69 -57.5 110t-135.5 41q-59 0 -102 -23.5t-67.5 -64t-35.5 -88
t-11 -103.5q0 -118 51 -198q53 -78 165 -78q101 0 156 61q56 62 56 156h-192v79h275v-59q0 -147 -78 -233q-78 -85 -217 -85z" />
    <glyph glyph-name="gbreve" unicode="&#x11f;" 
d="M281 585q-68 0 -107 39t-39 103h73q5 -65 73 -65t73 65h73q0 -65 -38 -103.5t-108 -38.5zM283 -238q-97 0 -156 49q-61 50 -62 124h81q3 -44 38.5 -72.5t98.5 -28.5q68 0 105 38t37 100v99h-4q-48 -80 -154 -80q-105 0 -160 73q-56 74 -57 191q1 124 58.5 194.5
t158.5 70.5q106 0 154 -80h4l11 71h73v-541q0 -90 -60 -149q-61 -59 -166 -59zM281 66q70 0 108 52t38 137t-38 137.5t-108 52.5q-73 0 -109.5 -51.5t-36.5 -138.5t37 -138t109 -51z" />
    <glyph glyph-name="Gdotaccent" unicode="&#x120;" horiz-adv-x="721" 
d="M367 798q-58 0 -58 59q0 58 58 58q28 0 43 -15.5t15 -42.5t-15.5 -43t-42.5 -16zM366 -9q-148 0 -227 96q-79 97 -79 261q0 166 79 263q80 98 227 98q126 0 199 -64q74 -63 84 -169h-90q-7 69 -57.5 110t-135.5 41q-59 0 -102 -23.5t-67.5 -64t-35.5 -88t-11 -103.5
q0 -118 51 -198q53 -78 165 -78q101 0 156 61q56 62 56 156h-192v79h275v-59q0 -147 -78 -233q-78 -85 -217 -85z" />
    <glyph glyph-name="gdotaccent" unicode="&#x121;" 
d="M281 609q-58 0 -58 59q0 58 58 58q28 0 43 -15.5t15 -42.5t-15.5 -43t-42.5 -16zM283 -238q-97 0 -156 49q-61 50 -62 124h81q3 -44 38.5 -72.5t98.5 -28.5q68 0 105 38t37 100v99h-4q-48 -80 -154 -80q-105 0 -160 73q-56 74 -57 191q1 124 58.5 194.5t158.5 70.5
q106 0 154 -80h4l11 71h73v-541q0 -90 -60 -149q-61 -59 -166 -59zM281 66q70 0 108 52t38 137t-38 137.5t-108 52.5q-73 0 -109.5 -51.5t-36.5 -138.5t37 -138t109 -51z" />
    <glyph glyph-name="Gcommaaccent" unicode="&#x122;" horiz-adv-x="721" 
d="M366 -9q-148 0 -227 96q-79 97 -79 261q0 166 79 263q80 98 227 98q126 0 199 -64q74 -63 84 -169h-90q-7 69 -57.5 110t-135.5 41q-59 0 -102 -23.5t-67.5 -64t-35.5 -88t-11 -103.5q0 -118 51 -198q53 -78 165 -78q101 0 156 61q56 62 56 156h-192v79h275v-59
q0 -147 -78 -233q-78 -85 -217 -85zM375 -211h-63v10l18 150h94v-10z" />
    <glyph glyph-name="gcommaaccent" unicode="&#x123;" 
d="M292 735h63v-10l-18 -150h-94v10zM283 -238q-97 0 -156 49q-61 50 -62 124h81q3 -44 38.5 -72.5t98.5 -28.5q68 0 105 38t37 100v99h-4q-48 -80 -154 -80q-105 0 -160 73q-56 74 -57 191q1 124 58.5 194.5t158.5 70.5q106 0 154 -80h4l11 71h73v-541q0 -90 -60 -149
q-61 -59 -166 -59zM281 66q70 0 108 52t38 137t-38 137.5t-108 52.5q-73 0 -109.5 -51.5t-36.5 -138.5t37 -138t109 -51z" />
    <glyph glyph-name="Hcircumflex" unicode="&#x124;" horiz-adv-x="735" 
d="M366 854h-4l-72 -80h-83v10l102 132h111l102 -132v-10h-84zM548 402v298h87v-700h-87v321h-361v-321h-87v700h87v-298h361z" />
    <glyph glyph-name="hcircumflex" unicode="&#x125;" horiz-adv-x="595" 
d="M61 785h-83v10l102 132h111l102 -132v-10h-84l-72 80h-4zM174 0h-84v740h84v-309h4q47 89 156 89q85 0 133 -50t48 -138v-332h-84v319q0 126 -120 126q-63 0 -100 -44t-37 -121v-280z" />
    <glyph glyph-name="Hbar" unicode="&#x126;" horiz-adv-x="735" 
d="M635 602h59v-71h-59v-531h-87v321h-361v-321h-87v531h-61v71h61v98h87v-98h361v98h87v-98zM187 402h361v129h-361v-129z" />
    <glyph glyph-name="hbar" unicode="&#x127;" horiz-adv-x="595" 
d="M334 520q85 0 133 -50t48 -138v-332h-84v319q0 126 -120 126q-63 0 -100 -44t-37 -121v-280h-84v600h-66v65h66v75h84v-75h114v-65h-114v-169h4q47 89 156 89z" />
    <glyph glyph-name="Itilde" unicode="&#x128;" horiz-adv-x="288" 
d="M191 788q-32 0 -66 22l-14 9q-23 14 -41 14q-16 0 -26.5 -11.5t-10.5 -31.5h-60v15q0 46 27 72t71 26q33 0 67 -22l14 -9q23 -14 40 -14q16 0 26.5 12t10.5 31h59v-15q0 -47 -26.5 -72.5t-70.5 -25.5zM188 0h-88v700h88v-700z" />
    <glyph glyph-name="itilde" unicode="&#x129;" horiz-adv-x="254" 
d="M179 599q-32 0 -66 22l-14 9q-23 14 -41 14q-16 0 -26.5 -11.5t-10.5 -31.5h-60v15q0 46 27 72t71 26q33 0 67 -22l14 -9q23 -14 40 -14q16 0 26.5 12t10.5 31h59v-15q0 -47 -26.5 -72.5t-70.5 -25.5zM174 0h-84v511h84v-511z" />
    <glyph glyph-name="Imacron" unicode="&#x12a;" horiz-adv-x="288" 
d="M283 806h-273v81h273v-81zM188 0h-88v700h88v-700z" />
    <glyph glyph-name="imacron" unicode="&#x12b;" horiz-adv-x="254" 
d="M271 617h-273v81h273v-81zM174 0h-84v511h84v-511z" />
    <glyph glyph-name="Ibreve" unicode="&#x12c;" horiz-adv-x="288" 
d="M144 774q-68 0 -107 39t-39 103h73q5 -65 73 -65t73 65h73q0 -65 -38 -103.5t-108 -38.5zM188 0h-88v700h88v-700z" />
    <glyph glyph-name="ibreve" unicode="&#x12d;" horiz-adv-x="254" 
d="M132 585q-68 0 -107 39t-39 103h73q5 -65 73 -65t73 65h73q0 -65 -38 -103.5t-108 -38.5zM174 0h-84v511h84v-511z" />
    <glyph glyph-name="Iogonek" unicode="&#x12e;" horiz-adv-x="288" 
d="M188 700v-700q-85 -40 -85 -97q0 -23 15 -35t38 -12q17 0 32 4v-68q-22 -8 -50 -8q-49 0 -82 28t-33 73q0 74 77 118v697h88z" />
    <glyph glyph-name="iogonek" unicode="&#x12f;" horiz-adv-x="254" 
d="M132 726q28 0 43 -15.5t15 -42.5t-15.5 -43t-42.5 -16q-58 0 -58 59q0 58 58 58zM90 6v505h84v-511q-85 -40 -85 -97q0 -23 15 -35t38 -12q17 0 32 4v-68q-22 -8 -50 -8q-49 0 -82 28t-33 73q0 76 81 121z" />
    <glyph glyph-name="Idot" unicode="&#x130;" horiz-adv-x="288" 
d="M144 798q-58 0 -58 59q0 58 58 58q28 0 43 -15.5t15 -42.5t-15.5 -43t-42.5 -16zM188 0h-88v700h88v-700z" />
    <glyph glyph-name="dotlessi" unicode="&#x131;" horiz-adv-x="254" 
d="M174 0h-84v511h84v-511z" />
    <glyph glyph-name="IJ" unicode="&#x132;" horiz-adv-x="820" 
d="M188 0h-88v700h88v-700zM523 -9q-95 0 -150 57q-55 58 -55 152h88q0 -59 31 -92.5t88 -33.5t87 34t30 95v497h88v-497q0 -97 -55.5 -154.5t-151.5 -57.5z" />
    <glyph glyph-name="ij" unicode="&#x133;" horiz-adv-x="522" 
d="M132 609q-58 0 -58 59q0 58 58 58q28 0 43 -15.5t15 -42.5t-15.5 -43t-42.5 -16zM400 609q-58 0 -58 59q0 58 58 58q28 0 43 -15.5t15 -42.5t-15.5 -43t-42.5 -16zM174 0h-84v511h84v-511zM294 -238q-19 0 -40 6v71q20 -3 38 -3q66 0 66 73v602h84v-601q0 -148 -148 -148
z" />
    <glyph glyph-name="Jcircumflex" unicode="&#x134;" horiz-adv-x="532" 
d="M323 774h-83v10l102 132h111l102 -132v-10h-84l-72 80h-4zM235 -9q-95 0 -150 57q-55 58 -55 152h88q0 -59 31 -92.5t88 -33.5t87 34t30 95v497h88v-497q0 -97 -55.5 -154.5t-151.5 -57.5z" />
    <glyph glyph-name="jcircumflex" unicode="&#x135;" horiz-adv-x="268" 
d="M73 585h-83v10l102 132h111l102 -132v-10h-84l-72 80h-4zM40 -238q-19 0 -40 6v71q20 -3 38 -3q66 0 66 73v602h84v-601q0 -148 -148 -148z" />
    <glyph glyph-name="Kcommaaccent" unicode="&#x136;" horiz-adv-x="631" 
d="M611 690l-314 -321l324 -359v-10h-105l-329 364v-364h-87v700h87v-326l320 326h104v-10zM292 -211v10l18 150h94v-10l-49 -150h-63z" />
    <glyph glyph-name="kcommaaccent" unicode="&#x137;" horiz-adv-x="515" 
d="M90 0v740h84v-740h-84zM489 501l-207 -214l213 -277v-10h-97l-224 287l216 224h99v-10zM222 -211v10l18 150h94v-10l-49 -150h-63z" />
    <glyph glyph-name="kgreenlandic" unicode="&#x138;" horiz-adv-x="515" 
d="M90 0v511h84v-511h-84zM489 501l-207 -224l213 -267v-10h-97l-224 277l216 234h99v-10z" />
    <glyph glyph-name="Lacute" unicode="&#x139;" horiz-adv-x="550" 
d="M165 772h-75v10l76 136h115v-10zM525 0h-425v700h87v-620h338v-80z" />
    <glyph glyph-name="lacute" unicode="&#x13a;" horiz-adv-x="254" 
d="M154 783h-75v10l76 136h115v-10zM174 0h-84v740h84v-740z" />
    <glyph glyph-name="Lcommaaccent" unicode="&#x13b;" horiz-adv-x="550" 
d="M525 0h-425v700h87v-620h338v-80zM312 -211h-63v10l18 150h94v-10z" />
    <glyph glyph-name="lcommaaccent" unicode="&#x13c;" horiz-adv-x="254" 
d="M174 0h-84v740h84v-740zM128 -211h-63v10l18 150h94v-10z" />
    <glyph glyph-name="Lcaron" unicode="&#x13d;" horiz-adv-x="550" 
d="M525 0h-425v700h87v-620h338v-80zM379 530h-59v170h94v-10z" />
    <glyph glyph-name="lcaron" unicode="&#x13e;" horiz-adv-x="274" 
d="M174 0h-84v740h84v-740zM289 570h-59v170h94v-10z" />
    <glyph glyph-name="Ldot" unicode="&#x13f;" horiz-adv-x="600" 
d="M525 0h-425v700h87v-620h338v-80zM391 310q-29 0 -44 16.5t-15 44.5q0 27 16 43.5t43 16.5t43 -16.5t16 -43.5q0 -28 -15.5 -44.5t-43.5 -16.5z" />
    <glyph glyph-name="ldot" unicode="&#x140;" horiz-adv-x="368" 
d="M174 0h-84v740h84v-740zM289 311q-29 0 -44 16.5t-15 44.5q0 27 16 43.5t43 16.5t43 -16.5t16 -43.5q0 -28 -15.5 -44.5t-43.5 -16.5z" />
    <glyph glyph-name="Lslash" unicode="&#x141;" horiz-adv-x="620" 
d="M257 301v-221h338v-80h-425v267l-60 -24h-10v77l70 28v352h87v-318l180 72h10v-79z" />
    <glyph glyph-name="lslash" unicode="&#x142;" horiz-adv-x="357" 
d="M307 454h10v-79l-98 -50v-325h-84v282l-75 -39h-10v77l85 44v376h84v-332z" />
    <glyph glyph-name="Nacute" unicode="&#x143;" horiz-adv-x="743" 
d="M405 772h-75v10l76 136h115v-10zM185 0h-85v700h95l358 -557h4v557h86v-700h-96l-358 554h-4v-554z" />
    <glyph glyph-name="nacute" unicode="&#x144;" horiz-adv-x="591" 
d="M343 583h-75v10l76 136h115v-10zM174 0h-84v511h73l7 -80h4q47 89 158 89q84 0 131.5 -50t47.5 -138v-332h-84v319q0 126 -118 126q-64 0 -99.5 -43t-35.5 -120v-282z" />
    <glyph glyph-name="Ncommaaccent" unicode="&#x145;" horiz-adv-x="743" 
d="M185 0h-85v700h95l358 -557h4v557h86v-700h-96l-358 554h-4v-554zM370 -211h-63v10l18 150h94v-10z" />
    <glyph glyph-name="ncommaaccent" unicode="&#x146;" horiz-adv-x="591" 
d="M174 0h-84v511h73l7 -80h4q47 89 158 89q84 0 131.5 -50t47.5 -138v-332h-84v319q0 126 -118 126q-64 0 -99.5 -43t-35.5 -120v-282zM303 -211h-63v10l18 150h94v-10z" />
    <glyph glyph-name="Ncaron" unicode="&#x147;" horiz-adv-x="743" 
d="M439 774h-111l-102 132v10h83l72 -80h4l72 80h84v-10zM185 0h-85v700h95l358 -557h4v557h86v-700h-96l-358 554h-4v-554z" />
    <glyph glyph-name="ncaron" unicode="&#x148;" horiz-adv-x="591" 
d="M377 585h-111l-102 132v10h83l72 -80h4l72 80h84v-10zM174 0h-84v511h73l7 -80h4q47 89 158 89q84 0 131.5 -50t47.5 -138v-332h-84v319q0 126 -118 126q-64 0 -99.5 -43t-35.5 -120v-282z" />
    <glyph glyph-name="napostrophe" unicode="&#x149;" horiz-adv-x="591" 
d="M24 463h-68v10l31 227h99v-10zM174 0h-84v511h73l7 -80h4q47 89 158 89q84 0 131.5 -50t47.5 -138v-332h-84v319q0 126 -118 126q-64 0 -99.5 -43t-35.5 -120v-282z" />
    <glyph glyph-name="Eng" unicode="&#x14a;" horiz-adv-x="743" 
d="M557 143v557h86v-727q0 -97 -55.5 -154.5t-151.5 -57.5v83q59 0 90 34t31 95v27h-10l-358 554h-4v-554h-85v700h95l358 -557h4z" />
    <glyph glyph-name="eng" unicode="&#x14b;" horiz-adv-x="591" 
d="M332 520q84 0 131.5 -50t47.5 -138v-422q0 -148 -148 -148q-19 0 -40 6v71q19 -3 38 -3q66 0 66 73v410q0 126 -118 126q-64 0 -99.5 -43t-35.5 -120v-282h-84v511h73l7 -80h4q47 89 158 89z" />
    <glyph glyph-name="Omacron" unicode="&#x14c;" horiz-adv-x="740" 
d="M514 806h-273v81h273v-81zM370 709q154 0 232 -100q78 -99 78 -259q0 -159 -78 -259t-232 -100t-232 99q-78 101 -78 260t77 259q78 100 233 100zM370 627q-60 0 -104.5 -23t-68.5 -63t-35.5 -87.5t-11.5 -103.5q0 -119 52 -198t168 -79q115 0 167 79q53 80 53 198
t-53 198q-52 79 -167 79z" />
    <glyph glyph-name="omacron" unicode="&#x14d;" horiz-adv-x="562" 
d="M420 617h-273v81h273v-81zM281 -9q-115 0 -173 73t-58 191q0 117 59 191t172 74t172 -74t59 -191t-59 -191q-58 -73 -172 -73zM281 66q73 0 109.5 49.5t36.5 139.5t-36.5 140t-109.5 50q-72 0 -109 -50.5t-37 -139.5t36.5 -139t109.5 -50z" />
    <glyph glyph-name="Obreve" unicode="&#x14e;" horiz-adv-x="740" 
d="M375 774q-68 0 -107 39t-39 103h73q5 -65 73 -65t73 65h73q0 -65 -38 -103.5t-108 -38.5zM370 709q154 0 232 -100q78 -99 78 -259q0 -159 -78 -259t-232 -100t-232 99q-78 101 -78 260t77 259q78 100 233 100zM370 627q-60 0 -104.5 -23t-68.5 -63t-35.5 -87.5
t-11.5 -103.5q0 -119 52 -198t168 -79q115 0 167 79q53 80 53 198t-53 198q-52 79 -167 79z" />
    <glyph glyph-name="obreve" unicode="&#x14f;" horiz-adv-x="562" 
d="M281 585q-68 0 -107 39t-39 103h73q5 -65 73 -65t73 65h73q0 -65 -38 -103.5t-108 -38.5zM281 -9q-115 0 -173 73t-58 191q0 117 59 191t172 74t172 -74t59 -191t-59 -191q-58 -73 -172 -73zM281 66q73 0 109.5 49.5t36.5 139.5t-36.5 140t-109.5 50q-72 0 -109 -50.5
t-37 -139.5t36.5 -139t109.5 -50z" />
    <glyph glyph-name="Ohungarumlaut" unicode="&#x150;" horiz-adv-x="740" 
d="M325 772h-63v10l54 136h102v-10zM463 772h-63v10l54 136h102v-10zM370 709q154 0 232 -100q78 -99 78 -259q0 -159 -78 -259t-232 -100t-232 99q-78 101 -78 260t77 259q78 100 233 100zM370 627q-60 0 -104.5 -23t-68.5 -63t-35.5 -87.5t-11.5 -103.5q0 -119 52 -198
t168 -79q115 0 167 79q53 80 53 198t-53 198q-52 79 -167 79z" />
    <glyph glyph-name="ohungarumlaut" unicode="&#x151;" horiz-adv-x="562" 
d="M231 583h-63v10l54 136h102v-10zM369 583h-63v10l54 136h102v-10zM281 -9q-115 0 -173 73t-58 191q0 117 59 191t172 74t172 -74t59 -191t-59 -191q-58 -73 -172 -73zM281 66q73 0 109.5 49.5t36.5 139.5t-36.5 140t-109.5 50q-72 0 -109 -50.5t-37 -139.5t36.5 -139
t109.5 -50z" />
    <glyph glyph-name="OE" unicode="&#x152;" horiz-adv-x="1100" 
d="M1040 700v-80h-363v-219h332v-80h-332v-242h363v-79h-450v80q-78 -89 -220 -89q-154 0 -232 99q-78 101 -78 260t77 259q78 100 233 100q142 0 220 -88v79h450zM370 627q-60 0 -104.5 -23t-68.5 -63t-35.5 -87.5t-11.5 -103.5q0 -119 52 -198t168 -79q115 0 167 79
q53 80 53 198t-53 198q-52 79 -167 79z" />
    <glyph glyph-name="oe" unicode="&#x153;" horiz-adv-x="929" 
d="M879 271v-41h-364q0 -76 37.5 -120t106.5 -44q51 0 85 21.5t44 60.5h84q-11 -71 -70 -114t-143 -43q-127 0 -188 97q-61 -97 -190 -97q-115 0 -173 73t-58 191q0 117 59 191t172 74q127 0 188 -97q61 97 189 97q105 0 163 -70q58 -68 58 -179zM281 66q73 0 109.5 49.5
t36.5 139.5t-36.5 140t-109.5 50q-72 0 -109 -50.5t-37 -139.5t36.5 -139t109.5 -50zM516 300h276q0 65 -35 105t-99 40q-66 0 -103 -39.5t-39 -105.5z" />
    <glyph glyph-name="Racute" unicode="&#x154;" horiz-adv-x="670" 
d="M482 918v-10l-116 -136h-75v10l76 136h115zM448 288l188 -278v-10h-95l-184 277h-170v-277h-87v700h277q104 0 163 -59t59 -151q0 -76 -40 -128.5t-111 -73.5zM372 620h-185v-263h185q66 0 101 34.5t35 97.5q0 62 -35.5 96.5t-100.5 34.5z" />
    <glyph glyph-name="racute" unicode="&#x155;" horiz-adv-x="390" 
d="M244 583h-75v10l76 136h115v-10zM174 0h-84v511h73l7 -86h4q16 43 52 67.5t83 24.5h46v-81h-40q-141 0 -141 -188v-248z" />
    <glyph glyph-name="Rcommaaccent" unicode="&#x156;" horiz-adv-x="670" 
d="M448 288l188 -278v-10h-95l-184 277h-170v-277h-87v700h277q104 0 163 -59t59 -151q0 -76 -40 -128.5t-111 -73.5zM372 620h-185v-263h185q66 0 101 34.5t35 97.5q0 62 -35.5 96.5t-100.5 34.5zM291 -211v10l18 150h94v-10l-49 -150h-63z" />
    <glyph glyph-name="rcommaaccent" unicode="&#x157;" horiz-adv-x="390" 
d="M174 0h-84v511h73l7 -86h4q16 43 52 67.5t83 24.5h46v-81h-40q-141 0 -141 -188v-248zM151 -211h-63v10l18 150h94v-10z" />
    <glyph glyph-name="Rcaron" unicode="&#x158;" horiz-adv-x="670" 
d="M502 906l-102 -132h-111l-102 132v10h83l72 -80h4l72 80h84v-10zM448 288l188 -278v-10h-95l-184 277h-170v-277h-87v700h277q104 0 163 -59t59 -151q0 -76 -40 -128.5t-111 -73.5zM372 620h-185v-263h185q66 0 101 34.5t35 97.5q0 62 -35.5 96.5t-100.5 34.5z" />
    <glyph glyph-name="rcaron" unicode="&#x159;" horiz-adv-x="390" 
d="M278 585h-111l-102 132v10h83l72 -80h4l72 80h84v-10zM174 0h-84v511h73l7 -86h4q16 43 52 67.5t83 24.5h46v-81h-40q-141 0 -141 -188v-248z" />
    <glyph glyph-name="Sacute" unicode="&#x15a;" horiz-adv-x="632" 
d="M339 772h-75v10l76 136h115v-10zM315 -9q-124 0 -193 58.5t-72 160.5h89q4 -66 49.5 -103t126.5 -37q171 0 171 122q0 47 -31 74t-94 40l-102 22q-94 21 -140 66.5t-46 122.5q0 90 64.5 141t178.5 51q113 0 180 -58q68 -57 69 -150h-89q-3 60 -44 94t-118 34
q-150 0 -150 -112q0 -78 119 -104l95 -20q199 -40 199 -201q0 -94 -70 -147.5t-192 -53.5z" />
    <glyph glyph-name="sacute" unicode="&#x15b;" horiz-adv-x="511" 
d="M283 583h-75v10l76 136h115v-10zM259 -9q-93 0 -150 47.5t-59 130.5h84q0 -49 33.5 -76t91.5 -27q117 0 117 73q0 57 -78 73l-102 19q-63 13 -96.5 50t-33.5 93q0 64 51.5 105t134.5 41q88 0 142.5 -45.5t54.5 -119.5h-82q-2 46 -32.5 70t-82.5 24q-49 0 -77 -19.5
t-28 -55.5q0 -58 89 -72l80 -15q76 -18 110.5 -51.5t34.5 -96.5q0 -68 -58 -108t-144 -40z" />
    <glyph glyph-name="Scircumflex" unicode="&#x15c;" horiz-adv-x="632" 
d="M246 774h-83v10l102 132h111l102 -132v-10h-84l-72 80h-4zM315 -9q-124 0 -193 58.5t-72 160.5h89q4 -66 49.5 -103t126.5 -37q171 0 171 122q0 47 -31 74t-94 40l-102 22q-94 21 -140 66.5t-46 122.5q0 90 64.5 141t178.5 51q113 0 180 -58q68 -57 69 -150h-89
q-3 60 -44 94t-118 34q-150 0 -150 -112q0 -78 119 -104l95 -20q199 -40 199 -201q0 -94 -70 -147.5t-192 -53.5z" />
    <glyph glyph-name="scircumflex" unicode="&#x15d;" horiz-adv-x="511" 
d="M190 585h-83v10l102 132h111l102 -132v-10h-84l-72 80h-4zM259 -9q-93 0 -150 47.5t-59 130.5h84q0 -49 33.5 -76t91.5 -27q117 0 117 73q0 57 -78 73l-102 19q-63 13 -96.5 50t-33.5 93q0 64 51.5 105t134.5 41q88 0 142.5 -45.5t54.5 -119.5h-82q-2 46 -32.5 70
t-82.5 24q-49 0 -77 -19.5t-28 -55.5q0 -58 89 -72l80 -15q76 -18 110.5 -51.5t34.5 -96.5q0 -68 -58 -108t-144 -40z" />
    <glyph glyph-name="Scedilla" unicode="&#x15e;" horiz-adv-x="632" 
d="M577 192q0 -88 -62.5 -141t-171.5 -59l-23 -38q43 0 70 -22.5t27 -59.5q0 -41 -30 -65.5t-87 -24.5q-50 0 -81.5 24t-31.5 67h60q0 -34 52 -34q21 0 34 9t13 24q0 14 -12 23t-32 9h-32l-25 31l29 58q-105 10 -163 66.5t-61 150.5h89q4 -66 49.5 -103t126.5 -37
q171 0 171 122q0 47 -31 74t-94 40l-102 22q-94 21 -140 66.5t-46 122.5q0 90 64.5 141t178.5 51q113 0 180 -58q68 -57 69 -150h-89q-3 60 -44 94t-118 34q-150 0 -150 -112q0 -78 119 -104l95 -20q199 -40 199 -201z" />
    <glyph glyph-name="scedilla" unicode="&#x15f;" horiz-adv-x="511" 
d="M461 139q0 -61 -48 -100.5t-125 -46.5l-23 -38q43 0 70 -22.5t27 -59.5q0 -41 -30 -65.5t-87 -24.5q-50 0 -81.5 24t-31.5 67h60q0 -34 52 -34q21 0 34 9t13 24q0 14 -12 23t-32 9h-32l-25 31l30 58q-76 10 -122 57t-48 119h84q0 -49 33.5 -76t91.5 -27q117 0 117 73
q0 57 -78 73l-102 19q-63 13 -96.5 50t-33.5 93q0 64 51.5 105t134.5 41q88 0 142.5 -45.5t54.5 -119.5h-82q-2 46 -32.5 70t-82.5 24q-49 0 -77 -19.5t-28 -55.5q0 -58 89 -72l80 -15q76 -18 110.5 -51.5t34.5 -96.5z" />
    <glyph glyph-name="Scaron" unicode="&#x160;" horiz-adv-x="632" 
d="M373 774h-111l-102 132v10h83l72 -80h4l72 80h84v-10zM315 -9q-124 0 -193 58.5t-72 160.5h89q4 -66 49.5 -103t126.5 -37q171 0 171 122q0 47 -31 74t-94 40l-102 22q-94 21 -140 66.5t-46 122.5q0 90 64.5 141t178.5 51q113 0 180 -58q68 -57 69 -150h-89q-3 60 -44 94
t-118 34q-150 0 -150 -112q0 -78 119 -104l95 -20q199 -40 199 -201q0 -94 -70 -147.5t-192 -53.5z" />
    <glyph glyph-name="scaron" unicode="&#x161;" horiz-adv-x="511" 
d="M317 585h-111l-102 132v10h83l72 -80h4l72 80h84v-10zM259 -9q-93 0 -150 47.5t-59 130.5h84q0 -49 33.5 -76t91.5 -27q117 0 117 73q0 57 -78 73l-102 19q-63 13 -96.5 50t-33.5 93q0 64 51.5 105t134.5 41q88 0 142.5 -45.5t54.5 -119.5h-82q-2 46 -32.5 70t-82.5 24
q-49 0 -77 -19.5t-28 -55.5q0 -58 89 -72l80 -15q76 -18 110.5 -51.5t34.5 -96.5q0 -68 -58 -108t-144 -40z" />
    <glyph glyph-name="uni0162" unicode="&#x162;" horiz-adv-x="592" 
d="M340 0h-88v620h-217v80h522v-80h-217v-620zM291 -211h-63v10l18 150h94v-10z" />
    <glyph glyph-name="uni0163" unicode="&#x163;" horiz-adv-x="381" 
d="M260 -9q-71 0 -103 34t-32 103v312h-85v71h87v109l72 28h10v-137h125v-71h-125v-305q0 -37 16 -53.5t51 -16.5q28 0 50 6h10v-72q-34 -8 -76 -8zM234 -211h-63v10l18 150h94v-10z" />
    <glyph glyph-name="Tcaron" unicode="&#x164;" horiz-adv-x="592" 
d="M355 774h-111l-102 132v10h83l72 -80h4l72 80h84v-10zM340 0h-88v620h-217v80h522v-80h-217v-620z" />
    <glyph glyph-name="tcaron" unicode="&#x165;" horiz-adv-x="381" 
d="M329 570h-59v170h94v-10zM260 -9q-71 0 -103 34t-32 103v312h-85v71h87v109l72 28h10v-137h125v-71h-125v-305q0 -37 16 -53.5t51 -16.5q28 0 50 6h10v-72q-34 -8 -76 -8z" />
    <glyph glyph-name="Tbar" unicode="&#x166;" horiz-adv-x="592" 
d="M557 700v-80h-217v-200h177v-75h-177v-345h-88v345h-177v75h177v200h-217v80h522z" />
    <glyph glyph-name="tbar" unicode="&#x167;" horiz-adv-x="381" 
d="M326 71h10v-72q-34 -8 -76 -8q-71 0 -103 34t-32 103v155h-85v71h85v86h-85v71h87v109l72 28h10v-137h125v-71h-125v-86h117v-71h-117v-148q0 -37 16 -53.5t51 -16.5q28 0 50 6z" />
    <glyph glyph-name="Utilde" unicode="&#x168;" horiz-adv-x="714" 
d="M399 788q-32 0 -66 22l-14 9q-23 14 -41 14q-16 0 -26.5 -11.5t-10.5 -31.5h-60v15q0 46 27 72t71 26q33 0 67 -22l14 -9q23 -14 40 -14q16 0 26.5 12t10.5 31h59v-15q0 -47 -26.5 -72.5t-70.5 -25.5zM356 -9q-124 0 -195 68t-71 188v453h87v-451q0 -84 46 -131t133 -47
q88 0 134 47t46 131v451h88v-453q0 -120 -71 -188t-197 -68z" />
    <glyph glyph-name="utilde" unicode="&#x169;" horiz-adv-x="578" 
d="M218 644q-16 0 -26.5 -11.5t-10.5 -31.5h-60v15q0 46 27 72t71 26q33 0 67 -22l14 -9q23 -14 40 -14q16 0 26.5 12t10.5 31h59v-15q0 -47 -26.5 -72.5t-70.5 -25.5q-32 0 -66 22l-14 9q-23 14 -41 14zM414 200v311h84v-325q0 -87 -58 -141q-59 -53 -151 -53t-151 53
q-58 54 -58 141v325h84v-311q0 -133 125 -133t125 133z" />
    <glyph glyph-name="Umacron" unicode="&#x16a;" horiz-adv-x="714" 
d="M491 806h-273v81h273v-81zM356 -9q-124 0 -195 68t-71 188v453h87v-451q0 -84 46 -131t133 -47q88 0 134 47t46 131v451h88v-453q0 -120 -71 -188t-197 -68z" />
    <glyph glyph-name="umacron" unicode="&#x16b;" horiz-adv-x="578" 
d="M158 698h273v-81h-273v81zM414 200v311h84v-325q0 -87 -58 -141q-59 -53 -151 -53t-151 53q-58 54 -58 141v325h84v-311q0 -133 125 -133t125 133z" />
    <glyph glyph-name="Ubreve" unicode="&#x16c;" horiz-adv-x="714" 
d="M352 774q-68 0 -107 39t-39 103h73q5 -65 73 -65t73 65h73q0 -65 -38 -103.5t-108 -38.5zM356 -9q-124 0 -195 68t-71 188v453h87v-451q0 -84 46 -131t133 -47q88 0 134 47t46 131v451h88v-453q0 -120 -71 -188t-197 -68z" />
    <glyph glyph-name="ubreve" unicode="&#x16d;" horiz-adv-x="578" 
d="M292 585q-68 0 -107 39t-39 103h73q5 -65 73 -65t73 65h73q0 -65 -38 -103.5t-108 -38.5zM414 200v311h84v-325q0 -87 -58 -141q-59 -53 -151 -53t-151 53q-58 54 -58 141v325h84v-311q0 -133 125 -133t125 133z" />
    <glyph glyph-name="Uring" unicode="&#x16e;" horiz-adv-x="714" 
d="M352 761q-48 0 -79.5 30.5t-31.5 78.5t31.5 79t79.5 31q50 0 81 -30.5t31 -79.5q0 -48 -31.5 -78.5t-80.5 -30.5zM351 822q30 -3 42.5 22.5t0 51t-42.5 23.5q-29 2 -41 -23.5t0 -51t41 -22.5zM356 -9q-124 0 -195 68t-71 188v453h87v-451q0 -84 46 -131t133 -47
q88 0 134 47t46 131v451h88v-453q0 -120 -71 -188t-197 -68z" />
    <glyph glyph-name="uring" unicode="&#x16f;" horiz-adv-x="578" 
d="M292 572q-48 0 -79.5 30.5t-31.5 78.5t31.5 79t79.5 31q50 0 81 -30.5t31 -79.5q0 -48 -31.5 -78.5t-80.5 -30.5zM291 730q-29 2 -41 -23.5t0 -51t41 -22.5q30 -3 42.5 22.5t0 51t-42.5 23.5zM414 200v311h84v-325q0 -87 -58 -141q-59 -53 -151 -53t-151 53
q-58 54 -58 141v325h84v-311q0 -133 125 -133t125 133z" />
    <glyph glyph-name="Uhungarumlaut" unicode="&#x170;" horiz-adv-x="714" 
d="M302 772h-63v10l54 136h102v-10zM440 772h-63v10l54 136h102v-10zM356 -9q-124 0 -195 68t-71 188v453h87v-451q0 -84 46 -131t133 -47q88 0 134 47t46 131v451h88v-453q0 -120 -71 -188t-197 -68z" />
    <glyph glyph-name="uhungarumlaut" unicode="&#x171;" horiz-adv-x="578" 
d="M335 729v-10l-93 -136h-63v10l54 136h102zM380 583h-63v10l54 136h102v-10zM414 200v311h84v-325q0 -87 -58 -141q-59 -53 -151 -53t-151 53q-58 54 -58 141v325h84v-311q0 -133 125 -133t125 133z" />
    <glyph glyph-name="Uogonek" unicode="&#x172;" horiz-adv-x="714" 
d="M536 249v451h88v-453q0 -103 -52.5 -168t-148.5 -82q-78 -41 -78 -94q0 -23 15 -35t38 -12q17 0 32 4v-68q-22 -8 -50 -8q-49 0 -82 28t-33 73q0 65 59 107q-109 9 -171.5 76.5t-62.5 178.5v453h87v-451q0 -84 46 -131t133 -47q88 0 134 47t46 131z" />
    <glyph glyph-name="uogonek" unicode="&#x173;" horiz-adv-x="578" 
d="M414 200v311h84v-325q0 -69 -38.5 -119t-104.5 -67q-85 -40 -85 -97q0 -23 15 -35t38 -12q17 0 32 4v-68q-22 -8 -50 -8q-49 0 -82 28t-33 73q0 69 63 109q-79 11 -126 62.5t-47 129.5v325h84v-311q0 -133 125 -133t125 133z" />
    <glyph glyph-name="Wcircumflex" unicode="&#x174;" horiz-adv-x="906" 
d="M380 774h-83v10l102 132h111l102 -132v-10h-84l-72 80h-4zM289 0h-87l-172 690v10h85l134 -564h4l154 564h90l156 -564h4l133 564h86v-10l-174 -690h-88l-159 559h-4z" />
    <glyph glyph-name="wcircumflex" unicode="&#x175;" horiz-adv-x="750" 
d="M308 574h-83v10l102 132h111l102 -132v-10h-84l-72 80h-4zM252 0h-87l-145 501v10h87l102 -397h4l120 397h86l120 -397h4l102 397h85v-10l-144 -501h-87l-120 397h-4z" />
    <glyph glyph-name="Ycircumflex" unicode="&#x176;" horiz-adv-x="649" 
d="M257 774h-83v10l102 132h111l102 -132v-10h-84l-72 80h-4zM369 0h-88v292l-251 398v10h98l196 -324h4l195 324h96v-10l-250 -398v-292z" />
    <glyph glyph-name="ycircumflex" unicode="&#x177;" horiz-adv-x="527" 
d="M198 585h-83v10l102 132h111l102 -132v-10h-84l-72 80h-4zM224 -229h-85v10l87 223l-1 2l-205 495v10h90l155 -401h4l150 401h88v-10z" />
    <glyph glyph-name="Ydieresis" unicode="&#x178;" horiz-adv-x="649" 
d="M244 798q-58 0 -58 59q0 58 58 58q28 0 43 -15.5t15 -42.5t-15.5 -43t-42.5 -16zM419 798q-58 0 -58 59q0 58 58 58q28 0 43 -15.5t15 -42.5t-15.5 -43t-42.5 -16zM369 0h-88v292l-251 398v10h98l196 -324h4l195 324h96v-10l-250 -398v-292z" />
    <glyph glyph-name="Zacute" unicode="&#x179;" horiz-adv-x="597" 
d="M318 772h-75v10l76 136h115v-10zM557 0h-517v77l402 538v4h-393v81h502v-79l-401 -537v-4h407v-80z" />
    <glyph glyph-name="zacute" unicode="&#x17a;" horiz-adv-x="502" 
d="M273 583h-75v10l76 136h115v-10zM447 0h-392v69l291 367v4h-290v71h389v-70l-290 -366v-4h292v-71z" />
    <glyph glyph-name="Zdotaccent" unicode="&#x17b;" horiz-adv-x="597" 
d="M296 798q-58 0 -58 59q0 58 58 58q28 0 43 -15.5t15 -42.5t-15.5 -43t-42.5 -16zM557 0h-517v77l402 538v4h-393v81h502v-79l-401 -537v-4h407v-80z" />
    <glyph glyph-name="zdotaccent" unicode="&#x17c;" horiz-adv-x="502" 
d="M251 609q-58 0 -58 59q0 58 58 58q28 0 43 -15.5t15 -42.5t-15.5 -43t-42.5 -16zM447 0h-392v69l291 367v4h-290v71h389v-70l-290 -366v-4h292v-71z" />
    <glyph glyph-name="Zcaron" unicode="&#x17d;" horiz-adv-x="597" 
d="M352 774h-111l-102 132v10h83l72 -80h4l72 80h84v-10zM557 0h-517v77l402 538v4h-393v81h502v-79l-401 -537v-4h407v-80z" />
    <glyph glyph-name="zcaron" unicode="&#x17e;" horiz-adv-x="502" 
d="M307 585h-111l-102 132v10h83l72 -80h4l72 80h84v-10zM447 0h-392v69l291 367v4h-290v71h389v-70l-290 -366v-4h292v-71z" />
    <glyph glyph-name="florin" unicode="&#x192;" horiz-adv-x="434" 
d="M124 -229h-84v10l86 561h-85v70h96l23 153q22 159 170 159q32 0 64 -9v-71q-30 8 -59 8q-79 -2 -92 -91l-23 -149h132v-70h-142z" />
    <glyph glyph-name="uni01CD" unicode="&#x1cd;" horiz-adv-x="682" 
d="M498 906l-102 -132h-111l-102 132v10h83l72 -80h4l72 80h84v-10zM287 700h107l258 -690v-10h-93l-66 183h-306l-66 -183h-91v10zM338 603l-123 -342h250l-123 342h-4z" />
    <glyph glyph-name="uni01CE" unicode="&#x1ce;" horiz-adv-x="549" 
d="M327 585h-111l-102 132v10h83l72 -80h4l72 80h84v-10zM228 -9q-80 0 -130 45q-48 45 -48 113q0 72 54 116t157 44q61 0 126 -18v51q0 48 -30.5 77t-87.5 29q-53 0 -82.5 -25.5t-30.5 -65.5h-81q0 73 54 118q55 45 140 45q94 0 147 -50t53 -126v-344h-71l-6 72h-4
q-48 -81 -160 -81zM243 61q64 0 104 40t40 97v26q-59 18 -126 18q-126 0 -126 -92q0 -41 28 -65t80 -24z" />
    <glyph glyph-name="uni01CF" unicode="&#x1cf;" horiz-adv-x="288" 
d="M200 774h-111l-102 132v10h83l72 -80h4l72 80h84v-10zM188 0h-88v700h88v-700z" />
    <glyph glyph-name="uni01D0" unicode="&#x1d0;" horiz-adv-x="254" 
d="M188 585h-111l-102 132v10h83l72 -80h4l72 80h84v-10zM174 0h-84v511h84v-511z" />
    <glyph glyph-name="uni01D1" unicode="&#x1d1;" horiz-adv-x="740" 
d="M431 774h-111l-102 132v10h83l72 -80h4l72 80h84v-10zM370 709q154 0 232 -100q78 -99 78 -259q0 -159 -78 -259t-232 -100t-232 99q-78 101 -78 260t77 259q78 100 233 100zM370 627q-60 0 -104.5 -23t-68.5 -63t-35.5 -87.5t-11.5 -103.5q0 -119 52 -198t168 -79
q115 0 167 79q53 80 53 198t-53 198q-52 79 -167 79z" />
    <glyph glyph-name="uni01D2" unicode="&#x1d2;" horiz-adv-x="562" 
d="M337 585h-111l-102 132v10h83l72 -80h4l72 80h84v-10zM281 -9q-115 0 -173 73t-58 191q0 117 59 191t172 74t172 -74t59 -191t-59 -191q-58 -73 -172 -73zM281 66q73 0 109.5 49.5t36.5 139.5t-36.5 140t-109.5 50q-72 0 -109 -50.5t-37 -139.5t36.5 -139t109.5 -50z" />
    <glyph glyph-name="Gcaron" unicode="&#x1e6;" horiz-adv-x="721" 
d="M423 774h-111l-102 132v10h83l72 -80h4l72 80h84v-10zM366 -9q-148 0 -227 96q-79 97 -79 261q0 166 79 263q80 98 227 98q126 0 199 -64q74 -63 84 -169h-90q-7 69 -57.5 110t-135.5 41q-59 0 -102 -23.5t-67.5 -64t-35.5 -88t-11 -103.5q0 -118 51 -198q53 -78 165 -78
q101 0 156 61q56 62 56 156h-192v79h275v-59q0 -147 -78 -233q-78 -85 -217 -85z" />
    <glyph glyph-name="gcaron" unicode="&#x1e7;" 
d="M337 585h-111l-102 132v10h83l72 -80h4l72 80h84v-10zM283 -238q-97 0 -156 49q-61 50 -62 124h81q3 -44 38.5 -72.5t98.5 -28.5q68 0 105 38t37 100v99h-4q-48 -80 -154 -80q-105 0 -160 73q-56 74 -57 191q1 124 58.5 194.5t158.5 70.5q106 0 154 -80h4l11 71h73v-541
q0 -90 -60 -149q-61 -59 -166 -59zM281 66q70 0 108 52t38 137t-38 137.5t-108 52.5q-73 0 -109.5 -51.5t-36.5 -138.5t37 -138t109 -51z" />
    <glyph glyph-name="Scommaaccent" unicode="&#x218;" horiz-adv-x="632" 
d="M315 -9q-124 0 -193 58.5t-72 160.5h89q4 -66 49.5 -103t126.5 -37q171 0 171 122q0 47 -31 74t-94 40l-102 22q-94 21 -140 66.5t-46 122.5q0 90 64.5 141t178.5 51q113 0 180 -58q68 -57 69 -150h-89q-3 60 -44 94t-118 34q-150 0 -150 -112q0 -78 119 -104l95 -20
q199 -40 199 -201q0 -94 -70 -147.5t-192 -53.5zM314 -211h-63v10l18 150h94v-10z" />
    <glyph glyph-name="scommaaccent" unicode="&#x219;" horiz-adv-x="511" 
d="M259 -9q-93 0 -150 47.5t-59 130.5h84q0 -49 33.5 -76t91.5 -27q117 0 117 73q0 57 -78 73l-102 19q-63 13 -96.5 50t-33.5 93q0 64 51.5 105t134.5 41q88 0 142.5 -45.5t54.5 -119.5h-82q-2 46 -32.5 70t-82.5 24q-49 0 -77 -19.5t-28 -55.5q0 -58 89 -72l80 -15
q76 -18 110.5 -51.5t34.5 -96.5q0 -68 -58 -108t-144 -40zM259 -211h-63v10l18 150h94v-10z" />
    <glyph glyph-name="uni021A" unicode="&#x21a;" horiz-adv-x="592" 
d="M340 620v-620h-15l-28 -46q43 0 70 -22.5t27 -59.5q0 -41 -30 -65.5t-87 -24.5q-50 0 -81.5 24t-31.5 67h60q0 -34 52 -34q21 0 34 9t13 24q0 14 -12 23t-32 9h-32l-25 31l33 65h-3v620h-217v80h522v-80h-217z" />
    <glyph glyph-name="uni021B" unicode="&#x21b;" horiz-adv-x="381" 
d="M262 -9l-22 -37q43 0 70 -22.5t27 -59.5q0 -41 -30 -65.5t-87 -24.5q-50 0 -81.5 24t-31.5 67h60q0 -34 52 -34q21 0 34 9t13 24q0 14 -12 23t-32 9h-32l-25 31l33 65q-73 25 -73 128v312h-85v71h87v109l72 28h10v-137h125v-71h-125v-305q0 -37 16 -53.5t51 -16.5
q28 0 50 6h10v-72q-34 -8 -74 -8z" />
    <glyph glyph-name="uni0237" unicode="&#x237;" horiz-adv-x="268" 
d="M40 -238q-19 0 -40 6v71q20 -3 38 -3q66 0 66 73v602h84v-601q0 -148 -148 -148z" />
    <glyph glyph-name="circumflex" unicode="&#x2c6;" horiz-adv-x="385" 
d="M118 585h-83v10l102 132h111l102 -132v-10h-84l-72 80h-4z" />
    <glyph glyph-name="caron" unicode="&#x2c7;" horiz-adv-x="385" 
d="M248 585h-111l-102 132v10h83l72 -80h4l72 80h84v-10z" />
    <glyph glyph-name="breve" unicode="&#x2d8;" horiz-adv-x="362" 
d="M181 585q-68 0 -107 39t-39 103h73q5 -65 73 -65t73 65h73q0 -65 -38 -103.5t-108 -38.5z" />
    <glyph glyph-name="dotaccent" unicode="&#x2d9;" horiz-adv-x="176" 
d="M88 609q-58 0 -58 59q0 58 58 58q28 0 43 -15.5t15 -42.5t-15.5 -43t-42.5 -16z" />
    <glyph glyph-name="ring" unicode="&#x2da;" horiz-adv-x="293" 
d="M146 572q-48 0 -79.5 30.5t-31.5 78.5t31.5 79t79.5 31q50 0 81 -30.5t31 -79.5q0 -48 -31.5 -78.5t-80.5 -30.5zM145 633q30 -3 42.5 22.5t0 51t-42.5 23.5q-29 2 -41 -23.5t0 -51t41 -22.5z" />
    <glyph glyph-name="ogonek" unicode="&#x2db;" horiz-adv-x="235" 
d="M150 -216q-49 0 -82 28t-33 73q0 86 102 131l63 -16q-85 -40 -85 -97q0 -23 15 -35t38 -12q17 0 32 4v-68q-22 -8 -50 -8z" />
    <glyph glyph-name="tilde" unicode="&#x2dc;" horiz-adv-x="385" 
d="M253 599q-32 0 -66 22l-14 9q-23 14 -41 14q-16 0 -26.5 -11.5t-10.5 -31.5h-60v15q0 46 27 72t71 26q33 0 67 -22l14 -9q23 -14 40 -14q16 0 26.5 12t10.5 31h59v-15q0 -47 -26.5 -72.5t-70.5 -25.5z" />
    <glyph glyph-name="hungarumlaut" unicode="&#x2dd;" horiz-adv-x="364" 
d="M98 583h-63v10l54 136h102v-10zM236 583h-63v10l54 136h102v-10z" />
    <glyph glyph-name="uni0326" unicode="&#x326;" horiz-adv-x="0" 
d="M-99 -211h-63v10l18 150h94v-10z" />
    <glyph glyph-name="Wgrave" unicode="&#x1e80;" horiz-adv-x="906" 
d="M510 772h-75l-116 136v10h115l76 -136v-10zM289 0h-87l-172 690v10h85l134 -564h4l154 564h90l156 -564h4l133 564h86v-10l-174 -690h-88l-159 559h-4z" />
    <glyph glyph-name="wgrave" unicode="&#x1e81;" horiz-adv-x="750" 
d="M438 572h-75l-116 136v10h115l76 -136v-10zM252 0h-87l-145 501v10h87l102 -397h4l120 397h86l120 -397h4l102 397h85v-10l-144 -501h-87l-120 397h-4z" />
    <glyph glyph-name="Wacute" unicode="&#x1e82;" horiz-adv-x="906" 
d="M473 772h-75v10l76 136h115v-10zM289 0h-87l-172 690v10h85l134 -564h4l154 564h90l156 -564h4l133 564h86v-10l-174 -690h-88l-159 559h-4z" />
    <glyph glyph-name="wacute" unicode="&#x1e83;" horiz-adv-x="750" 
d="M401 572h-75v10l76 136h115v-10zM252 0h-87l-145 501v10h87l102 -397h4l120 397h86l120 -397h4l102 397h85v-10l-144 -501h-87l-120 397h-4z" />
    <glyph glyph-name="Wdieresis" unicode="&#x1e84;" horiz-adv-x="906" 
d="M367 798q-58 0 -58 59q0 58 58 58q28 0 43 -15.5t15 -42.5t-15.5 -43t-42.5 -16zM542 798q-58 0 -58 59q0 58 58 58q28 0 43 -15.5t15 -42.5t-15.5 -43t-42.5 -16zM289 0h-87l-172 690v10h85l134 -564h4l154 564h90l156 -564h4l133 564h86v-10l-174 -690h-88l-159 559h-4
z" />
    <glyph glyph-name="wdieresis" unicode="&#x1e85;" horiz-adv-x="750" 
d="M295 598q-58 0 -58 59q0 58 58 58q28 0 43 -15.5t15 -42.5t-15.5 -43t-42.5 -16zM470 598q-58 0 -58 59q0 58 58 58q28 0 43 -15.5t15 -42.5t-15.5 -43t-42.5 -16zM252 0h-87l-145 501v10h87l102 -397h4l120 397h86l120 -397h4l102 397h85v-10l-144 -501h-87l-120 397h-4
z" />
    <glyph glyph-name="uni1EBC" unicode="&#x1ebc;" horiz-adv-x="610" 
d="M378 788q-32 0 -66 22l-14 9q-23 14 -41 14q-16 0 -26.5 -11.5t-10.5 -31.5h-60v15q0 46 27 72t71 26q33 0 67 -22l14 -9q23 -14 40 -14q16 0 26.5 12t10.5 31h59v-15q0 -47 -26.5 -72.5t-70.5 -25.5zM550 0h-450v700h450v-80h-363v-219h332v-80h-332v-242h363v-79z" />
    <glyph glyph-name="uni1EBD" unicode="&#x1ebd;" horiz-adv-x="552" 
d="M328 599q-32 0 -66 22l-14 9q-23 14 -41 14q-16 0 -26.5 -11.5t-10.5 -31.5h-60v15q0 46 27 72t71 26q33 0 67 -22l14 -9q23 -14 40 -14q16 0 26.5 12t10.5 31h59v-15q0 -47 -26.5 -72.5t-70.5 -25.5zM282 -9q-110 0 -171 73t-61 191q0 117 59 191t172 74q105 0 163 -70
q58 -68 58 -179v-41h-364q0 -76 37.5 -120t106.5 -44q51 0 85 21.5t44 60.5h84q-11 -71 -70 -114t-143 -43zM139 300h276q0 65 -35 105t-99 40q-66 0 -103 -39.5t-39 -105.5z" />
    <glyph glyph-name="Ygrave" unicode="&#x1ef2;" horiz-adv-x="649" 
d="M387 772h-75l-116 136v10h115l76 -136v-10zM369 0h-88v292l-251 398v10h98l196 -324h4l195 324h96v-10l-250 -398v-292z" />
    <glyph glyph-name="ygrave" unicode="&#x1ef3;" horiz-adv-x="527" 
d="M328 583h-75l-116 136v10h115l76 -136v-10zM224 -229h-85v10l87 223l-1 2l-205 495v10h90l155 -401h4l150 401h88v-10z" />
    <glyph glyph-name="uni2000" unicode="&#x2000;" horiz-adv-x="490" 
 />
    <glyph glyph-name="uni2001" unicode="&#x2001;" horiz-adv-x="980" 
 />
    <glyph glyph-name="uni2002" unicode="&#x2002;" horiz-adv-x="490" 
 />
    <glyph glyph-name="uni2003" unicode="&#x2003;" horiz-adv-x="980" 
 />
    <glyph glyph-name="uni2004" unicode="&#x2004;" horiz-adv-x="326" 
 />
    <glyph glyph-name="uni2005" unicode="&#x2005;" horiz-adv-x="245" 
 />
    <glyph glyph-name="uni2006" unicode="&#x2006;" horiz-adv-x="163" 
 />
    <glyph glyph-name="uni2007" unicode="&#x2007;" horiz-adv-x="163" 
 />
    <glyph glyph-name="uni2008" unicode="&#x2008;" horiz-adv-x="122" 
 />
    <glyph glyph-name="uni2009" unicode="&#x2009;" horiz-adv-x="196" 
 />
    <glyph glyph-name="uni200A" unicode="&#x200a;" horiz-adv-x="54" 
 />
    <glyph glyph-name="uni2010" unicode="&#x2010;" horiz-adv-x="466" 
d="M386 254h-306v78h306v-78z" />
    <glyph glyph-name="uni2011" unicode="&#x2011;" horiz-adv-x="466" 
d="M386 254h-306v78h306v-78z" />
    <glyph glyph-name="figuredash" unicode="&#x2012;" horiz-adv-x="466" 
d="M386 254h-306v78h306v-78z" />
    <glyph glyph-name="endash" unicode="&#x2013;" horiz-adv-x="622" 
d="M562 254h-502v78h502v-78z" />
    <glyph glyph-name="emdash" unicode="&#x2014;" horiz-adv-x="1102" 
d="M1042 254h-982v78h982v-78z" />
    <glyph glyph-name="quoteleft" unicode="&#x2018;" horiz-adv-x="214" 
d="M104 700h68v-10l-31 -227h-99v10z" />
    <glyph glyph-name="quoteright" unicode="&#x2019;" horiz-adv-x="214" 
d="M110 463h-68v10l31 227h99v-10z" />
    <glyph glyph-name="quotesinglbase" unicode="&#x201a;" horiz-adv-x="214" 
d="M110 -134h-68v10l31 227h99v-10z" />
    <glyph glyph-name="quotedblleft" unicode="&#x201c;" horiz-adv-x="384" 
d="M104 700h68v-10l-31 -227h-99v10zM274 700h68v-10l-31 -227h-99v10z" />
    <glyph glyph-name="quotedblright" unicode="&#x201d;" horiz-adv-x="384" 
d="M110 463h-68v10l31 227h99v-10zM280 463h-68v10l31 227h99v-10z" />
    <glyph glyph-name="quotedblbase" unicode="&#x201e;" horiz-adv-x="384" 
d="M110 -134h-68v10l31 227h99v-10zM280 -134h-68v10l31 227h99v-10z" />
    <glyph glyph-name="dagger" unicode="&#x2020;" horiz-adv-x="494" 
d="M284 557h110v-72h-110v-149l-10 -165h-54l-10 165v149h-110v72h110v143h74v-143z" />
    <glyph glyph-name="daggerdbl" unicode="&#x2021;" horiz-adv-x="494" 
d="M394 485h-112l-8 -135l8 -134h112v-72h-110v-143h-74v143h-110v72h112l8 134l-8 135h-112v72h110v143h74v-143h110v-72z" />
    <glyph glyph-name="bullet" unicode="&#x2022;" horiz-adv-x="386" 
d="M193 156q-63 0 -98 37t-35 101q0 62 35 98.5t98 36.5q62 0 97.5 -37t35.5 -98q0 -63 -35.5 -100.5t-97.5 -37.5z" />
    <glyph glyph-name="ellipsis" unicode="&#x2026;" horiz-adv-x="790" 
d="M125 -9q-29 0 -44 16.5t-15 44.5q0 27 16 43.5t43 16.5t43 -16.5t16 -43.5q0 -28 -15.5 -44.5t-43.5 -16.5zM395 -9q-29 0 -44 16.5t-15 44.5q0 27 16 43.5t43 16.5t43 -16.5t16 -43.5q0 -28 -15.5 -44.5t-43.5 -16.5zM665 -9q-29 0 -44 16.5t-15 44.5q0 27 16 43.5
t43 16.5t43 -16.5t16 -43.5q0 -28 -15.5 -44.5t-43.5 -16.5z" />
    <glyph glyph-name="uni202F" unicode="&#x202f;" horiz-adv-x="196" 
 />
    <glyph glyph-name="perthousand" unicode="&#x2030;" horiz-adv-x="1204" 
d="M327 398q-36 -50 -110 -50q-73 0 -111 50q-36 50 -36 132t36 132q38 50 111 50q74 0 110 -50q37 -49 37 -132t-37 -132zM230 0h-79v10l474 690h77v-10zM141 530q0 -118 76 -118t76 118t-76 118t-76 -118zM747 41q-36 -50 -110 -50q-73 0 -111 50q-36 49 -36 132t36 132
q38 50 111 50q74 0 110 -50q37 -49 37 -132t-37 -132zM1097 41q-36 -50 -110 -50q-73 0 -111 50q-36 49 -36 132t36 132q38 50 111 50q74 0 110 -50q37 -49 37 -132t-37 -132zM561 173q0 -118 76 -118t76 118t-76 118t-76 -118zM911 173q0 -118 76 -118t76 118t-76 118
t-76 -118z" />
    <glyph glyph-name="guilsinglleft" unicode="&#x2039;" horiz-adv-x="342" 
d="M282 66h-76l-166 212v10l166 212h76v-10l-140 -207l140 -207v-10z" />
    <glyph glyph-name="guilsinglright" unicode="&#x203a;" horiz-adv-x="342" 
d="M136 66h-76v10l140 207l-140 207v10h76l166 -212v-10z" />
    <glyph glyph-name="fraction" unicode="&#x2044;" horiz-adv-x="531" 
d="M69 -100h-79v10l474 890h77v-10z" />
    <glyph glyph-name="uni205F" unicode="&#x205f;" horiz-adv-x="245" 
 />
    <glyph glyph-name="Euro" unicode="&#x20ac;" horiz-adv-x="759" 
d="M419 72q164 0 191 155h89q-15 -112 -87 -174t-193 -62q-118 0 -193.5 62.5t-102.5 176.5h-63v76h52q-2 38 -2 43q0 28 1 36h-51v76h61q24 117 101.5 182.5t196.5 65.5q123 0 196 -64.5t84 -178.5h-90q-9 77 -57 119t-133 42q-81 0 -132.5 -43.5t-72.5 -122.5h271l-20 -76
h-264q-1 -8 -1 -36q0 -5 2 -43h248l-20 -76h-214q47 -158 203 -158z" />
    <glyph glyph-name="uni2116" unicode="&#x2116;" horiz-adv-x="1157" 
d="M725 521q0 86 43 137t123 51t123 -51t43 -137t-42.5 -137t-123.5 -51t-123.5 50.5t-42.5 137.5zM185 0h-85v700h95l358 -557h4v557h86v-700h-96l-358 554h-4v-554zM891 402q93 0 93 119t-93 119t-93 -119q0 -56 23.5 -87.5t69.5 -31.5zM1050 206h-306v71h306v-71z" />
    <glyph glyph-name="trademark" unicode="&#x2122;" horiz-adv-x="733" 
d="M198 373h-61v269h-102v58h264v-58h-101v-269zM413 373h-58v327h68l103 -174h2l103 174h67v-327h-58v234h-2l-106 -178h-10l-107 179h-2v-235z" />
    <glyph glyph-name="minus" unicode="&#x2212;" horiz-adv-x="476" 
d="M471 277h-466v72h466v-72z" />
    <glyph glyph-name="notequal" unicode="&#x2260;" horiz-adv-x="476" 
d="M471 442v-72h-158l-72 -118h230v-72h-275l-49 -80h-72v10l43 70h-113v72h158l72 118h-230v72h275l49 80h72v-10l-43 -70h113z" />
    <glyph glyph-name="lessequal" unicode="&#x2264;" horiz-adv-x="521" 
d="M471 209v-81l-421 184v100l421 184v-81l-357 -151v-4zM471 0h-421v72h421v-72z" />
    <glyph glyph-name="greaterequal" unicode="&#x2265;" horiz-adv-x="521" 
d="M471 312l-421 -184v81l357 151v4l-357 151v81l421 -184v-100zM471 0h-421v72h421v-72z" />
    <glyph glyph-name="uni25FC" unicode="&#x25fc;" horiz-adv-x="510" 
d="M0 0v510h510v-510h-510z" />
    <glyph glyph-name="NULL" horiz-adv-x="0" 
 />
    <glyph glyph-name="CR" horiz-adv-x="333" 
 />
    <glyph glyph-name="i.loclTRK" horiz-adv-x="254" 
d="M132 609q-58 0 -58 59q0 58 58 58q28 0 43 -15.5t15 -42.5t-15.5 -43t-42.5 -16zM174 0h-84v511h84v-511z" />
    <glyph glyph-name="a.ss01" 
d="M268 -9q-105 0 -162 73q-56 74 -56 190q0 118 56 192t161 74q106 0 154 -80h4l11 71h73v-511h-73l-7 71h-4q-21 -37 -62 -58.5t-95 -21.5zM281 66q71 0 108.5 51.5t37.5 137.5q0 85 -38 137.5t-108 52.5q-73 0 -109.5 -51.5t-36.5 -138.5q0 -88 36.5 -138.5t109.5 -50.5z
" />
    <glyph glyph-name="aacute.ss01" 
d="M316 583h-75v10l76 136h115v-10zM268 -9q-105 0 -162 73q-56 74 -56 190q0 118 56 192t161 74q106 0 154 -80h4l11 71h73v-511h-73l-7 71h-4q-21 -37 -62 -58.5t-95 -21.5zM281 66q71 0 108.5 51.5t37.5 137.5q0 85 -38 137.5t-108 52.5q-73 0 -109.5 -51.5t-36.5 -138.5
q0 -88 36.5 -138.5t109.5 -50.5z" />
    <glyph glyph-name="abreve.ss01" 
d="M294 585q-68 0 -107 39t-39 103h73q5 -65 73 -65t73 65h73q0 -65 -38 -103.5t-108 -38.5zM268 -9q-105 0 -162 73q-56 74 -56 190q0 118 56 192t161 74q106 0 154 -80h4l11 71h73v-511h-73l-7 71h-4q-21 -37 -62 -58.5t-95 -21.5zM281 66q71 0 108.5 51.5t37.5 137.5
q0 85 -38 137.5t-108 52.5q-73 0 -109.5 -51.5t-36.5 -138.5q0 -88 36.5 -138.5t109.5 -50.5z" />
    <glyph glyph-name="uni01CE.ss01" 
d="M350 585h-111l-102 132v10h83l72 -80h4l72 80h84v-10zM268 -9q-105 0 -162 73q-56 74 -56 190q0 118 56 192t161 74q106 0 154 -80h4l11 71h73v-511h-73l-7 71h-4q-21 -37 -62 -58.5t-95 -21.5zM281 66q71 0 108.5 51.5t37.5 137.5q0 85 -38 137.5t-108 52.5
q-73 0 -109.5 -51.5t-36.5 -138.5q0 -88 36.5 -138.5t109.5 -50.5z" />
    <glyph glyph-name="acircumflex.ss01" 
d="M223 585h-83v10l102 132h111l102 -132v-10h-84l-72 80h-4zM268 -9q-105 0 -162 73q-56 74 -56 190q0 118 56 192t161 74q106 0 154 -80h4l11 71h73v-511h-73l-7 71h-4q-21 -37 -62 -58.5t-95 -21.5zM281 66q71 0 108.5 51.5t37.5 137.5q0 85 -38 137.5t-108 52.5
q-73 0 -109.5 -51.5t-36.5 -138.5q0 -88 36.5 -138.5t109.5 -50.5z" />
    <glyph glyph-name="adieresis.ss01" 
d="M210 609q-58 0 -58 59q0 58 58 58q28 0 43 -15.5t15 -42.5t-15.5 -43t-42.5 -16zM385 609q-58 0 -58 59q0 58 58 58q28 0 43 -15.5t15 -42.5t-15.5 -43t-42.5 -16zM268 -9q-105 0 -162 73q-56 74 -56 190q0 118 56 192t161 74q106 0 154 -80h4l11 71h73v-511h-73l-7 71
h-4q-21 -37 -62 -58.5t-95 -21.5zM281 66q71 0 108.5 51.5t37.5 137.5q0 85 -38 137.5t-108 52.5q-73 0 -109.5 -51.5t-36.5 -138.5q0 -88 36.5 -138.5t109.5 -50.5z" />
    <glyph glyph-name="agrave.ss01" 
d="M353 583h-75l-116 136v10h115l76 -136v-10zM268 -9q-105 0 -162 73q-56 74 -56 190q0 118 56 192t161 74q106 0 154 -80h4l11 71h73v-511h-73l-7 71h-4q-21 -37 -62 -58.5t-95 -21.5zM281 66q71 0 108.5 51.5t37.5 137.5q0 85 -38 137.5t-108 52.5q-73 0 -109.5 -51.5
t-36.5 -138.5q0 -88 36.5 -138.5t109.5 -50.5z" />
    <glyph glyph-name="amacron.ss01" 
d="M433 617h-273v81h273v-81zM268 -9q-105 0 -162 73q-56 74 -56 190q0 118 56 192t161 74q106 0 154 -80h4l11 71h73v-511h-73l-7 71h-4q-21 -37 -62 -58.5t-95 -21.5zM281 66q71 0 108.5 51.5t37.5 137.5q0 85 -38 137.5t-108 52.5q-73 0 -109.5 -51.5t-36.5 -138.5
q0 -88 36.5 -138.5t109.5 -50.5z" />
    <glyph glyph-name="aogonek.ss01" 
d="M509 511v-511q-85 -40 -85 -97q0 -23 15 -35t38 -12q17 0 32 4v-68q-22 -8 -50 -8q-49 0 -82 28t-33 73q0 83 91 126l-6 60h-4q-21 -37 -62 -58.5t-95 -21.5q-105 0 -162 73q-56 74 -56 190q0 118 56 192t161 74q106 0 154 -80h4l11 71h73zM281 66q71 0 108.5 51.5
t37.5 137.5q0 85 -38 137.5t-108 52.5q-73 0 -109.5 -51.5t-36.5 -138.5q0 -88 36.5 -138.5t109.5 -50.5z" />
    <glyph glyph-name="aring.ss01" 
d="M294 572q-48 0 -79.5 30.5t-31.5 78.5t31.5 79t79.5 31q50 0 81 -30.5t31 -79.5q0 -48 -31.5 -78.5t-80.5 -30.5zM293 633q30 -3 42.5 22.5t0 51t-42.5 23.5q-29 2 -41 -23.5t0 -51t41 -22.5zM268 -9q-105 0 -162 73q-56 74 -56 190q0 118 56 192t161 74q106 0 154 -80h4
l11 71h73v-511h-73l-7 71h-4q-21 -37 -62 -58.5t-95 -21.5zM281 66q71 0 108.5 51.5t37.5 137.5q0 85 -38 137.5t-108 52.5q-73 0 -109.5 -51.5t-36.5 -138.5q0 -88 36.5 -138.5t109.5 -50.5z" />
    <glyph glyph-name="atilde.ss01" 
d="M341 599q-32 0 -66 22l-14 9q-23 14 -41 14q-16 0 -26.5 -11.5t-10.5 -31.5h-60v15q0 46 27 72t71 26q33 0 67 -22l14 -9q23 -14 40 -14q16 0 26.5 12t10.5 31h59v-15q0 -47 -26.5 -72.5t-70.5 -25.5zM268 -9q-105 0 -162 73q-56 74 -56 190q0 118 56 192t161 74
q106 0 154 -80h4l11 71h73v-511h-73l-7 71h-4q-21 -37 -62 -58.5t-95 -21.5zM281 66q71 0 108.5 51.5t37.5 137.5q0 85 -38 137.5t-108 52.5q-73 0 -109.5 -51.5t-36.5 -138.5q0 -88 36.5 -138.5t109.5 -50.5z" />
    <glyph glyph-name="caron.Slovak" horiz-adv-x="174" 
d="M99 530h-59v170h94v-10z" />
    </font>
</defs>
</svg>
