<svg xmlns="http://www.w3.org/2000/svg" xmlns:xlink="http://www.w3.org/1999/xlink" width="75" height="75" viewBox="0 0 75 75"><defs><style>.a{fill:#e0e0e0;}.b{clip-path:url(#a);}.c{fill:#333360;}</style><clipPath id="a"><rect class="a" width="75" height="75" transform="translate(575 2039)"/></clipPath></defs><g class="b" transform="translate(-575 -2039)"><g transform="translate(578.893 2039)"><path class="c" d="M134.8,74.05a9.144,9.144,0,0,0,2.362-.712l.488-.225-.075-3.6,3.488.75.3-.45a10.139,10.139,0,0,0,1.163-2.175l.188-.525-2.587-2.475,3-1.95-.113-.562a10.127,10.127,0,0,0-.713-2.363l-.225-.488-3.562.075.75-3.487-.45-.3a10.138,10.138,0,0,0-2.175-1.163l-.525-.187L133.638,56.8l-1.95-3-.562.112a10.127,10.127,0,0,0-2.363.713l-.488.225.075,3.563-3.487-.75-.3.45a10.138,10.138,0,0,0-1.162,2.175l-.187.525,2.588,2.475-3,1.95.113.563a10.127,10.127,0,0,0,.713,2.363l.225.488,3.562-.075-.75,3.487.45.3a8.793,8.793,0,0,0,2.1,1.125.138.138,0,0,0,.113.038l.525.188,2.475-2.588,1.912,3Zm-2.213-4.837H132.4l-.412-.038L129.475,71.8c-.3-.15-.6-.3-.862-.45l.787-3.562-.713-.863L125.05,67a9.049,9.049,0,0,1-.3-.937l3-2.062.038-.412a.826.826,0,0,1,.038-.3l.037-.412-2.625-2.513c.15-.3.3-.6.45-.862l3.562.75.9-.75-.075-3.638a9.047,9.047,0,0,1,.938-.3l1.95,3.075.412.037a.826.826,0,0,1,.3.037l.412.038,2.512-2.625c.3.15.6.3.863.45l-.787,3.563.75.9,3.637-.075a9.047,9.047,0,0,1,.3.938l-3.075,1.95-.038.412a.826.826,0,0,1-.037.3l-.037.412,2.625,2.513c-.15.3-.3.6-.45.862l-3.562-.787-.9.713.075,3.637a8.754,8.754,0,0,1-.937.263l-1.95-3.075Zm4.35-5.475a3.862,3.862,0,1,0-3.862,3.863A3.857,3.857,0,0,0,136.938,63.738Zm-3.862,2.175a2.175,2.175,0,1,1,2.175-2.175A2.177,2.177,0,0,1,133.075,65.912Z" transform="translate(-80.677 -33.588)"/><path class="c" d="M42.388,23.638A8.887,8.887,0,1,0,33.5,32.525,8.906,8.906,0,0,0,42.388,23.638ZM33.5,30.875a7.219,7.219,0,1,1,7.238-7.2A7.242,7.242,0,0,1,33.5,30.875Zm0-9.975a2.775,2.775,0,1,0,2.775,2.775A2.769,2.769,0,0,0,33.5,20.9Zm0,3.862a1.088,1.088,0,1,1,1.088-1.088A1.113,1.113,0,0,1,33.5,24.763ZM38.113,36.35a9.558,9.558,0,0,0,1.612.862,7.919,7.919,0,0,0,1.238-.675,7.921,7.921,0,0,0,1.162-.788,13.938,13.938,0,0,0-.187-3.562l.638-.675c.262-.3.45-.6.712-.937a13.079,13.079,0,0,0,3.525-.488,7.987,7.987,0,0,0,.525-1.312,9.272,9.272,0,0,0,.412-1.35A13.794,13.794,0,0,0,46.588,26a12.736,12.736,0,0,0-1.275-1.2l.037-.937L45.275,22.7a12.5,12.5,0,0,0,2.363-2.663c-.113-.45-.263-.9-.413-1.35a9.87,9.87,0,0,0-.562-1.312,15.179,15.179,0,0,0-1.8-.337,9.25,9.25,0,0,0-1.763-.075c-.187-.263-.375-.487-.562-.75-.262-.263-.525-.562-.787-.862.075-.562.15-1.125.188-1.763a14.451,14.451,0,0,0-.075-1.8A17.635,17.635,0,0,0,39.425,10.4a12.922,12.922,0,0,0-3,1.95,7.68,7.68,0,0,0-.9-.187,10.91,10.91,0,0,0-1.163-.15,16.508,16.508,0,0,0-.975-1.462c-.375-.45-.787-.9-1.2-1.35a13.941,13.941,0,0,0-2.775.525,13.541,13.541,0,0,0-.638,1.725,8.832,8.832,0,0,0-.375,1.725,8.946,8.946,0,0,0-.825.45,8.724,8.724,0,0,0-.975.637,13.115,13.115,0,0,0-3.488-.75l-.937,1.05-.862,1.125c.188.6.375,1.2.6,1.725s.525,1.087.787,1.575a5.893,5.893,0,0,0-.337.862l-.187.525-.15.563a12.844,12.844,0,0,0-3.15,1.688c-.038.488-.075.938-.075,1.425.038.487.038.938.075,1.425a13.423,13.423,0,0,0,3.188,1.613,8.439,8.439,0,0,0,.3.9l.188.525.263.525a13.553,13.553,0,0,0-1.35,3.3A14.5,14.5,0,0,0,23.3,34.475a12.869,12.869,0,0,0,1.8-.3c.6-.15,1.162-.338,1.688-.525a8.972,8.972,0,0,0,.787.488c.338.225.675.337,1.013.525A12.318,12.318,0,0,0,29,36.35a13.193,13.193,0,0,0,.675,1.688c.45.113.9.225,1.388.3a8.721,8.721,0,0,0,1.387.15,13.819,13.819,0,0,0,1.2-1.388,10.631,10.631,0,0,0,.938-1.463c.3-.037.6-.075.938-.15a6.1,6.1,0,0,0,1.125-.263A8.027,8.027,0,0,0,38.113,36.35ZM35.3,34.175l-.675.112a4.076,4.076,0,0,1-.675.037,11.364,11.364,0,0,1-.9,1.425,12.626,12.626,0,0,1-1.125,1.35c-.375-.075-.75-.113-1.125-.187a11.038,11.038,0,0,1-.638-1.613,13.265,13.265,0,0,1-.413-1.65,4.064,4.064,0,0,1-.712-.3,6.517,6.517,0,0,1-.712-.375l-.6-.338-.562-.412a8,8,0,0,1-1.612.487,13.843,13.843,0,0,1-1.725.3c-.263-.3-.525-.562-.75-.863A17.09,17.09,0,0,1,23.6,30.5a13.981,13.981,0,0,1,.75-1.5,11.876,11.876,0,0,1-.637-1.425,7.551,7.551,0,0,1-.375-1.312A12.866,12.866,0,0,1,20.3,24.725a6.017,6.017,0,0,1,0-1.163,15.939,15.939,0,0,1,1.462-.937c.525-.262,1.05-.487,1.538-.675a11.392,11.392,0,0,1,.45-1.5,7.745,7.745,0,0,1,.563-1.275,12.48,12.48,0,0,1-1.35-3.15c.225-.3.45-.6.713-.9a12.013,12.013,0,0,1,3.337.712l.638-.487c.225-.15.45-.263.675-.413a7.535,7.535,0,0,1,1.237-.6,14.727,14.727,0,0,1,.375-1.65,9.956,9.956,0,0,1,.638-1.65A5.875,5.875,0,0,1,31.7,10.85a12.663,12.663,0,0,1,1.163,1.313A11.258,11.258,0,0,1,33.8,13.55l.787.038.787.112c.45.038.9.225,1.35.3q.619-.506,1.35-1.013a10.164,10.164,0,0,1,1.537-.862c.338.15.675.375,1.013.563a9.165,9.165,0,0,1,.037,1.763,12.905,12.905,0,0,1-.187,1.688,7.715,7.715,0,0,1,1.088,1.125c.262.375.563.713.825,1.125a12.992,12.992,0,0,1,1.688.075A15.514,15.514,0,0,1,45.8,18.8l.412,1.088a11.632,11.632,0,0,1-2.325,2.55c.113.525.075,1.05.15,1.575a8.655,8.655,0,0,1-.112,1.388,8.941,8.941,0,0,1,1.237,1.162q.563.619,1.125,1.35c-.112.375-.263.712-.375,1.087a12.036,12.036,0,0,1-3.412.45,15.545,15.545,0,0,1-.9,1.275,6,6,0,0,1-.975.975,12.787,12.787,0,0,1,.188,3.412c-.338.188-.638.412-.975.6a14.821,14.821,0,0,1-1.537-.825,9.06,9.06,0,0,1-1.35-1.013,4.383,4.383,0,0,1-.75.225A3.224,3.224,0,0,0,35.3,34.175Z" transform="translate(-15.677 -5.713)"/><path class="c" d="M90.128,103.425c-.112-3.75-.525-5.963-2.475-5.963a2.152,2.152,0,0,0-1.725,1.012c-.037.038-.037.075-.075.113-.038-.037-.038-.075-.075-.113a2.065,2.065,0,0,0-1.65-1.012,2.219,2.219,0,0,0-1.687.938c-.075.075-.15.188-.187.225-.075-.075-.112-.15-.187-.225a2.026,2.026,0,0,0-1.612-.975,1.824,1.824,0,0,0-1.163.45L78.465,85.5a2.255,2.255,0,0,0-2.25-2.1,2.128,2.128,0,0,0-2.137,2.1l-.525,17.325A18.881,18.881,0,0,0,70.29,99.15c-1.35-.975-3.262-1.5-4.162-.525-.375.375-.825,1.238.375,2.775,1.875,2.438,2.4,4.912,2.963,7.763l.338,1.688a13.081,13.081,0,0,0,3.3,6.75.825.825,0,0,0-.788.825v7.837a.832.832,0,0,0,.825.825H87.953a.832.832,0,0,0,.825-.825v-7.837a.832.832,0,0,0-.825-.825h-.3C90.09,114.187,90.24,108.037,90.128,103.425Zm-3,22.05H74v-6.15H87.128ZM85.4,117.638H75.84c-1.538-.9-3.375-2.513-4.387-7.088l-.338-1.687c-.6-2.925-1.162-5.7-3.262-8.437a3.341,3.341,0,0,1-.375-.6,3.24,3.24,0,0,1,1.875.712c1.313.938,3.525,4.163,4.275,5.325a.817.817,0,0,0,.938.338.844.844,0,0,0,.6-.788l.6-19.838a.5.5,0,0,1,.487-.488.545.545,0,0,1,.563.525l.938,13.838a.825.825,0,0,0,.825.787,2.052,2.052,0,0,0,1.612-.863c.075-.075.225-.262.263-.262a1.362,1.362,0,0,1,.3.338,1.654,1.654,0,0,0,2.925.037c.188-.225.338-.375.413-.375s.188.15.337.338a1.821,1.821,0,0,0,1.425.9,1.782,1.782,0,0,0,1.387-.863c.225-.3.3-.375.413-.375s.712.225.787,4.313C88.665,111,87.653,115.763,85.4,117.638Z" transform="translate(-45.005 -52.088)"/><path class="c" d="M29.12,34.887a.832.832,0,0,1-.825.825,14.138,14.138,0,0,1-2.175-.15.833.833,0,0,1,.225-1.65,17.167,17.167,0,0,0,1.987.113A.889.889,0,0,1,29.12,34.887Zm24.413,6.6a.9.9,0,0,0,.525.188.859.859,0,0,0,.638-.3.8.8,0,0,0-.113-1.162A15.6,15.6,0,0,1,52,37.362a.837.837,0,1,0-1.387.938A16.991,16.991,0,0,0,53.533,41.487ZM45.058,16.813c.413,1.35.713,2.625.975,3.9a.811.811,0,0,0,.825.675h.15a.8.8,0,0,0,.637-.975c-.262-1.312-.6-2.625-1.012-4.05a.816.816,0,0,0-1.05-.562A.785.785,0,0,0,45.058,16.813ZM48.7,27.688c-.15-.937-.262-1.838-.375-2.738-.037-.412-.112-.862-.15-1.275a.833.833,0,0,0-1.65.225c.037.412.112.862.15,1.275.112.938.225,1.837.375,2.813a.843.843,0,0,0,.825.712h.15A.886.886,0,0,0,48.7,27.688Zm26.437-2.513a12.755,12.755,0,0,1,.9,3.75.818.818,0,0,0,.825.75h.075a.836.836,0,0,0,.75-.9,13.5,13.5,0,0,0-1.012-4.2.841.841,0,0,0-1.087-.45A.763.763,0,0,0,75.133,25.175ZM48.62,34.137c.113.375.263.75.413,1.125a.848.848,0,0,0,.787.525.706.706,0,0,0,.3-.075.841.841,0,0,0,.45-1.088c-.15-.338-.263-.675-.375-1.013-.338-.975-.6-1.875-.825-2.775a.832.832,0,1,0-1.612.413A24.763,24.763,0,0,0,48.62,34.137Zm25.05-11.7a.8.8,0,0,0,.675.337.825.825,0,0,0,.488-.15.835.835,0,0,0,.188-1.163,14.777,14.777,0,0,0-2.962-3.15.829.829,0,1,0-1.013,1.313A15.573,15.573,0,0,1,73.67,22.438ZM43.9,13.325l.15.413a.846.846,0,0,0,.787.563.638.638,0,0,0,.263-.038.825.825,0,0,0,.525-1.05l-.15-.413a19.271,19.271,0,0,0-1.613-3.45.823.823,0,0,0-1.425.825A18.53,18.53,0,0,1,43.9,13.325ZM23.27,33.275a15.122,15.122,0,0,1-3.525-1.65.843.843,0,1,0-.9,1.425,18.408,18.408,0,0,0,3.9,1.8.638.638,0,0,0,.263.037.846.846,0,0,0,.788-.562A.811.811,0,0,0,23.27,33.275Zm37.575,9.787A12.141,12.141,0,0,1,57.208,41.9a.839.839,0,1,0-.75,1.5,14.7,14.7,0,0,0,4.125,1.313H60.7A.843.843,0,0,0,61.52,44,.81.81,0,0,0,60.845,43.063Zm6.825-.713a14.341,14.341,0,0,1-3.75.863.836.836,0,0,0-.75.9A.851.851,0,0,0,64,44.9h.075a15.126,15.126,0,0,0,4.238-.975.863.863,0,0,0,.488-1.087A.882.882,0,0,0,67.67,42.35ZM13.3,24.05a16.411,16.411,0,0,1-1.05-3.75.838.838,0,0,0-.937-.712.867.867,0,0,0-.712.938,17.3,17.3,0,0,0,1.162,4.125.848.848,0,0,0,.788.525.706.706,0,0,0,.3-.075A.787.787,0,0,0,13.3,24.05Zm1.462,2.737a.837.837,0,0,0-1.388.938,17.752,17.752,0,0,0,2.775,3.262.827.827,0,0,0,.563.225.746.746,0,0,0,.6-.263.826.826,0,0,0-.038-1.162A19.038,19.038,0,0,1,14.758,26.788Zm62.1,4.5A.838.838,0,0,0,75.92,32,12.65,12.65,0,0,1,74.8,35.675a.88.88,0,0,0,.412,1.125,1.1,1.1,0,0,0,.338.075.862.862,0,0,0,.75-.488,13.348,13.348,0,0,0,1.237-4.162A.769.769,0,0,0,76.858,31.288Zm-3.675,6.975a13.367,13.367,0,0,1-2.812,2.625.843.843,0,0,0,.45,1.537.825.825,0,0,0,.488-.15,14.778,14.778,0,0,0,3.15-2.963.826.826,0,0,0-1.275-1.05ZM24.358,2.075a.338.338,0,0,0,.188-.038,15.784,15.784,0,0,1,3.75-.45h.112a.832.832,0,0,0,.825-.825A.892.892,0,0,0,28.408-.1L28.3-.063A17,17,0,0,0,24.17.425a.827.827,0,0,0-.6,1.013A.8.8,0,0,0,24.358,2.075Zm-13.125,15.9h0a.811.811,0,0,0,.863-.787,14.583,14.583,0,0,1,.637-3.825.819.819,0,1,0-1.575-.45,16.383,16.383,0,0,0-.675,4.237A.743.743,0,0,0,11.233,17.975ZM31.52,1.925A16.433,16.433,0,0,1,35.2,3.2a.523.523,0,0,0,.338.112.9.9,0,0,0,.75-.45.864.864,0,0,0-.375-1.125A17.963,17.963,0,0,0,31.858.312a.822.822,0,0,0-.975.638A.8.8,0,0,0,31.52,1.925Zm9.113,5.662a.859.859,0,0,0,.638.3A.9.9,0,0,0,41.8,7.7a.832.832,0,0,0,.112-1.163,19.1,19.1,0,0,0-3.075-2.962A.829.829,0,0,0,37.82,4.887,17.33,17.33,0,0,1,40.633,7.587Zm-27.9,3.225a.676.676,0,0,0,.375.075.825.825,0,0,0,.75-.45,15.7,15.7,0,0,1,2.175-3.225A.824.824,0,0,0,14.8,6.125a17.462,17.462,0,0,0-2.4,3.563A.817.817,0,0,0,12.733,10.813Zm5.025-5.588a.9.9,0,0,0,.525-.187A15.851,15.851,0,0,1,21.62,3.013a.822.822,0,1,0-.675-1.5A19.132,19.132,0,0,0,17.27,3.725a.838.838,0,0,0-.15,1.163A.7.7,0,0,0,17.758,5.225ZM67.3,17.6c.337.112.675.262,1.012.412a1.1,1.1,0,0,0,.338.075.824.824,0,0,0,.337-1.575,9.24,9.24,0,0,0-1.425-.525l.3-1.8L62.87,16.062,67,19.437Z" transform="translate(-10.472 0.1)"/></g></g></svg>